<?xml version="1.0" encoding="UTF-8" standalone="no"?>
<svg
   xmlns:dc="http://purl.org/dc/elements/1.1/"
   xmlns:cc="http://creativecommons.org/ns#"
   xmlns:rdf="http://www.w3.org/1999/02/22-rdf-syntax-ns#"
   xmlns:svg="http://www.w3.org/2000/svg"
   xmlns="http://www.w3.org/2000/svg"
   height="50.261177"
   width="50.281223"
   id="svg247"
   version="1.1"
   viewBox="0 0 50.281223 50.261177">
  <metadata
     id="metadata251">
    <rdf:RDF>
      <cc:Work
         rdf:about="">
        <dc:format>image/svg+xml</dc:format>
        <dc:type
           rdf:resource="http://purl.org/dc/dcmitype/StillImage" />
        <dc:title>Off Icon_Inactive </dc:title>
      </cc:Work>
    </rdf:RDF>
  </metadata>
  <defs
     id="defs170">
    <style
       id="style168">.cls-1{fill:#576385;}.cls-2{fill:#132035;}.cls-3{fill:#181866;}.cls-4{fill:none;}.cls-5{fill:#41ffc7;}.cls-6{fill:#c2ffe6;}.cls-7{fill:#47ffe0;}.cls-8{fill:#37d8ad;}</style>
  </defs>
  <title
     id="title172">Off Icon_Inactive </title>
  <g
     transform="translate(-6.8587806,-5.8591164)"
     id="g452">
    <polygon
       class="cls-4"
       points="45.66,37.8 45.66,37.79 "
       id="polygon202"
       style="fill:none" />
    <path
       class="cls-5"
       d="m 18.64,33.78 -0.79,-1.08 -0.8,-1.1 0.82,-1.07 9.75,-12.62 0.28,0.16 -5.28,12.36 0.92,-0.78 2.88,-2.42 0.35,-0.3 1.31,-1.1 8.34,-7 L 36.1,18.1 36.38,17.94 36.81,18.5 45,11.62 44.91,11.55 A 23.31,23.31 0 0 0 10.7,40.47 l 7.82,-6.59 z"
       id="path204"
       style="fill:#41ffc7" />
    <path
       class="cls-5"
       d="m 55.09,27.85 a 23.13,23.13 0 0 0 -1.76,-6.26 l -8.55,7.2 1.35,1.74 0.87,1.07 -0.8,1.1 -6.48,8.89 1.24,-0.67 c 0.91,-0.57 3.27,-2 4.75,-3.13 v 0 c 0.85,-0.63 1.67,-1.3 2.47,-2 l 0.24,-0.21 c 0.76,-0.67 1.49,-1.36 2.2,-2.06 l 0.36,-0.36 q 1,-1.06 2,-2.19 l 0.29,-0.34 c 0.66,-0.79 1.3,-1.6 1.91,-2.42 C 55.12,28.09 55.11,28 55.09,27.85 Z"
       id="path206"
       style="fill:#41ffc7" />
    <path
       class="cls-5"
       d="m 23.64,46.61 h 0.14 c 0.78,-0.08 1.56,-0.19 2.34,-0.32 0.33,-0.05 0.65,-0.12 1,-0.19 l 0.45,-0.08 -1.22,-1.67 z"
       id="path208"
       style="fill:#41ffc7" />
    <path
       class="cls-5"
       d="m 41.77,31.33 -0.66,0.55 -3,2.55 -0.84,0.7 -10.27,8.63 0.88,2.17 v 0 l 0.53,-0.1 1.28,-0.32 0.95,-0.25 c 0.5,-0.14 1,-0.3 1.49,-0.46 l 0.69,-0.22 c 0.55,-0.18 1.09,-0.39 1.64,-0.59 l 0.47,-0.19 c 0.59,-0.23 1.18,-0.48 1.77,-0.74 l 0.29,-0.13 0.41,-0.21 4.51,-11.07 z"
       id="path210"
       style="fill:#41ffc7" />
    <path
       class="cls-5"
       d="M 42.44,25.76 43.7,27.39 52.53,20 c 0,-0.05 -0.05,-0.11 -0.08,-0.16 -0.31,-0.56 -0.64,-1.1 -1,-1.64 L 43.38,25 Z"
       id="path212"
       style="fill:#41ffc7" />
    <polygon
       class="cls-5"
       points="37.05,32.99 41.04,29.63 40.2,27.65 35.83,31.32 25.5,40.03 26.32,42.04 26.53,41.86 "
       id="polygon214"
       style="fill:#41ffc7" />
    <path
       class="cls-5"
       d="m 24.07,41.24 -6.55,5.52 h 0.06 c 0.7,0 1.41,0.05 2.12,0.05 h 1 l 4.62,-3.9 z"
       id="path216"
       style="fill:#41ffc7" />
    <polygon
       class="cls-6"
       points="35.83,31.32 40.2,27.65 36.41,18.8 28.08,25.83 26.77,26.93 26.42,27.23 23.54,29.65 22.62,30.43 22.09,31.66 25.5,40.03 "
       id="polygon218"
       style="fill:#c2ffe6" />
    <path
       class="cls-6"
       d="m 18.64,33.78 -0.12,0.1 -7.82,6.59 a 0.49,0.49 0 0 1 0,0.11 23.78,23.78 0 0 0 2.62,4.42 c 0.4,0.53 0.83,1 1.28,1.55 1,0.12 1.93,0.21 2.92,0.26 l 6.55,-5.52 z"
       id="path220"
       style="fill:#c2ffe6" />
    <path
       class="cls-6"
       d="M 51.36,18 A 22.23,22.23 0 0 0 48.48,14.5 23.06,23.06 0 0 0 45,11.62 l -8.14,6.85 5.63,7.29 0.94,-0.79 8.07,-6.81 A 1.1,1.1 0 0 0 51.36,18 Z"
       id="path222"
       style="fill:#c2ffe6" />
    <polygon
       class="cls-6"
       points="26.53,41.86 26.32,42.04 27.02,43.76 37.26,35.13 38.1,34.43 41.11,31.88 41.77,31.33 41.04,29.63 37.05,32.99 "
       id="polygon224"
       style="fill:#c2ffe6" />
    <path
       class="cls-6"
       d="m 53.29,21.49 c -0.24,-0.52 -0.49,-1 -0.76,-1.53 l -8.83,7.43 1.08,1.4 8.55,-7.2 a 0.3,0.3 0 0 1 -0.04,-0.1 z"
       id="path226"
       style="fill:#c2ffe6" />
    <path
       class="cls-6"
       d="m 20.67,46.8 -3,2.55 v 0 l 3,-2.59 c 1,0 2,-0.09 2.92,-0.19 l 2.69,-2.27 -1,-1.44 z"
       id="path228"
       style="fill:#c2ffe6" />
    <path
       class="cls-7"
       d="m 15.52,47.48 c 0.17,0.18 0.35,0.34 0.53,0.51 l 1.47,-1.23 c -1,0 -2,-0.14 -2.92,-0.26 0.29,0.33 0.6,0.66 0.92,0.98 z"
       id="path230"
       style="fill:#47ffe0" />
    <path
       class="cls-7"
       d="m 20.72,46.8 -3,2.59 c 0.47,0.36 0.95,0.71 1.43,1 l 4.53,-3.81 c -1.01,0.13 -1.98,0.19 -2.96,0.22 z"
       id="path232"
       style="fill:#47ffe0" />
    <path
       class="cls-8"
       d="m 19.7,46.81 c -0.71,0 -1.42,0 -2.12,-0.05 H 17.52 L 16.05,48 v 0 c 0.5,0.47 1,0.9 1.55,1.32 l 3,-2.55 z"
       id="path234"
       style="fill:#37d8ad" />
    <path
       class="cls-8"
       d="m 55.14,28.22 c -0.61,0.82 -1.25,1.63 -1.91,2.42 l -0.29,0.34 q -1,1.13 -2,2.19 l -0.36,0.36 c -0.71,0.7 -1.44,1.39 -2.2,2.06 l -0.24,0.21 c -0.8,0.69 -1.62,1.36 -2.47,2 v 0 c -1.48,1.09 -3.84,2.56 -4.75,3.13 l -1.24,0.67 -3.28,4.5 -0.29,-0.16 1.3,-3.2 -0.41,0.21 -0.29,0.13 c -0.59,0.26 -1.18,0.51 -1.77,0.74 l -0.47,0.19 c -0.55,0.2 -1.09,0.41 -1.64,0.59 l -0.69,0.22 c -0.5,0.16 -1,0.32 -1.49,0.46 l -0.95,0.25 -1.28,0.32 -0.53,0.1 -0.27,0.15 -0.07,-0.1 -0.45,0.08 c -0.33,0.07 -0.65,0.14 -1,0.19 -0.78,0.13 -1.56,0.24 -2.34,0.32 h -0.14 l -4.53,3.81 0.1,0.07 A 23.3,23.3 0 0 0 55.14,28.22 Z"
       id="path236"
       style="fill:#37d8ad" />
    <polygon
       class="cls-3"
       points="24.07,41.23 25.29,42.91 26.34,44.34 27.55,46.01 27.61,46.09 27.89,45.94 27.9,45.93 27.02,43.76 26.32,42.04 25.5,40.03 22.09,31.66 22.62,30.43 27.9,18.07 27.61,17.91 17.87,30.54 17.05,31.6 17.85,32.7 18.64,33.78 "
       id="polygon238"
       style="fill:#181866" />
    <polygon
       class="cls-3"
       points="41.77,31.33 41.91,31.66 37.4,42.73 36.1,45.93 36.39,46.09 39.66,41.59 46.15,32.7 46.95,31.6 46.13,30.54 44.78,28.79 43.7,27.39 42.44,25.76 36.81,18.47 36.38,17.91 36.1,18.07 36.41,18.8 40.2,27.65 41.04,29.63 "
       id="polygon240"
       style="fill:#181866" />
    <path
       id="Frame-2"
       data-name="Frame"
       class="cls-3"
       d="m 10.74,44.42 a 25.13,25.13 0 0 0 39,4.35 A 25,25 0 0 0 57.14,31 25.4,25.4 0 0 0 56.59,25.76 25.13,25.13 0 0 0 14.23,13.23 25.12,25.12 0 0 0 10.74,44.42 Z m 37.74,-29.9 a 22.23,22.23 0 0 1 2.88,3.48 19.43,19.43 0 0 1 1.09,1.79 q 0.45,0.82 0.84,1.68 a 22.83,22.83 0 0 1 1.8,6.36 c 0,0.12 0,0.24 0,0.37 A 23.31,23.31 0 0 1 19.21,50.49 c -0.52,-0.34 -1,-0.71 -1.53,-1.1 C 17.15,49 16.61,48.51 16.09,48.03 l -0.57,-0.55 c -0.32,-0.32 -0.63,-0.65 -0.92,-1 -0.45,-0.5 -0.88,-1 -1.28,-1.55 a 23.78,23.78 0 0 1 -2.58,-4.37 23.32,23.32 0 0 1 34.12,-29 23.72,23.72 0 0 1 3.62,2.96 z"
       style="fill:#181866" />
  </g>
</svg>
