<?xml version="1.0" encoding="UTF-8" standalone="no"?>
<svg
   xmlns:dc="http://purl.org/dc/elements/1.1/"
   xmlns:cc="http://creativecommons.org/ns#"
   xmlns:rdf="http://www.w3.org/1999/02/22-rdf-syntax-ns#"
   xmlns:svg="http://www.w3.org/2000/svg"
   xmlns="http://www.w3.org/2000/svg"
   xmlns:xlink="http://www.w3.org/1999/xlink"
   xml:space="preserve"
   style="enable-background:new 0 0 24 24;"
   viewBox="0 0 24 24"
   y="0px"
   x="0px"
   id="Layer_1"
   version="1.1"><metadata
   id="metadata180"><rdf:RDF><cc:Work
       rdf:about=""><dc:format>image/svg+xml</dc:format><dc:type
         rdf:resource="http://purl.org/dc/dcmitype/StillImage" /><dc:title></dc:title></cc:Work></rdf:RDF></metadata><defs
   id="defs178" />
<g
   id="g173">
	<g
   id="g153">
		<g
   id="g117">
			<circle
   id="circle115"
   r="11.082"
   cy="11.887"
   cx="12.173"
   style="fill:#41FFC7;" />
		</g>
		<g
   id="g121">
			<path
   id="path119"
   d="M6.547,19.122c-1.009,0-1.994-0.077-2.952-0.222c2.032,2.483,5.119,4.069,8.578,4.069     c6.12,0,11.082-4.962,11.082-11.082c0-0.597-0.06-1.179-0.151-1.75C19.427,15.495,13.075,19.122,6.547,19.122z"
   style="fill:#37D8AD;" />
		</g>
		<g
   id="g137"
   style="opacity:0.65;">
			<defs
   id="defs124">
				<path
   d="M12.173,23.178c-6.226,0-11.291-5.065-11.291-11.291      c0-6.226,5.065-11.292,11.291-11.292s11.291,5.065,11.291,11.292C23.465,18.113,18.399,23.178,12.173,23.178z M12.173,1.014      c-5.996,0-10.873,4.878-10.873,10.873S6.178,22.76,12.173,22.76s10.873-4.877,10.873-10.873S18.169,1.014,12.173,1.014z"
   style="opacity:0.65;"
   id="SVGID_7_" />
			</defs>
			<use
   id="use126"
   style="overflow:visible;fill:#E9F3ED;"
   xlink:href="#SVGID_7_" />
			<clipPath
   id="SVGID_2_">
				<use
   id="use128"
   style="overflow:visible;"
   xlink:href="#SVGID_7_" />
			</clipPath>
			<g
   id="g135"
   clip-path="url(#SVGID_2_)"
   style="clip-path:url(#SVGID_2_);">
				
					<rect
   id="rect131"
   height="4.181"
   width="34.935"
   style="fill:#E9F3ED;"
   transform="matrix(0.7616 -0.6481 0.6481 0.7616 -2.9987 10.5574)"
   y="7.263"
   x="-4.619" />
				
					<rect
   id="rect133"
   height="0.418"
   width="34.934"
   style="fill:#E9F3ED;"
   transform="matrix(0.7615 -0.6482 0.6482 0.7615 -4.0023 12.7333)"
   y="11.595"
   x="-2.168" />
			</g>
		</g>
		<g
   id="g151"
   style="opacity:0.78;">
			<defs
   id="defs140">
				<circle
   r="11.082"
   cy="11.887"
   cx="12.173"
   style="opacity:0.78;"
   id="SVGID_9_" />
			</defs>
			<clipPath
   id="SVGID_4_">
				<use
   id="use142"
   style="overflow:visible;"
   xlink:href="#SVGID_9_" />
			</clipPath>
			<g
   id="g149"
   clip-path="url(#SVGID_4_)"
   style="clip-path:url(#SVGID_4_);">
				
					<rect
   id="rect145"
   height="4.182"
   width="34.935"
   style="fill:#E9F3ED;"
   transform="matrix(0.7617 -0.648 0.648 0.7617 -3.5245 10.7489)"
   y="8.074"
   x="-4.618" />
				
					<rect
   id="rect147"
   height="0.837"
   width="34.934"
   style="fill:#E9F3ED;"
   transform="matrix(0.7615 -0.6482 0.6482 0.7615 -4.5282 12.9268)"
   y="12.198"
   x="-2.168" />
			</g>
		</g>
	</g>
	<g
   id="g161"
   style="opacity:0.75;">
		<defs
   id="defs156">
			<circle
   r="11.082"
   cy="11.887"
   cx="12.173"
   style="opacity:0.75;"
   id="SVGID_11_" />
		</defs>
		<clipPath
   id="SVGID_6_">
			<use
   id="use158"
   style="overflow:visible;"
   xlink:href="#SVGID_11_" />
		</clipPath>
	</g>
	<g
   id="g171">
		<path
   id="path163"
   d="M20.182,3.868C18.01,1.696,15.122,0.5,12.05,0.5c-3.072,0-5.96,1.196-8.132,3.368    C1.746,6.04,0.55,8.928,0.55,12c0,3.072,1.196,5.96,3.368,8.132C6.09,22.304,8.978,23.5,12.05,23.5    c3.072,0,5.96-1.196,8.132-3.368c2.172-2.172,3.368-5.06,3.368-8.132C23.55,8.928,22.354,6.04,20.182,3.868z M19.59,19.541    c-2.014,2.014-4.692,3.123-7.541,3.123c-2.848,0-5.526-1.109-7.54-3.123C2.495,17.527,1.386,14.848,1.386,12    c0-2.848,1.109-5.526,3.123-7.54c2.014-2.014,4.692-3.123,7.54-3.123c2.849,0,5.527,1.109,7.541,3.123s3.123,4.692,3.123,7.54    C22.713,14.848,21.604,17.527,19.59,19.541z"
   style="fill:#181866;" />
		<g
   id="g169">
			<polygon
   id="polygon165"
   points="10.035,5.33 9.9,5.251 5.233,11.298 4.839,11.809 5.221,12.334 9.899,18.749      10.035,18.673 7.255,11.836    "
   style="fill:#181866;" />
			<polygon
   id="polygon167"
   points="18.767,11.298 14.1,5.251 13.965,5.33 16.745,11.836 13.965,18.673 14.101,18.749      18.779,12.334 19.161,11.809    "
   style="fill:#181866;" />
		</g>
	</g>
</g>
</svg>