<svg xmlns="http://www.w3.org/2000/svg" viewBox="0 0 100 100"><defs><style>.cls-1{fill:#9c2d35;}.cls-2{fill:none;}.cls-3{fill:#ff8c5c;}.cls-4{fill:#fcc2a5;}.cls-5{fill:#ff6a6a;}.cls-6{fill:#571443;}.cls-7{fill:#293844;}.cls-8{fill:#fff;}</style></defs><title>Ada</title><g id="Layer_2" data-name="Layer 2"><g id="Layer_1-2" data-name="Layer 1"><circle class="cls-1" cx="50" cy="50" r="50"/><path class="cls-2" d="M23.47,92.39c1.58-2.39,4.8-7.23,5.83-8.8,1.4-2.12,2.92-4,3.28-4.5a48.57,48.57,0,0,1,3.28-4.71l-.94-5.66,0-.18s-1.57-1.17,2.56-1.48L37,61.14a48.79,48.79,0,0,1-5.8-3.87c-.13-.1-.28-.24-.44-.39a8.81,8.81,0,0,1-1.23.6,13.46,13.46,0,0,1-1.77.64l0,1.25.14.27L28,61.36s1,.74,1.55,1.11a3.46,3.46,0,0,1,1.42,2c.17.84,0,1.31-.54,1.55a1.12,1.12,0,0,1-1.58-.47c-.27-.71-1-3.44-1-3.44l.17,3.13-.3-.06.06,2.08.27-.06c.27,0,.74.47.95,1.38a1.49,1.49,0,0,1-.85,1.68c-.43.24-.64.14-1.38-.4a1.79,1.79,0,0,1-.44-2.09,1,1,0,0,1,.85-.47l-.07-2-.2.06,0-2a6.44,6.44,0,0,1-1.78,2.93,1.39,1.39,0,0,1-1.32.1,3.08,3.08,0,0,1-.34-.94A7.48,7.48,0,0,1,25,63a8.81,8.81,0,0,1,1.92-1.82l0-1.48.17-.37L27,58.23A10.15,10.15,0,0,1,25,58.12a5.18,5.18,0,0,1-3.44-1.51,5.25,5.25,0,0,1-1.68-2.93,8.34,8.34,0,0,1,.24-4.75,3.1,3.1,0,0,1,.75-1.17c-3.78-3.51-3.11-9.63-2.26-11.46a41.3,41.3,0,0,1,2.92-5.08,22.63,22.63,0,0,0,1.21-2,4,4,0,0,0,.9-1.35,44.83,44.83,0,0,0,2.2-4.71c1.44-3.19,1-4.45,1.08-4.76s0-.77.54-.86,1.35.81,1.35.81.67.5,4,1.13,11.72-2,16.57-5.66,8.4-5.53,11-6.43,4.71-1,8.26.81,5.57,6,6.11,9.16c8.44.5,12.53,7.73,13.56,9.57s1.53,6.42-2.56,11.86a17.93,17.93,0,0,1-10,6.55c.36,4.58-1.75,6-5.48,8.22a21.86,21.86,0,0,1-4.92,2.26c0,1.68,0,4.92,0,4.92a.41.41,0,0,1,.51.16A21.31,21.31,0,0,0,67.63,63c.21.14,1.05,1.59,0,2.06s-2.12-.61-2.12-.61l.1,1.08a1.06,1.06,0,0,1,.68.4,1.57,1.57,0,0,1,.23,1.28c-.17.41-.33.68-.81.71a1.57,1.57,0,0,1-1.28-.34c-.23-.3-.53-.43-.43-.7s.13-1.55.67-1.59l-.13-2.15s-.37,2-1.18,2.46-2,.33-2-.85,3.2-4.21,3.2-4.21L64.66,56l-.1,0a2.77,2.77,0,0,1-1.53.5c-3.23,4.76-5.21,6.55-7.32,8.08S53.15,66.52,51,66.21a37.76,37.76,0,0,1-5.38-1.5l.13,2.66s4.17.14,5.88.41c0,0,1.12-.18,1,.36l-.36.18,0,1.75-.18.09s0,6.91.14,7.36l.27.5a.55.55,0,0,1,.67.54l.63.89s2.51,2.43,3.82,3.87,3.72,4,3.72,4a4.65,4.65,0,0,0,1.08,1.35,9,9,0,0,1,2,2.24,4,4,0,0,0,.31.81,3.18,3.18,0,0,1,1,1.08A11.67,11.67,0,0,0,66.62,94a1.48,1.48,0,0,1-.36.76,11.38,11.38,0,0,0-.76,1l1,1.5a50,50,0,1,0-43-4.82Z"/><path d="M45.65,64.5v.21A37.76,37.76,0,0,0,51,66.21c2.11.31,2.56-.09,4.67-1.62S59.8,61.27,63,56.51a2.77,2.77,0,0,0,1.53-.5l.1,0V55.7l.74-.34c0,.13,0,.28,0,.44a21.86,21.86,0,0,0,4.92-2.26c3.73-2.2,5.84-3.64,5.48-8.22a17.93,17.93,0,0,0,10-6.55c4.09-5.44,3.59-10,2.56-11.86s-5.12-9.07-13.56-9.57c-.54-3.18-2.56-7.36-6.11-9.16s-5.61-1.7-8.26-.81-6.2,2.79-11,6.43-13.2,6.28-16.57,5.66-4-1.13-4-1.13-.81-.9-1.35-.81-.5.54-.54.86.36,1.57-1.08,4.76a44.83,44.83,0,0,1-2.2,4.71,4,4,0,0,1-.9,1.35,22.63,22.63,0,0,1-1.21,2,41.3,41.3,0,0,0-2.92,5.08c-.85,1.83-1.52,8,2.26,11.46a1.44,1.44,0,0,1,.53-.35l.37.54,0,0a13.11,13.11,0,0,0,1,.9,1,1,0,0,1,.31-.2l.57.67-.13.11c1.89,1.36,3.45,1.73,3.91,2.59a8.37,8.37,0,0,0,3.19,3.47l.07-.07,1.62.41a9,9,0,0,1-1.4,1c.16.15.31.29.44.39A48.79,48.79,0,0,0,37,61.14V61A58.1,58.1,0,0,0,45.65,64.5Zm18.19-9.34s3.86-6,3.5-10.87c0,0,1.53,3.46.41,6.33A10.38,10.38,0,0,1,63.84,55.16Zm-18-38.44c5.79-2.61,10.24-7.5,15.44-8.49a9.8,9.8,0,0,1,9.26,2.87,5.27,5.27,0,0,1,1.7,2.65,11.79,11.79,0,0,1,1.35,3.59h-.54a77.16,77.16,0,0,0-11.63,1c-1.08.18-3.82.36-5,.41s-6.69.85-10.73,1.21c-2.58.23-6.25.31-8.57.34l2.29-.38c1.54-.25,2.76-.44,3.95-.75a37.36,37.36,0,0,0,7.42-3.53c.24-.15,5.84-3.63,9.87-4.69s6.38-.79,8.59.82a2.29,2.29,0,0,1,1.13,1.6,2.22,2.22,0,0,1-.88,1.6.75.75,0,0,0-.09.09c-.18.17-2.16,1.17-5.29.35-1-.27-1.61-.69-1.74-1.25a2,2,0,0,1,.69-1.63A4.19,4.19,0,0,1,68,12a.21.21,0,0,0,.28-.06.2.2,0,0,0-.07-.28,4.59,4.59,0,0,0-5.35.55,2.36,2.36,0,0,0-.83,2c.16.72.84,1.24,2,1.55,3.15.82,5.33-.12,5.67-.46l.08-.07a2.58,2.58,0,0,0,1-1.92,2.68,2.68,0,0,0-1.29-1.91c-2.32-1.68-4.9-1.94-8.93-.88s-9.74,4.59-10,4.74a36.79,36.79,0,0,1-7.31,3.48c-1.18.3-2.39.5-3.92.74-1,.16-2.09.34-3.44.59A55.09,55.09,0,0,0,45.88,16.72Zm12,2.91a104.75,104.75,0,0,1,14.47-1.34,19.55,19.55,0,0,1,5.85.67,15.77,15.77,0,0,1,8.93,7.68c.59,1.53,2,4.4-.9,9.93a14.54,14.54,0,0,1-7.9,7h0a6.61,6.61,0,0,0,1.9-2l0,0a6.65,6.65,0,0,0,1-3.76c-1.26-7-8-9.47-12.8-10.19s-6.87,0-19.27-.72S35,20.53,35,20.53l.37.07h0C42.65,21.76,57.91,19.63,57.91,19.63Zm-22.85.66s0,0,0,0H35Zm-2,.11.22,0,1.26.19h0A2.45,2.45,0,0,0,35,22a8.63,8.63,0,0,0,3.19,2.57h0l.4.2.13.06.28.14.15.07.29.13.13.06.4.17h0l.43.17.1,0,.34.13.13,0,.34.12.1,0c.3.11.61.2.92.29h0l.44.12.07,0,.42.12h0c.82.21,1.64.39,2.47.54h0c1.64.3,3.32.53,5,.73,4.45.54,9.16,0,14.15.18s10.11,1.32,13.56,5.44c4,4.71.67,8.71-.94,9.7-.63.38-1.14.66-1.54.86h0c-.61.31-.93.43-.93.43-.68-2.78-5.26-9-13.88-12.26a77.37,77.37,0,0,0-10.7-3.26h0l-.38-.08-.16,0-.21,0-.18,0-.18,0-.19,0-.16,0-.2,0-.11,0-1.14-.23-.06,0-.23,0-.1,0-.19,0-.12,0-.16,0-.12,0-.16,0-.12,0-.17,0-.1,0-.21-.05,0,0c-.7-.18-1.4-.37-2.09-.58a51.39,51.39,0,0,1-5.68-2c-1.5-.66-3.86-1.52-4.73-3.39A3.57,3.57,0,0,1,33,20.4Zm-.45-.09c-.4,1.35.9,3.14,2,3.82a52.9,52.9,0,0,0,8.08,3.36c4.09,1.44,8,1.85,14.24,3.78A34.66,34.66,0,0,1,69.77,38C73.5,40.92,74,43.53,74,43.53s1.3,5.34-1.8,7.77A29.29,29.29,0,0,1,65,55.16a9.18,9.18,0,0,0,3.23-3.64c1.66-4-.58-8.85-2.51-10.87A31.12,31.12,0,0,0,48.39,30.59c-10.6-2.33-14.33-4.89-14.33-4.89A11.18,11.18,0,0,1,31.15,20Zm-4-1.17a15.23,15.23,0,0,0,2,.85c-.09,2.25,2.16,5,2.16,5-3.64-3-4.18-5.7-4.18-5.7S28.05,18.83,28.54,19.14ZM26.92,51.07a37.64,37.64,0,0,1-4.76-3.23,9.94,9.94,0,0,1-2.69-10.2,35.22,35.22,0,0,1,4.45-8.13,21.75,21.75,0,0,0,3.81-9.61,13.49,13.49,0,0,0,5.89,6.7s-2.11,1.52-4.54,7.5-2.43,6.55-1.35,10.73,5.57,6.11,5.57,6.11a5.72,5.72,0,0,0,3.32-.09c.32-.15-1,1.21-2,1.43a9,9,0,0,1-3.5,0A17.7,17.7,0,0,1,26.92,51.07ZM29,53.86s-1.53-1.85-.9-1.22a8.21,8.21,0,0,0,3,.68,5.49,5.49,0,0,1,2.2.45c.72.27,3,1,3,1a13.09,13.09,0,0,1-2.43.76A9.06,9.06,0,0,1,29,53.86Zm2.47,2.74.54-.41c2.78.32,3.5-.09,4.09-.36s1.48-.94.71-1.48a13.88,13.88,0,0,0-3.07-1.12s0,0,0,0h0a12.1,12.1,0,0,0,1.64-.63c1.79-.77,2.15-2,1.57-2.29s-.58.27-1.89.18a8.57,8.57,0,0,1-3.28-1.62c-2.82-3-3.63-5.3-3.59-8.31a7.59,7.59,0,0,1,1.35-4.4c0-.31.13-1,1.44-3.68A63.36,63.36,0,0,1,34.33,27c.09-.31.45,0,1.08.32a84.8,84.8,0,0,0,9.12,3.05,43.39,43.39,0,0,1,13.52,4.76l1.08.65.44-.16,1.62,1.14-.73-.1c4.4,3.06,6.13,6,6.21,6.15s0,3.64,0,3.64c-2,8.89-8.58,15-10.15,16.48a21.87,21.87,0,0,1-3.19,2.47c-2.51.41-8.31-1.17-13.74-3.64A29,29,0,0,1,31.46,56.6Z"/><path d="M64.57,60.51s-3.17,3-3.2,4.21,1.18,1.35,2,.85,1.18-2.46,1.18-2.46l.13,2.15c-.54,0-.57,1.32-.67,1.59s.2.4.43.7a1.57,1.57,0,0,0,1.28.34c.48,0,.64-.3.81-.71a1.57,1.57,0,0,0-.23-1.28,1.06,1.06,0,0,0-.68-.4l-.1-1.08s1.08,1.08,2.12.61.21-1.92,0-2.06a21.31,21.31,0,0,1-1.71-2.09.41.41,0,0,0-.51-.16s.06-3.24,0-4.92a6.62,6.62,0,0,1-.77.19Zm-.94,3.67c-.1.14-.61.78-.68.91s-.67.21-.77,0-.17-.84.54-1.65,1.58-1.68,1.58-1.68C64.17,62.23,63.73,64.05,63.63,64.18Zm2.49-1.75s.91.74.84,1.38-.44.81-.64.71A8.37,8.37,0,0,1,65.45,63s-.11-1.24-.11-1.51Z"/><path d="M64.67,55.7V56a6.62,6.62,0,0,0,.77-.19c0-.16,0-.31,0-.44Z"/><path class="cls-3" d="M66.32,64.52c.2.1.57-.07.64-.71s-.84-1.38-.84-1.38l-.78-1c0,.27.11,1.51.11,1.51A8.37,8.37,0,0,0,66.32,64.52Z"/><path class="cls-3" d="M62.18,65.09c.1.21.71.14.77,0s.58-.77.68-.91.54-2,.67-2.42c0,0-.88.88-1.58,1.68S62.08,64.89,62.18,65.09Z"/><path class="cls-4" d="M56.06,50.31c-.07.08-.59.5-1.11.92l1.54-.92a.65.65,0,0,0-.21-.57l-.15-.15A.77.77,0,0,1,56.06,50.31Z"/><path class="cls-4" d="M33.73,53.23h0S33.69,53.24,33.73,53.23Z"/><path class="cls-4" d="M53.33,65.44A21.87,21.87,0,0,0,56.52,63c1.57-1.48,8.17-7.59,10.15-16.48,0,0,.09-3.41,0-3.64s-1.81-3.09-6.21-6.15a4,4,0,0,0-2,.17c-.57.3-.64.5-.64.5l-.94,0s-.3-.34.17-.68a15.36,15.36,0,0,1,2.08-.91l-1.08-.65a43.39,43.39,0,0,0-13.52-4.76,84.8,84.8,0,0,1-9.12-3.05c-.63-.32-1-.63-1.08-.32A63.36,63.36,0,0,0,31,32.48c-1.31,2.65-1.4,3.37-1.44,3.68a7.59,7.59,0,0,0-1.35,4.4c0,3,.77,5.26,3.59,8.31a8.57,8.57,0,0,0,3.28,1.62c1.31.09,1.31-.45,1.89-.18s.22,1.52-1.57,2.29a12.1,12.1,0,0,1-1.64.63,13.88,13.88,0,0,1,3.07,1.12c.77.54-.13,1.21-.71,1.48s-1.31.68-4.09.36l-.54.41a29,29,0,0,0,8.13,5.2C45,64.27,50.82,65.85,53.33,65.44Zm5.14-10.28a2.52,2.52,0,0,1-.67.54l-.07-.31c.24-.16.17-.54,0-.54s-.33.34-.33.34a3.8,3.8,0,0,0-.48.57c-.16.27-.84.78-.94,1s-.77,0-.77,0l-.27,0a1.17,1.17,0,0,1-.37,1,3.47,3.47,0,0,1-.68,1.08,3,3,0,0,1-.84.61,3.49,3.49,0,0,1-.66.48c-.34.17-.72-.18-.72-.18A14.57,14.57,0,0,1,50.29,59a7.12,7.12,0,0,1-1.18-2.19l-1.45-.14-1-1.14-.06-.27s-.61.2-.64.3-.31.31-.47.2.43-.64.8-.84a3.57,3.57,0,0,1,1.62-.44c.54,0-.91.54-.91.54s.27.58.44.64a5.76,5.76,0,0,0,1.11.07c.2,0,3-.5,3.3-.64a2.39,2.39,0,0,1,1.38.07c.31.13.44.67.44.67s.24.47.67,0,.71-1.08,1.25-1.21.64-.2.94,0,.37.47.58.2a1.26,1.26,0,0,1,.64-.37,2.24,2.24,0,0,0-.24-.64c-.1-.07.34-.1.34-.1l.2-.3.4.54A1.09,1.09,0,0,1,58.47,55.16Zm5.22-4.31a16.18,16.18,0,0,1-1.34,1.34A1.18,1.18,0,0,1,60.86,52a1.23,1.23,0,0,1-.13-1.32,12,12,0,0,1,1.55-1.61c.74-.61,1.45-.51,1.75-.17S64.54,50,63.69,50.85Zm-6.22-5.42a7.39,7.39,0,0,1,1.73-4.19,6.11,6.11,0,0,1,3.25-1.65c1.63-.27,2.55,1.38,2.32,1.48s-.66.43-.26,1.14a3.9,3.9,0,0,1,.33,1.55,4.93,4.93,0,0,1-3.19,4.66,3,3,0,0,1-3.48-.27C57.47,47.85,57.44,47.58,57.47,45.43Zm-5.16,3.33a30.65,30.65,0,0,1,.24-3.49c.15-.64.1-5.18.18-5.49s.37-.18.37,0a4.73,4.73,0,0,0,.07.55.76.76,0,0,1,.22-.38,5.55,5.55,0,0,0,.17,1.45c.1.16.37,4.11,1.68,6a33.17,33.17,0,0,0,2,2.73l-.47.44-.17.33-2.39,1.28a2.33,2.33,0,0,1-1.07.21,3.07,3.07,0,0,0-.75,0l0-.4-.34-.44s-.23-.94-.33-1.21a2.06,2.06,0,0,1-.1-.61,2.57,2.57,0,0,1,.3-.25A2.14,2.14,0,0,0,52.31,48.76Zm-3.07-1.21a3.16,3.16,0,0,1-1.36,2.29,8.26,8.26,0,0,1-1.72.94A6.84,6.84,0,0,1,42,50.24a8,8,0,0,0-1.16-.91c-.59-.37-.79-.47-.79-.47a9.35,9.35,0,0,0-.87-.94,5.64,5.64,0,0,0-.49-1.51c-.47-1.07.1-3.42.1-3.42l-.63-.77A5.13,5.13,0,0,1,40,40.61a5.77,5.77,0,0,1,4.82-.34,7.91,7.91,0,0,1,3.28,2.95A9.45,9.45,0,0,1,49.24,47.55ZM36.59,36.35c-.21.24-1.7,1.14-1.77,1.83s-.34.23-.34.23l-1,1.48,0-.49.14-.21A6,6,0,0,1,34.25,37a18.62,18.62,0,0,1,3.12-2.82,7.66,7.66,0,0,1,2.24-.93,6.82,6.82,0,0,1-1.08.75c-.34.12.13.09.3.07a9.15,9.15,0,0,1,2-.36,14.75,14.75,0,0,1,6.41,1l.31.46.59.52c-.57-.2-1.31-.55-1.31-.55s.08-.17-.54-.34a16.08,16.08,0,0,0-5.51-.17A8.79,8.79,0,0,0,36.59,36.35Zm2,13.32c.54-.34,1.25,0,2.16.6a13,13,0,0,0,2.05,1,1.4,1.4,0,0,1,.57,2c-.66,1-1.55.44-2,.2a10.35,10.35,0,0,1-2.62-1.75C37.76,50.81,38.06,50,38.6,49.67Z"/><path class="cls-5" d="M62.28,49.1a12,12,0,0,0-1.55,1.61A1.23,1.23,0,0,0,60.86,52a1.18,1.18,0,0,0,1.49.16,16.18,16.18,0,0,0,1.34-1.34c.85-.88.64-1.59.34-1.92S63,48.49,62.28,49.1Z"/><path class="cls-5" d="M43.38,53.27a1.4,1.4,0,0,0-.57-2,13,13,0,0,1-2.05-1c-.91-.6-1.62-.94-2.16-.6s-.84,1.14.14,2a10.35,10.35,0,0,0,2.62,1.75C41.83,53.71,42.72,54.25,43.38,53.27Z"/><path d="M46.31,34.84c.62.17.54.34.54.34s.74.35,1.31.55l-.59-.52-.31-.46a14.75,14.75,0,0,0-6.41-1,9.15,9.15,0,0,0-2,.36c-.17,0-.64.05-.3-.07a6.82,6.82,0,0,0,1.08-.75,7.66,7.66,0,0,0-2.24.93A18.62,18.62,0,0,0,34.25,37a6,6,0,0,0-.67,2.18l-.14.21,0,.49,1-1.48s.28.47.34-.23,1.56-1.59,1.77-1.83a8.79,8.79,0,0,1,4.21-1.68A16.08,16.08,0,0,1,46.31,34.84Z"/><path d="M61.19,36.8l-1.62-1.14-.44.16c.47.29.91.59,1.33.88Z"/><path d="M56.88,37.41l.94,0s.07-.2.64-.5a4,4,0,0,1,2-.17c-.42-.29-.86-.59-1.33-.88a15.36,15.36,0,0,0-2.08.91C56.58,37.07,56.88,37.41,56.88,37.41Z"/><path d="M58.07,53.41l-.2.3s-.44,0-.34.1a2.24,2.24,0,0,1,.24.64,1.26,1.26,0,0,0-.64.37c-.21.27-.27,0-.58-.2s-.4-.14-.94,0-.81.74-1.25,1.21-.67,0-.67,0-.13-.54-.44-.67a2.39,2.39,0,0,0-1.38-.07c-.34.14-3.1.64-3.3.64a5.76,5.76,0,0,1-1.11-.07C47.29,55.6,47,55,47,55s1.45-.5.91-.54a3.57,3.57,0,0,0-1.62.44c-.37.2-1,.74-.8.84s.43-.1.47-.2.64-.3.64-.3l.06.27,1,1.14,1.45.14A7.12,7.12,0,0,0,50.29,59a14.57,14.57,0,0,0,1.38.74s.38.35.72.18a3.49,3.49,0,0,0,.66-.48,3,3,0,0,0,.84-.61,3.47,3.47,0,0,0,.68-1.08,1.17,1.17,0,0,0,.37-1l.27,0s.67.24.77,0,.78-.74.94-1a3.8,3.8,0,0,1,.48-.57s.16-.34.33-.34.24.38,0,.54l.07.31a2.52,2.52,0,0,0,.67-.54,1.09,1.09,0,0,0,0-1.21Zm-3.86,4.11a20.55,20.55,0,0,1-1.36,1.65c-.39.45-.56.32-.74.25s-1.47-.84-1.57-1.2a8.07,8.07,0,0,0-.67-1.11,2.8,2.8,0,0,1,0-.3,5.91,5.91,0,0,0,.66,0,2.55,2.55,0,0,1,1,.12c.14.09.78.37,1.2.63a1.78,1.78,0,0,0,1.16.28c.12-.08-.15-.32-.05-.37s.74-.54.74-.54A5.65,5.65,0,0,1,54.21,57.52ZM56.13,56a2.22,2.22,0,0,0-.3.28l-.1.31a1.79,1.79,0,0,1-.68-.12.65.65,0,0,0-.8.12,9.55,9.55,0,0,1-.83.79c-.1.1-.71-.29-.94-.47a1.82,1.82,0,0,0-1.16-.56c-.53,0-1.62,0-1.62,0a.28.28,0,0,0-.19-.22c-.15,0-.33.19-.37.29a4.68,4.68,0,0,1-1.18,0,1.51,1.51,0,0,1-.32-.47,18,18,0,0,0,2-.16c.6-.11,2-.43,2.42-.5s.78,0,.85.22a3.38,3.38,0,0,0,.28.52s.39,0,.36.15-.26.25-.26.25a.57.57,0,0,0,.61.09,4.38,4.38,0,0,0,1-.89c.35-.39.76-.8,1.14-.81s.27.32.27.32.46.17.63.05C57,55.21,56.35,55.83,56.13,56Z"/><path class="cls-5" d="M56.33,55.16s.12-.34-.27-.32-.79.42-1.14.81a4.38,4.38,0,0,1-1,.89.57.57,0,0,1-.61-.09s.22-.13.26-.25-.36-.15-.36-.15a3.38,3.38,0,0,1-.28-.52c-.07-.19-.46-.29-.85-.22s-1.82.39-2.42.5a18,18,0,0,1-2,.16,1.51,1.51,0,0,0,.32.47,4.68,4.68,0,0,0,1.18,0c0-.1.22-.32.37-.29a.28.28,0,0,1,.19.22s1.09,0,1.62,0a1.82,1.82,0,0,1,1.16.56c.23.18.84.57.94.47a9.55,9.55,0,0,0,.83-.79.65.65,0,0,1,.8-.12,1.79,1.79,0,0,0,.68.12l.1-.31a2.22,2.22,0,0,1,.3-.28c.22-.19.83-.81.83-.81C56.79,55.33,56.33,55.16,56.33,55.16Z"/><path class="cls-5" d="M53.84,57.8a1.78,1.78,0,0,1-1.16-.28c-.42-.26-1.06-.54-1.2-.63a2.55,2.55,0,0,0-1-.12,5.91,5.91,0,0,1-.66,0,2.8,2.8,0,0,0,0,.3,8.07,8.07,0,0,1,.67,1.11c.1.36,1.38,1.13,1.57,1.2s.35.2.74-.25a20.55,20.55,0,0,0,1.36-1.65,5.65,5.65,0,0,0,.32-.63s-.64.49-.74.54S54,57.72,53.84,57.8Z"/><path class="cls-5" d="M52.44,49.26l1.82.41.2.33a7.61,7.61,0,0,1-1.61-.13c-.2-.13-.54.07-.54.07s.4,1.61.5,1.75a.68.68,0,0,0,.68.3A9.46,9.46,0,0,0,55,51.23c.52-.42,1-.84,1.11-.92a.77.77,0,0,0,.07-.72c-.34-.32-.89-.9-.89-.9s-.14-.5-.27-.57a2.32,2.32,0,0,1-.4-.51A4.44,4.44,0,0,0,54,46.7c-.2-.13-.07-.87-.07-.87s-.57-2-.74-2.43a14.6,14.6,0,0,1,0-2.73,1,1,0,0,1,.05-.32,4.73,4.73,0,0,1-.07-.55c0-.2-.29-.32-.37,0s0,4.85-.18,5.49a30.65,30.65,0,0,0-.24,3.49,2.14,2.14,0,0,1-.37.69A.73.73,0,0,1,52.44,49.26Z"/><path d="M51.74,50.31c.1.27.33,1.21.33,1.21l.34.44,0,.4a3.07,3.07,0,0,1,.75,0,2.33,2.33,0,0,0,1.07-.21l2.39-1.28.17-.33.47-.44a33.17,33.17,0,0,1-2-2.73c-1.31-1.88-1.58-5.83-1.68-6A5.55,5.55,0,0,1,53.39,40a.76.76,0,0,0-.22.38c0,.31.1.63.1.63l.07,2.24a7.84,7.84,0,0,0,.47,1.67,3.09,3.09,0,0,1,.3,1.41,2.75,2.75,0,0,0,.61,1.13c.18.28,1,1.53,1.26,1.88a1.08,1.08,0,0,1,.15.28l.15.15a.65.65,0,0,1,.21.57L55,51.23c-.53.42-1.07.85-1.18,1s-1.07.08-1.14,0a19.35,19.35,0,0,1-.81-2.47.62.62,0,0,1,.12-.29,2.57,2.57,0,0,0-.3.25A2.06,2.06,0,0,0,51.74,50.31Z"/><path d="M53.15,43.4c.17.44.74,2.43.74,2.43s-.13.74.07.87a4.44,4.44,0,0,1,.61.91,2.32,2.32,0,0,0,.4.51c.13.07.27.57.27.57s.55.58.89.9a1.08,1.08,0,0,0-.15-.28c-.27-.35-1.08-1.6-1.26-1.88a2.75,2.75,0,0,1-.61-1.13,3.09,3.09,0,0,0-.3-1.41,7.84,7.84,0,0,1-.47-1.67L53.27,41s-.06-.32-.1-.63a1,1,0,0,0-.05.32A14.6,14.6,0,0,0,53.15,43.4Z"/><path d="M52.63,52.21c.07,0,.94.15,1.14,0s.65-.53,1.18-1a9.46,9.46,0,0,1-1.46.76.68.68,0,0,1-.68-.3c-.1-.14-.5-1.75-.5-1.75s.34-.2.54-.07a7.61,7.61,0,0,0,1.61.13l-.2-.33-1.82-.41a.73.73,0,0,0-.5.19.62.62,0,0,0-.12.29A19.35,19.35,0,0,0,52.63,52.21Z"/><path class="cls-6" d="M36.27,54.8s-2.25-.76-3-1a5.49,5.49,0,0,0-2.2-.45,8.21,8.21,0,0,1-3-.68c-.63-.63.9,1.22.9,1.22a9.06,9.06,0,0,0,4.85,1.7A13.09,13.09,0,0,0,36.27,54.8Z"/><path class="cls-6" d="M34.6,52.28c1-.22,2.34-1.58,2-1.43a5.72,5.72,0,0,1-3.32.09S28.81,49,27.73,44.83s-1.08-4.76,1.35-10.73,4.54-7.5,4.54-7.5a13.49,13.49,0,0,1-5.89-6.7,21.75,21.75,0,0,1-3.81,9.61,35.22,35.22,0,0,0-4.45,8.13,9.94,9.94,0,0,0,2.69,10.2,37.64,37.64,0,0,0,4.76,3.23,17.7,17.7,0,0,0,4.18,1.26A9,9,0,0,0,34.6,52.28Z"/><path class="cls-6" d="M32.72,25s-2.25-2.78-2.16-5a15.23,15.23,0,0,1-2-.85c-.49-.31,0,.18,0,.18S29.08,22.06,32.72,25Z"/><path class="cls-6" d="M48.39,30.59A31.12,31.12,0,0,1,65.73,40.65c1.93,2,4.17,6.83,2.51,10.87A9.18,9.18,0,0,1,65,55.16a29.29,29.29,0,0,0,7.18-3.86c3.1-2.43,1.8-7.77,1.8-7.77S73.5,40.92,69.77,38a34.66,34.66,0,0,0-12.89-6.73c-6.24-1.93-10.15-2.34-14.24-3.78a52.9,52.9,0,0,1-8.08-3.36c-1.08-.68-2.38-2.47-2-3.82L31.15,20a11.18,11.18,0,0,0,2.91,5.66S37.79,28.26,48.39,30.59Z"/><path class="cls-6" d="M67.75,50.62c1.12-2.87-.41-6.33-.41-6.33.36,4.9-3.5,10.87-3.5,10.87A10.38,10.38,0,0,0,67.75,50.62Z"/><path class="cls-6" d="M35.06,20.29l-.1,0H35S35.05,20.29,35.06,20.29Z"/><path class="cls-6" d="M43.31,18.77a36.79,36.79,0,0,0,7.31-3.48c.24-.15,5.89-3.67,10-4.74s6.61-.8,8.93.88a2.68,2.68,0,0,1,1.29,1.91,2.58,2.58,0,0,1-1,1.92l-.08.07c-.34.34-2.52,1.28-5.67.46-1.19-.31-1.87-.83-2-1.55a2.36,2.36,0,0,1,.83-2,4.59,4.59,0,0,1,5.35-.55.2.2,0,0,1,.07.28A.21.21,0,0,1,68,12a4.19,4.19,0,0,0-4.89.53,2,2,0,0,0-.69,1.63c.13.56.71,1,1.74,1.25,3.13.82,5.11-.18,5.29-.35a.75.75,0,0,1,.09-.09,2.22,2.22,0,0,0,.88-1.6,2.29,2.29,0,0,0-1.13-1.6c-2.21-1.61-4.69-1.84-8.59-.82s-9.63,4.54-9.87,4.69a37.36,37.36,0,0,1-7.42,3.53c-1.19.31-2.41.5-3.95.75l-2.29.38c2.32,0,6-.11,8.57-.34,4-.36,9.57-1.17,10.73-1.21s3.91-.23,5-.41a77.16,77.16,0,0,1,11.63-1h.54a11.79,11.79,0,0,0-1.35-3.59,5.27,5.27,0,0,0-1.7-2.65,9.8,9.8,0,0,0-9.26-2.87c-5.2,1-9.65,5.88-15.44,8.49A55.09,55.09,0,0,1,36,20.1c1.35-.25,2.45-.43,3.44-.59C40.92,19.27,42.13,19.07,43.31,18.77Z"/><path class="cls-6" d="M87.15,26.64c.58,1.53,2,4.4-.9,9.93a14.6,14.6,0,0,1-7.88,7h0a14.54,14.54,0,0,0,7.9-7c2.92-5.53,1.49-8.4.9-9.93A15.77,15.77,0,0,0,78.23,19a19.55,19.55,0,0,0-5.85-.67,19.36,19.36,0,0,1,5.83.67A15.84,15.84,0,0,1,87.15,26.64Z"/><path class="cls-6" d="M85.58,31.72c-.32-1.31-1.76-4.59-8-6.16s-16.08-.76-19.9-.31-11.32.85-17.42-1c-3.43-1-4.56-2.33-4.92-3.66L35,20.53s1.8,5.62,14.19,6.38,14.47,0,19.27.72S80,30.86,81.28,37.82a6.65,6.65,0,0,1-1,3.76C86.23,37.42,85.87,32.92,85.58,31.72Z"/><path class="cls-6" d="M43.79,27.27c.69.21,1.39.4,2.09.58l0,0,0,0C45.18,27.67,44.48,27.48,43.79,27.27Z"/><path class="cls-6" d="M50.58,28.86l-.38-.08Z"/><path class="cls-6" d="M49.28,28.58l-.16,0Z"/><path class="cls-6" d="M77.58,42c.36-1,1.44-4.44-.9-6.46a22.76,22.76,0,0,0-8.84-4.27,53.19,53.19,0,0,0-10.29-1.75c-1.52,0-4.65-.33-7-.61a77.37,77.37,0,0,1,10.7,3.26c8.62,3.23,13.2,9.48,13.88,12.26,0,0,.32-.12.93-.43-.26.13-.46.23-.62.29A7.47,7.47,0,0,0,77.58,42Z"/><path class="cls-6" d="M33.38,21.86A3.57,3.57,0,0,1,33,20.4h0A3.57,3.57,0,0,0,33.38,21.86Z"/><path class="cls-6" d="M65.86,29.56c4.94,1.21,11,2.38,13.11,6.29,1.91,3.6-.92,6.51-1.93,7.58-.37.21-.68.38-1,.51.4-.2.91-.48,1.54-.86,1.61-1,4.89-5,.94-9.7C75.12,29.26,70,28.17,65,27.94s-9.7.36-14.15-.18c-1.69-.2-3.37-.43-5-.73a38.34,38.34,0,0,0,6.76,1.36C55.08,28.48,60.92,28.35,65.86,29.56Z"/><path class="cls-6" d="M43.33,26.47h0Z"/><path class="cls-6" d="M46.53,28l-.12,0Z"/><path class="cls-6" d="M38.2,24.53h0A8.63,8.63,0,0,1,35,22,8.63,8.63,0,0,0,38.2,24.53Z"/><path class="cls-6" d="M47.38,28.2l-.1,0Z"/><path class="cls-6" d="M42.84,26.33l.07,0Z"/><path class="cls-6" d="M40.45,25.55l.1,0Z"/><path class="cls-6" d="M39.46,25.14l.13.06Z"/><path class="cls-6" d="M40,25.37h0Z"/><path class="cls-6" d="M47.67,28.26l-.06,0Z"/><path class="cls-6" d="M39,24.94l.15.07Z"/><path class="cls-6" d="M48.92,28.51l-.11,0Z"/><polygon class="cls-6" points="34.51 20.62 33.25 20.43 34.51 20.62 34.51 20.62"/><path class="cls-6" d="M38.61,24.74l.13.06Z"/><path class="cls-6" d="M49.65,28.66l-.18,0Z"/><path class="cls-6" d="M42.38,26.2h0Z"/><path class="cls-6" d="M50,28.74l-.21,0Z"/><path class="cls-6" d="M46.81,28.07l-.12,0Z"/><path class="cls-6" d="M46.24,27.94l-.1,0Z"/><path class="cls-6" d="M40.89,25.72l.13,0Z"/><path class="cls-6" d="M41.36,25.88l.1,0Z"/><path class="cls-6" d="M47.09,28.13l-.12,0Z"/><path class="cls-3" d="M49.83,28.7l-.18,0Z"/><path class="cls-3" d="M49.47,28.62l-.19,0Z"/><path class="cls-3" d="M50.2,28.78l-.16,0Z"/><path class="cls-3" d="M39.59,25.2l.4.17Z"/><path class="cls-3" d="M40,25.38l.43.17Z"/><path class="cls-3" d="M40.55,25.59l.34.13Z"/><path class="cls-3" d="M39.17,25l.29.13Z"/><polygon class="cls-3" points="50.58 28.86 50.58 28.86 50.58 28.86 50.58 28.86"/><polygon class="cls-3" points="33.03 20.4 33.03 20.4 33.25 20.43 33.03 20.4"/><path class="cls-3" d="M38.21,24.54l.4.2Z"/><path class="cls-3" d="M38.74,24.8l.28.14Z"/><path class="cls-3" d="M45.84,27c-.83-.15-1.65-.33-2.47-.54.82.21,1.64.39,2.48.55Z"/><path class="cls-3" d="M76.09,43.94h0Z"/><path class="cls-3" d="M41,25.76l.34.12Z"/><path class="cls-3" d="M42.91,26.35l.42.12Z"/><path class="cls-3" d="M41.46,25.91c.3.11.61.2.92.29C42.07,26.11,41.76,26,41.46,25.91Z"/><path class="cls-3" d="M42.4,26.21l.44.12Z"/><path class="cls-3" d="M49.12,28.55l-.2,0Z"/><path class="cls-3" d="M46.14,27.92l-.21-.05Z"/><path class="cls-3" d="M33.38,21.86c.87,1.87,3.23,2.73,4.73,3.39a51.39,51.39,0,0,0,5.68,2,51.39,51.39,0,0,1-5.68-2C36.61,24.59,34.25,23.73,33.38,21.86Z"/><path class="cls-3" d="M48.81,28.49l-1.14-.23Z"/><path class="cls-3" d="M35,22a2.45,2.45,0,0,1-.5-1.34h0A2.45,2.45,0,0,0,35,22Z"/><path class="cls-3" d="M46.41,28l-.17,0Z"/><path class="cls-3" d="M46.69,28.05l-.16,0Z"/><path class="cls-3" d="M47.28,28.17l-.19,0Z"/><path class="cls-3" d="M47.61,28.24l-.23,0Z"/><path class="cls-3" d="M47,28.11l-.16,0Z"/><path class="cls-3" d="M38.11,25.25a51.39,51.39,0,0,0,5.68,2c.69.21,1.39.4,2.09.58l0,0,.21.05.1,0,.17,0,.12,0,.16,0,.12,0,.16,0,.12,0,.19,0,.1,0,.23,0,.06,0,1.14.23.11,0,.2,0,.16,0,.19,0,.18,0,.18,0,.21,0,.16,0,.38.08h0c2.32.28,5.45.61,7,.61a53.19,53.19,0,0,1,10.29,1.75,22.76,22.76,0,0,1,8.84,4.27c2.34,2,1.26,5.43.9,6.46a7.47,7.47,0,0,1-2.11,2.29c.16-.06.36-.16.62-.29h0c.27-.13.58-.3,1-.51,1-1.07,3.84-4,1.93-7.58-2.06-3.91-8.17-5.08-13.11-6.29s-10.78-1.08-13.25-1.17A38.34,38.34,0,0,1,45.85,27c-.84-.16-1.66-.34-2.48-.55h0l-.42-.12-.07,0-.44-.12h0c-.31-.09-.62-.18-.92-.29l-.1,0L41,25.76l-.13,0-.34-.13-.1,0L40,25.38h0l-.4-.17-.13-.06L39.17,25,39,24.94l-.28-.14-.13-.06-.4-.2h0A8.63,8.63,0,0,1,35,22a2.45,2.45,0,0,1-.5-1.34l-1.26-.19-.22,0a3.57,3.57,0,0,0,.35,1.46C34.25,23.73,36.61,24.59,38.11,25.25Z"/><path class="cls-4" d="M20.65,53.24a6.06,6.06,0,0,0,3.64,4.17,6.48,6.48,0,0,0,2.7,0l-.11-1.65a.66.66,0,0,1,.5-1.11c.51.06.91.91.38,1.11l0,1.45A6.08,6.08,0,0,0,30,56a32.83,32.83,0,0,1-2.79-3.34c-.49-.81-1.07-1.35-1.34-1.35a1.67,1.67,0,0,1-1-.58,15.2,15.2,0,0,0-1.65-1.11c-1,1-.64,1.75-.95,1.87s-.53-.17-.47-.81a3.68,3.68,0,0,1,.65-1.59l-.23-.2a7,7,0,0,0-.73-.66A6.13,6.13,0,0,0,20.65,53.24Z"/><path class="cls-4" d="M22.21,48.92l.23.2a1.21,1.21,0,0,1,.22-.23,13.11,13.11,0,0,1-1-.9,3.17,3.17,0,0,0-.21.27A7,7,0,0,1,22.21,48.92Z"/><path class="cls-4" d="M24.86,50.76a1.67,1.67,0,0,0,1,.58c.27,0,.85.54,1.34,1.35A32.83,32.83,0,0,0,30,56a4.93,4.93,0,0,0,.53-.5,8.37,8.37,0,0,1-3.19-3.47c-.46-.86-2-1.23-3.91-2.59l-.2.18A15.2,15.2,0,0,1,24.86,50.76Z"/><path d="M23.54,49.36,23,48.69a1,1,0,0,0-.31.2,9.47,9.47,0,0,0,.75.58Z"/><path d="M22.26,51.52c.31-.12-.08-.89.95-1.87-.29-.19-.57-.37-.77-.53a3.68,3.68,0,0,0-.65,1.59C21.73,51.35,21.93,51.66,22.26,51.52Z"/><path d="M22.44,49.12c.2.16.48.34.77.53l.2-.18a9.47,9.47,0,0,1-.75-.58A1.21,1.21,0,0,0,22.44,49.12Z"/><path d="M30.42,56.49a6.52,6.52,0,0,1-2.63,1.21v.42a13.46,13.46,0,0,0,1.77-.64,8.81,8.81,0,0,0,1.23-.6Z"/><path d="M25.36,58c-2.19-.06-4.27-1.68-5.22-4.78a5.71,5.71,0,0,1,1.06-5.12l-.34-.26,0,0a3.1,3.1,0,0,0-.75,1.17,8.34,8.34,0,0,0-.24,4.75,5.25,5.25,0,0,0,1.68,2.93A5.18,5.18,0,0,0,25,58.12a10.15,10.15,0,0,0,2.08.11l0-.38A8.42,8.42,0,0,1,25.36,58Z"/><path d="M30.58,55.46l-.07.07.51.34a3.5,3.5,0,0,1-.6.62l.38.39a9,9,0,0,0,1.4-1Z"/><path d="M21.2,48.05a2.32,2.32,0,0,1,.26-.3l.23.24,0,0-.37-.54a1.44,1.44,0,0,0-.53.35l0,0Z"/><path d="M27.78,57.25v.45a6.52,6.52,0,0,0,2.63-1.21c-.14-.14-.29-.29-.44-.46A6.08,6.08,0,0,1,27.78,57.25Z"/><path d="M24.29,57.41a6.06,6.06,0,0,1-3.64-4.17,6.13,6.13,0,0,1,.83-5l-.28-.21a5.71,5.71,0,0,0-1.06,5.12c.95,3.1,3,4.72,5.22,4.78a8.42,8.42,0,0,0,1.66-.1l0-.4A6.48,6.48,0,0,1,24.29,57.41Z"/><path d="M30,56c.15.17.3.32.44.46a3.5,3.5,0,0,0,.6-.62l-.51-.34A4.93,4.93,0,0,1,30,56Z"/><path d="M21.2,48.05l.28.21a3.17,3.17,0,0,1,.21-.27l-.23-.24A2.32,2.32,0,0,0,21.2,48.05Z"/><path d="M27.12,59.37l-.17.37,0,1.48A8.81,8.81,0,0,0,25,63a7.48,7.48,0,0,0-1.45,2.36,3.08,3.08,0,0,0,.34.94,1.39,1.39,0,0,0,1.32-.1A6.44,6.44,0,0,0,27,63.31l0,2,.2-.06.07,2a1,1,0,0,0-.85.47,1.79,1.79,0,0,0,.44,2.09c.74.54,1,.64,1.38.4A1.49,1.49,0,0,0,29,68.6c-.21-.91-.68-1.35-.95-1.38l-.27.06-.06-2.08.3.06-.17-3.13s.71,2.73,1,3.44a1.12,1.12,0,0,0,1.58.47c.54-.24.71-.71.54-1.55a3.46,3.46,0,0,0-1.42-2C29,62.1,28,61.36,28,61.36L28,59.64l-.14-.27,0-1.25a5.55,5.55,0,0,1-.76.11ZM25.5,64.93a2,2,0,0,1-.88.94c-.4.17-.3-.67,0-1.11s1.95-2.29,1.95-2.29C26.14,63.21,25.7,64.56,25.5,64.93Zm4.58-1.08a1.94,1.94,0,0,1,.1,1.82c-.2.13-.61-.07-.77-.68a24,24,0,0,0-.88-2.52A4.29,4.29,0,0,1,30.08,63.85Zm-2.49,3.84c.13,0,.67.27.64.54s-.78,0-.95.17-.4.3-.43,0S27.45,67.65,27.59,67.69Z"/><path d="M27.38,54.69a.66.66,0,0,0-.5,1.11L27,57.45a4.82,4.82,0,0,0,.79-.2l0-1.45C28.29,55.6,27.89,54.75,27.38,54.69Z"/><path d="M27,57.85l0,.38a5.55,5.55,0,0,0,.76-.11V57.7C27.54,57.76,27.28,57.81,27,57.85Z"/><path d="M27,57.45l0,.4c.26,0,.52-.09.77-.15v-.45A4.82,4.82,0,0,1,27,57.45Z"/><path class="cls-3" d="M30.18,65.67a1.94,1.94,0,0,0-.1-1.82,4.29,4.29,0,0,0-1.55-1.38A24,24,0,0,1,29.41,65C29.57,65.6,30,65.8,30.18,65.67Z"/><path class="cls-3" d="M24.62,65.87a2,2,0,0,0,.88-.94c.2-.37.64-1.72,1-2.46,0,0-1.68,1.85-1.95,2.29S24.22,66,24.62,65.87Z"/><path class="cls-3" d="M26.85,68.43c0,.27.27.13.43,0s.91.13.95-.17-.51-.51-.64-.54S26.81,68.16,26.85,68.43Z"/><path class="cls-3" d="M80.28,41.58l0,0a6.61,6.61,0,0,1-1.9,2h0A6.47,6.47,0,0,0,80.28,41.58Z"/><path class="cls-3" d="M57.93,19.63a104.29,104.29,0,0,1,14.45-1.34,104.75,104.75,0,0,0-14.47,1.34s-15.26,2.13-22.52,1h0C42.65,21.76,57.93,19.63,57.93,19.63Z"/><path class="cls-3" d="M35.39,20.6c.36,1.33,1.49,2.63,4.92,3.66,6.1,1.84,13.6,1.44,17.42,1s13.7-1.26,19.9.31,7.63,4.85,8,6.16.65,5.7-5.3,9.86a6.47,6.47,0,0,1-1.91,2,14.6,14.6,0,0,0,7.88-7c2.92-5.53,1.48-8.4.9-9.93A15.84,15.84,0,0,0,78.21,19a19.36,19.36,0,0,0-5.83-.67,104.29,104.29,0,0,0-14.45,1.34S42.65,21.76,35.39,20.6Z"/><path d="M63.7,98.1l.74-.22a10.71,10.71,0,0,1,.75-1.23l.58.81.75-.25-1-1.5C65,96.4,64.33,97.33,63.7,98.1Z"/><path class="cls-7" d="M64.44,97.88c.45-.13.89-.27,1.33-.42l-.58-.81A10.71,10.71,0,0,0,64.44,97.88Z"/><path d="M65.5,95.71a11.38,11.38,0,0,1,.76-1,1.48,1.48,0,0,0,.36-.76,11.67,11.67,0,0,1-.94-1.21,3.18,3.18,0,0,0-1-1.08,4,4,0,0,1-.31-.81,9,9,0,0,0-2-2.24,4.65,4.65,0,0,1-1.08-1.35s-2.42-2.52-3.72-4-3.82-3.87-3.82-3.87l-.63-.89a.55.55,0,0,0-.67-.54l-.27-.5c-.09-.45-.14-7.36-.14-7.36l.18-.09,0-1.75.36-.18c.13-.54-1-.36-1-.36-1.71-.27-5.88-.41-5.88-.41l-.13-2.66c-1.51-.52-3.14-1.1-4.72-1.69A28.27,28.27,0,0,1,37,61.14l.48,5.92c-4.13.31-2.56,1.48-2.56,1.48l0,.18.94,5.66a48.57,48.57,0,0,0-3.28,4.71c-.36.54-1.88,2.38-3.28,4.5-1,1.57-4.25,6.41-5.83,8.8l.63.39a27.07,27.07,0,0,1,1.52-2.32s4.49,2.6,7.23,4.4c.82.53,1.95,1.25,3.2,2l1.41.17-.79-.5c-1.62-1-9-5.74-9.34-5.88a7.9,7.9,0,0,1-1.3-.94c2.33-3.5,6.51-9.16,6.51-9.16l.22-.72s2.43-3.28,3-3.91.72-.76,2.38.41,6.28,5.52,6.82,6A12.84,12.84,0,0,1,46.46,84c.2.26,1.06,1.11,1.77,1.79h0l1,1s.49,5.34.81,6.56a30.8,30.8,0,0,1,.36,4c0,.46.05.92.09,1.35l.63.08c-.13-1.26-.23-2.38-.23-2.83A32.61,32.61,0,0,0,50.37,92c-.23-1.71-.54-6.51-.81-7.28a4.91,4.91,0,0,0-1.35-1.61l0-.63a8.68,8.68,0,0,1,1.25-1.12c.54-.36,2.92-2.56,3-2.3a.84.84,0,0,0,.45.41s1,1,2.56,2.6,7.1,7.77,7.1,7.77a18,18,0,0,0-1.62,2.34A19.06,19.06,0,0,1,59.62,95a33.9,33.9,0,0,1-2.16,2.83c-.12.11-.6.74-1.24,1.6l.74.09a12.85,12.85,0,0,0,.82-1.15c0-.22,1.43-1.62,1.93-2.42l3.37-5.57,2.69,3.77-1.12,1.62a10.83,10.83,0,0,0-1.44,2,5.29,5.29,0,0,1-.32.54l.3-.08c.76-1.06,1.71-2.35,2.13-2.8ZM46,68.23a19.3,19.3,0,0,1,4.4,0,3.71,3.71,0,0,0,.81.18h.26a12.92,12.92,0,0,1-.13,2.42c-.13,1,.22,6.78.22,6.78L49.83,79l1.35-1.43s-1.76-3.24-1.89-3.68l-.36-.14a5.25,5.25,0,0,0-.49-1.17c-.23-.27-2.29-3.1-2.43-3.37A2.6,2.6,0,0,1,46,68.23Zm-1-2.2s.36,1.93.36,2.47a15.09,15.09,0,0,0,.36,3c.27,1.08.14,2.16.5,2.11s.26-.49.26-.76.45.27,1.17,1.39.27,5,.27,5.61.23.36.23.36l-.5.81s-.27-.4-.54-.22.14,1.39.14,1.39L44.8,80c-.45-3.46-1.8-9.43-1.8-9.74V69.17c.45.09.94,0,.18-.45s-.72,0-.72,0a22.63,22.63,0,0,1-4.58-.4l.32-.09a47.16,47.16,0,0,0-.41-6.43A23.86,23.86,0,0,0,44.93,66Zm-9.38,2.56s5.75.76,6.73.71l0,1.31L44,79.41s-2.2-2.25-3.37-3.37a20.25,20.25,0,0,0-4.09-2.47Zm13.38,16,0,1s-4.22-4.72-6.1-6.25a58.55,58.55,0,0,0-6.2-4.89l-.09-.36A32.92,32.92,0,0,1,40.71,77c1.93,1.62,3.19,3.1,4.76,4.36A41.21,41.21,0,0,1,48.93,84.62Zm2.87-5.93-4.17,3.55-.05-.85a49.46,49.46,0,0,0,4.22-3.28Z"/><path d="M36.05,96.89l3.1,1.93,1.43.29-3.12-2Z"/><path d="M50.46,98.69c0,.47.07.91.12,1.31h.63l-.12-1.22Z"/><path d="M56.22,99.42l-.17.22.9-.12h0Z"/><path d="M45.66,64.71V64.5A58.1,58.1,0,0,1,37,61v.19A28.27,28.27,0,0,0,40.94,63C42.52,63.61,44.15,64.19,45.66,64.71Z"/><path d="M65.32,95.44c-.42.45-1.37,1.74-2.13,2.8l.51-.14c.63-.77,1.3-1.7,1.8-2.39Z"/><path class="cls-4" d="M38.2,68.23l-.32.09a22.63,22.63,0,0,0,4.58.4s0-.45.72,0,.27.54-.18.45v1.08c0,.31,1.35,6.28,1.8,9.74l2.38,2.25S46.77,81,47,80.85s.54.22.54.22l.5-.81s-.23.27-.23-.36.45-4.49-.27-5.61-1.17-1.66-1.17-1.39.09.72-.26.76-.23-1-.5-2.11a15.09,15.09,0,0,1-.36-3c0-.54-.36-2.47-.36-2.47a23.86,23.86,0,0,1-7.14-4.23A47.16,47.16,0,0,1,38.2,68.23Z"/><path class="cls-3" d="M44,79.41l-1.66-8.8,0-1.31c-1,0-6.73-.71-6.73-.71l1,5A20.25,20.25,0,0,1,40.62,76C41.79,77.16,44,79.41,44,79.41Z"/><path class="cls-3" d="M48.44,72.58a5.25,5.25,0,0,1,.49,1.17l.36.14c.13.44,1.89,3.68,1.89,3.68L49.83,79l1.7-1.39s-.35-5.79-.22-6.78a12.92,12.92,0,0,0,.13-2.42h-.26a3.71,3.71,0,0,1-.81-.18,19.3,19.3,0,0,0-4.4,0,2.6,2.6,0,0,0,0,1C46.15,69.48,48.21,72.31,48.44,72.58Z"/><path class="cls-3" d="M47.58,81.39l.05.85,4.17-3.55v-.58A49.46,49.46,0,0,1,47.58,81.39Z"/><path class="cls-3" d="M45.47,81.34C43.9,80.08,42.64,78.6,40.71,77a32.92,32.92,0,0,0-4.13-2.87l.09.36a58.55,58.55,0,0,1,6.2,4.89c1.88,1.53,6.1,6.25,6.1,6.25l0-1A41.21,41.21,0,0,0,45.47,81.34Z"/><path class="cls-3" d="M32.85,94.86c-2.74-1.8-7.23-4.4-7.23-4.4a27.07,27.07,0,0,0-1.52,2.32A50.23,50.23,0,0,0,31,96.25l5.08.64C34.8,96.11,33.67,95.39,32.85,94.86Z"/><path class="cls-3" d="M31,96.25a50.18,50.18,0,0,0,8.18,2.57l-3.1-1.93Z"/><path class="cls-3" d="M64.65,95.76l1.12-1.62-2.69-3.77-3.37,5.57c-.5.8-1.89,2.2-1.93,2.42A12.85,12.85,0,0,1,57,99.51h0a49.93,49.93,0,0,0,5.89-1.19,5.29,5.29,0,0,0,.32-.54A10.83,10.83,0,0,1,64.65,95.76Z"/><path class="cls-3" d="M57,99.52h0Z"/><path class="cls-7" d="M57.46,97.82A33.9,33.9,0,0,0,59.62,95a19.06,19.06,0,0,0,1.3-2.78,18,18,0,0,1,1.62-2.34S57,83.72,55.44,82.1s-2.56-2.6-2.56-2.6a.84.84,0,0,1-.45-.41c-.09-.26-2.47,1.94-3,2.3a8.68,8.68,0,0,0-1.25,1.12l0,.63a4.91,4.91,0,0,1,1.35,1.61c.27.77.58,5.57.81,7.28a32.61,32.61,0,0,1,.49,3.91c0,.45.1,1.57.23,2.83l5.13.65C56.86,98.56,57.34,97.93,57.46,97.82Z"/><path class="cls-7" d="M51.09,98.77l.12,1.22c1.64,0,3.25-.16,4.84-.35l.17-.22Z"/><path class="cls-7" d="M49,92s-.49-3.37-.49-4.22a14.6,14.6,0,0,0-.25-2c-.71-.68-1.57-1.53-1.77-1.79a12.84,12.84,0,0,0-1.53-1.66c-.54-.45-5.16-4.81-6.82-6s-1.84-1-2.38-.41-3,3.91-3,3.91l-.22.72S28.36,86.24,26,89.74a7.9,7.9,0,0,0,1.3.94c.36.14,7.72,4.9,9.34,5.88l.79.5,11.78,1.48Z"/><path class="cls-7" d="M50.46,98.69c0-.43-.06-.89-.09-1.35,0,.46.05.92.09,1.35Z"/><path class="cls-7" d="M37.46,97.06l3.12,2a50,50,0,0,0,8.72.88l-.06-1.45Z"/><path class="cls-7" d="M50.46,98.69c0,.47.07.91.12,1.31h0c0-.4-.09-.84-.12-1.31Z"/><path class="cls-3" d="M50,93.29a30.8,30.8,0,0,1,.36,4,30.8,30.8,0,0,0-.36-4c-.32-1.22-.81-6.56-.81-6.56l-1-1h0l1,1S49.69,92.07,50,93.29Z"/><path class="cls-3" d="M49,92l.27,6.51,1.22.15c0-.43-.06-.89-.09-1.35a30.8,30.8,0,0,0-.36-4c-.32-1.22-.81-6.56-.81-6.56l-1-1a14.6,14.6,0,0,1,.25,2C48.48,88.66,49,92,49,92Z"/><path class="cls-3" d="M49.24,98.54,49.3,100h1.28c0-.4-.09-.84-.12-1.31Z"/><path d="M58.17,48.15a3,3,0,0,0,3.48.27,4.93,4.93,0,0,0,3.19-4.66,3.9,3.9,0,0,0-.33-1.55c-.4-.71,0-1,.26-1.14s-.69-1.75-2.32-1.48a6.11,6.11,0,0,0-3.25,1.65,7.39,7.39,0,0,0-1.73,4.19C57.44,47.58,57.47,47.85,58.17,48.15Zm3-7.27c.37,0,.44-.17.74-.24s.61.27,1.12.51a2.55,2.55,0,0,1,1,2.15,7.32,7.32,0,0,1-.27,2.23l-1,1.68c-1.51,1.14-2.15,1.08-2.15,1.08,1.14-.51,1.34-2.16,1.34-2.16a1.05,1.05,0,0,1-1.48-.37s.44,1.58-.07-.13a1.38,1.38,0,0,1,1.28-1.86,8,8,0,0,0-1.61-2.29S60.76,40.88,61.13,40.88Z"/><path d="M44.77,40.27a5.77,5.77,0,0,0-4.82.34,5.13,5.13,0,0,0-1.75,1.61l.63.77s-.57,2.35-.1,3.42a5.64,5.64,0,0,1,.49,1.51,9.35,9.35,0,0,1,.87.94s.2.1.79.47a8,8,0,0,1,1.16.91,6.84,6.84,0,0,0,4.12.54,8.26,8.26,0,0,0,1.72-.94,3.16,3.16,0,0,0,1.36-2.29,9.45,9.45,0,0,0-1.19-4.33A7.91,7.91,0,0,0,44.77,40.27Zm3.53,6.67a3.4,3.4,0,0,1-.57,1.85c-.54.64-.91,1.15-.91,1.15a4.32,4.32,0,0,1-2.19.6,5.57,5.57,0,0,0,2.53-2.62s-1.92.6-2.13-1.22,2-1.44,2-1.44a3.72,3.72,0,0,0-4.21-2.56c-3.37.43-3.47,2.62-3.47,2.62a3.68,3.68,0,0,1,1.78-3.9A4.83,4.83,0,0,1,44.43,41,7.56,7.56,0,0,1,46,42.06a11.23,11.23,0,0,1,1.31,1.75,1.82,1.82,0,0,1,.21.7l.16,0a3.09,3.09,0,0,0,.14.84A3.35,3.35,0,0,1,48.3,46.94Z"/><path class="cls-8" d="M47.69,44.48l-.16,0a1.82,1.82,0,0,0-.21-.7A11.23,11.23,0,0,0,46,42.06,7.56,7.56,0,0,0,44.43,41a4.83,4.83,0,0,0-3.34.44,3.68,3.68,0,0,0-1.78,3.9s.1-2.19,3.47-2.62A3.72,3.72,0,0,1,47,45.26s-2.16-.37-2,1.44,2.13,1.22,2.13,1.22a5.57,5.57,0,0,1-2.53,2.62,4.32,4.32,0,0,0,2.19-.6s.37-.51.91-1.15a3.4,3.4,0,0,0,.57-1.85,3.35,3.35,0,0,0-.47-1.62A3.09,3.09,0,0,1,47.69,44.48Z"/><path class="cls-8" d="M61.67,43.77a1.38,1.38,0,0,0-1.28,1.86c.51,1.71.07.13.07.13a1.05,1.05,0,0,0,1.48.37s-.2,1.65-1.34,2.16c0,0,.64.06,2.15-1.08l1-1.68A7.32,7.32,0,0,0,64,43.3a2.55,2.55,0,0,0-1-2.15c-.51-.24-.81-.58-1.12-.51s-.37.24-.74.24-1.07.6-1.07.6A8,8,0,0,1,61.67,43.77Z"/></g></g></svg>