<svg xmlns="http://www.w3.org/2000/svg" viewBox="0 0 100 100"><defs><style>.cls-1{fill:#3d344b;}.cls-2{fill:none;}.cls-3{fill:#6db094;}.cls-4{fill:#4c002e;}.cls-5{fill:#d08869;}.cls-6{fill:#dec987;}.cls-7{fill:#d3532d;}.cls-8{fill:#fff;}.cls-9{fill:#d04434;}.cls-10{fill:#7c3357;}.cls-11{fill:#84a884;}</style></defs><title>Estellee</title><g id="Layer_2" data-name="Layer 2"><g id="Layer_1-2" data-name="Layer 1"><circle class="cls-1" cx="50" cy="50" r="50"/><path class="cls-2" d="M66,64.85a16.88,16.88,0,0,0-1.7.84,5.65,5.65,0,0,0,.76,2.8l0,.51a9.13,9.13,0,0,0,2.8,3,12.54,12.54,0,0,0,4.66,1.73,9.65,9.65,0,0,0,6.52-2.23s2.94-2.81,2.94-6-.71-4-.71-4c-.17-.92-1.18-1.83-2-2.77a4.53,4.53,0,0,0-.91-.77c-.51.4-.86.65-.86.65A106.39,106.39,0,0,1,66,64.85Z"/><path class="cls-2" d="M24.91,46.09l.2,0s0-.17,0-.39a18.42,18.42,0,0,1-2.12,0c-.62,0-.78.3-.83.86a6.44,6.44,0,0,1,.65-.45A1.93,1.93,0,0,1,24.91,46.09Z"/><path class="cls-2" d="M26.37,68.93a6,6,0,0,1-4.66-3.33,8.46,8.46,0,0,1,0-7.46.9.9,0,0,0,.16-.28h0a9.87,9.87,0,0,0-3.77,1c-.74.4-4,2.63-4.59,5.71a9.28,9.28,0,0,0,.61,5.5,5.28,5.28,0,0,0,1.65,2.37,9.24,9.24,0,0,0,7.47,2.6,8.45,8.45,0,0,0,6.55-4.16,4.6,4.6,0,0,0,.8-2.19,8.79,8.79,0,0,1-.93-1A4.32,4.32,0,0,1,26.37,68.93Z"/><path class="cls-2" d="M76.32,7.63a3,3,0,0,1,1.76,2.61c.11.66,0,2.39.47,2.68A9.81,9.81,0,0,1,80,14.52,5.75,5.75,0,0,1,81.7,17a6.76,6.76,0,0,1-.7,5.11,3.57,3.57,0,0,1-2.5,1.78c-1.46.24-2.52.24-3.19.31a1.24,1.24,0,0,0-1,1.49,2.42,2.42,0,0,1-.16,1.91,9,9,0,0,1-2.34,1.24,3.32,3.32,0,0,0-1,.09,11.8,11.8,0,0,1-4.26.07c-.61-.16-1.73-.74-2-.74s-.11.27-.11.27.85.65,1.35,1.14,1.51.5,3.17.59,7.3-.11,9.73.45,4.69,3,4.44,5.16a5.45,5.45,0,0,1-2.1,3.71c-.74.77-1.12,1.74-.58,2.23a4.15,4.15,0,0,0,1.21.75A10.22,10.22,0,0,1,84.9,44.2a1.46,1.46,0,0,1,1.08.52c.34.83,0,1.22-.5,2.09A10.7,10.7,0,0,1,81.9,50c-1.14.5-.36,1,.41,1.44a2.14,2.14,0,0,1,1.13,1.87.77.77,0,0,1-.61.92,24.17,24.17,0,0,1-3.38,3,12,12,0,0,1,2.23,2.59s2.09,4.09,1.18,7.87-3,5.14-3,5.14A9.54,9.54,0,0,1,68.4,74.06c-2.23-1.18-4.19-4.25-4.19-4.25l-.06-.58-.61-1.55a11.2,11.2,0,0,1-.19-1.33A3,3,0,0,0,62,68.64c0,1-.29,2.11-.67,2.34s-1.71,1.28-1.71,1.28v.18a5.92,5.92,0,0,0-2,3.11,2.48,2.48,0,0,0-.52-.14c-.18,1.14-.32,2.08-.32,2.08a3.6,3.6,0,0,1,.58.75,2.36,2.36,0,0,1,1.14-.1c1.1.11,1.23,1.71,1.12,2.07a2.39,2.39,0,0,1-.67.94c.16.3.28.56.36.71s.29.49.36.58c.18.27,1.3,2.84,1.3,2.84s.32,0,.32.13a1.94,1.94,0,0,0,.31,1,3.67,3.67,0,0,1,.63,1.36c.14.49,2.08,4.18,2.35,4.77s.81,1.53.81,1.53v.45a9.46,9.46,0,0,1,1,2.16s.77-.45,1-.31c.09,0,.13.22.15.44A50,50,0,0,0,75.09,6.74a.34.34,0,0,0,0,.12C75.26,7.13,76.32,7.63,76.32,7.63Z"/><path class="cls-2" d="M26.22,94a.21.21,0,0,1,0-.06c.18-.26.51.23.63.42l.07,0c.81-1.25,2.32-2.84,2.54-3.16a12.47,12.47,0,0,1,1-1.53c.41-.4,2.39-2.61,2.39-2.61a2,2,0,0,1,.36-.77,14.16,14.16,0,0,1,2.51-2.58,5.22,5.22,0,0,1,.82-.79,7.15,7.15,0,0,1,1.67-.86l.29-.21a1,1,0,0,1-.31-.71,1.9,1.9,0,0,1,.36-1.31,1.66,1.66,0,0,1,1.5-.61,1.34,1.34,0,0,1,.89.69l.59-.45a1.61,1.61,0,0,1-.21-.3,1.42,1.42,0,0,1,.31-2c.32-.38,1.06-.27,1.53,0a2.21,2.21,0,0,1,.71.83l.46-.33-.09-1.35c0-.19-.06-.89-.17-1.71a54,54,0,0,1-8.88-2.75,31.44,31.44,0,0,1-3.55-2.2A9.82,9.82,0,0,1,25,76.46c-3.21,1.08-5.31.1-7.27-.67s-4-3.72-4.29-4.23a2.37,2.37,0,0,1-.37-1A10.77,10.77,0,0,1,12.33,67a9.07,9.07,0,0,1,1.79-6.22A10.34,10.34,0,0,1,18.54,57a7.05,7.05,0,0,1,2.35-.46c-2.11-2.13-1.56-5.47-1.28-6.7a3.75,3.75,0,0,1,.58-1.22l-.91-.49s-.54-.23-.09-.5l.27-2.61.4-.18s-.31-.45.45-.63c.34-.08,2.1-.34,4.2-.53a6.47,6.47,0,0,1-.8-2.6c.12-1.06.41-1.51,1.71-3.18a7.58,7.58,0,0,1,2.66-2.23c1.06-1,4.66-.9,4.66-.9.07-1.06,0-5,0-5s.34-1.06,2.27-2.14a10.36,10.36,0,0,1,6.18-.9,22.41,22.41,0,0,0,3.13.36,4.86,4.86,0,0,1,0-1.22,4.76,4.76,0,0,1,2.43-1.32c.5-.12-.06-.43-.06-.43a25.63,25.63,0,0,1-2.84-3.52,23.25,23.25,0,0,1-2.46-7,17,17,0,0,1,.3-5.79,14.64,14.64,0,0,1,3-6.13c.31-.32,1.32-1.13,2-1.64A50,50,0,0,0,26.22,94Z"/><path class="cls-2" d="M41.69,79.59l-.13-.11-.59.45s.05.09.07.14Z"/><path d="M26.26,93.93a.21.21,0,0,0,0,.06l.67.36C26.77,94.16,26.44,93.67,26.26,93.93Z"/><path d="M67.47,96.36c-.27-.14-1,.31-1,.31a9.46,9.46,0,0,0-1-2.16v-.45s-.54-.94-.81-1.53-2.21-4.28-2.35-4.77a3.67,3.67,0,0,0-.63-1.36,1.94,1.94,0,0,1-.31-1c0-.13-.32-.13-.32-.13s-1.12-2.57-1.3-2.84c-.07-.09-.2-.31-.36-.58.06.11.09.18.09.18-.59,3.6-2.84,6.44-4.91,9.27A46.87,46.87,0,0,1,49,97.44a31.88,31.88,0,0,1-5.59,1.35,36.07,36.07,0,0,1-4.1-.09,11.27,11.27,0,0,1-2.65-.63c-.9-.32-1.81-.68-1.81-1.26s.09-6.22.09-6.76a28.59,28.59,0,0,1,.73-3.6,4.19,4.19,0,0,0-.05-2.3.61.61,0,0,1,.17-.42,14.16,14.16,0,0,0-2.51,2.58,2,2,0,0,0-.36.77s-2,2.21-2.39,2.61a12.47,12.47,0,0,0-1,1.53c-.22.32-1.73,1.91-2.54,3.16l.74.38a70.13,70.13,0,0,1,4.5-5.65,52.21,52.21,0,0,0-.69,7.36l.82.32c0-1.14,0-2.33.13-3.44.27-3.38.54-4.52.88-5.13s.2-.71.2-.71a22.89,22.89,0,0,1,1.93-2s-.58,2.56-.81,4.25-.17,6.28-.17,7.26c0,.16,0,.33,0,.51l.61.2a.61.61,0,0,0,0-.14.68.68,0,0,0,.16.19c1.47.45,3,.83,4.48,1.15l.57,0c4.88.41,7.5-1,7.5-1-.3.32-1.18,1.13-2,1.86l1,.08a32.1,32.1,0,0,0,2.82-2.73c2.81-3.14,7.1-6.62,9.9-13.61a20.52,20.52,0,0,0,1.11,2.26l-.17.4a29.92,29.92,0,0,1-6.72,9.87s-1.47,1.68-3.81,3.91h.94c1.14-1.18,2.59-2.69,3-3.11a46,46,0,0,0,3.29-3.72,26.61,26.61,0,0,0,3.74-6.6l.2.18L65.91,97a8.89,8.89,0,0,0-2.59,1.2c1.46-.41,2.9-.88,4.3-1.41C67.6,96.58,67.56,96.4,67.47,96.36Z"/><path d="M59.5,92a28.41,28.41,0,0,0-2.14,3.26,11.74,11.74,0,0,0-1.45,4.42l.65-.08a14.71,14.71,0,0,1,2.78-6.3C60.51,91.88,59.5,92,59.5,92Z"/><path d="M45.33,28.83a12.42,12.42,0,0,1,4-.95,1.69,1.69,0,0,1,1,.53,1.69,1.69,0,0,0-1-.53A12.42,12.42,0,0,0,45.33,28.83Z"/><path d="M45.14,28.91l-.09.05Z"/><path d="M44.72,29l-.14,0-.11.09h0A.21.21,0,0,0,44.72,29Z"/><path d="M51.61,28.66a17.41,17.41,0,0,1,2.51,0A17.41,17.41,0,0,0,51.61,28.66Z"/><path d="M56.09,28.87c.81.07,2.47.29,3.45.43h0C58.56,29.16,56.9,28.94,56.09,28.87Z"/><path d="M62.75,26.09l.1.07Z"/><path d="M63.35,26.54l0,0Z"/><path d="M60.87,29a4.72,4.72,0,0,1,.45-.16A4.72,4.72,0,0,0,60.87,29Z"/><path d="M63.47,26.64l0,0Z"/><path d="M33.45,35.72l.14-.14,0,0a1,1,0,0,0,.07-.24c-.15.12-.3.26-.46.4A.36.36,0,0,0,33.45,35.72Z"/><path d="M63,28.57h0Z"/><path d="M62.93,65.55c-.67.37-.67.44-1.35,1.25S61.07,67.88,61,69a1.92,1.92,0,0,1-.74,1.76c-.41.3-.71.41-1.52.91a2.91,2.91,0,0,0-1.15,1.69.55.55,0,0,1-.24.31l-.28,1.78a2.48,2.48,0,0,1,.52.14,5.92,5.92,0,0,1,2-3.11v-.18S60.92,71.2,61.3,71s.63-1.33.67-2.34a3,3,0,0,1,1.38-2.29c0-.34,0-.68,0-1Z"/><path d="M56.12,24h0Z"/><path d="M24.56,46.84a1.54,1.54,0,0,0,.7.07,2.79,2.79,0,0,0,0-.32,2.79,2.79,0,0,1,0,.32.58.58,0,0,0,.48-.48,6.68,6.68,0,0,0,0-.78l-.65,0c0,.22,0,.39,0,.39l-.2,0a1.93,1.93,0,0,0-2.08,0,6.44,6.44,0,0,0-.65.45c0,.25,0,.55,0,.87A2.35,2.35,0,0,1,24.56,46.84Z"/><path d="M55.93,24h0Z"/><path d="M55.73,24h0Z"/><path d="M51.61,28.66l-.27,0Z"/><path d="M26,68.12c-1.92-.41-3.75-2-4.15-5.3-.33-2.66.32-3.88.6-4.26a8.73,8.73,0,0,1-.64-.7.9.9,0,0,1-.16.28,8.46,8.46,0,0,0,0,7.46,6,6,0,0,0,4.66,3.33,4.32,4.32,0,0,0,3.26-1.25l-.37-.48A3.89,3.89,0,0,1,26,68.12Z"/><path d="M64.72,27.4a1.25,1.25,0,0,0-.53-.12l.16.18Z"/><path d="M33.59,35.58l-.14.14A.27.27,0,0,0,33.59,35.58Z"/><path d="M62.54,25.93l.15.11Z"/><path d="M55.51,24h0Z"/><path d="M80.64,49.57a17.84,17.84,0,0,0,2.83-2.16,1.17,1.17,0,0,0,.22-.37c-.86.64-1.89,1.36-2.42,1.82A3.17,3.17,0,0,0,80.64,49.57Z"/><path d="M67.05,63.39c-1,.53-2,1-2.71,1.42a8.73,8.73,0,0,0,0,.88,16.88,16.88,0,0,1,1.7-.84,106.39,106.39,0,0,0,11.55-6.17s.35-.25.86-.65a9.3,9.3,0,0,0-.94-.55L74.82,59.1C72.69,60.18,68.84,62.44,67.05,63.39Z"/><path d="M55,23.94h0Z"/><path d="M54.76,23.92h0Z"/><path d="M76,8.43c1.49,1.05,1.19,2.77,1.22,3.65a6.48,6.48,0,0,0,.24,2.09,8.34,8.34,0,0,1,.6,2c0,.37.78,1,1.46,1.38s1-.2.77-.16-.47-.07-.91-.34a1.09,1.09,0,0,1-.47-.81,9,9,0,0,0-.64-1.69c-.24-.27-.21-1.18-.21-1.18,2.13,1.89,3,3.17,3.18,5.2a6.12,6.12,0,0,1-1.08,3.65A7.75,7.75,0,0,0,78.4,23a8.65,8.65,0,0,1-3.27.61c-.88,0-1.83.57-1.66,1.45s.37,1.49,0,1.76a9.52,9.52,0,0,1-5.13,1.58c-2.16-.06-2.43-.27-3.14-.71l-.51.11.51-.11-.34-.2-.17-.08-.37.06a.73.73,0,0,1,.17.28s-.59.29-.59.54-.12.2-.34.23a13.86,13.86,0,0,0,1.71,1.37c.7.51,1.25.95,3.64.95a63.46,63.46,0,0,1,8.31.16l.43.07a9,9,0,0,0-.87-.3,9,9,0,0,1,.87.3c2.42.42,3.15,1.43,3.66,2.74s.85,3.78-.44,4.73a3.6,3.6,0,0,0-1.42,2.33l.27.17a1.29,1.29,0,0,0,.41,1.18,13.74,13.74,0,0,0,2.53,1.08A17.59,17.59,0,0,1,85,44.68a1.07,1.07,0,0,1-.17,1.45c-.26.24-.67.57-1.13.91a1.17,1.17,0,0,1-.22.37,17.84,17.84,0,0,1-2.83,2.16,1.57,1.57,0,0,0-.14,1.12c.1.71,1.38,1.28,1.38,1.28a6.43,6.43,0,0,0,.47.75c.27.74-.27,1.68-1.38,2.53-.13.1-.32.23-.55.38s-.43.45-.7.7c.27-.25.5-.48.7-.7-.44.3-1,.67-1.66,1.07.24.17.47.36.69.55a24.17,24.17,0,0,0,3.38-3,.77.77,0,0,0,.61-.92,2.14,2.14,0,0,0-1.13-1.87c-.77-.43-1.55-.94-.41-1.44a10.7,10.7,0,0,0,3.58-3.18c.5-.87.84-1.26.5-2.09a1.46,1.46,0,0,0-1.08-.52,10.22,10.22,0,0,0-3.18-1.66,4.15,4.15,0,0,1-1.21-.75c-.54-.49-.16-1.46.58-2.23a5.45,5.45,0,0,0,2.1-3.71c.25-2.16-2-4.6-4.44-5.16s-8.06-.36-9.73-.45-2.68-.09-3.17-.59-1.35-1.14-1.35-1.14-.14-.27.11-.27,1.37.58,2,.74a11.8,11.8,0,0,0,4.26-.07,3.32,3.32,0,0,1,1-.09,9,9,0,0,0,2.34-1.24,2.42,2.42,0,0,0,.16-1.91,1.24,1.24,0,0,1,1-1.49c.67-.07,1.73-.07,3.19-.31A3.57,3.57,0,0,0,81,22.09,6.76,6.76,0,0,0,81.7,17,5.75,5.75,0,0,0,80,14.52a9.81,9.81,0,0,0-1.48-1.6c-.5-.29-.36-2-.47-2.68a3,3,0,0,0-1.76-2.61s-1.06-.5-1.19-.77a.34.34,0,0,1,0-.12l-.69-.39C74.4,7.14,74.91,7.66,76,8.43Z"/><path d="M62.92,26.21l.08.06Z"/><path d="M63.08,26.33l.06.05Z"/><path d="M63.59,26.74Z"/><path d="M54.47,23.91h0Z"/><path d="M60.05,29.37l-.51-.07h0l.51.07Z"/><path d="M63.22,26.44l.05,0Z"/><path d="M60.31,29.41h0l-.26,0h0Z"/><path d="M20.67,55.82c-1-2.88-.31-7.07-.31-7.07l-.17-.09a3.75,3.75,0,0,0-.58,1.22c-.28,1.23-.83,4.57,1.28,6.7H21A7.56,7.56,0,0,1,20.67,55.82Z"/><path d="M44.75,1.75a14.64,14.64,0,0,0-3,6.13,17,17,0,0,0-.3,5.79,23.25,23.25,0,0,0,2.46,7,25.63,25.63,0,0,0,2.84,3.52s.56.31.06.43a4.76,4.76,0,0,0-2.43,1.32,4.86,4.86,0,0,0,0,1.22,22.41,22.41,0,0,1-3.13-.36,10.36,10.36,0,0,0-6.18.9c-1.93,1.08-2.27,2.14-2.27,2.14s.09,4,0,5c0,0-3.6-.13-4.66.9a7.58,7.58,0,0,0-2.66,2.23c-1.3,1.67-1.59,2.12-1.71,3.18a6.47,6.47,0,0,0,.8,2.6l1-.08a14.92,14.92,0,0,0-.71-2.07,9.68,9.68,0,0,1,1.35-3.38,6.88,6.88,0,0,1,4.39-2.91c1.35-.16,1.49.17,1.49.17a.38.38,0,0,1,.4-.2c.2,0,.55.38.83.47.16-.14.31-.28.46-.4a19.22,19.22,0,0,0,.1-4,3,3,0,0,1,.13-1.56,5.08,5.08,0,0,1,3.65-2.49,6.52,6.52,0,0,1,4.19.5,2.86,2.86,0,0,1,.74.1c.3.1,1.49,1,2,1.18l.11-.09a.48.48,0,0,1-.26-.19c-.14-.2.2-1.05.2-1.55S44.43,26,45,25.62s2.05-.69,2.32-1-.56-.79-.56-.79a3.37,3.37,0,0,1,.46,0,25.22,25.22,0,0,1-2.1-2.5C43.91,19.64,40.67,13,42.43,7.72s4.79-7,5.13-7.23L48.18,0c-.49,0-1,0-1.45.08C46.07.62,45.06,1.43,44.75,1.75Z"/><path class="cls-3" d="M72.66,9.17a1.48,1.48,0,0,1-.1,1.69c-.34.31-1.15.71-2,1.25a1,1,0,0,0-.27,1.49c.13.2,1.72,1.65,1.52,5.27a11.62,11.62,0,0,1-3,6.86,6.18,6.18,0,0,1-2.13,1.18c-.37,0-1.15.32-2,.49l.17.08.34.2,1.28-.27a6.3,6.3,0,0,0,1.72-1.14,6.3,6.3,0,0,1-1.72,1.14l-1.28.27c.71.44,1,.65,3.14.71a9.52,9.52,0,0,0,5.13-1.58c.34-.27.14-.88,0-1.76s.78-1.42,1.66-1.45A8.65,8.65,0,0,0,78.4,23a7.75,7.75,0,0,1,1.76-.74,6.12,6.12,0,0,0,1.08-3.65c-.14-2-1-3.31-3.18-5.2,0,0,0,.91.21,1.18a9,9,0,0,1,.64,1.69,1.09,1.09,0,0,0,.47.81c.44.27.64.37.91.34s-.1.54-.77.16-1.42-1-1.46-1.38a8.34,8.34,0,0,0-.6-2,6.48,6.48,0,0,1-.24-2.09c0-.88.27-2.6-1.22-3.65-1.09-.77-1.6-1.29-1.6-2.08a50.7,50.7,0,0,0-5-2.46,8.08,8.08,0,0,0,.24,2.28A30.79,30.79,0,0,0,72.66,9.17Z"/><path class="cls-3" d="M47.12,12.86c-.34,1.68.2,4.72,1,7.49A14.18,14.18,0,0,0,51,23.83l3.48.08h.58l.46,0h.77l.67.07.73.09.14,0c-.3-.62-.89-1.62-1.21-2.41a12.15,12.15,0,0,1-.5-3.51A27.28,27.28,0,0,1,59.35,5.8,19.27,19.27,0,0,1,62.6,1.6,50.3,50.3,0,0,0,53.86.15a30.48,30.48,0,0,0-5.93,8.79S47.46,11.17,47.12,12.86Z"/><path class="cls-3" d="M60.43,5.29A28.81,28.81,0,0,0,59.18,8.4a22.16,22.16,0,0,0-1.76,3.91,18.5,18.5,0,0,0-.3,7.61,20,20,0,0,0,1.43,4.39,10.31,10.31,0,0,1,4,1.61h0l.15.11.06.05.1.07.07.05.08.06.08.06.06.05.08.06.05,0,.08.06,0,0,.08.06,0,0,.09.08h0c.27.23.46.4.6.54a1.25,1.25,0,0,1,.53.12c.81-.17,1.59-.47,2-.49a6.18,6.18,0,0,0,2.13-1.18,11.62,11.62,0,0,0,3-6.86c.2-3.62-1.39-5.07-1.52-5.27a1,1,0,0,1,.27-1.49c.81-.54,1.62-.94,2-1.25a1.48,1.48,0,0,0,.1-1.69,30.79,30.79,0,0,1-3-3,8.08,8.08,0,0,1-.24-2.28,50.22,50.22,0,0,0-6-2.09L63,2.11A24.72,24.72,0,0,0,60.43,5.29Z"/><path class="cls-3" d="M42.43,7.72C40.67,13,43.91,19.64,45.16,21.33a25.22,25.22,0,0,0,2.1,2.5c.77,0,2.21,0,3.73,0a14.18,14.18,0,0,1-2.92-3.48c-.75-2.77-1.29-5.81-1-7.49s.81-3.92.81-3.92A30.48,30.48,0,0,1,53.86.15C52.58.05,51.3,0,50,0c-.61,0-1.22,0-1.82,0l-.62.46C47.22.73,44.18,2.48,42.43,7.72Z"/><path class="cls-3" d="M59.35,5.8a27.28,27.28,0,0,0-3.24,12.46,12.15,12.15,0,0,0,.5,3.51c.32.79.91,1.79,1.21,2.41l.73.13a20,20,0,0,1-1.43-4.39,18.5,18.5,0,0,1,.3-7.61A22.16,22.16,0,0,1,59.18,8.4a28.81,28.81,0,0,1,1.25-3.11A24.72,24.72,0,0,1,63,2.11l.37-.31-.73-.2A19.27,19.27,0,0,0,59.35,5.8Z"/><path class="cls-3" d="M70.81,56c-1.22,2.07-3.51,5.09-5.73,5.91l-.16.06a11.66,11.66,0,0,0-.41,1.49,32.82,32.82,0,0,0,7-5.14,18.68,18.68,0,0,0,1.92-2,24.92,24.92,0,0,0-2.9.34Z"/><path class="cls-3" d="M26.3,61.14a2.81,2.81,0,0,0,0-.45l-1.56-.41a10.31,10.31,0,0,1-1.64-1.13,7.09,7.09,0,0,0,.2,4.24c.4,1,.59,2.39,2.34,3.2a2.6,2.6,0,0,0,2.92-.36c-.66-1-1.12-1.85-1.12-1.85S26.17,61.9,26.3,61.14Z"/><path class="cls-3" d="M25.74,46.43a.58.58,0,0,1-.48.48,6.14,6.14,0,0,1-.12,2.36,1.39,1.39,0,0,1,.58.47l.45-.27a9.74,9.74,0,0,0,1.09-3.33.08.08,0,0,0,0,0,.08.08,0,0,1,0,0l0-.32,0-.25c-.46,0-1,0-1.54.08A6.68,6.68,0,0,1,25.74,46.43Z"/><path class="cls-3" d="M27.26,46.14a2.19,2.19,0,0,1,.21-.57h-.15l0,.25Z"/><path class="cls-3" d="M22.16,47.94s-.23,4.19-.09,6.08a5.74,5.74,0,0,0,1,2.62c.19,0,.39,0,.61.08-.06-.18-.17-.33-.26-.63-.22-.76-1-3.69-.31-5.9l.68-.9a1.73,1.73,0,0,1,1.31,0,6.14,6.14,0,0,0,.12-2.36,1.54,1.54,0,0,1-.7-.07,2.35,2.35,0,0,0-2.39.62C22.17,47.61,22.16,47.77,22.16,47.94Z"/><path class="cls-3" d="M29.91,43.5a3.08,3.08,0,0,1,1.44-.15c1.84.27,2.88.4,4.28-.63-1.4,1-2.44.9-4.28.63a3.08,3.08,0,0,0-1.44.15,9.06,9.06,0,0,1,2,.25c.78.22,1.57.44,2.34.64a6.5,6.5,0,0,0,1.67-1c1.3-1.12,2-3,3-3.83s1.8-1.48,3-1.39a4.49,4.49,0,0,1,2.39,1.35,14.76,14.76,0,0,0,1.35,1.17,3.78,3.78,0,0,0,2.16-.18,24.68,24.68,0,0,1,2.43-1.85c.77-.36,1.44-.13,1.35.23A2.62,2.62,0,0,0,51.76,41c.8-.24,1.63-.46,2.48-.64a5.34,5.34,0,0,1-1.45-.78c-.41-.27-.09-1.12-.63-1.71s-1.67-.09-2.48.36S48,39.74,47.07,40.15s-1.76.18-3-.86c1.22,1,2,1.26,3,.86s1.8-1.49,2.61-1.94,1.93-.94,2.48-.36.22,1.44.63,1.71a5.34,5.34,0,0,0,1.45.78c.47-.09.95-.17,1.43-.24C61.16,39.38,62.6,39,63.23,39a6.3,6.3,0,0,1,1.22.13,17.11,17.11,0,0,1,2,0c.44.08.67.67.81,1.58l2.16,1.71.09.45a7.82,7.82,0,0,1,2,6c-.18,2.15,0,3.54-.63,5.3a3.59,3.59,0,0,1-.32.87h0a19.75,19.75,0,0,1-2.67,4.06,13.21,13.21,0,0,1-3.29,3,13.21,13.21,0,0,0,3.29-3,19.75,19.75,0,0,0,2.67-4.06,6,6,0,0,0-2,.14,3,3,0,0,1-.92.12,16.52,16.52,0,0,1-3.08,5.29c-1,1.06-2.34,2.5-3.35,3.43l-.08.08A16.74,16.74,0,0,1,64.89,62l0,0h0l.16-.06c2.22-.82,4.51-3.84,5.73-5.91l.43-1h.1a5.18,5.18,0,0,0,.32-.79c.31-1.26.63-1.76,1-3.34a17.57,17.57,0,0,0-.14-5.81,9,9,0,0,0-2.07-3.51c-.67-.5-1.26-1.31-2.12-2a6.26,6.26,0,0,0-3.15-1.4,15.54,15.54,0,0,0-5.58.68,8.82,8.82,0,0,1-4.24.49c-.9-.22-1.48-1.66-1.53-2.2s-.76-1.13-.76-1.13a3.48,3.48,0,0,0-2.17.23c-1.48.49-2,1.35-3.06,2.43s-1.71.81-1.71.81A10.06,10.06,0,0,0,43.91,38a5.68,5.68,0,0,0-3.51-.18,11,11,0,0,0-2.57,2.07c-.36.41-.13.68-1.21,1.9s-1.85,1.3-2.17,1.3A8.68,8.68,0,0,1,31.89,42a2.23,2.23,0,0,0-2.34.23,4.66,4.66,0,0,0-1.33,1.22C28.81,43.48,29.38,43.48,29.91,43.5Z"/><path class="cls-3" d="M69.65,33.53s.1-.54-1.45-1.18a3.6,3.6,0,0,0-4,.71l-.1.07A10.31,10.31,0,0,0,65.5,33c1.18-.24,2.73-.37,3.07,0a4.2,4.2,0,0,1,1,3.18,1.68,1.68,0,0,0,.21.83A33,33,0,0,0,69.65,33.53Z"/><path class="cls-3" d="M65.35,55.25c0,.1,0,.2,0,.3-.68,4.69-2.48,6.67-2.48,6.67L61.24,64c1-.93,2.31-2.37,3.35-3.43a16.52,16.52,0,0,0,3.08-5.29A22.68,22.68,0,0,1,65.35,55.25Z"/><path class="cls-3" d="M66.93,43.66h0a8.16,8.16,0,0,1,1.27,1.79A8.61,8.61,0,0,1,68.75,52l1.06,0a3.58,3.58,0,0,1,1.49.64s-.16.84-.36,1.56c.61-1.76.45-3.15.63-5.3a7.82,7.82,0,0,0-2-6l-.09-.45-2.16-1.71c0,.1,0,.2,0,.31A3.63,3.63,0,0,1,66.93,43.66Z"/><path class="cls-3" d="M68.19,45.46a8.16,8.16,0,0,0-1.27-1.79,1.77,1.77,0,0,1-.89.4,4.1,4.1,0,0,0,.13,1.48A27.77,27.77,0,0,1,66,52s.09.22,1,.18l1.82-.1A8.61,8.61,0,0,0,68.19,45.46Z"/><path class="cls-3" d="M37.09,44.26c.88-.69,1.58-1.3,1.73-1.45s.23-1.58,1.8-2.35,2-.49,2.57.14,0,.9,1.44,1,1.67,0,1.9-.27.54-.59.54-.59-.32.32-.54.59-.46.36-1.9.27-.9-.36-1.44-1-1-.9-2.57-.14-1.53,2.08-1.8,2.35-.85.76-1.73,1.45c1.32-.58,2.27-.91,2.27-.91a16.25,16.25,0,0,0,2.89-.72,26,26,0,0,1,6.09-.38A35.58,35.58,0,0,1,51.76,41a2.62,2.62,0,0,1-.15-2.09c.09-.36-.58-.59-1.35-.23a24.68,24.68,0,0,0-2.43,1.85,3.78,3.78,0,0,1-2.16.18,14.76,14.76,0,0,1-1.35-1.17,4.49,4.49,0,0,0-2.39-1.35c-1.22-.09-2,.54-3,1.39s-1.71,2.71-3,3.83a6.5,6.5,0,0,1-1.67,1l1.61.44Z"/><path class="cls-3" d="M26.62,55.91c.79-3,.85-3.87,3.29-7a12.14,12.14,0,0,1,3.18-2.62c-1.73-.29-4-.63-4.67-.71a6.59,6.59,0,0,0-1,0,2.19,2.19,0,0,0-.21.57,9.74,9.74,0,0,1-1.09,3.33l-.45.27a1.39,1.39,0,0,0-.58-.47v0a1.73,1.73,0,0,0-1.31,0l-.68.9c-.68,2.21.09,5.14.31,5.9.09.3.2.45.26.63a12.41,12.41,0,0,1,2.64.66A9.66,9.66,0,0,1,26.62,55.91Z"/><path class="cls-3" d="M25.67,66.59c-1.75-.81-1.94-2.25-2.34-3.2a7.09,7.09,0,0,1-.2-4.24,8.59,8.59,0,0,1-.64-.59c-.28.38-.93,1.6-.6,4.26.4,3.31,2.23,4.89,4.15,5.3a3.89,3.89,0,0,0,3.22-.92c-.24-.33-.46-.66-.67-1A2.6,2.6,0,0,1,25.67,66.59Z"/><path class="cls-3" d="M61,32.85c-.95-.34-.68-1.65-.68-2a2.32,2.32,0,0,0-.31-1.46l-.51-.07A2.36,2.36,0,0,1,60,30a1,1,0,0,1,.18.15A1,1,0,0,0,60,30a3.6,3.6,0,0,1,.22,1.57c-.07,1.39-.14,2,.91,2.3s1.72.17,2.94-.77A9.87,9.87,0,0,1,61,32.85Z"/><path class="cls-3" d="M69.73,37c0,.12,0,.22,0,.32-.12.63,1.88,1.71,3.22,2.36A8.7,8.7,0,0,1,69.73,37Z"/><path class="cls-3" d="M57.88,44.2s1.66.86,2.07,1c0,0,2.25,1.57,2.43,2.16l.18,0,1.31,1.17.22.09a2.09,2.09,0,0,1,.15.21,26.38,26.38,0,0,0-1-7.06s-2.21-.49-9.73.77l-.41.14a13.29,13.29,0,0,1,3.2.94Z"/><path class="cls-3" d="M63.32,64.06c0-.78.08-1.31.08-1.31L64.89,62a16.74,16.74,0,0,0-3.73,2.09l-.88,1A28,28,0,0,0,63.32,64.06Z"/><path class="cls-3" d="M63.32,64.06a28,28,0,0,1-3,1.07c-.48.56-1,1.11-1.33,1.57a36.85,36.85,0,0,0-1.3,5.52c-.08.37-.17.87-.26,1.41a.55.55,0,0,0,.24-.31,2.91,2.91,0,0,1,1.15-1.69c.81-.5,1.11-.61,1.52-.91A1.92,1.92,0,0,0,61,69c0-1.08-.14-1.35.54-2.16s.68-.88,1.35-1.25l.38-.2C63.3,64.88,63.3,64.44,63.32,64.06Z"/><path class="cls-3" d="M71.48,58.36a32.82,32.82,0,0,1-7,5.14,8.27,8.27,0,0,0-.17,1.31c.76-.4,1.72-.89,2.71-1.42,1.79-1,5.64-3.21,7.77-4.29l2.68-1.62a11.84,11.84,0,0,0-2.44-.95,6.85,6.85,0,0,0-1.66-.14A18.68,18.68,0,0,1,71.48,58.36Z"/><path class="cls-3" d="M31.19,41.15a5.08,5.08,0,0,0,.43-1.81,2.7,2.7,0,0,1,0-.67c0,.16-.06.3-.08.4A14.08,14.08,0,0,1,31.19,41.15Z"/><path class="cls-3" d="M26.29,58.88a4.59,4.59,0,0,0-2-.8,3.65,3.65,0,0,0,.67.54,7.45,7.45,0,0,0,1.34.49Z"/><path class="cls-3" d="M33.59,35.58a3.6,3.6,0,0,1,2.62-1.14c1.55.17,3.11.17,4.83.24a2,2,0,0,0,2-1.83,3.72,3.72,0,0,1,1-2.16,11.24,11.24,0,0,1,3.51-1.76,1.78,1.78,0,0,1,2.16.24c.71.51,1.52,0,2.27-.07s3.78.17,4.83.17A7.08,7.08,0,0,1,60,30a2.36,2.36,0,0,0-.47-.73c-1-.14-2.64-.36-3.45-.43H56c-.54-.05-1.2-.12-1.91-.17a17.41,17.41,0,0,0-2.51,0l-.27,0a1.58,1.58,0,0,1-1-.27,1.69,1.69,0,0,0-1-.53,12.42,12.42,0,0,0-4,.95l-.18.08h0l-.09.05a.73.73,0,0,1-.33,0,.21.21,0,0,1-.23.07h0a4.58,4.58,0,0,1-.93.71,2.07,2.07,0,0,0-1.28,1.32A8.77,8.77,0,0,0,42,33.39c0,1.15-1.46,1.22-1.79,1.22a32.48,32.48,0,0,1-3.85-.44c-.4-.14-1.41.13-2.67,1.15a1,1,0,0,1-.07.24Z"/><path class="cls-3" d="M36.35,34.17a32.48,32.48,0,0,0,3.85.44c.33,0,1.79-.07,1.79-1.22a8.77,8.77,0,0,1,.27-2.33,2.07,2.07,0,0,1,1.28-1.32,4.58,4.58,0,0,0,.93-.71c-.49-.15-1.68-1.08-2-1.18a2.86,2.86,0,0,0-.74-.1,6.52,6.52,0,0,0-4.19-.5,5.08,5.08,0,0,0-3.65,2.49,3,3,0,0,0-.13,1.56,19.22,19.22,0,0,1-.1,4C34.94,34.3,36,34,36.35,34.17Z"/><path class="cls-3" d="M80,32.62c1,1.08,1.66,2.12,1.22,3.48a10,10,0,0,1-2.57,3.68c-.74.61-.1,2.06.75,2.67a17.32,17.32,0,0,0,2.36,1.35,3,3,0,0,1,.68.67,5.49,5.49,0,0,1,1,.68A2,2,0,0,1,83.69,47c.46-.34.87-.67,1.13-.91A1.07,1.07,0,0,0,85,44.68a17.59,17.59,0,0,0-2.3-1.39,13.74,13.74,0,0,1-2.53-1.08A1.29,1.29,0,0,1,79.75,41l-.27-.17a3.6,3.6,0,0,1,1.42-2.33c1.29-1,1-3.35.44-4.73s-1.24-2.32-3.66-2.74A6,6,0,0,1,80,32.62Z"/><path class="cls-3" d="M29.55,42.27A2.23,2.23,0,0,1,31.89,42a8.68,8.68,0,0,0,2.56,1.08c.32,0,1.09-.09,2.17-1.3s.85-1.49,1.21-1.9a11,11,0,0,1,2.57-2.07,5.68,5.68,0,0,1,3.51.18,10.06,10.06,0,0,1,2.21,1.49s.63.27,1.71-.81,1.58-1.94,3.06-2.43a3.48,3.48,0,0,1,2.17-.23s.72.59.76,1.13.63,2,1.53,2.2a8.82,8.82,0,0,0,4.24-.49,15.54,15.54,0,0,1,5.58-.68,6.26,6.26,0,0,1,3.15,1.4c.86.67,1.45,1.48,2.12,2a9,9,0,0,1,2.07,3.51,17.57,17.57,0,0,1,.14,5.81c-.36,1.58-.68,2.08-1,3.34a5.18,5.18,0,0,1-.32.79,17.58,17.58,0,0,1,3,.1,22,22,0,0,0,3.2-6.24,8.91,8.91,0,0,0-2.84-8,14.23,14.23,0,0,0-1.84-1.22c-1.34-.65-3.34-1.73-3.22-2.36,0-.1,0-.2,0-.32a1.68,1.68,0,0,1-.21-.83,4.2,4.2,0,0,0-1-3.18c-.34-.4-1.89-.27-3.07,0a10.31,10.31,0,0,1-1.42.14c-1.22.94-1.92,1.07-2.94.77s-1-.91-.91-2.3A3.6,3.6,0,0,0,60,30a7.08,7.08,0,0,0-3.19-.76c-1,0-4.09-.23-4.83-.17s-1.56.58-2.27.07a1.78,1.78,0,0,0-2.16-.24,11.24,11.24,0,0,0-3.51,1.76,3.72,3.72,0,0,0-1,2.16,2,2,0,0,1-2,1.83c-1.72-.07-3.28-.07-4.83-.24a3.6,3.6,0,0,0-2.62,1.14.27.27,0,0,1-.14.14A8.51,8.51,0,0,0,32.39,37a4.85,4.85,0,0,0-.76,1.7,2.7,2.7,0,0,0,0,.67,5.08,5.08,0,0,1-.43,1.81,1.51,1.51,0,0,1-.35.62,1.51,1.51,0,0,0,.35-.62,1.38,1.38,0,0,1-.72.69,1.38,1.38,0,0,0,.72-.69,14.08,14.08,0,0,0,.36-2.08c0-.1,0-.24.08-.4A4.39,4.39,0,0,1,33,36l.25-.24c-.28-.09-.63-.45-.83-.47a.38.38,0,0,0-.4.2s-.14-.33-1.49-.17a6.88,6.88,0,0,0-4.39,2.91,9.68,9.68,0,0,0-1.35,3.38,14.92,14.92,0,0,1,.71,2.07c.91-.07,1.86-.13,2.75-.15A4.66,4.66,0,0,1,29.55,42.27Z"/><path class="cls-3" d="M31.63,38.67a4.85,4.85,0,0,1,.76-1.7,8.51,8.51,0,0,1,1.06-1.25.36.36,0,0,1-.23,0L33,36A4.39,4.39,0,0,0,31.63,38.67Z"/><path class="cls-3" d="M63,28.57h0a10.13,10.13,0,0,0-1.64.25,4.72,4.72,0,0,0-.45.16,1.45,1.45,0,0,0-.56.43h0l-.26,0a2.32,2.32,0,0,1,.31,1.46c0,.37-.27,1.68.68,2a9.87,9.87,0,0,0,3,.28l.1-.07a3.6,3.6,0,0,1,4-.71c1.55.64,1.45,1.18,1.45,1.18a33,33,0,0,1,.08,3.5,8.7,8.7,0,0,0,3.18,2.68c.67.32,1.17.54,1.17.54s-.5-.22-1.17-.54a14.23,14.23,0,0,1,1.84,1.22,8.91,8.91,0,0,1,2.84,8,22,22,0,0,1-3.2,6.24,10.66,10.66,0,0,1,3,.78,8.39,8.39,0,0,1,1.34.78c.63-.4,1.22-.77,1.66-1.07C82,54,81.7,52.9,80.83,52s-1.08-1.79-.57-2.2l.38-.27a3.17,3.17,0,0,1,.63-.71c.53-.46,1.56-1.18,2.42-1.82a2,2,0,0,0-.22-1.89,5.49,5.49,0,0,0-1-.68,3,3,0,0,0-.68-.67,17.32,17.32,0,0,1-2.36-1.35c-.85-.61-1.49-2.06-.75-2.67a10,10,0,0,0,2.57-3.68c.44-1.36-.24-2.4-1.22-3.48a6,6,0,0,0-2.34-1.56L77.25,31a63.46,63.46,0,0,0-8.31-.16c-2.39,0-2.94-.44-3.64-.95a13.86,13.86,0,0,1-1.71-1.37l-.48,0Z"/><path class="cls-3" d="M80.83,52c.87.86,1.13,1.91-.41,3.59.23-.15.42-.28.55-.38,1.11-.85,1.65-1.79,1.38-2.53a6.43,6.43,0,0,1-.47-.75s-1.28-.57-1.38-1.28a1.57,1.57,0,0,1,.14-1.12l-.38.27C79.75,50.25,79.85,51.06,80.83,52Z"/><path d="M44.72,29a.73.73,0,0,0,.33,0l.09-.05h0l.18-.08a12.42,12.42,0,0,1,4-.95,1.69,1.69,0,0,1,1,.53,1.58,1.58,0,0,0,1,.27l.27,0a17.41,17.41,0,0,1,2.51,0c.71.05,1.37.12,1.91.17h.06c.81.07,2.47.29,3.45.43l-.12-.13.12.13.51.07a1,1,0,0,0-.26-.23,1,1,0,0,1,.26.23l.26,0a1.45,1.45,0,0,1,.56-.43,4.72,4.72,0,0,1,.45-.16A10.13,10.13,0,0,1,63,28.57h.15l.48,0h0c.22,0,.34-.09.34-.23s.59-.54.59-.54a.73.73,0,0,0-.17-.28,4.43,4.43,0,0,1-.51.06,4.43,4.43,0,0,0,.51-.06l-.16-.18h0c-.14-.14-.33-.31-.6-.54h0l-.09-.08,0,0-.08-.06,0,0-.08-.06-.05,0-.08-.06-.06-.05L63,26.27l-.08-.06-.07-.05-.1-.07L62.69,26l-.15-.11h0a10.31,10.31,0,0,0-4-1.61c.08.19.15.35.19.47,0-.12-.11-.28-.19-.47l-.73-.13a2.1,2.1,0,0,1,.18.43,2.1,2.1,0,0,0-.18-.43l-.14,0L57,24.07,56.28,24h-.77l-.46,0h-.58L51,23.83l.32.24L51,23.83c-1.52,0-3,0-3.73,0h0a3.37,3.37,0,0,0-.46,0s.83.52.56.79-1.71.63-2.32,1-.52,1.08-.52,1.58-.34,1.35-.2,1.55a.48.48,0,0,0,.26.19.27.27,0,0,1,.08-.07.27.27,0,0,0-.08.07l.14,0Zm.54-2.15c.57-.48.41-.52.12-.5s-.39-.34.13-.76A5,5,0,0,1,47.43,25c1.91-.13,4-.13,5.74-.07s3.42.45,4,.45a5.56,5.56,0,0,1,2.48.41,43.75,43.75,0,0,1,4,2.14c0,.2-.36.31-.81.31s-.75,0-1,0a1.32,1.32,0,0,0-.93.31,2.52,2.52,0,0,1-1.37.43A10.49,10.49,0,0,0,57,28.37c-1.08,0-4.19-.18-4.61-.11A2.5,2.5,0,0,1,50.8,28,2.4,2.4,0,0,0,49,27.52a14.43,14.43,0,0,0-2.25.2c-.3.11-.3-.18-.66-.09a1.87,1.87,0,0,0-.92.94c-.11.3-.45,0-.45-.27A1.88,1.88,0,0,1,45.26,26.82Z"/><path d="M56.13,24h0Z"/><path d="M55.76,24h0Z"/><path d="M63.27,26.48l.08.06Z"/><path d="M62.85,26.16l.07.05Z"/><path d="M57,24.07l.73.09Z"/><path d="M56,24h0Z"/><path d="M63.39,26.58l.08.06Z"/><path d="M62.51,25.92h0a10.31,10.31,0,0,0-4-1.61h0A10.31,10.31,0,0,1,62.51,25.92Z"/><path d="M54.47,23.91,51,23.83h0Z"/><path d="M57.82,24.18l-.14,0,.14,0Z"/><path d="M55.54,24h0Z"/><path d="M51,23.83h0c-1.52,0-3,0-3.73,0h0C48,23.8,49.47,23.81,51,23.83Z"/><path d="M63.14,26.38l.08.06Z"/><path d="M58.55,24.31h0l-.73-.13h0Z"/><path d="M64.19,27.28h0c-.14-.14-.33-.31-.6-.54C63.86,27,64.05,27.14,64.19,27.28Z"/><path d="M55.05,23.94l.46,0Z"/><path d="M62.69,26l.06.05Z"/><path d="M63,26.27l.08.06Z"/><path d="M63.5,26.66l.09.08Z"/><path d="M54.78,23.93h0Z"/><path d="M54.49,23.91h0Z"/><path d="M60.87,29a1.45,1.45,0,0,0-.56.43h0A1.45,1.45,0,0,1,60.87,29Z"/><path d="M44.72,29h0a.73.73,0,0,0,.33,0A.73.73,0,0,1,44.72,29Z"/><path d="M63,28.57h0a10.13,10.13,0,0,0-1.64.25A10.13,10.13,0,0,1,63,28.57Z"/><path d="M63.11,28.56l.48,0h0Z"/><path d="M45.14,28.91h0l.18-.08-.18.08Z"/><path d="M54.12,28.7c.71.05,1.37.12,1.91.17h0C55.49,28.82,54.83,28.75,54.12,28.7Z"/><path d="M51.34,28.68a1.58,1.58,0,0,1-1-.27A1.58,1.58,0,0,0,51.34,28.68Z"/><path class="cls-4" d="M45.13,28.57a1.87,1.87,0,0,1,.92-.94c.36-.09.36.2.66.09a14.43,14.43,0,0,1,2.25-.2A2.4,2.4,0,0,1,50.8,28a2.5,2.5,0,0,0,1.63.23c.42-.07,3.53.07,4.61.11a10.49,10.49,0,0,1,2.48.54,2.52,2.52,0,0,0,1.37-.43,1.32,1.32,0,0,1,.93-.31c.24,0,.54,0,1,0s.85-.11.81-.31a43.75,43.75,0,0,0-4-2.14,5.56,5.56,0,0,0-2.48-.41c-.54,0-2.23-.38-4-.45s-3.83-.06-5.74.07a5,5,0,0,0-1.92.59c-.52.42-.43.78-.13.76s.45,0-.12.5a1.88,1.88,0,0,0-.58,1.48C44.68,28.6,45,28.87,45.13,28.57Z"/><path d="M44.86,77.71c-.35.12-.66.22-.94.34a1.28,1.28,0,0,1,.11.31l.39-.31a18.45,18.45,0,0,1-.07,3L45,81c.1-1,.07-2.17.07-3a25.45,25.45,0,0,0-.29-3.29l-.67-.12c.11.82.15,1.52.17,1.71l.09,1.35L43.9,78l0,0C44.2,77.93,44.51,77.83,44.86,77.71Z"/><path d="M41.15,80.66l1.07-.85a1,1,0,0,1-.53-.22l-.65.48A1.35,1.35,0,0,1,41.15,80.66Z"/><path d="M59.32,81.86c-.08-.15-.2-.41-.36-.71l0,0C59.06,81.4,59.19,81.65,59.32,81.86Z"/><path d="M55.73,80.15l.76,0c.07-.64.09-1.24.09-1.24l.11.14a1.28,1.28,0,0,1,.1-.26,1.35,1.35,0,0,1,.26-.33,1.84,1.84,0,0,0-.67-.73,1.84,1.84,0,0,1,.67.73,1.1,1.1,0,0,1,.32-.2,3.6,3.6,0,0,0-.58-.75s.14-.94.32-2.08l-.58-.07C56.22,77.14,55.86,79.28,55.73,80.15Z"/><path d="M38.53,81.87l-.29.21a7.15,7.15,0,0,0-1.67.86,5.22,5.22,0,0,0-.82.79A11.05,11.05,0,0,1,38.64,82Z"/><path d="M35.58,84.15a4.19,4.19,0,0,1,.05,2.3,28.59,28.59,0,0,0-.73,3.6c0,.54-.09,6.17-.09,6.76s.91.94,1.81,1.26a11.27,11.27,0,0,0,2.65.63,36.07,36.07,0,0,0,4.1.09A31.88,31.88,0,0,0,49,97.44a46.87,46.87,0,0,0,5.54-6.13c2.07-2.83,4.32-5.67,4.91-9.27,0,0,0-.07-.09-.18s-.26-.46-.39-.69a1.8,1.8,0,0,1-.59.33l.71,1.11c-.14,1.15-1.22,2.87-2.23,4.8S50,95.75,49.89,95.92a15.78,15.78,0,0,1-4.39,2.23,24.6,24.6,0,0,1-5.27.34,13.21,13.21,0,0,0-2.84-.44,4.52,4.52,0,0,1-2.29-1.32s.17-3.65.2-5a13.17,13.17,0,0,1,.44-3.61c.37-1.32.71-3.28.78-3.55a12.38,12.38,0,0,1,1.9-1.72,3.27,3.27,0,0,1,.35-.83.38.38,0,0,1-.13-.09,11.05,11.05,0,0,0-2.89,1.77A.61.61,0,0,0,35.58,84.15Z"/><path d="M56.11,81.77a3.77,3.77,0,0,0,.38-1.64l-.76,0c0,.09,0,.17,0,.23C55.57,81.39,55.74,82.07,56.11,81.77Z"/><path d="M38.85,82.1l-.08,0a3.27,3.27,0,0,0-.35.83l.77-.62A1.2,1.2,0,0,1,38.85,82.1Z"/><path d="M44.08,83c.56-.13.8-1,.91-2l-.64.06a4.1,4.1,0,0,1-.17.78C43.78,83.12,44.08,83,44.08,83Z"/><path d="M56.8,73.84c-.08.44-.17,1-.27,1.5l.58.07.28-1.78A1.11,1.11,0,0,1,56.8,73.84Z"/><path d="M59,66.7a8.72,8.72,0,0,0-.89,1.15c-.08.17-.16.41-.26.65-.25,1.4-.64,3.43-.81,4.31-.05.25-.12.6-.19,1a1.11,1.11,0,0,0,.59-.21c.09-.54.18-1,.26-1.41A36.85,36.85,0,0,1,59,66.7Z"/><path class="cls-5" d="M55.44,80.14h.29c.13-.87.49-3,.8-4.81a26.66,26.66,0,0,0-7.48.55l0-1.26-.57.15a10.06,10.06,0,0,1-3.74,0A25.45,25.45,0,0,1,45.06,78c0,.84,0,2-.07,3C49.33,80.58,54.62,80.11,55.44,80.14Z"/><path class="cls-5" d="M43.85,79.13a2.26,2.26,0,0,1-1.63.68l-1.07.85a.28.28,0,0,1,0,.09,2.54,2.54,0,0,1-.17.72l3.38-.38a18.45,18.45,0,0,0,.07-3l-.39.31A.83.83,0,0,1,43.85,79.13Z"/><path class="cls-5" d="M56.69,79l-.11-.14s0,.6-.09,1.24h.17A2.87,2.87,0,0,1,56.69,79Z"/><path class="cls-5" d="M57.44,81.45a9.93,9.93,0,0,1-.45,1,1.72,1.72,0,0,1,.7,1.44,1.61,1.61,0,0,1-1,1.22,3.06,3.06,0,0,1-1.46.13.45.45,0,0,1-.16-.12l-1,1.21a1.48,1.48,0,0,1,.44.49,2,2,0,0,1,.11,1.33,2.32,2.32,0,0,1-.94.92,1.62,1.62,0,0,1-1.06.16,1.35,1.35,0,0,1-.85-.29l-1.63,1.63c.33.25.69.46.63,1s-.07,1.33-1,1.58a2,2,0,0,1-1.93-.28c-.34.34-.75.74-1.08,1a1.16,1.16,0,0,1,.35,1c-.11.7-.18,1-.67,1.31a2.45,2.45,0,0,1-2.05.29,1.13,1.13,0,0,1-1-.89,12.18,12.18,0,0,1-1.35,0,1.19,1.19,0,0,1-.16.39,2.73,2.73,0,0,1-2,1.33,2.19,2.19,0,0,1-1.76-.63,2.11,2.11,0,0,1-.7-2,2.7,2.7,0,0,1,1.17-1.43,3.41,3.41,0,0,1-.76-1.12,1.41,1.41,0,0,1-.5,0,2.65,2.65,0,0,1-1-.43,1.81,1.81,0,0,1-.41-1.89,2.34,2.34,0,0,1,1.58-1,1.05,1.05,0,0,1,.31,0c0-.43.07-1,.11-1.49a2.18,2.18,0,0,1-.4-.08c-.95-.27-.45-.38-.45-.38a1.27,1.27,0,0,1-.52-1.4l.32-.83A3,3,0,0,1,38.25,84c0-.42.09-.74.12-.9s0-.13.05-.2a12.38,12.38,0,0,0-1.9,1.72c-.07.27-.41,2.23-.78,3.55a13.17,13.17,0,0,0-.44,3.61c0,1.32-.2,5-.2,5a4.52,4.52,0,0,0,2.29,1.32,13.21,13.21,0,0,1,2.84.44,24.6,24.6,0,0,0,5.27-.34,15.78,15.78,0,0,0,4.39-2.23c.14-.17,5.91-6.59,6.93-8.51s2.09-3.65,2.23-4.8l-.71-1.11-.22,0A1.33,1.33,0,0,1,57.44,81.45Z"/><path class="cls-5" d="M38.25,84a1.86,1.86,0,0,1,.42,0,1.55,1.55,0,0,1,1.37,1,1.58,1.58,0,0,1-.27,1.76,2.32,2.32,0,0,1-1.83.64c0,.54-.08,1.06-.11,1.49a1.75,1.75,0,0,1,1.4,2.55,2.07,2.07,0,0,1-1.33.81,3.41,3.41,0,0,0,.76,1.12,3.38,3.38,0,0,1,.41-.24,2.6,2.6,0,0,1,2.12.2,3.14,3.14,0,0,1,.88,2.36,12.18,12.18,0,0,0,1.35,0,2,2,0,0,1,0-.69,1.79,1.79,0,0,1,1.35-1.57,2.35,2.35,0,0,1,1.66.18,3.39,3.39,0,0,1,.35.32c.33-.31.74-.71,1.08-1l-.23-.19c-.77-.73,0-2,.63-2.21s1.31-.45,1.67-.09l.22.19,1.63-1.63a1.43,1.43,0,0,1-.39-.72,1.75,1.75,0,0,1,.18-1.62A1.72,1.72,0,0,1,53.3,86a2.16,2.16,0,0,1,.78.34l1-1.21a2.73,2.73,0,0,1-.38-1,1.58,1.58,0,0,1,.22-1.26,2.44,2.44,0,0,1,1.69-.56.7.7,0,0,1,.38.11,9.93,9.93,0,0,0,.45-1,1.36,1.36,0,0,1-.69-.9,2.84,2.84,0,0,1-.09-.42h-.17a3.77,3.77,0,0,1-.38,1.64c-.37.3-.54-.38-.41-1.39,0-.06,0-.14,0-.23h-.29c-.82,0-6.11.44-10.45.89-.11,1-.35,1.82-.91,2,0,0-.3.14.1-1.11a4.1,4.1,0,0,0,.17-.78L41,81.47a1.28,1.28,0,0,1-.71.72,1.45,1.45,0,0,1-1.07.07l-.77.62c0,.07,0,.13-.05.2S38.3,83.56,38.25,84Z"/><path class="cls-5" d="M56.17,73.79a11.62,11.62,0,0,0-2.51-.07l.12.21-.12-.21a27.16,27.16,0,0,0-2.93.27,12.78,12.78,0,0,1-1.65.64l0,1.26a26.66,26.66,0,0,1,7.48-.55c.1-.54.19-1.06.27-1.5A1.79,1.79,0,0,1,56.17,73.79Z"/><path class="cls-5" d="M53.66,73.72a8.71,8.71,0,0,1-.45-1.12A19.82,19.82,0,0,1,50.73,74,27.16,27.16,0,0,1,53.66,73.72Z"/><path class="cls-5" d="M57.8,68.5a2.44,2.44,0,0,1-.74,1.2,45.93,45.93,0,0,1-3.85,2.9,8.71,8.71,0,0,0,.45,1.12,11.62,11.62,0,0,1,2.51.07,1.79,1.79,0,0,0,.63,0c.07-.43.14-.78.19-1C57.16,71.93,57.55,69.9,57.8,68.5Z"/><path d="M43.72,78.13a3.54,3.54,0,0,0-.39.19s0,.05,0,.08Z"/><path d="M42.08,79.31a.77.77,0,0,1-.12-.13l-.4.3.13.11Z"/><path d="M41.73,78.48a1.22,1.22,0,0,1,.45-1.06c.29-.16.58,0,.88.4a2,2,0,0,1,.27.5,3.54,3.54,0,0,1,.39-.19L43.9,78a2.21,2.21,0,0,0-.71-.83c-.47-.29-1.21-.4-1.53,0a1.42,1.42,0,0,0-.31,2,1.61,1.61,0,0,0,.21.3l.4-.3A1.15,1.15,0,0,1,41.73,78.48Z"/><path d="M42.74,79.39a1.25,1.25,0,0,1-.47,0,.41.41,0,0,1-.19-.09l-.39.28a1,1,0,0,0,.53.22Z"/><path d="M43.92,78.05l0,0-.18.13Z"/><path d="M43.31,78.93l.72-.57a1.28,1.28,0,0,0-.11-.31l-.2.08-.37.27A.75.75,0,0,1,43.31,78.93Z"/><path d="M43.3,79a.82.82,0,0,1-.56.44l-.52.42a2.26,2.26,0,0,0,1.63-.68.83.83,0,0,0,.18-.77l-.72.57Z"/><path d="M40.45,80.34l0,.12.54-.39s0-.09-.07-.14l-.23.18Z"/><path d="M38.73,80.75a1.93,1.93,0,0,1,.27-.67c.34-.36.75-.63,1-.34a2.17,2.17,0,0,1,.41.6l.29-.23.23-.18a1.34,1.34,0,0,0-.89-.69,1.66,1.66,0,0,0-1.5.61,1.9,1.9,0,0,0-.36,1.31,1,1,0,0,0,.31.71l.52-.37A.77.77,0,0,1,38.73,80.75Z"/><path d="M40.58,81.11v0l.57-.47a1.35,1.35,0,0,0-.11-.59l-.54.39A1.21,1.21,0,0,1,40.58,81.11Z"/><path d="M38.89,81.87a3,3,0,0,1,.23-.3l-.07-.07-.52.37.11.09Z"/><path d="M39.12,81.57a3,3,0,0,0-.23.3l.46-.14Z"/><path d="M39.19,82.26l.43-.36,0,0a.87.87,0,0,1-.25-.1l-.06,0-.46.14a.94.94,0,0,0-.12.18l.08,0A1.2,1.2,0,0,0,39.19,82.26Z"/><path d="M38.64,82a.38.38,0,0,0,.13.09.94.94,0,0,1,.12-.18Z"/><path d="M41.15,80.66l-.57.47a1.09,1.09,0,0,1-.19.41l.58-.07a2.54,2.54,0,0,0,.17-.72A.28.28,0,0,0,41.15,80.66Z"/><path d="M39.66,81.87l0,0-.43.36a1.45,1.45,0,0,0,1.07-.07,1.28,1.28,0,0,0,.71-.72l-.58.07A.76.76,0,0,1,39.66,81.87Z"/><path d="M37.81,86.34c-.21.28-.23.37-.22.39h0a1.26,1.26,0,0,1-.43-1.38,1.45,1.45,0,0,1,1.05-1c0-.14,0-.27,0-.39a3,3,0,0,0-1.36.67l-.32.83a1.27,1.27,0,0,0,.52,1.4s-.5.11.45.38a2.18,2.18,0,0,0,.4.08c0-.39.07-.79.1-1.18A.39.39,0,0,0,37.81,86.34Z"/><path d="M39.77,86.7A1.58,1.58,0,0,0,40,84.94a1.55,1.55,0,0,0-1.37-1,1.86,1.86,0,0,0-.42,0c0,.12,0,.25,0,.39a.7.7,0,0,1,.25,0,1.39,1.39,0,0,1,1.11.85,1.42,1.42,0,0,1-.63,1.67c-.79.43-.52-.54-.52-.54s-.16-.24-.38-.18c0,.39-.06.79-.1,1.18A2.32,2.32,0,0,0,39.77,86.7Z"/><path d="M39.23,91.38a1.75,1.75,0,0,0-1.4-2.55q0,.23,0,.42a.85.85,0,0,1,.35.08,2,2,0,0,1,.76,1.13,1.3,1.3,0,0,1-.78,1.19,2,2,0,0,1-.39.1,2.67,2.67,0,0,0,.16.44A2.07,2.07,0,0,0,39.23,91.38Z"/><path d="M36.75,91.45a1.15,1.15,0,0,1-.36-1.17c0-.43.43-.61.65-.79a1.32,1.32,0,0,1,.76-.24q0-.19,0-.42a1.05,1.05,0,0,0-.31,0,2.34,2.34,0,0,0-1.58,1,1.81,1.81,0,0,0,.41,1.89,2.65,2.65,0,0,0,1,.43,1.41,1.41,0,0,0,.5,0,2.67,2.67,0,0,1-.16-.44A1.36,1.36,0,0,1,36.75,91.45Z"/><path d="M41.19,93.27a2.6,2.6,0,0,0-2.12-.2,3.38,3.38,0,0,0-.41.24l.34.33a1.51,1.51,0,0,1,.63-.34,1.21,1.21,0,0,1,1.2.29,2.11,2.11,0,0,1,.67,1.53,2,2,0,0,1-.54.11.2.2,0,0,0-.14.06l.19.22s.47.07,1.06.12A3.14,3.14,0,0,0,41.19,93.27Z"/><path d="M40.82,95.29a.27.27,0,0,0,0,.51c.41.15.54,0,.54,0a5.13,5.13,0,0,1-1,1A1.93,1.93,0,0,1,39,96.65a3.93,3.93,0,0,1-.56-.76,1.77,1.77,0,0,1,0-1.6,2.42,2.42,0,0,1,.6-.65l-.34-.33a2.7,2.7,0,0,0-1.17,1.43,2.11,2.11,0,0,0,.7,2,2.19,2.19,0,0,0,1.76.63,2.73,2.73,0,0,0,2-1.33,1.19,1.19,0,0,0,.16-.39c-.59,0-1.06-.12-1.06-.12Z"/><path d="M46.26,94.37a3.16,3.16,0,0,1,.13.84s.34.07.18.29-.11.79-1.22.79a1.4,1.4,0,0,1-1.13-.74,2.73,2.73,0,0,1-.48.1l-.32,0a1.13,1.13,0,0,0,1,.89,2.45,2.45,0,0,0,2.05-.29c.49-.27.56-.61.67-1.31a1.16,1.16,0,0,0-.35-1l-.2.19Z"/><path d="M46.43,93.59a2.35,2.35,0,0,0-1.66-.18A1.79,1.79,0,0,0,43.42,95a2,2,0,0,0,0,.69l.32,0a2.73,2.73,0,0,0,.48-.1,1.47,1.47,0,0,1-.15-.5,1.25,1.25,0,0,1,1-1.37,1.28,1.28,0,0,1,1.15.61l0,.08.32-.27.2-.19A3.39,3.39,0,0,0,46.43,93.59Z"/><path d="M48.26,90.46c-.65.22-1.4,1.48-.63,2.21l.23.19.36-.36a1.28,1.28,0,0,1-.37-.65c-.2-.69.68-1.08.88-1.17a.83.83,0,0,1,1,.21l0,0,.36-.36-.22-.19C49.57,90,48.91,90.23,48.26,90.46Z"/><path d="M50.15,92a1,1,0,0,1-1.31.75,1.45,1.45,0,0,1-.62-.28l-.36.36a2,2,0,0,0,1.93.28c.92-.25.92-.9,1-1.58s-.3-.75-.63-1l-.36.36A1.68,1.68,0,0,1,50.15,92Z"/><path d="M54,86.92c.11.45.31,1,.11,1.2a4.06,4.06,0,0,1-.52.49,1.74,1.74,0,0,1-1.45,0l-.34.34a1.35,1.35,0,0,0,.85.29,1.62,1.62,0,0,0,1.06-.16,2.32,2.32,0,0,0,.94-.92,2,2,0,0,0-.11-1.33,1.48,1.48,0,0,0-.44-.49l-.25.31A.89.89,0,0,1,54,86.92Z"/><path d="M51.57,86.59a1.75,1.75,0,0,0-.18,1.62,1.43,1.43,0,0,0,.39.72l.34-.34,0,0c-.34-.25-.32-1.2-.27-1.38a1.65,1.65,0,0,1,1-.92,1,1,0,0,1,1,.36l.25-.31A2.16,2.16,0,0,0,53.3,86,1.72,1.72,0,0,0,51.57,86.59Z"/><path d="M54.92,82.89a1.58,1.58,0,0,0-.22,1.26,2.73,2.73,0,0,0,.38,1l.44-.55a.53.53,0,0,1-.14-.32,1.31,1.31,0,0,0-.18-.54c-.05-.34.31-.72.67-.88a.77.77,0,0,1,.82.17c.09-.16.2-.35.3-.55a.7.7,0,0,0-.38-.11A2.44,2.44,0,0,0,54.92,82.89Z"/><path d="M56.82,83.14a2.06,2.06,0,0,1,.27,1.08,1.54,1.54,0,0,1-.9.59.73.73,0,0,1-.67-.25l-.44.55a.45.45,0,0,0,.16.12,3.06,3.06,0,0,0,1.46-.13,1.61,1.61,0,0,0,1-1.22,1.72,1.72,0,0,0-.7-1.44c-.1.2-.21.39-.3.55A.64.64,0,0,1,56.82,83.14Z"/><path d="M58.69,79a1.19,1.19,0,0,1,.22,1.42,2.21,2.21,0,0,1-.19.31c.09.17.17.32.24.47a2.39,2.39,0,0,0,.67-.94c.11-.36,0-2-1.12-2.07a2.36,2.36,0,0,0-1.14.1c.09.14.18.3.28.47C58.05,78.47,58.36,78.65,58.69,79Z"/><path d="M57.31,79a5.85,5.85,0,0,0-.26-.56,1.35,1.35,0,0,0-.26.33,1.28,1.28,0,0,0-.1.26c.1.12.23.31.39.55A1.31,1.31,0,0,1,57.31,79Z"/><path d="M58.71,80.71c.06.14.14.3.22.46l0,0c-.07-.15-.15-.3-.24-.47Z"/><path d="M57.31,79a1.94,1.94,0,0,1,.2-.21l.14-.08c-.1-.17-.19-.33-.28-.47a1.1,1.1,0,0,0-.32.2A5.85,5.85,0,0,1,57.31,79Z"/><path d="M57.57,80.11h.14a.85.85,0,0,0,0-.17A.31.31,0,0,0,57.57,80.11Z"/><path d="M58,80.1c-.08,0-.22-.21-.34-.15a.85.85,0,0,1,0,.17l.32,0S58,80.1,58,80.1Z"/><path d="M58.21,80.84c-.35-.06-.16-.55-.18-.7l-.32,0a1.82,1.82,0,0,1,0,.4l.64,1a1.8,1.8,0,0,0,.59-.33c-.08-.16-.16-.32-.22-.46C58.59,80.87,58.49,80.89,58.21,80.84Z"/><path d="M57.54,80.23v0a2.33,2.33,0,0,1,.17.26,1.82,1.82,0,0,0,0-.4h-.14Z"/><path d="M56.66,80.13H57c0-.16,0-.35,0-.54-.16-.24-.29-.43-.39-.55A2.87,2.87,0,0,0,56.66,80.13Z"/><path d="M57.44,81.45a1.33,1.33,0,0,0,.68.09l.22,0-.64-1A3.64,3.64,0,0,1,57.44,81.45Z"/><path d="M57.36,80.62a.45.45,0,0,1-.32-.5h-.38a2.84,2.84,0,0,0,.09.42,1.36,1.36,0,0,0,.69.9,3.64,3.64,0,0,0,.26-.93,2.33,2.33,0,0,0-.17-.26C57.42,80.79,57.36,80.62,57.36,80.62Z"/><path class="cls-6" d="M43.33,78.32a9.47,9.47,0,0,0-1.37.86.77.77,0,0,0,.12.13l1.27-.91S43.34,78.34,43.33,78.32Z"/><path class="cls-6" d="M43.06,77.82c-.3-.36-.59-.56-.88-.4a1.22,1.22,0,0,0-.45,1.06,1.15,1.15,0,0,0,.23.7,9.47,9.47,0,0,1,1.37-.86A2,2,0,0,0,43.06,77.82Z"/><path class="cls-6" d="M42.74,79.39l.57-.46a.75.75,0,0,0,0-.53l-1.27.91a.41.41,0,0,0,.19.09A1.25,1.25,0,0,0,42.74,79.39Z"/><path class="cls-6" d="M43.3,79v0l-.57.46A.82.82,0,0,0,43.3,79Z"/><path class="cls-6" d="M40.5,80.46l0-.12a11.92,11.92,0,0,0-1,.86Z"/><path class="cls-6" d="M40.45,80.34a2.17,2.17,0,0,0-.41-.6c-.29-.29-.7,0-1,.34a1.93,1.93,0,0,0-.27.67.77.77,0,0,0,.32.75l.42-.3A11.92,11.92,0,0,1,40.45,80.34Z"/><path class="cls-6" d="M39.47,81.2l-.42.3.07.07C39.22,81.45,39.34,81.33,39.47,81.2Z"/><path class="cls-6" d="M40,81.59l.58-.46v0a1.21,1.21,0,0,0-.08-.65l-1,.74c-.13.13-.25.25-.35.37l.23.16A5,5,0,0,1,40,81.59Z"/><path class="cls-6" d="M39.35,81.73l.06,0a.87.87,0,0,0,.25.1l.34-.28A5,5,0,0,0,39.35,81.73Z"/><path class="cls-6" d="M40.39,81.54a1.09,1.09,0,0,0,.19-.41l-.58.46h0Z"/><path class="cls-6" d="M40.39,81.54l-.35,0h0l-.34.28A.76.76,0,0,0,40.39,81.54Z"/><path class="cls-6" d="M38.42,86.34s-.27,1,.52.54a1.42,1.42,0,0,0,.63-1.67,1.39,1.39,0,0,0-1.11-.85.7.7,0,0,0-.25,0c-.06.52-.11,1.14-.17,1.79C38.26,86.1,38.42,86.34,38.42,86.34Z"/><path class="cls-6" d="M37.61,86.74h0Z"/><path class="cls-6" d="M37.16,85.35a1.26,1.26,0,0,0,.43,1.38s0-.11.22-.39a.39.39,0,0,1,.23-.18c.06-.65.11-1.27.17-1.79A1.45,1.45,0,0,0,37.16,85.35Z"/><path class="cls-6" d="M37.63,91.29c0,.09,0,.24.11.46a2,2,0,0,0,.39-.1,1.3,1.3,0,0,0,.78-1.19,2,2,0,0,0-.76-1.13.85.85,0,0,0-.35-.08c0,.55-.07.89-.07.89A3.53,3.53,0,0,0,37.63,91.29Z"/><path class="cls-6" d="M37,89.49c-.22.18-.6.36-.65.79a1.15,1.15,0,0,0,.36,1.17,1.36,1.36,0,0,0,1,.3c-.06-.22-.08-.37-.11-.46a3.53,3.53,0,0,1,.1-1.15s0-.34.07-.89A1.32,1.32,0,0,0,37,89.49Z"/><path class="cls-6" d="M40.82,95.29a.2.2,0,0,1,.14-.06,2,2,0,0,0,.54-.11,2.11,2.11,0,0,0-.67-1.53,1.21,1.21,0,0,0-1.2-.29,1.51,1.51,0,0,0-.63.34l.15.12A14.94,14.94,0,0,1,40.82,95.29Z"/><path class="cls-6" d="M38.4,94.29a1.77,1.77,0,0,0,0,1.6,3.93,3.93,0,0,0,.56.76,1.93,1.93,0,0,0,1.42.23,5.13,5.13,0,0,0,1-1s-.13.11-.54,0a.27.27,0,0,1,0-.51,14.94,14.94,0,0,0-1.67-1.53L39,93.64A2.42,2.42,0,0,0,38.4,94.29Z"/><path class="cls-6" d="M46.23,94.29a1.28,1.28,0,0,0-1.15-.61,1.25,1.25,0,0,0-1,1.37,1.47,1.47,0,0,0,.15.5,6.14,6.14,0,0,0,2-1.18Z"/><path class="cls-6" d="M45.35,96.29c1.11,0,1.06-.56,1.22-.79s-.18-.29-.18-.29a3.16,3.16,0,0,0-.13-.84,6.14,6.14,0,0,1-2,1.18A1.4,1.4,0,0,0,45.35,96.29Z"/><path class="cls-6" d="M49.79,90.92l0,0a.83.83,0,0,0-1-.21c-.2.09-1.08.48-.88,1.17a1.28,1.28,0,0,0,.37.65l.25-.26Z"/><path class="cls-6" d="M50.15,92a1.68,1.68,0,0,0-.36-1.11l-1.32,1.32-.25.26a1.45,1.45,0,0,0,.62.28A1,1,0,0,0,50.15,92Z"/><path class="cls-6" d="M53.57,88.61a4.06,4.06,0,0,0,.52-.49c.2-.25,0-.75-.11-1.2a.89.89,0,0,0-.15-.29l-1.17,1.42-.54.54A1.74,1.74,0,0,0,53.57,88.61Z"/><path class="cls-6" d="M53.83,86.63a1,1,0,0,0-1-.36,1.65,1.65,0,0,0-1,.92c0,.18-.07,1.13.27,1.38l0,0,.54-.54Z"/><path class="cls-6" d="M56.45,83.39l.24-.4a.77.77,0,0,0-.82-.17c-.36.16-.72.54-.67.88a1.31,1.31,0,0,1,.18.54.53.53,0,0,0,.14.32l.22-.26A9.52,9.52,0,0,0,56.45,83.39Z"/><path class="cls-6" d="M56.19,84.81a1.54,1.54,0,0,0,.9-.59,2.06,2.06,0,0,0-.27-1.08.64.64,0,0,0-.13-.15l-.24.4a9.52,9.52,0,0,1-.71.91l-.22.26A.73.73,0,0,0,56.19,84.81Z"/><path class="cls-6" d="M58.6,80.41s0,0,0,.06l.11.21a2.21,2.21,0,0,0,.19-.31A1.19,1.19,0,0,0,58.69,79c-.33-.3-.64-.48-1-.24.29.49.6,1.06.88,1.6A.36.36,0,0,1,58.6,80.41Z"/><path class="cls-6" d="M58.6,80.41a.36.36,0,0,0-.07-.1l.08.16S58.6,80.43,58.6,80.41Z"/><path class="cls-6" d="M57.67,80c.12-.06.26.13.34.15s0,0,0,0a.94.94,0,0,1,.5.17c-.28-.54-.59-1.11-.88-1.6l-.14.08a1.94,1.94,0,0,0-.2.21c.12.29.24.61.35.91A.06.06,0,0,1,57.67,80Z"/><path class="cls-6" d="M57.44,80.11h.13a.31.31,0,0,1,.1-.16.06.06,0,0,0,0,0c-.11-.3-.23-.62-.35-.91a1.31,1.31,0,0,0-.23.58Z"/><path class="cls-6" d="M58.71,80.71v0l-.11-.21Z"/><path class="cls-6" d="M58.53,80.31a.94.94,0,0,0-.5-.17c0,.15-.17.64.18.7s.38,0,.5-.13l-.1-.24Z"/><path class="cls-6" d="M57.54,80.23l0-.12h-.13l.09.15Z"/><path class="cls-6" d="M57.44,80.11l-.36-.53c0,.19,0,.38,0,.54Z"/><path class="cls-6" d="M57.36,80.62s.06.17.17-.36l-.09-.15H57A.45.45,0,0,0,57.36,80.62Z"/><path d="M35.76,71s-3.92-2.25-4.95-3.42c-.13-.14-.29-.34-.48-.58l-.49.49-.21.19a8.79,8.79,0,0,0,.93,1,3.13,3.13,0,0,0,0-.71l1.18,1.48c0,.06,0,.11,0,.16a31.44,31.44,0,0,0,3.55,2.2,54,54,0,0,0,8.88,2.75c0-.24-.07-.49-.11-.75A42.75,42.75,0,0,1,35.76,71Z"/><path d="M29.26,67.2l.37.48.21-.19.49-.49L30,66.61C29.77,66.81,29.52,67,29.26,67.2Z"/><path d="M65.31,55.55c0-.1,0-.2,0-.3a6.45,6.45,0,0,1-1.21-.15c-.06,0-.13,0-.22.11,0,.93-.08,1.88-.19,2.77a9.67,9.67,0,0,1-.86,2.93,36.38,36.38,0,0,1-3.72,4.54l.56-.15c.18-.17.66-.59,1.35-1.11l.18-.16,1.59-1.81S64.63,60.24,65.31,55.55Z"/><path d="M53.42,43.57s3,1,3.64,1.17,2.84,1.26,3.2,1.44a5,5,0,0,1,1,1,3.93,3.93,0,0,1,.77.59c.22.27,1.71,1.84,1.71,1.84s.12,1.27.17,3a5.76,5.76,0,0,0,.37-1.93s0-.73,0-1.81a2.09,2.09,0,0,0-.15-.21l-.22-.09-1.31-1.17-.18,0C62.2,46.81,60,45.24,60,45.24c-.41-.18-2.07-1-2.07-1l-1.63-.58a13.29,13.29,0,0,0-3.2-.94l-1.55.57C52.13,43.34,52.76,43.44,53.42,43.57Z"/><path d="M61.16,64.11l.08-.08-.18.16Z"/><path d="M33.67,46.78l.44-.29h0Z"/><path d="M37.09,44.26l-1.25.57.36.11Z"/><path d="M36.65,45.07h0s2.57-1,3.74-1.35a23.19,23.19,0,0,1,6.45-.78c.44-.21.94-.44,1.49-.68a26,26,0,0,0-6.09.38,16.25,16.25,0,0,1-2.89.72s-1,.33-2.27.91l-.89.68Z"/><path d="M29.14,65.91a4.37,4.37,0,0,0-.55.32c.21.31.43.64.67,1,.26-.19.51-.39.76-.59-.21-.28-.43-.59-.67-.93A2.78,2.78,0,0,0,29.14,65.91Z"/><path d="M60.31,64.79a7.23,7.23,0,0,0,.75-.6c-.69.52-1.17.94-1.35,1.11l.57-.17.88-1-.1.08A7.23,7.23,0,0,1,60.31,64.79Z"/><path d="M26.3,61.14c-.13.76,1.17,3.24,1.17,3.24s.46.84,1.12,1.85a4.37,4.37,0,0,1,.55-.32,2.78,2.78,0,0,1,.21-.23A16.11,16.11,0,0,1,27,60.88l-.69-.19A2.81,2.81,0,0,1,26.3,61.14Z"/><path d="M59.63,65.37l.08-.07-.56.15-.08.08c.19.08.24.3.07.7-.07.15-.13.31-.19.47.38-.46.85-1,1.33-1.57l-.57.17Z"/><path d="M26.93,58l.72-2.79a20.63,20.63,0,0,1,2.57-5.5,17.87,17.87,0,0,1,1.49-1.44c-.48.21-.95.43-1.14.53a3.2,3.2,0,0,1,.68-.68c.13-.06.57-.18,1-.29.43-.34.91-.71,1.44-1.08l.39-.3-1-.17a12.14,12.14,0,0,0-3.18,2.62c-2.44,3.11-2.5,4-3.29,7a9.66,9.66,0,0,0-.26,1.47l.09,0,.1,1.76a1.08,1.08,0,0,0-.26-.29v.23l.51.14A4.48,4.48,0,0,1,26.93,58Z"/><path d="M44.66,74,44,73.86c0,.26.08.51.11.75l.67.12C44.74,74.47,44.7,74.23,44.66,74Z"/><path d="M59.07,65.53c-.37.39-.77.8-1.19,1.22.19,0,.14.23.15.32a13.71,13.71,0,0,1-.23,1.43c.1-.24.18-.48.26-.65A8.72,8.72,0,0,1,59,66.7c.06-.16.12-.32.19-.47C59.31,65.83,59.26,65.61,59.07,65.53Z"/><path d="M48.51,74.78l.57-.15v-.34a5.94,5.94,0,0,1-.65-.53l-.88.44a8.91,8.91,0,0,1-2.9-.2c0,.23.08.47.11.73A10.06,10.06,0,0,0,48.51,74.78Z"/><path d="M50.3,74.06l-.58.11a1.8,1.8,0,0,0-.62-.74l-.66.33a5.94,5.94,0,0,0,.65.53v.34A12.78,12.78,0,0,0,50.73,74Z"/><path d="M58,67.07c0-.09,0-.29-.15-.32a45.22,45.22,0,0,1-5,4.3,7.39,7.39,0,0,0,.34,1.55,45.93,45.93,0,0,0,3.85-2.9,2.44,2.44,0,0,0,.74-1.2A13.71,13.71,0,0,0,58,67.07Z"/><path d="M49.9,73l-.8.4a1.8,1.8,0,0,1,.62.74l.58-.11.43-.07a19.82,19.82,0,0,0,2.48-1.39,7.39,7.39,0,0,1-.34-1.55C51.93,71.74,50.94,72.41,49.9,73Z"/><path class="cls-5" d="M44.59,71.86l.17,0-.71-.24c-.48-.17-.41-.51-.58-.78s.1-.81.41-.94.27.1.24.2-.24.44-.24.44.4.2.17.3-.1.27.4.47a3.82,3.82,0,0,0,1.32.24,3.14,3.14,0,0,0,.86-.13,8.42,8.42,0,0,1-.42-1,4.83,4.83,0,0,0-1.84-2.12,2.41,2.41,0,0,1-.9.2,4.35,4.35,0,0,1-2.6-1.08A7.45,7.45,0,0,1,39.79,66c-1-.4-2-.77-2.93-1.09-2.88-1-5.18.76-6.53,2.06.19.24.35.44.48.58,1,1.17,4.95,3.42,4.95,3.42A42.75,42.75,0,0,0,44,73.86a8.28,8.28,0,0,0-.57-2Z"/><path class="cls-5" d="M36.86,64.94c.88.32,1.9.69,2.93,1.09l-.17-.28a6.74,6.74,0,0,0-1-.2,8.11,8.11,0,0,1-1.42-.71c-.1-.23-.33-.13-.54-.13s-.2-.14-.1-.33l-.47-.1s0,.1,0,.15,0-.1,0-.15c-2.5-.45-4,.69-5.37,1.74l-.72.59.31.39C31.68,65.7,34,63.89,36.86,64.94Z"/><path class="cls-5" d="M46.58,70.11a4.16,4.16,0,0,0-1.69-2,3.93,3.93,0,0,1-.52.23,4.83,4.83,0,0,1,1.84,2.12,8.42,8.42,0,0,0,.42,1,4.59,4.59,0,0,0,.48-.17A8.48,8.48,0,0,1,46.58,70.11Z"/><path class="cls-5" d="M57.43,65.87l-.07,0c-2.28.52-3.48,1.5-4,2.6A11.2,11.2,0,0,0,54.9,67.4,10.78,10.78,0,0,1,57.43,65.87Z"/><path class="cls-5" d="M32.34,63.7a8.57,8.57,0,0,0-3,2c.24.34.46.65.67.93l.72-.59c1.33-1,2.87-2.19,5.37-1.74C35.94,62.73,34.35,62.92,32.34,63.7Z"/><path class="cls-5" d="M38,57.11a.36.36,0,0,1-.37.4c-.3,0-1.05,1.08-2,1.39a5,5,0,0,1-3.21-.24c-1.41-.44-1.62-1.11-1.62-1.11l-.07-.38s-1-2.12-.87-2.56c.1-.27-.85-.14-.85-.14a.34.34,0,0,1-.07-.4,5.07,5.07,0,0,0,.38-.81,5.93,5.93,0,0,1,.91-1.19,4.53,4.53,0,0,1,0-1.16,5.7,5.7,0,0,1,1.94-2.78l-.41.17a17.87,17.87,0,0,0-1.49,1.44,20.63,20.63,0,0,0-2.57,5.5L26.93,58a4.48,4.48,0,0,0-.13,1.22l.82.18a1.53,1.53,0,0,1-.24-1.17c.23-.86,1.22-1.45,1.85-1.09a10.73,10.73,0,0,1,2.57,2.21l.33.38a16.24,16.24,0,0,0,5.93-1.87s.1-.33.23-.92L38,56.89C38,57,38,57.08,38,57.11Z"/><path class="cls-5" d="M48.7,70.76a33.61,33.61,0,0,0,4.61-2.27c.57-1.1,1.77-2.08,4-2.6l.07,0A3.14,3.14,0,0,1,59,65.49l.17,0a36.38,36.38,0,0,0,3.72-4.54A9.67,9.67,0,0,0,63.73,58c.11-.89.16-1.84.19-2.77a7.9,7.9,0,0,1-2.58,2.42l-.18.13a53.55,53.55,0,0,0-4.37,3.65c-.67.63-2,2-3.37,1a1.82,1.82,0,0,1-.14-3.18,21.49,21.49,0,0,1-2.84-.06c-1-.13-1.89-.67-4-1.26L44.81,57c-.45-.27-.81-.49-1.17-1.8a14.58,14.58,0,0,1-.45-2.47,9.32,9.32,0,0,1-3,.13,25.38,25.38,0,0,1-.39,4.69,9.49,9.49,0,0,1,1,.5c.3-.83.58-1.77.72-2.28a13.4,13.4,0,0,1,.65-1.69,4.22,4.22,0,0,1,.1,1.42,4.09,4.09,0,0,0,1,2.9,14.76,14.76,0,0,1,3.24-.09.47.47,0,0,1,.14-.08,1.17,1.17,0,0,1,.84.14c.17.1.75.37.78.5s-.07.48-.51.64l-.12,0a2.53,2.53,0,0,1-1,.47,25.74,25.74,0,0,1-3,.87,4.73,4.73,0,0,1,.49,1.63,8.47,8.47,0,0,1,1.21,0,12.64,12.64,0,0,1,1.22-.41c.34-.07.81-.14.94-.34s0-.4.34-.4a12.73,12.73,0,0,1,1.52.3c.34.07.34.34,0,.54s-.85-.13-.85-.13-.54.23-.54.33-.27,2.81-1.21,3.92c0,0,.07.34-.07.48a11,11,0,0,1-1.86,1.25,4.16,4.16,0,0,1,1.69,2,8.48,8.48,0,0,0,.53,1.12,8.28,8.28,0,0,0,.86-.41C48.57,70.51,48.86,70.52,48.7,70.76Z"/><path class="cls-5" d="M57.38,56.09c.59-.67,2-1.89,2.93-1.89a2.22,2.22,0,0,1,1.55,1,6.2,6.2,0,0,0,.83-.69,4.88,4.88,0,0,0,1.21-1.9c0-1.74-.17-3-.17-3S62.24,48,62,47.72a3.93,3.93,0,0,0-.77-.59,5,5,0,0,0-1-1c-.36-.18-2.57-1.21-3.2-1.44s-3.64-1.17-3.64-1.17c-.66-.13-1.29-.23-1.92-.32-1.46.54-3.33,1.23-4.07,1.54a3.62,3.62,0,0,0-2.62,3.51l-.22.32a40,40,0,0,0,.63,5.76A1.57,1.57,0,0,0,46,55.82a8.76,8.76,0,0,0,4,1.4,6.71,6.71,0,0,0,1.62.36c.42,0,2.62,0,4.21-.17A10.3,10.3,0,0,0,57.38,56.09ZM47,48.53,46,48.39l.13-.27v-.27a10.88,10.88,0,0,0,1.12-1.11,11.61,11.61,0,0,1,3.54-1.9,3.42,3.42,0,0,1,.81-.33c.34-.07,1.19,0,1.46-.1s1.85.06,2.13.5a1.18,1.18,0,0,1-.75.07,4.11,4.11,0,0,0-2.16-.17,14.45,14.45,0,0,0-1.66.81c-.37.27-1.68,1.12-1.92,1.25s-.91.81-1,.88S47,48.53,47,48.53Zm5.24,8.31s-1.76-.65-2.64-1c-.64-.22-.91-.47-1-1.38s0-3.15.48-3.79,1.35-1.89,1.65-2.36a8.25,8.25,0,0,1,3.11-2,3.91,3.91,0,0,1,2.4.07,8.5,8.5,0,0,1,2.26.87A5,5,0,0,1,60,49c.44.88.85,1.69.61,1.79a10.46,10.46,0,0,1-1.11.27,8.28,8.28,0,0,1-1.22,3.52c-1.05,1.52-1.05,1-1.42,1.28A6.9,6.9,0,0,1,52.19,56.84Z"/><path class="cls-5" d="M32.47,47.8l.63-.15a12.92,12.92,0,0,1,1.93,0c.37.1,1.62.78,1.86.85s.5.4.37.6a1,1,0,0,1-.51.31A2.33,2.33,0,0,0,36,49.2c-.23,0-.13-.23-.27-.3l-1.48-.78A4.3,4.3,0,0,0,33,47.85a3.43,3.43,0,0,0-.85.28,5.7,5.7,0,0,0-1.94,2.78,4.53,4.53,0,0,0,0,1.16A8.37,8.37,0,0,1,31.35,51a4.33,4.33,0,0,1,3.14-.84,4.38,4.38,0,0,1,2.73,1.28c.27.44.68.85.82,1.08a4.57,4.57,0,0,1,.3,1.42c0,.32-.25,2.29-.32,3l.27.08a18,18,0,0,0,.22-6c-.54-3.74-1.71-4-1.71-4a5.66,5.66,0,0,1-1.62-.23c-.14,0-.54-.13-1.07-.23l-.44.29C33.3,47.08,32.88,47.43,32.47,47.8Z"/><path class="cls-5" d="M40.4,43.71c-1.17.4-3.74,1.35-3.74,1.35h0a9.92,9.92,0,0,1,1.9.71,2.46,2.46,0,0,1,1.08,1.94s.18.9.41,1a26.78,26.78,0,0,1,.18,3.2s.77.68,2.79-.27a25.92,25.92,0,0,1,0-6.22,2.9,2.9,0,0,1,1.17-1.26l.72-.22s.75-.45,2-1A23.19,23.19,0,0,0,40.4,43.71Z"/><path class="cls-5" d="M36.79,64.13c.33-.3.74-.4.81-.2a.68.68,0,0,1-.07.44s.71.1.84,0,.85-.31,1.05-.48.71-.54,1-.5a4.75,4.75,0,0,1,1.08.5.39.39,0,0,0,.58-.23,2.77,2.77,0,0,1,.81-.85,1.12,1.12,0,0,1,.84-.27h.48a4.73,4.73,0,0,0-.49-1.63,9.22,9.22,0,0,1-1.3.21,20.26,20.26,0,0,1-4.19,0,.72.72,0,0,1-.38-.23c-.36-.12-.82-.36-.57-.58a10.65,10.65,0,0,1,1.42-.81v.2s-.81.44-1,.57-.14.31,0,.38.06,0,.11,0c0-.2.29-.46.83-.78A4.22,4.22,0,0,1,40.4,59c.12-.28.26-.62.39-1a9.49,9.49,0,0,0-1-.5,2.35,2.35,0,0,1-.33.85c-.74,1-3.1,2.07-4.36,2.3-.78.14-1.54.31-2,.42a1.51,1.51,0,0,1-.34,1.83,1.69,1.69,0,0,1-2.43,0l-1.17-1.53-.16-.2A8.07,8.07,0,0,1,27.47,61L27,60.88a16.11,16.11,0,0,0,2.33,4.8,8.57,8.57,0,0,1,3-2c2-.78,3.6-1,3.77.58l.47.1A1.06,1.06,0,0,1,36.79,64.13Z"/><path class="cls-5" d="M33.67,46.78c-.53.37-1,.74-1.44,1.08l.24-.06C32.88,47.43,33.3,47.08,33.67,46.78Z"/><path class="cls-5" d="M59.07,65.53l.08-.08-.17,0A.25.25,0,0,1,59.07,65.53Z"/><path class="cls-5" d="M47,72l-.1-.16-.48.17a1.43,1.43,0,0,1-1.08,0,3.14,3.14,0,0,0-.57-.23l-.17,0H43.42a8.28,8.28,0,0,1,.57,2l.67.14a14.14,14.14,0,0,0-.31-1.46A15.58,15.58,0,0,0,47,72Z"/><path class="cls-5" d="M47.37,71.67a4.89,4.89,0,0,1-.48.2L47,72l.52-.15Z"/><path class="cls-5" d="M52.9,69.76a3.78,3.78,0,0,1,.41-1.27,33.61,33.61,0,0,1-4.61,2.27,1.25,1.25,0,0,1-.26.26,5.17,5.17,0,0,1-1.07.65l.14.21c.74-.21,1.6-.49,2.58-.86A21.21,21.21,0,0,0,52.9,69.76Z"/><path class="cls-5" d="M57.43,65.87A10.78,10.78,0,0,0,54.9,67.4a11.2,11.2,0,0,1-1.59,1.09,3.78,3.78,0,0,0-.41,1.27c1.56-.87,2.38-1.65,3.58-2.38.84-.52,1.22-.65,1.4-.63.42-.42.82-.83,1.19-1.22a.25.25,0,0,0-.09,0C58.49,65.62,58,65.75,57.43,65.87Z"/><path class="cls-5" d="M57.43,65.87c.54-.12,1.06-.25,1.55-.38A3.14,3.14,0,0,0,57.43,65.87Z"/><path class="cls-5" d="M47.56,74.2l.88-.44A8.6,8.6,0,0,1,47,72a15.58,15.58,0,0,1-2.64.51A14.14,14.14,0,0,1,44.66,74,8.91,8.91,0,0,0,47.56,74.2Z"/><path class="cls-5" d="M48.68,73.15a4.05,4.05,0,0,1-1.17-1.27L47,72a8.6,8.6,0,0,0,1.45,1.73l.66-.33C49,73.34,48.84,73.25,48.68,73.15Z"/><path class="cls-5" d="M52.87,71.05a5.09,5.09,0,0,1,0-1.29A21.21,21.21,0,0,1,50.09,71c-1,.37-1.84.65-2.58.86a4.05,4.05,0,0,0,1.17,1.27c.16.1.3.19.42.28l.8-.4C50.94,72.41,51.93,71.74,52.87,71.05Z"/><path class="cls-5" d="M56.48,67.38c-1.2.73-2,1.51-3.58,2.38a5.09,5.09,0,0,0,0,1.29,45.22,45.22,0,0,0,5-4.3C57.7,66.73,57.32,66.86,56.48,67.38Z"/><path class="cls-7" d="M29,61.21l.16.2,1.17,1.53a1.69,1.69,0,0,0,2.43,0,1.51,1.51,0,0,0,.34-1.83l-.47.12A35.06,35.06,0,0,1,29,61.21Z"/><path class="cls-7" d="M29.23,57.17c-.63-.36-1.62.23-1.85,1.09a1.53,1.53,0,0,0,.24,1.17,22,22,0,0,0,3.91.36q.3,0,.6,0l-.33-.38A10.73,10.73,0,0,0,29.23,57.17Z"/><path class="cls-7" d="M61.86,55.16a2.22,2.22,0,0,0-1.55-1c-.9,0-2.34,1.22-2.93,1.89a10.3,10.3,0,0,1-1.6,1.32,10.7,10.7,0,0,0,1.42-.19A15.9,15.9,0,0,0,61.86,55.16Z"/><path class="cls-7" d="M58.82,58.71a7.35,7.35,0,0,0-1.49.13,14.45,14.45,0,0,1-3.1.41h-.95a1.82,1.82,0,0,0,.14,3.18c1.35,1,2.7-.4,3.37-1a53.55,53.55,0,0,1,4.37-3.65l.18-.13a2.84,2.84,0,0,1-.49.17C58.78,58.39,58.82,58.71,58.82,58.71Z"/><path d="M50.63,45.62a14.45,14.45,0,0,1,1.66-.81,4.11,4.11,0,0,1,2.16.17,1.18,1.18,0,0,0,.75-.07c-.28-.44-1.86-.57-2.13-.5s-1.12,0-1.46.1a3.42,3.42,0,0,0-.81.33,11.61,11.61,0,0,0-3.54,1.9,10.88,10.88,0,0,1-1.12,1.11v.27l-.13.27.94.14s.64-.71.75-.78.77-.74,1-.88S50.26,45.89,50.63,45.62Z"/><path d="M31.25,48.15a3.2,3.2,0,0,0-.68.68c.19-.1.66-.32,1.14-.53l.52-.44C31.82,48,31.38,48.09,31.25,48.15Z"/><path d="M33,47.85a4.3,4.3,0,0,1,1.32.27l1.48.78c.14.07,0,.3.27.3a2.33,2.33,0,0,1,.71.24,1,1,0,0,0,.51-.31c.13-.2-.14-.54-.37-.6s-1.49-.75-1.86-.85a12.92,12.92,0,0,0-1.93,0l-.63.15-.35.33A3.43,3.43,0,0,1,33,47.85Z"/><path d="M32.47,47.8l-.24.06-.52.44.41-.17Z"/><path d="M43.41,67.71a7.15,7.15,0,0,1-1.52,0C41.55,67.61,41,67,41,67a2.1,2.1,0,0,1-.44-.61h0l-.8-.32a7.45,7.45,0,0,0,1.08,1.41,4.35,4.35,0,0,0,2.6,1.08,2.41,2.41,0,0,0,.9-.2c-.3-.21-.62-.41-1-.61Z"/><path d="M40.57,66c.16,0,.39.09.63.16a32.38,32.38,0,0,0-3.63-1.47h-.06c-.25-.08-.49-.16-.72-.22l-.21-.06c-.1.19,0,.33.1.33s.44-.1.54.13a8.11,8.11,0,0,0,1.42.71,6.74,6.74,0,0,1,1,.2l.17.28.8.32C40.54,66.3,40.23,65.93,40.57,66Z"/><path d="M44.39,67.78l-.45-.24-.06,0v0a3.31,3.31,0,0,1-.47.15c.34.2.66.4,1,.61a3.93,3.93,0,0,0,.52-.23C44.73,68,44.57,67.88,44.39,67.78Z"/><path d="M37.51,64.66c.26,0,.78-.11.93-.16a8.49,8.49,0,0,0,1.25-.27c.41-.16.51-.57,1.18-.2s1,.37,1.22.31.67-.78.67-.78.41-.71.61-.61a3.42,3.42,0,0,0,.87.08,3,3,0,0,0,0-.52h-.48a1.12,1.12,0,0,0-.84.27,2.77,2.77,0,0,0-.81.85.39.39,0,0,1-.58.23,4.75,4.75,0,0,0-1.08-.5c-.3,0-.81.33-1,.5s-.91.34-1.05.48-.84,0-.84,0a.68.68,0,0,0,.07-.44c-.07-.2-.48-.1-.81.2a1.06,1.06,0,0,0-.21.25l.21.06C37,64.5,37.26,64.58,37.51,64.66Z"/><path d="M46.82,66.36c.94-1.11,1.21-3.81,1.21-3.92s.54-.33.54-.33.48.33.85.13.37-.47,0-.54a12.73,12.73,0,0,0-1.52-.3c-.3,0-.2.2-.34.4s-.6.27-.94.34a12.64,12.64,0,0,0-1.22.41,8.47,8.47,0,0,0-1.21,0,3,3,0,0,1,0,.52l.65,0c.31,0,.64,0,.75-.07a5.3,5.3,0,0,1,1.55-.67c.54-.1.57.07.57.07-.37.1-.57.74-.6.84s-.54.47-.61.78a1.53,1.53,0,0,1-.41.61,8.81,8.81,0,0,0-1.75,0l-.27,0,0,.62a1.91,1.91,0,0,1,.48,0,2.75,2.75,0,0,0,1.46-.2c.27-.07.4.07.67-.07a2,2,0,0,0,.57-.69c.06-.17.11-.28.11-.25a1.22,1.22,0,0,1-.11.25,13.37,13.37,0,0,1-.63,1.5,8,8,0,0,1-.88.88,2.59,2.59,0,0,1-1,.61,3.91,3.91,0,0,0-.78.23l.45.24c.18.1.34.2.5.31a11,11,0,0,0,1.86-1.25C46.89,66.7,46.82,66.36,46.82,66.36Z"/><path d="M42.63,66.5c.27-.24.57-.61.74-.78a1,1,0,0,1,.7-.44l0-.62a2.13,2.13,0,0,0-.92.42c-.13.17-.77.84-.77.84a15.22,15.22,0,0,1-1.49-.4c-.68-.24-1.18-.78-1.45-.75s0,.38-.27.44-.64-.44-.91-.54a1.85,1.85,0,0,0-.74,0,32.38,32.38,0,0,1,3.63,1.47,6.32,6.32,0,0,1,.82.28C42.33,66.56,42.36,66.73,42.63,66.5Z"/><path class="cls-7" d="M37.36,64.67h.21l-.06,0Z"/><path class="cls-7" d="M44.23,63.34c0,.49-.08.93-.11,1.32l.27,0a8.81,8.81,0,0,1,1.75,0,1.53,1.53,0,0,0,.41-.61c.07-.31.57-.68.61-.78s.23-.74.6-.84c0,0,0-.17-.57-.07a5.3,5.3,0,0,0-1.55.67c-.11.11-.44.11-.75.07l-.65,0C44.24,63.13,44.24,63.24,44.23,63.34Z"/><path class="cls-7" d="M38.31,64.67c.27.1.67.61.91.54s0-.4.27-.44.77.51,1.45.75a15.22,15.22,0,0,0,1.49.4s.64-.67.77-.84a2.13,2.13,0,0,1,.92-.42c0-.39.07-.83.11-1.32,0-.1,0-.21,0-.31a3.42,3.42,0,0,1-.87-.08c-.2-.1-.61.61-.61.61s-.4.71-.67.78-.54.06-1.22-.31-.77,0-1.18.2a8.49,8.49,0,0,1-1.25.27c-.15,0-.67.12-.93.16l.06,0A1.85,1.85,0,0,1,38.31,64.67Z"/><path class="cls-7" d="M40.6,66.36A2.1,2.1,0,0,0,41,67s.51.64.85.71a7.15,7.15,0,0,0,1.52,0h0a23,23,0,0,0-2.82-1.36Z"/><path class="cls-7" d="M41.2,66.15c-.24-.07-.47-.13-.63-.16-.34-.06,0,.31,0,.36a23,23,0,0,1,2.82,1.36,3.31,3.31,0,0,0,.47-.15v0C43.21,67.14,42.26,66.65,41.2,66.15Z"/><path class="cls-7" d="M43.88,67.56l.06,0,0,0Z"/><path class="cls-7" d="M47.25,64.32a1.22,1.22,0,0,0,.11-.25S47.31,64.15,47.25,64.32Z"/><path class="cls-7" d="M44.07,65.28a1,1,0,0,0-.7.44c-.17.17-.47.54-.74.78s-.3.06-.61-.07a6.32,6.32,0,0,0-.82-.28c1.06.5,2,1,2.69,1.36C43.92,67.18,44,66.49,44.07,65.28Z"/><path class="cls-7" d="M45.74,66.7a8,8,0,0,0,.88-.88,13.37,13.37,0,0,0,.63-1.5,2,2,0,0,1-.57.69c-.27.14-.4,0-.67.07a2.75,2.75,0,0,1-1.46.2,1.91,1.91,0,0,0-.48,0c-.1,1.21-.15,1.9-.18,2.23l0,0a3.91,3.91,0,0,1,.78-.23A2.59,2.59,0,0,0,45.74,66.7Z"/><path d="M46.63,71.4a3.14,3.14,0,0,1-.86.13,3.82,3.82,0,0,1-1.32-.24c-.5-.2-.64-.37-.4-.47s-.17-.3-.17-.3.2-.34.24-.44.06-.34-.24-.2-.58.67-.41.94.1.61.58.78l.71.24a12.36,12.36,0,0,0,1.9-.39Z"/><path d="M47.16,71.31l0-.08a4.59,4.59,0,0,1-.48.17l0,0Z"/><path d="M48,70.82a8.28,8.28,0,0,1-.86.41l0,.08c.51-.16,1-.35,1.54-.55C48.86,70.52,48.57,70.51,48,70.82Z"/><path d="M44.76,71.84a3.14,3.14,0,0,1,.57.23,1.43,1.43,0,0,0,1.08,0l.48-.17a4.16,4.16,0,0,1-.23-.42A12.36,12.36,0,0,1,44.76,71.84Z"/><path d="M47.16,71.31l-.5.14a4.16,4.16,0,0,0,.23.42,4.89,4.89,0,0,0,.48-.2C47.3,71.55,47.22,71.43,47.16,71.31Z"/><path d="M48.7,70.76c-.51.2-1,.39-1.54.55.06.12.14.24.21.36A5.17,5.17,0,0,0,48.44,71,1.25,1.25,0,0,0,48.7,70.76Z"/><path d="M28.91,54.07a.34.34,0,0,0,.07.4s.95-.13.85.14c-.17.44.87,2.56.87,2.56l.07.38s.21.67,1.62,1.11a5,5,0,0,0,3.21.24c1-.31,1.73-1.35,2-1.39a.36.36,0,0,0,.37-.4s0-.11,0-.22a17.63,17.63,0,0,0-2.08-.48l-.89-.18c.3,1.21.89,1.48.89,1.48a3.22,3.22,0,0,1-1.35.82,4.85,4.85,0,0,1-2-.44,3.57,3.57,0,0,1-.56-.33c-1.08-.81-1.75-2.88-1.44-3.33a2.27,2.27,0,0,0,.26-.66,4.1,4.1,0,0,1-.64-1.7,5.93,5.93,0,0,0-.91,1.19A5.07,5.07,0,0,1,28.91,54.07Z"/><path d="M31,52.72a10.38,10.38,0,0,1,2.12-1.31,3,3,0,0,1,1.8-.18,4.93,4.93,0,0,1,1.08.36l.27.27a4,4,0,0,0-1.08,1.8.69.69,0,0,1,.25,0,.88.88,0,1,1-.56,1.55A6.39,6.39,0,0,0,35,56l.06.27.89.18a17.63,17.63,0,0,1,2.08.48c.07-.67.32-2.64.32-3a4.57,4.57,0,0,0-.3-1.42c-.14-.23-.55-.64-.82-1.08a4.38,4.38,0,0,0-2.73-1.28,4.33,4.33,0,0,0-3.14.84,8.37,8.37,0,0,0-1.15,1.08,4.1,4.1,0,0,0,.64,1.7A8.49,8.49,0,0,0,31,52.72Z"/><path class="cls-8" d="M34.91,55.17a.88.88,0,1,0,.56-1.55.69.69,0,0,0-.25,0,4,4,0,0,1,1.08-1.8L36,51.59A4.93,4.93,0,0,0,35,51.23a3,3,0,0,0-1.8.18A10.38,10.38,0,0,0,31,52.72a8.49,8.49,0,0,1-.19,1.05,6.63,6.63,0,0,0,4.21,2.46L35,56A6.39,6.39,0,0,1,34.91,55.17Z"/><path class="cls-8" d="M30.84,53.77a2.27,2.27,0,0,1-.26.66c-.31.45.36,2.52,1.44,3.33a3.57,3.57,0,0,0,.56.33,4.85,4.85,0,0,0,2,.44,3.22,3.22,0,0,0,1.35-.82s-.59-.27-.89-1.48A6.63,6.63,0,0,1,30.84,53.77Z"/><path d="M58.27,54.61a8.28,8.28,0,0,0,1.22-3.52,10.46,10.46,0,0,0,1.11-.27c.24-.1-.17-.91-.61-1.79a5,5,0,0,0-1.52-1.69,8.5,8.5,0,0,0-2.26-.87,3.91,3.91,0,0,0-2.4-.07,8.25,8.25,0,0,0-3.11,2c-.3.47-1.18,1.72-1.65,2.36s-.54,2.87-.48,3.79.34,1.16,1,1.38c.88.3,2.64,1,2.64,1a6.9,6.9,0,0,0,4.66-1C57.22,55.65,57.22,56.13,58.27,54.61Zm-1.52-5.48a4.78,4.78,0,0,0-1.39,1.61.86.86,0,0,1,.47-.14,1,1,0,0,1,0,2.07A.91.91,0,0,1,55,52.1a1.72,1.72,0,0,0,0,.78,4,4,0,0,0,.4,1.29c.17.17.81.71,1,.71a10.16,10.16,0,0,1-1.8.84,5.58,5.58,0,0,1-2.6.27,10.59,10.59,0,0,1-2.16-.74c-.47-.41-.64-1-.44-2.33a7.7,7.7,0,0,0,.37-1,7,7,0,0,1,1.36-2,5.77,5.77,0,0,1,2.12-1.49,8.09,8.09,0,0,1,2.47-.41,4.84,4.84,0,0,1,1.11.31,2.54,2.54,0,0,1,1.66.67A4.26,4.26,0,0,0,56.75,49.13Z"/><path class="cls-8" d="M58.54,49a2.54,2.54,0,0,0-1.66-.67,4.84,4.84,0,0,0-1.11-.31,8.09,8.09,0,0,0-2.47.41A5.77,5.77,0,0,0,51.18,50a7,7,0,0,0-1.36,2,7.7,7.7,0,0,1-.37,1c-.2,1.38,0,1.92.44,2.33a10.59,10.59,0,0,0,2.16.74,5.58,5.58,0,0,0,2.6-.27,10.16,10.16,0,0,0,1.8-.84c-.21,0-.85-.54-1-.71a4,4,0,0,1-.4-1.29,1.72,1.72,0,0,1,0-.78.91.91,0,0,0,.82.57,1,1,0,0,0,0-2.07.86.86,0,0,0-.47.14,4.78,4.78,0,0,1,1.39-1.61A4.26,4.26,0,0,1,58.54,49Z"/><path class="cls-7" d="M47.64,59.54a.73.73,0,0,1-.55,0,3.51,3.51,0,0,1-.64.2c-.24,0,.2-.27.74-.44s.61-.3.3-.44-.54-.47-.91-.4c-.16,0-.19-.07-.07-.16a14.76,14.76,0,0,0-3.24.09,4.09,4.09,0,0,1-1-2.9,4.22,4.22,0,0,0-.1-1.42,13.4,13.4,0,0,0-.65,1.69c-.14.51-.42,1.45-.72,2.28a8.24,8.24,0,0,1,2.3,1.87,3.47,3.47,0,0,0,.38-.27,2,2,0,0,1,1.29-.44c.5,0,1,.1.94.37s-.94.37-1.15.44l-1.14.34a4.15,4.15,0,0,1,.32.53,25.74,25.74,0,0,0,3-.87A2.53,2.53,0,0,0,47.64,59.54Z"/><path class="cls-7" d="M42,60.75c-.41,0-.61-.1-.24-.2a6.48,6.48,0,0,0,1.34-.64A8.24,8.24,0,0,0,40.79,58c-.13.37-.27.71-.39,1a4.22,4.22,0,0,0-1.76.75c-.54.32-.78.58-.83.78a1.21,1.21,0,0,1,.83-.31c.68,0,1,.1,1.12.23a2.41,2.41,0,0,0,.81.24,2.33,2.33,0,0,1-.64.17c-.24,0-1.22-.17-1,0s-.5.1-.84,0l-.21-.06a.72.72,0,0,0,.38.23,20.26,20.26,0,0,0,4.19,0,9.22,9.22,0,0,0,1.3-.21,4.15,4.15,0,0,0-.32-.53Z"/><path d="M37.81,60.56c-.05,0-.08,0-.11,0s-.21-.24,0-.38,1-.57,1-.57v-.2a10.65,10.65,0,0,0-1.42.81c-.25.22.21.46.57.58A.28.28,0,0,1,37.81,60.56Z"/><path d="M38.91,60.86c-.2-.14.78,0,1,0a2.33,2.33,0,0,0,.64-.17,2.41,2.41,0,0,1-.81-.24c-.14-.13-.44-.23-1.12-.23a1.21,1.21,0,0,0-.83.31.28.28,0,0,0,0,.27l.21.06C38.41,61,39.12,61,38.91,60.86Z"/><path d="M44.55,60c.21-.07,1.12-.17,1.15-.44s-.44-.4-.94-.37a2,2,0,0,0-1.29.44,3.47,3.47,0,0,1-.38.27,4.48,4.48,0,0,1,.32.44Z"/><path d="M42,60.75l1.42-.4a4.48,4.48,0,0,0-.32-.44,6.48,6.48,0,0,1-1.34.64C41.38,60.65,41.58,60.79,42,60.75Z"/><path d="M47.64,59.54l.12,0c.44-.16.54-.5.51-.64s-.61-.4-.78-.5a1.17,1.17,0,0,0-.84-.14.47.47,0,0,0-.14.08,1.77,1.77,0,0,1,1.05.39C47.9,59.07,47.85,59.34,47.64,59.54Z"/><path d="M46.58,58.46c.37-.07.61.27.91.4s.24.27-.3.44-1,.48-.74.44a3.51,3.51,0,0,0,.64-.2.73.73,0,0,0,.55,0c.21-.2.26-.47-.08-.85a1.77,1.77,0,0,0-1.05-.39C46.39,58.39,46.42,58.49,46.58,58.46Z"/><path class="cls-4" d="M22.18,46.59c.05-.56.21-.91.83-.86a18.42,18.42,0,0,0,2.12,0,3.16,3.16,0,0,0-.07-.76,12.77,12.77,0,0,0-.55-1.2c-2.1.19-3.86.45-4.2.53-.76.18-.45.63-.45.63l-.4.18-.27,2.61c-.45.27.09.5.09.5l.91.49A9.56,9.56,0,0,1,22.18,46.59Z"/><path class="cls-4" d="M21.86,57.85h0Z"/><path class="cls-4" d="M22.88,57.89l-.59,0h-.44a8.73,8.73,0,0,0,.64.7,1,1,0,0,1,.11-.14A3,3,0,0,0,22.88,57.89Z"/><path class="cls-4" d="M20.67,55.82a7.56,7.56,0,0,0,.33.76h.79s.26,0,.69,0a5.25,5.25,0,0,1-1.88-2.25c-.37-.88-.87-4.19.51-5.81a8.26,8.26,0,0,1,1.06-1.07c0-.32,0-.62,0-.87a9.56,9.56,0,0,0-2,2.07l.17.09S19.64,52.94,20.67,55.82Z"/><path class="cls-4" d="M25.13,45.68l.65,0a9.28,9.28,0,0,0-.31-2l-1,.08a12.77,12.77,0,0,1,.55,1.2A3.16,3.16,0,0,1,25.13,45.68Z"/><path class="cls-4" d="M22.07,54c-.14-1.89.09-6.08.09-6.08,0-.17,0-.33,0-.48a8.26,8.26,0,0,0-1.06,1.07c-1.38,1.62-.88,4.93-.51,5.81a5.25,5.25,0,0,0,1.88,2.25l.63,0A5.74,5.74,0,0,1,22.07,54Z"/><path class="cls-4" d="M27.32,45.57a4.56,4.56,0,0,1,.9-2.08c-.89,0-1.84.08-2.75.15a9.28,9.28,0,0,1,.31,2C26.32,45.61,26.86,45.59,27.32,45.57Z"/><path class="cls-4" d="M70.62,55.06a3.59,3.59,0,0,0,.32-.87,7.41,7.41,0,0,1-.35.86Z"/><path class="cls-4" d="M29.91,43.5c-.53,0-1.1,0-1.69,0a4.56,4.56,0,0,0-.9,2.08h.15A4.43,4.43,0,0,1,29.91,43.5Z"/><path class="cls-4" d="M57.15,40.46c2.57-.54,8.52-1.21,10.14.27h0c-.14-.91-.37-1.5-.81-1.58a17.11,17.11,0,0,0-2,0A6.3,6.3,0,0,0,63.23,39c-.63,0-2.07.4-7.56,1.12-.48.07-1,.15-1.43.24A5.25,5.25,0,0,0,57.15,40.46Z"/><path class="cls-4" d="M23.13,59.15a10.31,10.31,0,0,0,1.64,1.13l1.56.41c0-.4,0-.94,0-1.58A7.45,7.45,0,0,1,25,58.62a3.65,3.65,0,0,1-.67-.54,6.74,6.74,0,0,0-.74-.12l-.21.57A6.4,6.4,0,0,0,23.13,59.15Z"/><path class="cls-4" d="M28.42,45.6c.68.08,2.94.42,4.67.71.91-.56,1.87-1.05,2.75-1.48l-1.61-.44a3.43,3.43,0,0,1-2.75.26,3.26,3.26,0,0,0-2.84-.4,3.26,3.26,0,0,1,2.84.4,3.43,3.43,0,0,0,2.75-.26c-.77-.2-1.56-.42-2.34-.64a9.06,9.06,0,0,0-2-.25,4.43,4.43,0,0,0-2.44,2.07A6.59,6.59,0,0,1,28.42,45.6Z"/><path class="cls-4" d="M53.05,42.68l.41-.14c7.52-1.26,9.73-.77,9.73-.77a26.38,26.38,0,0,1,1,7.06,9.46,9.46,0,0,1,1.11,6.42,22.68,22.68,0,0,0,2.32.06c.26-.66.51-1.36.74-2.1.14-.41.25-.8.34-1.18l-1.82.1c-.86,0-1-.18-1-.18a27.77,27.77,0,0,0,.18-6.4A4.1,4.1,0,0,1,66,44.07a1.77,1.77,0,0,0,.89-.4,8,8,0,0,0-3.82-2.35c-1.76-.41-6,.59-7.48.77s-1.08.09-2.88-.45a1.79,1.79,0,0,1-1-.66,35.58,35.58,0,0,0-3.42,1.27A33.52,33.52,0,0,1,53.05,42.68Z"/><path class="cls-4" d="M52.74,41.64c1.8.54,1.35.63,2.88.45s5.72-1.18,7.48-.77a8,8,0,0,1,3.82,2.35h0a3.63,3.63,0,0,0,.4-2.61c0-.11,0-.21,0-.31h0c-1.62-1.48-7.57-.81-10.14-.27a5.25,5.25,0,0,1-2.91-.12c-.85.18-1.68.4-2.48.64A1.79,1.79,0,0,0,52.74,41.64Z"/><path class="cls-4" d="M23.33,58.53l.21-.57-.66-.07a3,3,0,0,1-.28.53,1,1,0,0,0-.11.14,8.59,8.59,0,0,0,.64.59A6.4,6.4,0,0,1,23.33,58.53Z"/><path class="cls-4" d="M69.81,52l-1.06,0c-.09.38-.2.77-.34,1.18-.23.74-.48,1.44-.74,2.1a3,3,0,0,0,.92-.12,6,6,0,0,1,2-.14,7.41,7.41,0,0,0,.35-.86c.2-.72.36-1.56.36-1.56A3.58,3.58,0,0,0,69.81,52Z"/><path class="cls-4" d="M51.5,43.25l1.55-.57a33.52,33.52,0,0,0-4.71-.43c-.55.24-1.05.47-1.49.68A34.41,34.41,0,0,1,51.5,43.25Z"/><path class="cls-4" d="M64.27,50.64a5.76,5.76,0,0,1-.37,1.93c0,.81,0,1.71,0,2.64.09-.09.16-.13.22-.11a6.45,6.45,0,0,0,1.21.15,9.46,9.46,0,0,0-1.11-6.42C64.28,49.91,64.27,50.64,64.27,50.64Z"/><path class="cls-4" d="M35,45.78c.4-.26.82-.55,1.21-.84l-.36-.11c-.88.43-1.84.92-2.75,1.48l1,.17C34.61,46.05,35,45.78,35,45.78Z"/><path class="cls-4" d="M26.29,59.11c0,.64,0,1.18,0,1.58l.69.19a6.65,6.65,0,0,1-.22-1.63Z"/><path class="cls-4" d="M35,45.78s-.38.27-.93.7h0a18.36,18.36,0,0,1,2.54-1.42l-.45-.13C35.81,45.23,35.39,45.52,35,45.78Z"/><path class="cls-4" d="M26.8,59.25A6.65,6.65,0,0,0,27,60.88l.45.12a8.07,8.07,0,0,0,1.51.21,14.9,14.9,0,0,1-1.36-1.78Z"/><path class="cls-4" d="M63.9,52.57a4.88,4.88,0,0,1-1.21,1.9,6.2,6.2,0,0,1-.83.69l0,0s1,1.18-.54,2.44a7.9,7.9,0,0,0,2.58-2.42C63.94,54.28,63.93,53.38,63.9,52.57Z"/><path class="cls-4" d="M40.17,52.85a9.32,9.32,0,0,0,3-.13,14.58,14.58,0,0,0,.45,2.47c.36,1.31.72,1.53,1.17,1.8l1.58.95c2.16.59,3.06,1.13,4,1.26a21.49,21.49,0,0,0,2.84.06l.18-.15c.87-.67,1.66-1.23,2.32-1.7-1.59.12-3.79.17-4.21.17A6.71,6.71,0,0,1,50,57.22a8.76,8.76,0,0,1-4-1.4,1.57,1.57,0,0,1-.76-1.44,40,40,0,0,1-.63-5.76l.22-.32a3.62,3.62,0,0,1,2.62-3.51c.74-.31,2.61-1,4.07-1.54a34.41,34.41,0,0,0-4.65-.32c-1.24.6-2,1-2,1l-.72.22A2.9,2.9,0,0,0,43,45.46a25.92,25.92,0,0,0,0,6.22c-2,1-2.79.27-2.79.27a26.78,26.78,0,0,0-.18-3.2c-.23-.13-.41-1-.41-1a2.46,2.46,0,0,0-1.08-1.94,9.92,9.92,0,0,0-1.9-.71,18.36,18.36,0,0,0-2.54,1.42c.53.1.93.18,1.07.23A5.66,5.66,0,0,0,36.8,47s1.17.27,1.71,4a18,18,0,0,1-.22,6,14.43,14.43,0,0,1,1.49.57A25.38,25.38,0,0,0,40.17,52.85Z"/><path class="cls-4" d="M38.06,57.89a16.24,16.24,0,0,1-5.93,1.87,5.86,5.86,0,0,1,.95,1.35c.47-.11,1.23-.28,2-.42,1.26-.23,3.62-1.25,4.36-2.3a2.35,2.35,0,0,0,.33-.85A14.43,14.43,0,0,0,38.29,57C38.16,57.56,38.06,57.89,38.06,57.89Z"/><path class="cls-4" d="M31.53,59.79a22,22,0,0,1-3.91-.36A14.9,14.9,0,0,0,29,61.21a35.06,35.06,0,0,0,3.63,0l.47-.12a5.86,5.86,0,0,0-.95-1.35Q31.83,59.79,31.53,59.79Z"/><path class="cls-4" d="M61.88,55.19l0,0a15.9,15.9,0,0,1-4.66,2.06,10.7,10.7,0,0,1-1.42.19c-.66.47-1.45,1-2.32,1.7l-.18.15h.95a14.45,14.45,0,0,0,3.1-.41,7.35,7.35,0,0,1,1.49-.13s0-.32,2-.91a2.84,2.84,0,0,0,.49-.17C62.89,56.37,61.88,55.19,61.88,55.19Z"/><path class="cls-4" d="M30.56,68.73a4.6,4.6,0,0,1-.8,2.19,8.45,8.45,0,0,1-6.55,4.16,9.24,9.24,0,0,1-7.47-2.6,5.28,5.28,0,0,1-1.65-2.37,9.28,9.28,0,0,1-.61-5.5c.61-3.08,3.85-5.31,4.59-5.71a9.87,9.87,0,0,1,3.77-1,8.08,8.08,0,0,1-.72-1.05l-.23-.22a7.05,7.05,0,0,0-2.35.46,10.34,10.34,0,0,0-4.42,3.71A9.07,9.07,0,0,0,12.33,67a10.77,10.77,0,0,0,.74,3.58,2.37,2.37,0,0,0,.37,1c.34.51,2.33,3.45,4.29,4.23s4.06,1.75,7.27.67a9.82,9.82,0,0,0,6.67-6.8,11,11,0,0,1-1-.78A1.14,1.14,0,0,1,30.56,68.73Z"/><path class="cls-4" d="M21,56.58h-.11l.23.22Z"/><path class="cls-4" d="M24.28,58.08a4.59,4.59,0,0,1,2,.8,13.05,13.05,0,0,1,.07-1.5,12.41,12.41,0,0,0-2.64-.66,1.25,1.25,0,0,1,0,.71C23.89,57.67,24.09,57.89,24.28,58.08Z"/><path class="cls-4" d="M23.72,56.72c-.22,0-.42-.06-.61-.08a8.05,8.05,0,0,0,.58.79A1.25,1.25,0,0,0,23.72,56.72Z"/><path class="cls-4" d="M30.54,68a3.13,3.13,0,0,1,0,.71,1.14,1.14,0,0,0,.16.15,11,11,0,0,0,1,.78s0-.1,0-.16Z"/><path class="cls-4" d="M26.55,59.17l-.1-1.76-.09,0a13.05,13.05,0,0,0-.07,1.5A1.08,1.08,0,0,1,26.55,59.17Z"/><path class="cls-4" d="M21.6,57.17a4.37,4.37,0,0,1-.48-.37,8.08,8.08,0,0,0,.72,1.05h0A.59.59,0,0,0,21.6,57.17Z"/><path class="cls-4" d="M21.86,57.85h.43l.59,0a1,1,0,0,0-.38-1.29h0c-.43,0-.69,0-.69,0H21l.12.22a4.37,4.37,0,0,0,.48.37A.59.59,0,0,1,21.86,57.85Z"/><path class="cls-4" d="M22.88,57.89l.66.07a4.53,4.53,0,0,0,.15-.53,8.05,8.05,0,0,1-.58-.79l-.63,0h0A1,1,0,0,1,22.88,57.89Z"/><path class="cls-4" d="M23.69,57.43a4.53,4.53,0,0,1-.15.53,6.74,6.74,0,0,1,.74.12C24.09,57.89,23.89,57.67,23.69,57.43Z"/><path class="cls-4" d="M79.35,58.8c.81.94,1.82,1.85,2,2.77,0,0,.71.84.71,4s-2.94,6-2.94,6a9.65,9.65,0,0,1-6.52,2.23A12.54,12.54,0,0,1,67.93,72a9.13,9.13,0,0,1-2.8-3l0-.51a5.65,5.65,0,0,1-.76-2.8,8.73,8.73,0,0,0-1,.66,11.2,11.2,0,0,0,.19,1.33l.61,1.55.06.58s2,3.07,4.19,4.25a9.54,9.54,0,0,0,11.42-1.21s2.13-1.35,3-5.14-1.18-7.87-1.18-7.87a12,12,0,0,0-2.23-2.59c-.37.29-.71.56-1,.78A4.53,4.53,0,0,1,79.35,58.8Z"/><path class="cls-4" d="M64.34,64.81l-1,.54c0,.32,0,.66,0,1a8.73,8.73,0,0,1,1-.66A8.73,8.73,0,0,1,64.34,64.81Z"/><path class="cls-4" d="M78.44,58c.3-.22.64-.49,1-.78-.22-.19-.45-.38-.69-.55l-1.26.78A9.3,9.3,0,0,1,78.44,58Z"/><path class="cls-4" d="M74.39,55.14c-.3.41-.63.84-1,1.25a6.85,6.85,0,0,1,1.66.14,11.84,11.84,0,0,1,2.44.95l1.26-.78a8.39,8.39,0,0,0-1.34-.78A10.66,10.66,0,0,0,74.39,55.14Z"/><path class="cls-4" d="M70.81,56c.21-.37.39-.71.53-1h-.1Z"/><path class="cls-4" d="M70.5,56.73a24.92,24.92,0,0,1,2.9-.34c.36-.41.69-.84,1-1.25a17.58,17.58,0,0,0-3-.1c-.14.29-.32.63-.53,1Z"/><path class="cls-4" d="M63.32,64.06c.41-.18.81-.36,1.19-.56A11.66,11.66,0,0,1,64.92,62h0l-1.49.73S63.35,63.28,63.32,64.06Z"/><path class="cls-4" d="M64.92,62l0,0h0Z"/><path class="cls-4" d="M63.32,64.06c0,.38,0,.82,0,1.29l1-.54a8.27,8.27,0,0,1,.17-1.31C64.13,63.7,63.73,63.88,63.32,64.06Z"/><path class="cls-9" d="M27.7,94.76q1.86.93,3.81,1.71a52.21,52.21,0,0,1,.69-7.36A70.13,70.13,0,0,0,27.7,94.76Z"/><path class="cls-10" d="M47.79,98s-2.62,1.44-7.5,1l-.57,0a48.33,48.33,0,0,0,6.06.88C46.61,99.09,47.49,98.28,47.79,98Z"/><path class="cls-10" d="M35.08,97.6a.61.61,0,0,1,0,.14l.15.05A.68.68,0,0,1,35.08,97.6Z"/><path class="cls-11" d="M34.66,89.77c.23-1.69.81-4.25.81-4.25a22.89,22.89,0,0,0-1.93,2s.14.1-.2.71-.61,1.75-.88,5.13c-.09,1.11-.12,2.3-.13,3.44.71.27,1.43.52,2.15.75,0-.18,0-.35,0-.51C34.49,96.05,34.42,91.46,34.66,89.77Z"/><path class="cls-11" d="M53.74,96.09a29.92,29.92,0,0,0,6.72-9.87l.17-.4a20.52,20.52,0,0,1-1.11-2.26c-2.8,7-7.09,10.47-9.9,13.61A32.1,32.1,0,0,1,46.8,99.9c1,.06,2.08.1,3.13.1C52.27,97.77,53.74,96.09,53.74,96.09Z"/><path class="cls-9" d="M61.14,86.74l-.2-.18a26.61,26.61,0,0,1-3.74,6.6,46,46,0,0,1-3.29,3.72c-.45.42-1.9,1.93-3,3.11a49.4,49.4,0,0,0,5-.34,11.74,11.74,0,0,1,1.45-4.42A28.41,28.41,0,0,1,59.5,92s1-.09-.16,1.3a14.71,14.71,0,0,0-2.78,6.3,50.56,50.56,0,0,0,6.76-1.36A8.89,8.89,0,0,1,65.91,97Zm2.4,8.5a40.82,40.82,0,0,0-2-4.79A40.82,40.82,0,0,1,63.54,95.24Z"/></g></g></svg>