<svg xmlns="http://www.w3.org/2000/svg" viewBox="0 0 100 100"><defs><style>.cls-1{fill:#6db094;}.cls-2{fill:none;}.cls-3{fill:#eca278;}.cls-4{fill:#231f20;}.cls-5{fill:#567659;}.cls-6{fill:#f58a60;}.cls-7{fill:#ef484f;}.cls-8{fill:#5b584a;}.cls-9{fill:#778587;}.cls-10{fill:#f37c20;}.cls-11{fill:#6e6859;}.cls-12{fill:#51495d;}.cls-13{fill:#9cd0b7;}.cls-14{fill:#973320;}.cls-15{fill:#fff;}.cls-16{fill:#ee3b4d;}.cls-17,.cls-21{fill:#efa8ca;}.cls-17,.cls-18,.cls-19{opacity:0.64;}.cls-18{fill:#a1c9eb;}.cls-19{fill:#d19fc8;}.cls-20{fill:#7da3d6;}</style></defs><title>Faber</title><g id="Layer_2" data-name="Layer 2"><g id="Layer_1-2" data-name="Layer 1"><circle class="cls-1" cx="50" cy="50" r="50"/><circle class="cls-1" cx="50" cy="50" r="50"/><path class="cls-2" d="M81.06,51.13a1.5,1.5,0,0,0-.47.47s.14.42.44.42l1.2,0a.63.63,0,0,0-.24-.66C81.81,51.23,81.41,50.9,81.06,51.13Z"/><path class="cls-2" d="M78.39,56.82a.72.72,0,0,0-.56.12c-.14.11,0,.65,0,.65a1.86,1.86,0,0,0,.23.42.44.44,0,0,0,.24.17c.21.14.42.28.49.14a3.17,3.17,0,0,0,0-1C78.81,57.15,78.62,56.84,78.39,56.82Z"/><path class="cls-2" d="M74,59.63a.84.84,0,0,0-.67.47,1.53,1.53,0,0,0,0,.79,4.64,4.64,0,0,0,.51.57.47.47,0,0,0,.59.14c.16-.1.42-.38.4-.61a2.28,2.28,0,0,0-.21-.91C74.43,59.84,74.36,59.63,74,59.63Z"/><path class="cls-2" d="M80.33,46.66a.47.47,0,0,0,.47.47,2.85,2.85,0,0,0,.75-.24,1.56,1.56,0,0,0,.44-.35c-.21-.21-.81-.68-1.21-.61S80.31,46.33,80.33,46.66Z"/><path class="cls-2" d="M66.8,63.88c-.53-1-.35-2.46.77-2.63s1,.77,2.29,1.82,3.4-.17,3.4-.17c-1.05-.67-1-.85-1.26-1.9s1.23-3.79,3.12-2.42a3,3,0,0,1,.95,3.54c3.06-.94,2.42-2.21,2.42-2.21-1-.24-2-.7-2.17-1.72s-.32-2.74,1.89-2.95,1.9,3,1.9,3c3.23-1.12,2.74-4.78,2.74-4.78-3.62.71-3.69-1.58-3.69-1.58A2.31,2.31,0,0,1,81,49.66a2.38,2.38,0,0,1,2.64,1.54c.56-2.77-.6-3.51-.6-3.51a2.91,2.91,0,0,1-3.16.67,1.87,1.87,0,0,1-.74-3.16c1.51-1.51,3.72.21,3.72.21a4.62,4.62,0,0,0,.46-3.87s-.46,1.3-1.47,1.37-1.72-1-2-1.68A2.84,2.84,0,0,1,80,39.54l-1,0c-.46,8-4.92,10.36-5.13,10.46a1.18,1.18,0,0,1-.56.07,4.86,4.86,0,0,1-1.75.49l-.6.71a16,16,0,0,1-2.92,0,5.75,5.75,0,0,1-2.14-.6,12.3,12.3,0,0,0-2-.91s-.15.18-.5,0-.63-1.55-.63-1.55h-.17c-.36.46-1.44,1-1.58,1.3a22.65,22.65,0,0,0-.39,2.6l1.05.21-1.58,8.32.7.39C62.09,61.67,66.8,63.88,66.8,63.88Z"/><path class="cls-2" d="M81.37,40.63c-.07.18.18.6.5.32a.77.77,0,0,0,.31-.78l-.38.07S81.44,40.46,81.37,40.63Z"/><path class="cls-2" d="M29.78,90.39a5.64,5.64,0,0,1,3.28.47,5.1,5.1,0,0,0,2.53.47l1.87-.47L37.37,87,36.25,86l.09-4H36a12.84,12.84,0,0,0-3.6-2.25,58.18,58.18,0,0,0-6.28,10.11c-.54,1.08-1,2.17-1.52,3.24q2,1.19,4.11,2.18c0-.27,0-.6,0-1C28.75,93.3,28.8,90.49,29.78,90.39Z"/><path class="cls-2" d="M22.29,68.81l-.37-.33-.28-.89a7.94,7.94,0,0,1,2.57-1.87c1.69-.8,4.36-2.34,13-4.87,0,0,.85-.56.85-1S36.85,52,36.67,51.11s.79-.8,1.45-.1c0,0,.37-.51-.75-1a3.31,3.31,0,0,1-1.55-1.4,7.25,7.25,0,0,1,0,2c-.19.52-1.69,1.31-2.86,1.74a24,24,0,0,1-4.26.74l-.47-.6A10.47,10.47,0,0,1,25.48,52a16.33,16.33,0,0,1-4.17-4.12,26.73,26.73,0,0,1-1.5-5.33A24.22,24.22,0,0,1,20,33.5c.8-3.23,3.07-7.07,10.9-9.41,0-1.73,0-2.7,1.06-3.51s1.51-.7,1.93-.32a6.24,6.24,0,0,1,.74.84,19.82,19.82,0,0,1,.1-2.66c.14-.67.53-1.76,1.72-1.62,0,0-.21-1.93,1.06-1.69,0,0,.17-2.7,1.86-2.31,0,0,.45-1.27.8-1.27s1-.07,1.9,1.79c0,0,2.07-3.19,2.49-3.79a3.41,3.41,0,0,1,1.23-1S46.71,8,47,8.18a2.33,2.33,0,0,1,.38,1s.11-1.16.11-1.34.1-.59,1-1.29,2.67-2,4.29-1.94a6.92,6.92,0,0,1,4.42,1.79,4.05,4.05,0,0,1,1.27,2.11s1.51-1.3,2.53-1.26,4.1.07,4.56.17a1.39,1.39,0,0,1,1,.64c.28.42.84,1,.77,1.68a7.71,7.71,0,0,1-.31,2c-.32,1.13-.92,2.64-.92,2.64s2.36,2.46,3.2,3.61,1,2.36.35,4.75a14.34,14.34,0,0,1,5.13,3.12,13,13,0,0,1,3,4.53,1,1,0,0,1,.31.49c.14.39.74,1.09,1.09,7.27a7.17,7.17,0,0,1,3.09.28,3.37,3.37,0,0,1,2.5,2.5c.7,2.24.38,4.46-.64,5.48v.17a3.94,3.94,0,0,1,1.23,3,4,4,0,0,1-1,3.09s.36,3.09-.94,4.88a6.55,6.55,0,0,1-3.45,2.29,5.1,5.1,0,0,1-1.05,2.7,6.14,6.14,0,0,1-4.11,1.09A3.66,3.66,0,0,1,71.86,65a4.09,4.09,0,0,1-2.14-.26.24.24,0,0,0-.35.24l0,.27A48.39,48.39,0,0,1,74.67,69,32.94,32.94,0,0,1,77,71.4l.1.73s5.45,4,6,4.43.49.66.49.66a55.91,55.91,0,0,1,4.69,4.89,50,50,0,1,0-79-3A48,48,0,0,1,22.29,68.81Z"/><path class="cls-2" d="M63.38,93.1s.94.89,1.07,1.09.23.12.23,0a4,4,0,0,0-.11-.5s-.07-.6-.12-.81a.52.52,0,0,0-.23-.3L64,92.4a.25.25,0,0,1-.23-.09,2.89,2.89,0,0,0-1-.11c-.16,0,0,.2,0,.2Z"/><path class="cls-2" d="M62.94,80a13.65,13.65,0,0,1-1.69.67s.63,5.55.81,6.36.63,1.19-.46,1.58-1.37.35-1.26,1.33a13.06,13.06,0,0,1,.07,1.69,2.47,2.47,0,0,1,2.14-1,12,12,0,0,1,3.09.11c.56.14.6.31.77,1.08s.14,1,.21,1.13a11.26,11.26,0,0,1,.18,1.37S68,94.19,68,96.66q2.21-.84,4.31-1.89a57.66,57.66,0,0,0-8.63-15A1.28,1.28,0,0,0,62.94,80Z"/><path d="M83.62,77.22s.07-.21-.49-.66-6-4.43-6-4.43L77,71.4A32.94,32.94,0,0,0,74.67,69a48.39,48.39,0,0,0-5.27-3.76l0-.27a.24.24,0,0,1,.35-.24,4.09,4.09,0,0,0,2.14.26,3.66,3.66,0,0,0,2.91-1.4,6.14,6.14,0,0,0,4.11-1.09,5.1,5.1,0,0,0,1.05-2.7,6.55,6.55,0,0,0,3.45-2.29c1.3-1.79.94-4.88.94-4.88a4,4,0,0,0,1-3.09,3.94,3.94,0,0,0-1.23-3v-.17c1-1,1.34-3.24.64-5.48a3.37,3.37,0,0,0-2.5-2.5,7.17,7.17,0,0,0-3.09-.28c-.35-6.18-1-6.88-1.09-7.27a1,1,0,0,0-.31-.49,13,13,0,0,0-3-4.53,14.34,14.34,0,0,0-5.13-3.12c.67-2.39.49-3.59-.35-4.75s-3.2-3.61-3.2-3.61.6-1.51.92-2.64a7.71,7.71,0,0,0,.31-2c.07-.7-.49-1.26-.77-1.68a1.39,1.39,0,0,0-1-.64C65,7.27,62,7.23,60.94,7.2s-2.53,1.26-2.53,1.26a4.05,4.05,0,0,0-1.27-2.11,6.92,6.92,0,0,0-4.42-1.79c-1.62-.07-3.41,1.23-4.29,1.94s-1,1.12-1,1.29-.11,1.34-.11,1.34a2.33,2.33,0,0,0-.38-1c-.25-.21-1.13.42-1.13.42a3.41,3.41,0,0,0-1.23,1c-.42.6-2.49,3.79-2.49,3.79-.88-1.86-1.54-1.79-1.9-1.79s-.8,1.27-.8,1.27c-1.69-.39-1.86,2.31-1.86,2.31-1.27-.24-1.06,1.69-1.06,1.69-1.19-.14-1.58.95-1.72,1.62a19.82,19.82,0,0,0-.1,2.66,6.24,6.24,0,0,0-.74-.84c-.42-.38-.91-.49-1.93.32s-1,1.78-1.06,3.51c-7.83,2.34-10.1,6.18-10.9,9.41a24.22,24.22,0,0,0-.23,9.09,26.73,26.73,0,0,0,1.5,5.33A16.33,16.33,0,0,0,25.48,52a10.47,10.47,0,0,0,2.71.43l.47.6a24,24,0,0,0,4.26-.74c1.17-.43,2.67-1.22,2.86-1.74a7.25,7.25,0,0,0,0-2A3.31,3.31,0,0,0,37.37,50c1.12.52.75,1,.75,1-.66-.7-1.64-.84-1.45.1S38,59.35,38,59.82s-.85,1-.85,1c-8.61,2.53-11.28,4.07-13,4.87a7.94,7.94,0,0,0-2.57,1.87l.28.89.37.33a48,48,0,0,0-13,10.25l.44.61,2.18-2.06a1.11,1.11,0,0,1,1.2-.42A28.5,28.5,0,0,1,23.32,87.34S25,90,24.8,91a11.52,11.52,0,0,1-.72,1.74l.53.3c.48-1.07,1-2.16,1.52-3.24a58.18,58.18,0,0,1,6.28-10.11A12.84,12.84,0,0,1,36,82h.33l-.09,4L37.37,87l.09,3.84-1.87.47a5.1,5.1,0,0,1-2.53-.47,5.64,5.64,0,0,0-3.28-.47c-1,.1-1,2.91-1,3.89,0,.37,0,.7,0,1l.32.14a.41.41,0,0,1,0-.11,12.77,12.77,0,0,0,.24-2.08.75.75,0,0,1,.14-.45,6.09,6.09,0,0,1,.11-1.3c.1-.21.35-.81.53-.81h.38a2.32,2.32,0,0,0-.52,1,9.27,9.27,0,0,1-.25,1.09,14.2,14.2,0,0,0-.11,1.68c0,.38-.05.92-.05,1.25l.75.34-.38-.32s0-2.5.07-2.85a5,5,0,0,1,.46-1.58,3.66,3.66,0,0,1,.56-.56,11.15,11.15,0,0,1,1.47.28,12.29,12.29,0,0,0,2.18.74c.42,0-.77.24-.77.24l-1.16-.1s-.25.32,0,.39a4.79,4.79,0,0,0,1.62,0,23.6,23.6,0,0,1,2.49-.67A12.08,12.08,0,0,0,38,91.41s-.42,1.2-.53,1.65a7.49,7.49,0,0,0-.18,2.22l-.84.52-.14.32s-1.61.81-1.89,1a3.31,3.31,0,0,0-.34.27l.36.12.15-.11a13.19,13.19,0,0,0,1.51-1,5.85,5.85,0,0,1,1.19-.74,1,1,0,0,0,.43-.45s0-1.44,0-1.9a5.4,5.4,0,0,1,.63-1.86,3,3,0,0,1,1.41-1,.72.72,0,0,1,.53.21,9.89,9.89,0,0,0-1.3.74,4.93,4.93,0,0,0-.78,2.6,9.21,9.21,0,0,1-.1,1.26A14.72,14.72,0,0,1,37,96.43a10.84,10.84,0,0,1-2,1.2l-.13.05.45.14,1.84-1.2s0,0,0,.12,0,.76-.07,1.6l.46.12c0-.27,0-.55.08-.87a4.45,4.45,0,0,1,.39-1.68,8.57,8.57,0,0,1,.49-1.06,2.72,2.72,0,0,1,.6-.49,5.82,5.82,0,0,1,1.37-.07c.31,0,.28.53.17.63s-.56.12-.81.11c-1.44,0-1.27,2.11-1.33,3l-.06.69.23,0c0-.51.08-1,.08-1.13s.14-1,.14-1.4.38-.63.73-.77a2.34,2.34,0,0,1,1,0l-.1.77s-.21,2.18-.18,2.7v.19l.66.12c.08-1.81.11-3.15.11-3.15l.74,0s.14.92.25,1.72.14,1.37,1.08,1.74c1.51.2,3.05.34,4.61.41h.42l3.51,0v0h.49v0l.21-.07v.1c.14,0,.28,0,.42,0v0c2.11-.07,2.58-.68,2.58-1.06s.23-3.13.23-3.13a14.71,14.71,0,0,1,4.31.14c.07.26.23,1.53.42,3.06l.39-.09c0-.35-.27-2.14-.29-2.37l-.17-1.33s.19.07.21-.07-.23-.35-.23-.56,0-1.29,0-1.29a.86.86,0,0,1,.07-.4l.19-.18s.19,1.33.19,1.59.32,2.08.37,2.36.27,1.43.38,2.09l.24,0c0-.29-.07-.52-.08-.63,0-.38-.42-2.56-.42-2.56,0-.3,0-.63,0-.6s.7.82.82.86a1.07,1.07,0,0,1,.47.33,2.15,2.15,0,0,0,.63.61,2.49,2.49,0,0,1,.66.47,3.58,3.58,0,0,0,.42.35s.08.22.17.44l.41-.12-.09-.63c0-.07.14-.23.23-.18s.13.37.18.7l.38-.12a11.39,11.39,0,0,1-.16-1.17c0-.51-.3-2.34-.33-2.74A3.38,3.38,0,0,0,65,92.36c-.14-.14-.56-.07-.73-.19a5.37,5.37,0,0,0-1.14-.28l-.71.07c-.16,0-.42,0-.58.07s-.52.19-.54.12a.88.88,0,0,1,.07-.3.39.39,0,0,0-.3,0l-.71.63a2.87,2.87,0,0,1,.19-.6,4.32,4.32,0,0,1,.92-.71,4.75,4.75,0,0,1,1.12-.3c.26,0,1,0,1.1,0s1,0,1.24,0a3.33,3.33,0,0,1,.49.09l.35.38a2.3,2.3,0,0,0,.1.44,2,2,0,0,1,.11.52c0,.14.1.7.1.7s0,.07.09.14.14.21.14.33,0,.47,0,.61a1,1,0,0,1-.23.4,1.22,1.22,0,0,0-.26.67,10.3,10.3,0,0,0,.07,1.55c0,.25.08.47.12.64l.69-.23c-.05-.31-.11-.65-.18-1.07a2.74,2.74,0,0,1,0-1.19c.07-.14.12-.37.47-.26s.49.49.59.89.14.84.18,1.24l.25-.1c.06-2.47-1.16-2.33-1.16-2.33A11.26,11.26,0,0,0,66.62,93c-.07-.11,0-.35-.21-1.13s-.21-.94-.77-1.08a12,12,0,0,0-3.09-.11,2.47,2.47,0,0,0-2.14,1,13.06,13.06,0,0,0-.07-1.69c-.11-1,.17-1,1.26-1.33s.63-.77.46-1.58-.81-6.36-.81-6.36A13.65,13.65,0,0,0,62.94,80a1.28,1.28,0,0,1,.7-.21,57.66,57.66,0,0,1,8.63,15l.62-.32c-.12-.36-.24-.72-.37-1.07a31.89,31.89,0,0,0-3.09-6.5c.92-1.33.95-1,2.11-1.86a22.39,22.39,0,0,1,5-2.56,34.11,34.11,0,0,1,4.29-1.41c1.44-.28,5.12-.45,5.12-.45l.07.49.53-.21.42.38q.56.58,1.05,1.17l.27-.32A55.91,55.91,0,0,0,83.62,77.22Zm-20.91,15a2.89,2.89,0,0,1,1,.11.25.25,0,0,0,.23.09l.26.19a.52.52,0,0,1,.23.3c0,.21.12.81.12.81a4,4,0,0,1,.11.5c0,.11-.11.18-.23,0s-1.07-1.09-1.07-1.09l-.65-.7S62.55,92.2,62.71,92.2Zm-1.58,1.85h.26s.28.11.33,0,.26,0,.3.16a1.53,1.53,0,0,0,.43.78,5.53,5.53,0,0,1,.67.61,1,1,0,0,0,.38.21c.09,0,.44.42.44.42s.38.18.31.3-.28.12-.52-.09-.51-.49-.68-.61-.58-.52-.77-.66-.42-.44-.58-.56-.57-.33-.57-.33Zm9.5-27.19c1.61,1.16,2.53,2,2.53,2l.42.07-.07.28a36.22,36.22,0,0,0-11.77,6.57c-.4.34-.7,1-.66-.28s.42-13,.42-13a.85.85,0,0,0,.45-.28,23.82,23.82,0,0,1,2.39,1.26c.46.35.53,0,.53,0S69,65.71,70.63,66.86Zm-27.93-12c-3.41-2.71-3.78-3.08-3.8-3.1l0,0,0-.94.11.08a26.91,26.91,0,0,0,5.88,3.26,22,22,0,0,0,3,.92c.89.21,1.3.31,1.47.85a3.57,3.57,0,0,1,.14.58c.07.3.06.3.45.28s.54-.52.53-.94v0c0-.3.22-.45,1.43-.7s8.12-4.66,8.19-4.7l.13-.08-.2,1.88h0A6,6,0,0,0,57.25,54c-2.44,2.52-3.53,6.57-4,9.52v.05h-.05a17.67,17.67,0,0,1-3.19.26,21.3,21.3,0,0,1-5-.58l-.06,0V63.2C45,63.14,46.07,57.59,42.7,54.91Zm.89,2.23c-.71-1.65-5.1-5.17-5.1-5.17a21.62,21.62,0,0,1,5.2,4.64c1.65,2.39.88,6.6.88,6.6l-.49-.14C44.46,60.12,44.29,58.79,43.59,57.14Zm5.07-5.92c0-.2,0-.32.06-.39a.21.21,0,0,1,.17-.07c.22,0,.25.14.3.41s0,.68.05,1c0,.18,0,.36,0,.39s0,.12-.15.16l-.14,0a.17.17,0,0,1-.18-.09C48.75,52.61,48.68,51.55,48.66,51.22Zm2-.47a.27.27,0,0,1,.08-.23.43.43,0,0,1,.35-.09c.17,0,.18.28.19.54,0,.06,0,.11,0,.16,0,.31.05,1.06-.11,1.14a.33.33,0,0,1-.15,0,.29.29,0,0,1-.18,0,.27.27,0,0,1-.14-.22C50.73,51.82,50.7,50.81,50.7,50.75Zm7.5,3.12c1.12-1,1.82-1.19,2-1.12s-.32.28-.32.28c-4.49,3.26-5.37,10.22-5.37,10.22l-.77.21C55.11,56.93,57.07,54.92,58.2,53.87Zm.94.56c.53-.66,1.8-1.68,1.8-1.44s-1.59,7.69-1.59,7.69c-.56.46-3,2.39-4.21,2.39C56.51,57.1,58.62,55.1,59.14,54.43Zm2.53-2.14-1.05-.21a22.65,22.65,0,0,1,.39-2.6c.14-.32,1.22-.84,1.58-1.3h.17s.28,1.34.63,1.55.5,0,.5,0a12.3,12.3,0,0,1,2,.91,5.75,5.75,0,0,0,2.14.6,16,16,0,0,0,2.92,0l.6-.71a4.86,4.86,0,0,0,1.75-.49,1.18,1.18,0,0,0,.56-.07c.21-.1,4.67-2.46,5.13-10.46l1,0a2.84,2.84,0,0,0-.11,1.69c.29.63,1,1.75,2,1.68s1.47-1.37,1.47-1.37a4.62,4.62,0,0,1-.46,3.87s-2.21-1.72-3.72-.21a1.87,1.87,0,0,0,.74,3.16,2.91,2.91,0,0,0,3.16-.67s1.16.74.6,3.51A2.38,2.38,0,0,0,81,49.66a2.31,2.31,0,0,0-1.86,2.24s.07,2.29,3.69,1.58c0,0,.49,3.66-2.74,4.78,0,0,.32-3.23-1.9-3s-2.1,1.93-1.89,2.95,1.16,1.48,2.17,1.72c0,0,.64,1.27-2.42,2.21a3,3,0,0,0-.95-3.54C73.23,57.21,71.68,60,72,61s.21,1.23,1.26,1.9c0,0-2.11,1.23-3.4.17s-1.16-2-2.29-1.82-1.3,1.61-.77,2.63c0,0-4.71-2.21-6-2.88l-.7-.39Zm3-8.29c.07-5.23-1.09-15-1.09-15,.32-.46-.14-2-.63-2.88s-2.18-3.93-2.63-4.46c0,0,0-.14.28.07s1,1,1.79,1.62a5.63,5.63,0,0,1,1.3,2.35c1.37,3.93,2.18,12.47,2,17.14s-1.09,5.9-1.33,6.21-.46.14-.6-.17a6.58,6.58,0,0,1-.14-1.48,13,13,0,0,0,.91-1.58A7.19,7.19,0,0,0,64.62,44ZM56.69,21.44c-.29.19-.26.89-.26.89a1,1,0,0,1-.49,1.06,2.69,2.69,0,0,1-2.34.77c-1.32-.19-1-2.32-1-2.32a.31.31,0,0,0-.42.05,2,2,0,0,0-.31,1.26,10.29,10.29,0,0,1-.14,1.27A3,3,0,0,1,50,23.86a8.68,8.68,0,0,1-1.22-2,.28.28,0,0,0-.54,0c0,.23-.07,2.17,0,2.48s.23.75-.54.49a4,4,0,0,1-2.16-2.65c-.42-1.42-.42-.37-.46-.16s.35,2.15.37,2.5.23.66-.56.52a6.88,6.88,0,0,1-4.05-2.27s-.38-.47-.68-.24.19.78.3,1a4.46,4.46,0,0,1,.28.75,8.69,8.69,0,0,1-2.8-.53,21.21,21.21,0,0,1,5-3.82c1.09-.56,2-1.17,2.13-.84s.12.58.42.25a11,11,0,0,1,1.73-1.49c.4-.19.57-.1.57.37s0,.56.35.49.18-.63.11-.89-.21-.61,0-.79a10.75,10.75,0,0,1,1.92-1.55.91.91,0,0,1,1.06.49,1,1,0,0,0,.18.33,11.78,11.78,0,0,0-.74,1.17c-.59,1-.71,1.12-.38,1.38s.45-.63.84-1.22.54-1.24,1.71-1.49,1.41-.4,1.74-.07a3.41,3.41,0,0,0,.51.44s.26.26-.8.94-1.17.84-1.14,1.14.72.19,1.17.29,1.33.63,1.19,1.45.21.58.38.28.46-1.15.46-1.15.17-.07.57.19,1.92,1.36,2.06,2a8.14,8.14,0,0,1,.32,2.56,1.94,1.94,0,0,1-1.82-.75c-.84-1-.49-1.69-.49-1.69S57,21.26,56.69,21.44ZM35.52,25.21a11.84,11.84,0,0,0-1.19,2c-.2.4.23-1.59.86-2.34a29.08,29.08,0,0,1,4.66-4.31c1.66-1.08,5.22-2.78,6.6-2.9l-.56.61s-.49-.19-2.08.65a30.22,30.22,0,0,0-5.57,3.7C36.67,24,35.52,25.21,35.52,25.21Zm20-9.1a.66.66,0,0,1,.75.18,4.25,4.25,0,0,1,.57,1.85l-1.36-.44a5.18,5.18,0,0,0-.7-.14c.3-.28.79-.75,1-.89S55.51,16.11,55.51,16.11Zm.92,2.64-1.83-.49c-.23,0-.79-.16-.21-.35s3.07.87,3.86,1.24a15,15,0,0,1,3.59,2.74c.51.72-.59-.31-1.34-.8A16.29,16.29,0,0,0,56.43,18.75Zm.49-2.06a1.3,1.3,0,0,1,1.17.24A3.16,3.16,0,0,1,59,19.27a19,19,0,0,0-1.69-.92A4.74,4.74,0,0,0,56.92,16.69ZM68.28,23l.55.12a43.46,43.46,0,0,1,3.59,16.6,28.09,28.09,0,0,1-2.61,11.1l-.52,0a28.25,28.25,0,0,0,2.6-11.13A43.88,43.88,0,0,0,68.28,23Zm3.33,16.72A27.65,27.65,0,0,1,69,50.86a8.09,8.09,0,0,1-1.29,0A6,6,0,0,1,66,50.33a5.37,5.37,0,0,0,.93-1.65h0a49.46,49.46,0,0,0,.24-15.77c-.66-4.72-1.84-8.54-3.22-10.45.53,0,2.39.2,4,.48.09.16.2.38.3.61l0,0C69.53,26.4,71.77,33.81,71.61,39.71Zm-5,8.89a5.12,5.12,0,0,1-.93,1.61,7.91,7.91,0,0,1-1.07-.62L65,48.5s.7-1.34.91-5.27a68.12,68.12,0,0,0-1.23-15.1c-.88-3.44-1.19-4.22-2.53-5.66-.12-.13.48-.34,1.38-.11a8.89,8.89,0,0,1,.79,1.26,8.31,8.31,0,0,1,1,2.42A49.43,49.43,0,0,1,66.66,48.6Zm2.76,15.56A4.92,4.92,0,0,1,68,62.9c-.15-.2-.16-.2-.22-.2h0s0,.39.3,1c.19.29.86,1.16.92,1.26A2.74,2.74,0,0,1,67.44,64a1.74,1.74,0,0,1-.32-1.67.74.74,0,0,1,.66-.37.94.94,0,0,1,.78.48,4.18,4.18,0,0,0,1.24,1.1c1.09.7,2.32.67,3.84-.45l.58.28C72.48,64.69,70.77,65,69.42,64.16Zm6.3-.95a3.9,3.9,0,0,1-.58-.05,3.25,3.25,0,0,1-2.43-1.34,2.43,2.43,0,0,1-.21-2,1.5,1.5,0,0,1,1.27-1,1.78,1.78,0,0,1,1.69.65,2.2,2.2,0,0,1-.26,2.87l-.41-.38a1.66,1.66,0,0,0,.2-2.19,1.25,1.25,0,0,0-1.14-.39A.92.92,0,0,0,73,60a1.84,1.84,0,0,0,.15,1.55,2.77,2.77,0,0,0,2,1.09A3.37,3.37,0,0,0,78.91,60l.55.09A3.93,3.93,0,0,1,75.72,63.21ZM74.41,61.6a.47.47,0,0,1-.59-.14,4.64,4.64,0,0,1-.51-.57,1.53,1.53,0,0,1,0-.79.84.84,0,0,1,.67-.47c.33,0,.4.21.57.45a2.28,2.28,0,0,1,.21.91C74.83,61.22,74.57,61.5,74.41,61.6Zm7.24-2.89a3.88,3.88,0,0,1-2.3.85,2.6,2.6,0,0,1-.6-.07A2.77,2.77,0,0,1,77,58.36a2.11,2.11,0,0,1-.25-1.61,1.34,1.34,0,0,1,.81-.82,1.51,1.51,0,0,1,1.51,0,2.54,2.54,0,0,1,.7,2.33l-.56,0c.06-.94-.11-1.59-.46-1.84a1,1,0,0,0-1,0,.82.82,0,0,0-.5.48,1.62,1.62,0,0,0,.21,1.16,2.19,2.19,0,0,0,1.36.85,3,3,0,0,0,2.44-.68,4.93,4.93,0,0,0,2-5l.55-.11A5.48,5.48,0,0,1,81.65,58.71Zm-2.86-.39c-.07.14-.28,0-.49-.14a.44.44,0,0,1-.24-.17,1.86,1.86,0,0,1-.23-.42s-.14-.54,0-.65a.72.72,0,0,1,.56-.12c.23,0,.42.33.44.52A3.17,3.17,0,0,1,78.79,58.32Zm5.72-6.52a2.34,2.34,0,0,1-1.58,1.26,3.5,3.5,0,0,1-1,.13,3.46,3.46,0,0,1-1.62-.34,1.56,1.56,0,0,1,0-2.5A1.66,1.66,0,0,1,81.79,50a2.55,2.55,0,0,1,1.68,1.52l-.65.28a1.86,1.86,0,0,0-1.2-1.12,1,1,0,0,0-.9.2.88.88,0,0,0-.36.73.9.9,0,0,0,.33.65,3.43,3.43,0,0,0,2.06.12,1.68,1.68,0,0,0,1.13-.9,4.08,4.08,0,0,0-.52-4.1l.55-.43A4.82,4.82,0,0,1,84.51,51.8Zm-2.28.2L81,52c-.3,0-.44-.42-.44-.42a1.5,1.5,0,0,1,.47-.47c.35-.23.75.1.93.21A.63.63,0,0,1,82.23,52Zm1.4-12.2c.54.87,1.5,3.09.85,5a5.33,5.33,0,0,1-3,3.3A1.93,1.93,0,0,1,79,46.68a1.28,1.28,0,0,1,.33-1.17c.51-.68,2-.65,2.69-.23s.72.51.72.51l-.39.5a1.92,1.92,0,0,0-2-.59c-1.12.44-.23,1.76.19,1.87s1.08.07,2.11-.84a6.09,6.09,0,0,0,1.45-3.37,5.12,5.12,0,0,0-1.2-3.49c-1.12-1.08-2.2.7-1.92,1.08s.5,1.1,1.57-.12l.12-.54s.42.42.44.63a1.72,1.72,0,0,1-.72,1.17,1.07,1.07,0,0,1-1.45,0c-.35-.42-.75-1-.68-1.36.17-.8.09-1.33.94-1.61A2,2,0,0,1,83.63,39.8ZM82,46.54a1.56,1.56,0,0,1-.44.35,2.85,2.85,0,0,1-.75.24.47.47,0,0,1-.47-.47c0-.33,0-.66.45-.73S81.78,46.33,82,46.54ZM81.87,41c-.32.28-.57-.14-.5-.32s.43-.39.43-.39l.38-.07A.77.77,0,0,1,81.87,41ZM79,38.42a9.59,9.59,0,0,1,2.55.12,6.3,6.3,0,0,0-1.24.56L79,39.21ZM71.26,23.93a15,15,0,0,1,3,2.07l.38.36.14.18a11.45,11.45,0,0,1,2.48,3.66,17.79,17.79,0,0,1,1,3.47h0v.08c.71,4,.39,8.59-.78,11.31a8.8,8.8,0,0,1-5.16,5c-.74.18-.3-.45-.07-1.09,2-5.47,2-9.76,1.3-15.41a41.85,41.85,0,0,0-.8-4.29h0c-.08-.38-.18-.75-.28-1.13l0-.14,0-.1c-.27-1-.54-1.84-.77-2.5-.1-.26-.19-.53-.29-.78l-.18-.47L71,23.84l.14.07S71.19,23.9,71.26,23.93Zm-1.4-.51a1,1,0,0,1,.33.28,1,1,0,0,1,.22.16,3.73,3.73,0,0,1,.2.5,30.42,30.42,0,0,1,1.9,6.42h0c0,.18.06.38.08.57.16.8.26,1.33.26,1.33s2.56,10.82-2.15,18c0,0-.22,0-.59.1A28.69,28.69,0,0,0,72.7,39.72a34.39,34.39,0,0,0-.76-7.47l0,0c0-.29-.1-.59-.16-.91-.18-.84-.39-1.66-.6-2.44l-.08,0c-.27-1-.55-2.08-.82-3s-.54-1.49-.78-2.06l0-.07a.78.78,0,0,1-.09-.21c0-.12-.11-.24-.16-.35A5.27,5.27,0,0,1,69.86,23.42Zm-1.55-5.79c1.09,1.4,1.23,1.65,1.19,2.74A6.86,6.86,0,0,1,69,22.54l-1.19-.31a2.86,2.86,0,0,0-1.62-1.51s-.24-.14.28-.42a3.29,3.29,0,0,0,1.41-1.83,2.46,2.46,0,0,0-1.2-2.32,1.39,1.39,0,0,0-1.12-.35,3.48,3.48,0,0,0-.17-.67l.38-.24A26,26,0,0,1,68.31,17.63Zm-4.46-10c.42,0,1.69,0,2.14.71a3,3,0,0,1,.74,2.7,31,31,0,0,1-1.51,3.79,2,2,0,0,0-1.93-.45,10,10,0,0,0,1.68-3A3.39,3.39,0,0,0,63.64,7.9C63.42,7.69,63.43,7.58,63.85,7.58ZM40,12.64c.14-.21.25-.77.67-.42A8,8,0,0,1,41.8,13.8l.1.14-.77,1.69A16.78,16.78,0,0,0,40,13.31.6.6,0,0,1,40,12.64Zm-7.62,8.22c1-.46,1.37-.39,1.86.56s.39.95.88.91,0-.94,0-.94-.42-3.76.7-4.11,1.4,1.26,1.4,1.26.11.21.18-.24A3.55,3.55,0,0,0,37,16.71c-.14-.24-.14-1.12.25-1.12s.63,1.12.63,1.12.14.15.18-.28a5,5,0,0,1,.24-2.28c.42-.84,1.16-.91,1.62,0s.6,1.26.88,1.86.56.21.66,0a38.07,38.07,0,0,1,3.27-5.41c1.23-1.44,1.93-1.89,2-1.15s.18,4.42.18,4.42a.57.57,0,0,0,.38-.18,5.77,5.77,0,0,0,.28-1.89,31.19,31.19,0,0,1,.39-3.27,2.74,2.74,0,0,1,.88-1.68,5.63,5.63,0,0,1,3.83-1.65,6.33,6.33,0,0,1,4.74,2.38c.91,1.27.17,1.69.17,1.69s-.42.6-.35.74.32.1.63-.25A5.34,5.34,0,0,1,60.37,7.9c1.16-.21,2.11-.39,2.53.07A4.92,4.92,0,0,1,64.48,10c.39,1.16-.45,2.36-1,3a19.86,19.86,0,0,1-1.33,1.55c-.28.24.1.35.7.31s1.55-.24,2,.39l.14.6a2.55,2.55,0,0,0-1.16.59c-.28.39.25.6.42.39A1.48,1.48,0,0,1,66,16.26c1,.21,1.54,1.47,1.65,1.75s-.21.85-.49,1.13a4.32,4.32,0,0,1-1.41,1.23s-.91,0-.91.28,0,.38.88.42a2.15,2.15,0,0,1,1.44.88,17.23,17.23,0,0,0-4.64-.28l-.21.07a13.77,13.77,0,0,0-2.77-2.15s0-3.79-2.74-3.26c0,0-.14-.84-1.41-.63,0,0-.21.24-.77-.25s-2.64.46-2.74.56a1.75,1.75,0,0,0-.49-.77A1.3,1.3,0,0,0,49.73,15a5.22,5.22,0,0,0-2,2,5.85,5.85,0,0,0-1.83.11,3.94,3.94,0,0,1-1,.42c-.77.28-6.64,2.53-9.87,7,0,0-.17-.64-.56-.64s-.63-.28-.84-.28-2.07.32-2.07.32C31.36,23.14,31.36,21.32,32.42,20.86ZM24.2,50.39a13.22,13.22,0,0,1-2.84-3.65s1,.55,1.54.77a14.39,14.39,0,0,0,2.35.57c.18.1.57-.18.29-.28a11.89,11.89,0,0,1-1.9-.53c-.35-.25-1.09-.32-1.44-.53s-1.05-.67-1.05-.67a20.83,20.83,0,0,1-.95-11.62,9.93,9.93,0,0,1,1.36-3.55h0a6.28,6.28,0,0,1,1.16-1.53c.14-.16.28-.3.42-.44l.1-.12.14-.13A10.57,10.57,0,0,1,25.76,27l.08-.06c0,.09-.05.25-.09.46h0s0,.08,0,.16c-.08.38-.2.93-.36,1.66-.11.51-.22,1.09-.33,1.75,0,.19-.05.38-.07.59h0a39.58,39.58,0,0,0-.52,6.61,28.2,28.2,0,0,0,3.44,13.8A5.7,5.7,0,0,1,24.2,50.39Zm4.71,2.08s-2-1.76-3.52-8.19a33.05,33.05,0,0,1-.3-10h0c0-.28.07-.58.11-.89h0c.09-.87.21-1.69.32-2.45a33.85,33.85,0,0,1,.78-4.2l0,0v-.05s.24-.17.53-.34l.06,0,.36-.19a.5.5,0,0,1,.25-.05s-.17.45-.39,1.24a51,51,0,0,0-1.32,8.27c0,.14,0,.29,0,.44h0A28.57,28.57,0,0,0,26,41.39c.87,6.2,2.47,9.42,3.72,11Zm1.11,0c-1.25-1.55-2.89-4.72-3.78-11.07a36.6,36.6,0,0,1,.57-11.15,28.86,28.86,0,0,1,.81-3.63c.06-.23.12-.44.17-.6l.18-.06.08-.05v0l.28-.09a51,51,0,0,0-1.45,7.51v.08a32.22,32.22,0,0,0-.06,7.91c.86,6.19,2.43,9.43,3.68,11.09Zm2.82-.52c-.49.14-1.51.32-2,.43H30.8c-1.24-1.59-2.84-4.79-3.72-11.09a32.15,32.15,0,0,1,.06-7.84h0c0-.23.05-.46.07-.69h0c.22-1.7.51-3.27.79-4.53.12-.59.25-1.14.39-1.66.09-.33.17-.63.24-.86l.22-.07c.35-.11,3-1,3.76-.84l.19-.1A8.14,8.14,0,0,0,32,26.9a25.22,25.22,0,0,0-.43,2.77h0c-.07.67-.13,1.41-.18,2.23,0,.28,0,.56,0,.84h0v.08c0,.45,0,.89,0,1.33h0v.07h0c-.21,6.87.32,12.77,1.47,16a6.55,6.55,0,0,0,.87,1.46Zm1.3-.49a.7.7,0,0,1-.23.14A5,5,0,0,1,33,50.1c-1.21-3.37-1.73-9.82-1.4-17.26,0-.45.05-.87.07-1.27a.41.41,0,0,0,0-.11h0c.33-4.78,1.14-6.45,1.64-7a1.24,1.24,0,0,1,.39-.1c.28,0,.91-.11.45.45s-1.05,1.44-1.29,5a78.61,78.61,0,0,0,.24,15.07s.42,3.75,1.41,5.4l.21.6S34.31,51.24,34.14,51.41Zm1.26-1.09c-.21,0-.52-.1-.94-1.08s-1.58-4.43-1.55-14,1.62-10.43,1.62-10.43l.17.18a5.85,5.85,0,0,0-.77,3.47s.14.25.35,0a85.31,85.31,0,0,0,0,12.3c.53,5,.92,6.95.92,6.95a.88.88,0,0,1,.38.88C35.51,49.24,35.61,50.29,35.4,50.32Zm1.75-2.52a4,4,0,0,1-1.58-2.48A25.89,25.89,0,0,1,35.05,39c0-2.13-.13-5.33-.25-7.67-.08-1.53-.14-2.73-.12-3.11l0-.95,0-.05A11,11,0,0,1,37.37,24l.15-.11,0,.18s-.07.4.6.53c.43.08,1.07.13,1.63.18s.8.06,1.08.1.33,0,.36,0,0-.21,0-.39,0-.13,0-.2c0-.23-.07-.36,0-.41s.23,0,.85.58a6.27,6.27,0,0,0,3.38,1.15c.32,0,.52,0,.6-.1s0-.37-.06-.7-.11-.45-.15-.71l0-.24.15.18a6,6,0,0,0,1.5,1.38,6.36,6.36,0,0,0,1,0h.33a.45.45,0,0,0,.33-.1.81.81,0,0,0,.11-.57,5,5,0,0,1,0-1.23l0-.28.09.27s.38,1.09,1,1.31a2.71,2.71,0,0,0,1.06.19,1.82,1.82,0,0,1,.33,0c.13,0,.21,0,.27,0s.19-.5.21-1.26v-.05h.05s.25-.06.41.32v0c.14.31.28.64,1.2.69a4.49,4.49,0,0,0,2.66-1.25l0-.05,0,.05a4.65,4.65,0,0,0,3.3,1.44,8.82,8.82,0,0,0-.65-3.46L59.06,21l.65.65A14.31,14.31,0,0,1,61.13,24a13.3,13.3,0,0,0,.73,1.47c.08,0,.26.19.53.77a34,34,0,0,1,1,6.91c.14,2.55.46,11.06.47,11.15v0l0,0a14.6,14.6,0,0,1-3.81,3.82c-2,1.12-5.72,3.23-6,3.37s-1.36.17-1.49,0a4.77,4.77,0,0,1-.11-1.25v-.07h.07A5.12,5.12,0,0,0,54,49.83a12.33,12.33,0,0,0,1.13-.58l0-.34c-.37.12-1.82.59-2.36.68h-.05l0-.05c-.06-.15-.26-.54-.47-.61-.58-.2-.76-.17-.82-.14a.05.05,0,0,0,0,0c-.05.22-.1.87-.1.88v0l-.83.22V49.9s-.06-.78-.36-1a.23.23,0,0,0-.21,0c-.55.09-.65.27-.65.63v.86l-.45.06v-.06s0-.14-.26-.14-.51.31-.51.31l0,0h0c-.21,0-5-.47-6-.7s-1.71-1.92-1.78-2.09-.25-.23-.36-.23-.06,0-.09,0,.52,1.31.89,1.83a4.2,4.2,0,0,0,2.63,1.1,36.35,36.35,0,0,0,4.67.37h.06l.16,2.09-.1,0c-.17,0-4.08-1.27-4.55-1.46a18.22,18.22,0,0,1-3.34-1.69A20.79,20.79,0,0,0,37.15,47.8Zm.33,4.28c-.07-.53.56.32.8.56s3.94,3.65,4.6,4.88S44,59.17,43.73,63a14.46,14.46,0,0,1-4.57-2.57c-.44-.38-.31-.56-.53-1.58S37.55,52.61,37.48,52.08ZM24.8,66.23l2.84-1.3a70.62,70.62,0,0,1,8.51-3.22l.13,0s.14-.42.28.56a20.2,20.2,0,0,1,.67,5.23s-.18.07-.18.53,0,1.51,0,1.51.28,0,.28.21.21,8.92.21,8.92S32.73,71.85,28.66,69,24.8,66.23,24.8,66.23ZM30.24,81.4a39.12,39.12,0,0,0-4.95,8.82A29,29,0,0,0,13.56,76.94s-.84-.14-.39-.52a47.84,47.84,0,0,1,9.73-6.64,27.59,27.59,0,0,1,7.48,6.81ZM22.67,68.48l1.64,1c.59.4,1.47,1.15,1.62,1.28h0c-.21-.18-1.37-1-1.93-1.39A7,7,0,0,0,23,68.83Zm10,8.87s-.37-.51-.47-.68-.75-.65-.82-.79a4.88,4.88,0,0,0-.39-.52s-.94-.86-1.55-1.49-2.15-2-2.76-2.49l1.45,1.15c.33.26,2.06,1.94,2.62,2.48s.73.77,1.13,1.2.84.91.93,1S32.71,77.35,32.71,77.35Zm-1-1.95a45.43,45.43,0,0,0-8-6.85s-.07-.35-1.23-.88l.11-.35.49-.21,1.26-.67a44.17,44.17,0,0,1,9.06,7.69c3.86,4.5,4.11,5.27,4.11,5.27s.07,1.83-.35,2.18C37.16,81.58,33,76.66,31.72,75.4Zm9.58,20V94.36L41,93.91l.14-3.3s-.8-.71-1.47-.39a8.42,8.42,0,0,1-1.51.49l.14-4A4.53,4.53,0,0,1,41,86.32l.95,9.17ZM43.55,99l9,.32A42.36,42.36,0,0,1,43.55,99ZM55,98.09c-.38,1.4-3,.66-3.86.7s-6.46-.14-7.16-.14-1,0-1.2-1.34-1-9.94-1-9.94c-.11-.91,0-2.1,1.37-2.14s9.94.42,10.78.53,1.62.49,1.62,2.53S55.35,96.68,55,98.09Zm.85-3c.49-1.27.17-7.59.17-7.59,2.74,0,3.48.56,3.48.56.25,1.62.42,7.2.42,7.2A17.69,17.69,0,0,0,55.81,95.07Zm5.55-7.34C60.72,87.87,60,88,60,88l0-.39-.39,0s-.77-.63-3.76-.63c0,0,.07-1.62-2.32-1.72s-10.07-.53-10.64-.53-1.08-.18-1.47.25a1.29,1.29,0,0,0-.35.91s-2.21-.28-3.13.46a5.53,5.53,0,0,0-1.19-.57l0-3.23a.46.46,0,0,0,.42,0,3.61,3.61,0,0,0,.92-1.23c.17-.42.07-9.52.07-9.52s.56,1.51.74,1.86.35-.1,0-1.26-1.2-3.55-1.2-3.79-.17-.5.25-.43-.92-6.67-.92-6.67,1.16-.67,1.69-.38a24.84,24.84,0,0,0,4.5,2.63s1.19.53,1.51.74a23.7,23.7,0,0,1,4,.38s-.38,6.18-.45,9.2-.07,10.61-.07,10.61h.7s-.25-11.84.28-18.26c0,0-.18-.7.28-.74a31,31,0,0,0,4.6-.56c.6-.28,5.3-3.37,5.76-3.69a.67.67,0,0,1,1,.63c0,.67-.49,13.7-.24,17.42s.6,7.48.6,7.48S62,87.58,61.36,87.73Zm.07-8.47-.25,0a10.26,10.26,0,0,1,0-2.53,42.27,42.27,0,0,1,12.36-7.1,1.78,1.78,0,0,1,1.16.25c.49.35,1.65,1.47,1.65,1.47s-1.9,0-6.46,2.32A38.25,38.25,0,0,0,61.43,79.26Zm19.91,1.3a15.82,15.82,0,0,0-3.62,1,22.7,22.7,0,0,0-4.32,1.8,17.53,17.53,0,0,0-3.16,2,7.89,7.89,0,0,0-.95,1.13l-2.84-4.32A29.64,29.64,0,0,1,66.59,78a3.58,3.58,0,0,1,1-1.2c.42-.31,4.74-3.26,5.06-3.37s2.63-1.16,2.88-1.33.95.1,1.23.35A45.92,45.92,0,0,1,86,80.25S82.67,80.39,81.34,80.56Z"/><path class="cls-3" d="M43.48,51.32c.42.17,3.82,1.23,4.44,1.42L47.79,51a37.17,37.17,0,0,1-4.62-.37,4.24,4.24,0,0,1-2.72-1.16s-1.15-1.67-.89-2a.26.26,0,0,1,.19-.1.8.8,0,0,1,.48.28v0s.75,1.8,1.69,2,5.5.66,6,.7a1,1,0,0,1,.59-.33.38.38,0,0,1,.37.19l.21,0v-.73c0-.48.2-.68.76-.77a.43.43,0,0,1,.33.08,1.69,1.69,0,0,1,.4,1l.58-.15c0-.16.05-.65.09-.85a.2.2,0,0,1,.09-.13c.14-.08.44,0,.94.12.26.09.46.5.53.65.64-.12,2.35-.69,2.37-.69l.09,0,.05.6,0,0a10.07,10.07,0,0,1-1.18.62,4.75,4.75,0,0,1-1.46.32,5.57,5.57,0,0,0,.08,1.12,2.59,2.59,0,0,0,1.32,0c.28-.14,4-2.25,6-3.37a14.69,14.69,0,0,0,3.76-3.75c0-.5-.34-8.64-.47-11.12a33.17,33.17,0,0,0-1-6.86c-.29-.63-.47-.71-.47-.71h0v0A10.24,10.24,0,0,1,61,24a13.89,13.89,0,0,0-1.4-2.28l-.05,0a9.67,9.67,0,0,1,.51,3.23V25H60a4.56,4.56,0,0,1-3.43-1.42,4.57,4.57,0,0,1-2.72,1.24c-1-.05-1.18-.45-1.32-.78v0c-.07-.16-.14-.21-.19-.23,0,.9-.13,1.16-.26,1.28a.45.45,0,0,1-.37.08h-.32a2.68,2.68,0,0,1-1.11-.2,2,2,0,0,1-1-1.14,5.52,5.52,0,0,0,0,.93.89.89,0,0,1-.15.67.56.56,0,0,1-.43.15h-.32a6.59,6.59,0,0,1-1,0c-.32,0-1.08-.85-1.43-1.24a4.46,4.46,0,0,0,.11.46c.1.36.17.65,0,.82s-.33.18-.72.15a6.19,6.19,0,0,1-3.45-1.19,6.56,6.56,0,0,0-.68-.55,1.29,1.29,0,0,0,0,.25c0,.07,0,.14.05.2,0,.22.09.4,0,.51s-.23.12-.49.08-.66-.07-1.07-.1c-.57-.05-1.21-.1-1.65-.18a1,1,0,0,1-.63-.34.64.64,0,0,1-.08-.2,10.94,10.94,0,0,0-2.47,3.09l0,0,0,.92c0,.37,0,1.57.12,3.09.12,2.34.28,5.54.25,7.68a25,25,0,0,0,.52,6.25,3.88,3.88,0,0,0,1.5,2.39,20.65,20.65,0,0,1,3,2A17.64,17.64,0,0,0,43.48,51.32ZM37.42,39.75A2.37,2.37,0,0,1,37,38.58s-.28-.35-.28-.49,0-.54-.19-.54A.48.48,0,0,1,36,37.2c0-.12.21-.23.21-.23a23.22,23.22,0,0,1,.28-2.41c.14-.5.58-1.6.58-1.6a8.32,8.32,0,0,1,2.62-2.64,4.87,4.87,0,0,1,3-.47,5.24,5.24,0,0,1,3.16,1.8,12.11,12.11,0,0,1,1.43,3.21c.49,1.59.33,1.59.33,1.76s.33.6.09.6-.44-.3-.65.59a19.7,19.7,0,0,1-1.15,2.5,1.2,1.2,0,0,1-.38.82A5.19,5.19,0,0,1,41.4,42.4,5.74,5.74,0,0,1,37.42,39.75Zm5.34,6.58c-.36.24-.92.45-1,.89a11.12,11.12,0,0,0-.14,1.57c0,.16-.12.52-.4,0a4.38,4.38,0,0,0-.47-.7l0-1.92s.63-.54.74-.51a2.09,2.09,0,0,0,.57-.19l1.31-1a.19.19,0,0,1,.21-.16c.19,0,1.57.23,1.92.32a4.66,4.66,0,0,1,1.47.66c.26.26.78.75.56.89s-.51,0-.72,0A4.73,4.73,0,0,1,45.42,46a15.32,15.32,0,0,0-1.61-.49S43.11,46.1,42.76,46.33Zm10,1.15a24.94,24.94,0,0,1-4.56-.07c-1.1-.19-3.54-.66-3.54-.66-.63-.09-.79-.25-.58-.44s1.1.26,2.1.44a27.55,27.55,0,0,0,4.36.45,20.88,20.88,0,0,0,3.91-.47c.68-.21.79-.12.82.05A6.14,6.14,0,0,1,52.75,47.48Zm8-8.83a4.38,4.38,0,0,1-1.5,2.2,6,6,0,0,1-2.36,1c-.21,0-.14.25-.31.25a7.93,7.93,0,0,1-3.84-.91,12.86,12.86,0,0,1-2.46-2.27,3.87,3.87,0,0,1-.46-1.22c-.1-.54-.12-.86-.24-.86s-.49.14-.42-.54A19.67,19.67,0,0,1,49.78,33c.26-.68.84-2.06,1.45-2.38a6.29,6.29,0,0,1,3.86-1c2.2.1,2.95.54,3.66,1.08a8.53,8.53,0,0,1,1.71,2.57,5.43,5.43,0,0,1,.42,1.48c0,.12.16.14.25.14s.12.77.14,1-.07.35-.14.35-.18.07-.16.35A15.46,15.46,0,0,1,60.76,38.65Zm-1.22,7.68c0,.28,0,.68-.16.84s-.17.52-.38,1-.3.4-.54.38-.18-.33-.39-.45-.38-.89-.38-.89A2.2,2.2,0,0,1,56.9,47c-.19-.14-.68-.49-1.27-.87s-.84.14-1,.28-.49-.16-.77-.16a.48.48,0,0,1-.42-.47c0-.12.47-.37.65-.47,0,0,1.24-1,1.64-1.19s.89.23,1,.37a.57.57,0,0,0,.6.19,1,1,0,0,1,.68,0,9.63,9.63,0,0,1,1.15.89C59.5,45.91,59.59,46.05,59.54,46.33ZM61.87,41c.14.38.31.8-.5,1.26a8.51,8.51,0,0,0-1.4,1c-.6.42-1.37.84-2,.31s-.14-1.54.39-1.82,2.42-1.37,2.63-1.41A1.16,1.16,0,0,1,61.87,41ZM51.65,27.7c.38-.1.49-.45.94-.54A27.85,27.85,0,0,1,56.24,27a7,7,0,0,1,2.44.42c.72.28.58.65.58.65s.09.24-.33.33a16.15,16.15,0,0,1-2.08.24A20.88,20.88,0,0,1,54,28.47c-.63,0-1-.12-1.22-.12a1.2,1.2,0,0,0-.56.07.57.57,0,0,1-.51,0c-.1-.09,0-.26-.19-.26S51.28,27.79,51.65,27.7Zm-2.64,5a6.55,6.55,0,0,1,.75-1.5,6.09,6.09,0,0,1,1.54-1.29A8.13,8.13,0,0,1,54.86,29a9.44,9.44,0,0,1,3.91.66,7.87,7.87,0,0,1,2.13,2.48,8.22,8.22,0,0,1,.49,1.45c.17.49.21,1.24,0,1.15a2,2,0,0,1-.63-1c0-.26.07-.36-.1-.54a9.05,9.05,0,0,0-1-1.67,5.7,5.7,0,0,0-2.43-1.77,9.19,9.19,0,0,0-3.87-.17A4.7,4.7,0,0,0,50.57,31a8.33,8.33,0,0,0-.91,1.29,3.18,3.18,0,0,1-.4,1C49.12,33.31,48.84,33.08,49,32.71Zm-.47,5.64c.28.54,2.48,3.6,3,4.35s1,1.43,1,1.5a.62.62,0,0,0,.21.35c.1.05.07.24-.09.28a6.26,6.26,0,0,1-1,.17.56.56,0,0,0-.61.28,5.47,5.47,0,0,1-.68.79.57.57,0,0,1-.7.19,1.17,1.17,0,0,1-.93-.79c-.1-.47-.29-.82-.47-.85s-.49-.16-.66,0a.6.6,0,0,1-.72.21c-.4-.11-.71-.23-.61-.56s.47-1.57.61-2.29.89-3.28.89-3.28c.11-.42.18-.94.3-.94S48.26,37.81,48.54,38.35ZM37.77,28.49c.19,0,.19-.16.07-.21s-.17-.26.3-.37,1.48-.17,2-.24,2.81-.42,3-.42,1.66-.14,2.1-.09a4.16,4.16,0,0,1,1.39.3c.23.17.32.42-.22.52s-2.52.25-4,.44-3.62.42-3.62.42a5,5,0,0,1-1.34,0C37.42,28.75,37.58,28.49,37.77,28.49Zm-1.69,5.27a4.45,4.45,0,0,1,.7-1.73,9.42,9.42,0,0,1,2.74-2.25,6.43,6.43,0,0,1,4.52-.4c1.83.49,2.27,1.05,2.39,1.22a13.25,13.25,0,0,1,1.41,2.22c.39.92.16,1,0,1s-.33-.25-.7-.93a10,10,0,0,0-1.47-2.2,7,7,0,0,0-2-1,5.33,5.33,0,0,0-3,0,7.82,7.82,0,0,0-2.67,1.62A5,5,0,0,0,36.71,33a7.21,7.21,0,0,1-.3.87c0,.32,0,.86-.23.86S36,34.13,36.08,33.76Zm2,10.27A14.74,14.74,0,0,0,36.76,43c-.74-.49-1.16-1.12-1.06-1.68a.94.94,0,0,1,1.3-.71c.56.29,1.86,1.16,2.07,1.3s1.48,1.13.85,2A1.09,1.09,0,0,1,38.12,44Z"/><path class="cls-4" d="M43.43,51.45c.47.19,4.38,1.41,4.55,1.46l.1,0-.16-2.09h-.06a36.35,36.35,0,0,1-4.67-.37,4.2,4.2,0,0,1-2.63-1.1c-.37-.52-1-1.68-.89-1.83s0,0,.09,0,.29.16.36.23.8,1.86,1.78,2.09,5.79.68,6,.7h0l0,0s.26-.31.51-.31.26.13.26.14v.06l.45-.06v-.86c0-.36.1-.54.65-.63a.23.23,0,0,1,.21,0c.3.23.36,1,.36,1V50l.83-.22v0s0-.66.1-.88a.05.05,0,0,1,0,0c.06,0,.24-.06.82.14.21.07.41.46.47.61l0,.05h.05c.54-.09,2-.56,2.36-.68l0,.34a12.33,12.33,0,0,1-1.13.58,5.12,5.12,0,0,1-1.47.32h-.07v.07a4.77,4.77,0,0,0,.11,1.25c.13.2,1.23.16,1.49,0s4-2.25,6-3.37a14.6,14.6,0,0,0,3.81-3.82l0,0v0c0-.09-.33-8.6-.47-11.15a34,34,0,0,0-1-6.91c-.27-.58-.45-.73-.53-.77A13.3,13.3,0,0,1,61.13,24a14.31,14.31,0,0,0-1.42-2.32L59.06,21l.21.41a8.82,8.82,0,0,1,.65,3.46,4.65,4.65,0,0,1-3.3-1.44l0-.05,0,.05a4.49,4.49,0,0,1-2.66,1.25c-.92-.05-1.06-.38-1.2-.69v0c-.16-.38-.4-.33-.41-.32h-.05v.05c0,.76-.09,1.14-.21,1.26s-.14.05-.27,0a1.82,1.82,0,0,0-.33,0,2.71,2.71,0,0,1-1.06-.19c-.66-.22-1-1.3-1-1.31l-.09-.27,0,.28a5,5,0,0,0,0,1.23.81.81,0,0,1-.11.57.45.45,0,0,1-.33.1h-.33a6.36,6.36,0,0,1-1,0A6,6,0,0,1,45.85,24l-.15-.18,0,.24c0,.26.1.5.15.71s.16.58.06.7-.28.13-.6.1A6.27,6.27,0,0,1,42,24.46c-.62-.55-.75-.64-.85-.58s-.06.18,0,.41c0,.07,0,.14,0,.2s.08.33,0,.39-.11.07-.36,0-.67-.07-1.08-.1-1.2-.1-1.63-.18c-.67-.13-.61-.51-.6-.53l0-.18-.15.11a11,11,0,0,0-2.61,3.22l0,.05,0,.95c0,.38,0,1.58.12,3.11.12,2.34.28,5.54.25,7.67a25.89,25.89,0,0,0,.52,6.29,4,4,0,0,0,1.58,2.48,20.79,20.79,0,0,1,2.94,2A18.22,18.22,0,0,0,43.43,51.45ZM35.64,45.3A25.22,25.22,0,0,1,35.12,39c.05-3.51-.42-9.84-.37-10.77l0-.94a11.18,11.18,0,0,1,2.63-3.23s-.1.47.65.61,2.06.19,2.72.28.47-.23.37-.7-.09-.52.75.23a6.12,6.12,0,0,0,3.42,1.17c1.17.1.61-.56.47-1.59,0,0,1.17,1.36,1.54,1.4a11.6,11.6,0,0,0,1.32,0c.28,0,.56-.09.51-.74a5.42,5.42,0,0,1,0-1.22s.37,1.12,1.07,1.36a2.87,2.87,0,0,0,1.27.18c.42,0,.65.24.7-1.35,0,0,.19,0,.33.28s.28.7,1.26.75a4.48,4.48,0,0,0,2.72-1.27A4.62,4.62,0,0,0,60,24.93a9.11,9.11,0,0,0-.66-3.56l.33.33a12.87,12.87,0,0,1,1.4,2.3,11,11,0,0,0,.75,1.49s.19.05.52.75a33.59,33.59,0,0,1,1,6.89c.14,2.57.47,11.14.47,11.14A14.69,14.69,0,0,1,60,48.06c-2,1.13-5.71,3.24-6,3.38a2.36,2.36,0,0,1-1.4,0,5.63,5.63,0,0,1-.1-1.22,5.3,5.3,0,0,0,1.5-.33,8.54,8.54,0,0,0,1.17-.61l-.05-.47s-1.82.61-2.43.71c0,0-.24-.57-.52-.66s-.89-.28-.93,0-.1.89-.1.89l-.7.19s-.09-1.22-.65-1.12-.71.28-.71.7v.8l-.32,0s0-.19-.33-.19-.56.33-.56.33-5-.47-6-.7-1.73-2.06-1.73-2.06-.37-.42-.56-.19.65,1.59.89,1.92a4.23,4.23,0,0,0,2.67,1.13,37.3,37.3,0,0,0,4.68.37L48,52.84s-4.07-1.26-4.54-1.45a18.63,18.63,0,0,1-3.33-1.69,19.62,19.62,0,0,0-3-2A3.9,3.9,0,0,1,35.64,45.3Z"/><path class="cls-4" d="M43.46,51.39c.47.19,4.54,1.45,4.54,1.45l-.14-1.92a37.3,37.3,0,0,1-4.68-.37,4.23,4.23,0,0,1-2.67-1.13c-.24-.33-1.08-1.68-.89-1.92s.56.19.56.19.75,1.83,1.73,2.06,6,.7,6,.7.28-.33.56-.33.33.19.33.19l.32,0v-.8c0-.42.14-.61.71-.7s.65,1.12.65,1.12l.7-.19s0-.65.1-.89.65,0,.93,0,.52.66.52.66c.61-.1,2.43-.71,2.43-.71l.05.47a8.54,8.54,0,0,1-1.17.61,5.3,5.3,0,0,1-1.5.33,5.63,5.63,0,0,0,.1,1.22,2.36,2.36,0,0,0,1.4,0c.28-.14,4-2.25,6-3.38a14.69,14.69,0,0,0,3.8-3.79s-.33-8.57-.47-11.14a33.59,33.59,0,0,0-1-6.89c-.33-.7-.52-.75-.52-.75A11,11,0,0,1,61.06,24a12.87,12.87,0,0,0-1.4-2.3l-.33-.33A9.11,9.11,0,0,1,60,24.93a4.62,4.62,0,0,1-3.42-1.45,4.48,4.48,0,0,1-2.72,1.27c-1-.05-1.12-.43-1.26-.75s-.33-.28-.33-.28c0,1.59-.28,1.35-.7,1.35a2.87,2.87,0,0,1-1.27-.18c-.7-.24-1.07-1.36-1.07-1.36a5.42,5.42,0,0,0,0,1.22c0,.65-.23.74-.51.74a11.6,11.6,0,0,1-1.32,0c-.37,0-1.54-1.4-1.54-1.4.14,1,.7,1.69-.47,1.59a6.12,6.12,0,0,1-3.42-1.17c-.84-.75-.84-.7-.75-.23s.28.79-.37.7-2-.14-2.72-.28-.65-.61-.65-.61a11.18,11.18,0,0,0-2.63,3.23l0,.94c0,.93.42,7.26.37,10.77a25.22,25.22,0,0,0,.52,6.27,3.9,3.9,0,0,0,1.54,2.44,19.62,19.62,0,0,1,3,2A18.63,18.63,0,0,0,43.46,51.39Zm-7.75-6.11A25,25,0,0,1,35.19,39c0-2.14-.13-5.34-.25-7.68-.08-1.52-.14-2.72-.12-3.09l0-.92,0,0a10.94,10.94,0,0,1,2.47-3.09.64.64,0,0,0,.08.2,1,1,0,0,0,.63.34c.44.08,1.08.13,1.65.18.41,0,.8.06,1.07.1s.41,0,.49-.08.06-.29,0-.51c0-.06,0-.13-.05-.2a1.29,1.29,0,0,1,0-.25,6.56,6.56,0,0,1,.68.55,6.19,6.19,0,0,0,3.45,1.19c.39,0,.61,0,.72-.15s.08-.46,0-.82a4.46,4.46,0,0,1-.11-.46c.35.39,1.11,1.2,1.43,1.24a6.59,6.59,0,0,0,1,0h.32a.56.56,0,0,0,.43-.15.89.89,0,0,0,.15-.67,5.52,5.52,0,0,1,0-.93,2,2,0,0,0,1,1.14,2.68,2.68,0,0,0,1.11.2h.32a.45.45,0,0,0,.37-.08c.13-.12.23-.38.26-1.28.05,0,.12.07.19.23v0c.14.33.31.73,1.32.78a4.57,4.57,0,0,0,2.72-1.24A4.56,4.56,0,0,0,60,25h.06v-.06a9.67,9.67,0,0,0-.51-3.23l.05,0A13.89,13.89,0,0,1,61,24a10.24,10.24,0,0,0,.75,1.51v0h0s.18.08.47.71a33.17,33.17,0,0,1,1,6.86c.13,2.48.45,10.62.47,11.12A14.69,14.69,0,0,1,60,48c-2,1.12-5.71,3.23-6,3.37a2.59,2.59,0,0,1-1.32,0,5.57,5.57,0,0,1-.08-1.12A4.75,4.75,0,0,0,54.07,50a10.07,10.07,0,0,0,1.18-.62l0,0-.05-.6-.09,0s-1.73.57-2.37.69c-.07-.15-.27-.56-.53-.65-.5-.16-.8-.2-.94-.12a.2.2,0,0,0-.09.13c0,.2-.08.69-.09.85l-.58.15a1.69,1.69,0,0,0-.4-1,.43.43,0,0,0-.33-.08c-.56.09-.76.29-.76.77v.73l-.21,0a.38.38,0,0,0-.37-.19,1,1,0,0,0-.59.33c-.45,0-5-.48-6-.7s-1.68-2-1.69-2v0a.8.8,0,0,0-.48-.28.26.26,0,0,0-.19.1c-.26.33.88,2,.89,2a4.24,4.24,0,0,0,2.72,1.16,37.17,37.17,0,0,0,4.62.37l.13,1.75c-.62-.19-4-1.25-4.44-1.42a17.64,17.64,0,0,1-3.3-1.67,20.65,20.65,0,0,0-3-2A3.88,3.88,0,0,1,35.71,45.28Z"/><path d="M47.7,38.7S47,41.25,46.81,42s-.52,2-.61,2.29.21.45.61.56a.6.6,0,0,0,.72-.21c.17-.16.47,0,.66,0s.37.38.47.85a1.17,1.17,0,0,0,.93.79.57.57,0,0,0,.7-.19,5.47,5.47,0,0,0,.68-.79.56.56,0,0,1,.61-.28,6.26,6.26,0,0,0,1-.17c.16,0,.19-.23.09-.28a.62.62,0,0,1-.21-.35c0-.07-.51-.75-1-1.5s-2.67-3.81-3-4.35-.42-.59-.54-.59S47.81,38.28,47.7,38.7Zm.77.35c.23.33,2.67,3.93,3,4.33s.59,1,.5,1.06a.65.65,0,0,1-.78-.15c-.21-.3-.23-.53-.63-.51s-.26.54-.26.68.12,1-.39,1-.87-.92-.85-1.41.28-1.19-.7-.68a10.23,10.23,0,0,1-1.64.82c-.19,0-.07-.12-.07-.12.1-.37.4-1.24.61-2.22A27.75,27.75,0,0,1,48,38.93C48.12,38.68,48.23,38.72,48.47,39.05Z"/><path d="M45.56,41.13a1.2,1.2,0,0,0,.38-.82,19.7,19.7,0,0,0,1.15-2.5c.21-.89.42-.59.65-.59s-.09-.44-.09-.6.16-.17-.33-1.76a12.11,12.11,0,0,0-1.43-3.21,5.24,5.24,0,0,0-3.16-1.8,4.87,4.87,0,0,0-3,.47A8.32,8.32,0,0,0,37.11,33s-.44,1.1-.58,1.6A23.22,23.22,0,0,0,36.25,37s-.21.11-.21.23a.48.48,0,0,0,.44.35c.23,0,.19.4.19.54s.28.49.28.49a2.37,2.37,0,0,0,.47,1.17,5.74,5.74,0,0,0,4,2.65A5.19,5.19,0,0,0,45.56,41.13Zm-7.79-2.08a5.46,5.46,0,0,1-.66-1.43c0-.28-.14-1.4-.09-1.85a8.06,8.06,0,0,1,.54-2.29,7.2,7.2,0,0,1,2-2.58,3.09,3.09,0,0,1,1.69-.51,7.76,7.76,0,0,1,2,.09,3.3,3.3,0,0,1,1.57,1,5.44,5.44,0,0,1,1.49,2.77,10.58,10.58,0,0,1,.4,2.08,1,1,0,0,1,.1,1,5.88,5.88,0,0,1-3,3.63,4.37,4.37,0,0,1-4.31-.18A6.54,6.54,0,0,1,37.77,39.05Z"/><path d="M61.13,36.29c.07,0,.17-.12.14-.35s0-1-.14-1-.25,0-.25-.14a5.43,5.43,0,0,0-.42-1.48,8.53,8.53,0,0,0-1.71-2.57c-.71-.54-1.46-1-3.66-1.08a6.29,6.29,0,0,0-3.86,1C50.62,31,50,32.35,49.78,33a19.67,19.67,0,0,0-.61,3.26c-.07.68.3.54.42.54s.14.32.24.86a3.87,3.87,0,0,0,.46,1.22,12.86,12.86,0,0,0,2.46,2.27,7.93,7.93,0,0,0,3.84.91c.17,0,.1-.25.31-.25a6,6,0,0,0,2.36-1,4.38,4.38,0,0,0,1.5-2.2,15.46,15.46,0,0,0,.21-2C61,36.36,61.06,36.29,61.13,36.29ZM60,38.68a3.75,3.75,0,0,1-2.58,2.22,5.54,5.54,0,0,1-4.14-.3A8,8,0,0,1,51.35,39c-.17-.21-.52-1.12-.63-1.28a3.88,3.88,0,0,1-.66-1.43c0-.42,0-1.15.12-1.76s.35-1.78.35-1.78a3.7,3.7,0,0,1,1.1-1.61,4.51,4.51,0,0,1,1.52-.87,8.62,8.62,0,0,1,3-.12,4.77,4.77,0,0,1,2.65,1.31,3.18,3.18,0,0,1,.8,1c.07.3.23,1.33.3,1.52a10.74,10.74,0,0,1,.4,1.89A7.38,7.38,0,0,1,60,38.68Z"/><path d="M49.26,33.22a3.18,3.18,0,0,0,.4-1A8.33,8.33,0,0,1,50.57,31a4.7,4.7,0,0,1,2.88-1.43,9.19,9.19,0,0,1,3.87.17,5.7,5.7,0,0,1,2.43,1.77,9.05,9.05,0,0,1,1,1.67c.17.18.12.28.1.54a2,2,0,0,0,.63,1c.16.09.12-.66,0-1.15a8.22,8.22,0,0,0-.49-1.45,7.87,7.87,0,0,0-2.13-2.48A9.44,9.44,0,0,0,54.86,29a8.13,8.13,0,0,0-3.56.94,6.09,6.09,0,0,0-1.54,1.29,6.55,6.55,0,0,0-.75,1.5C48.84,33.08,49.12,33.31,49.26,33.22Z"/><path d="M36.18,34.74c.18,0,.18-.54.23-.86a7.21,7.21,0,0,0,.3-.87,5,5,0,0,1,1.34-1.73,7.82,7.82,0,0,1,2.67-1.62,5.33,5.33,0,0,1,3,0,7,7,0,0,1,2,1,10,10,0,0,1,1.47,2.2c.37.68.59.93.7.93s.35,0,0-1a13.25,13.25,0,0,0-1.41-2.22c-.12-.17-.56-.73-2.39-1.22a6.43,6.43,0,0,0-4.52.4A9.42,9.42,0,0,0,36.78,32a4.45,4.45,0,0,0-.7,1.73C36,34.13,36,34.74,36.18,34.74Z"/><path d="M38.85,28.84s2.17-.23,3.62-.42,3.45-.35,4-.44.45-.35.22-.52a4.16,4.16,0,0,0-1.39-.3c-.44-.05-1.87.09-2.1.09s-2.53.35-3,.42-1.52.12-2,.24-.42.32-.3.37.12.21-.07.21-.35.26-.26.33A5,5,0,0,0,38.85,28.84Z"/><path d="M51.56,28.16c.23,0,.09.17.19.26a.57.57,0,0,0,.51,0,1.2,1.2,0,0,1,.56-.07c.24,0,.59.09,1.22.12a20.88,20.88,0,0,0,2.81.12,16.15,16.15,0,0,0,2.08-.24c.42-.09.33-.33.33-.33s.14-.37-.58-.65A7,7,0,0,0,56.24,27a27.85,27.85,0,0,0-3.65.21c-.45.09-.56.44-.94.54S51.32,28.16,51.56,28.16Z"/><path d="M54.44,46.73a20.88,20.88,0,0,1-3.91.47,27.55,27.55,0,0,1-4.36-.45c-1-.18-1.89-.63-2.1-.44s0,.35.58.44c0,0,2.44.47,3.54.66a24.94,24.94,0,0,0,4.56.07,6.14,6.14,0,0,0,2.51-.7C55.23,46.61,55.12,46.52,54.44,46.73Z"/><path d="M46.83,46.21c.21,0,.51.17.72,0s-.3-.63-.56-.89a4.66,4.66,0,0,0-1.47-.66c-.35-.09-1.73-.32-1.92-.32a.19.19,0,0,0-.21.16l-1.31,1a2.09,2.09,0,0,1-.57.19c-.11,0-.74.51-.74.51l0,1.92a4.38,4.38,0,0,1,.47.7c.28.5.4.14.4,0a11.12,11.12,0,0,1,.14-1.57c.09-.44.65-.65,1-.89s1.05-.84,1.05-.84a15.32,15.32,0,0,1,1.61.49A4.73,4.73,0,0,0,46.83,46.21Z"/><path d="M58,44.69a1,1,0,0,0-.68,0,.57.57,0,0,1-.6-.19c-.1-.14-.59-.58-1-.37s-1.64,1.19-1.64,1.19c-.18.1-.63.35-.65.47a.48.48,0,0,0,.42.47c.28,0,.66.3.77.16s.38-.65,1-.28,1.08.73,1.27.87a2.2,2.2,0,0,0,.79.18s.17.78.38.89.16.43.39.45.33.07.54-.38.21-.79.38-1,.12-.56.16-.84,0-.42-.35-.75A9.63,9.63,0,0,0,58,44.69Zm.14,1.39a.15.15,0,0,1-.11,0,.68.68,0,0,1-.34-.17.77.77,0,0,0-.15-.11l-.06,0a.92.92,0,0,0-.32-.07.41.41,0,0,1-.21-.1.37.37,0,0,0-.37-.1.37.37,0,0,1-.31,0,.52.52,0,0,1-.19-.27v0l.06,0c.34-.13.54-.17.61-.1a.84.84,0,0,0,.4.22l.16,0c.17-.06.38-.13.51,0a1.24,1.24,0,0,1,.39.67A.17.17,0,0,1,58.18,46.08Z"/><path class="cls-5" d="M33.58,23.63c.21,0,.45.28.84.28s.56.64.56.64c3.23-4.46,9.1-6.71,9.87-7a3.94,3.94,0,0,0,1-.42A5.85,5.85,0,0,1,47.7,17a5.22,5.22,0,0,1,2-2,1.3,1.3,0,0,1,1.62.21,1.75,1.75,0,0,1,.49.77c.1-.1,2.18-1.05,2.74-.56s.77.25.77.25c1.27-.21,1.41.63,1.41.63,2.7-.53,2.74,3.26,2.74,3.26a13.77,13.77,0,0,1,2.77,2.15l.21-.07a17.23,17.23,0,0,1,4.64.28,2.15,2.15,0,0,0-1.44-.88c-.85,0-.88-.18-.88-.42s.91-.28.91-.28a4.32,4.32,0,0,0,1.41-1.23c.28-.28.59-.84.49-1.13S67,16.47,66,16.26a1.48,1.48,0,0,0-1.62.56c-.17.21-.7,0-.42-.39a2.55,2.55,0,0,1,1.16-.59l-.14-.6c-.49-.63-1.44-.42-2-.39s-1-.07-.7-.31A19.86,19.86,0,0,0,63.53,13c.5-.59,1.34-1.79,1-3A4.92,4.92,0,0,0,62.9,8c-.42-.46-1.37-.28-2.53-.07a5.34,5.34,0,0,0-2.53,1.79c-.31.35-.56.39-.63.25s.35-.74.35-.74.74-.42-.17-1.69a6.33,6.33,0,0,0-4.74-2.38,5.63,5.63,0,0,0-3.83,1.65,2.74,2.74,0,0,0-.88,1.68,31.19,31.19,0,0,0-.39,3.27,5.77,5.77,0,0,1-.28,1.89.57.57,0,0,1-.38.18s-.11-3.69-.18-4.42-.77-.29-2,1.15a38.07,38.07,0,0,0-3.27,5.41c-.1.25-.38.63-.66,0s-.42-1-.88-1.86-1.2-.81-1.62,0A5,5,0,0,0,38,16.43c0,.43-.18.28-.18.28s-.24-1.12-.63-1.12-.39.88-.25,1.12a3.55,3.55,0,0,1,.46,1.59c-.07.45-.18.24-.18.24s-.28-1.61-1.4-1.26-.7,4.11-.7,4.11.49.91,0,.94-.39,0-.88-.91-.81-1-1.86-.56-1.06,2.28-.91,3.09C31.51,24,33.37,23.63,33.58,23.63Z"/><path class="cls-5" d="M41.13,15.63l.77-1.69-.1-.14a8,8,0,0,0-1.09-1.58c-.42-.35-.53.21-.67.42a.6.6,0,0,0-.07.67A16.78,16.78,0,0,1,41.13,15.63Z"/><path class="cls-5" d="M65,11.34a10,10,0,0,1-1.68,3,2,2,0,0,1,1.93.45A31,31,0,0,0,66.73,11,3,3,0,0,0,66,8.29c-.45-.67-1.72-.71-2.14-.71s-.43.11-.21.32A3.39,3.39,0,0,1,65,11.34Z"/><path class="cls-5" d="M65.4,15.13a3.48,3.48,0,0,1,.17.67,1.39,1.39,0,0,1,1.12.35,2.46,2.46,0,0,1,1.2,2.32,3.29,3.29,0,0,1-1.41,1.83c-.52.28-.28.42-.28.42a2.86,2.86,0,0,1,1.62,1.51l1.19.31a6.86,6.86,0,0,0,.49-2.17c0-1.09-.1-1.34-1.19-2.74a26,26,0,0,0-2.53-2.74Z"/><path class="cls-6" d="M43.81,18.89c1.59-.84,2.08-.65,2.08-.65l.56-.61c-1.38.12-4.94,1.82-6.6,2.9a29.08,29.08,0,0,0-4.66,4.31c-.63.75-1.06,2.74-.86,2.34a11.84,11.84,0,0,1,1.19-2s1.15-1.19,2.72-2.62A30.22,30.22,0,0,1,43.81,18.89Z"/><path class="cls-6" d="M61.84,21.89a15,15,0,0,0-3.59-2.74c-.79-.37-3.27-1.43-3.86-1.24s0,.35.21.35l1.83.49a16.29,16.29,0,0,1,4.07,2.34C61.25,21.58,62.35,22.61,61.84,21.89Z"/><path class="cls-5" d="M54.77,17.56a5.18,5.18,0,0,1,.7.14l1.36.44a4.25,4.25,0,0,0-.57-1.85.66.66,0,0,0-.75-.18s.43.42.24.56S55.07,17.28,54.77,17.56Z"/><path class="cls-5" d="M58.09,16.93a1.3,1.3,0,0,0-1.17-.24,4.74,4.74,0,0,1,.37,1.66,19,19,0,0,1,1.69.92A3.16,3.16,0,0,0,58.09,16.93Z"/><path class="cls-5" d="M57.46,23.39a1.94,1.94,0,0,0,1.82.75A8.14,8.14,0,0,0,59,21.58c-.14-.6-1.67-1.7-2.06-2s-.57-.19-.57-.19-.3.84-.46,1.15-.52.54-.38-.28-.75-1.36-1.19-1.45-1.15,0-1.17-.29.09-.46,1.14-1.14.8-.94.8-.94a3.41,3.41,0,0,1-.51-.44c-.33-.33-.57-.19-1.74.07s-1.31.91-1.71,1.49-.51,1.48-.84,1.22-.21-.4.38-1.38a11.78,11.78,0,0,1,.74-1.17,1,1,0,0,1-.18-.33.91.91,0,0,0-1.06-.49A10.75,10.75,0,0,0,48.23,17c-.21.18-.07.53,0,.79s.19.82-.11.89-.35,0-.35-.49-.17-.56-.57-.37a11,11,0,0,0-1.73,1.49c-.3.33-.33.07-.42-.25s-1,.28-2.13.84a21.21,21.21,0,0,0-5,3.82,8.69,8.69,0,0,0,2.8.53,4.46,4.46,0,0,0-.28-.75c-.11-.18-.6-.72-.3-1s.68.24.68.24a6.88,6.88,0,0,0,4.05,2.27c.79.14.58-.16.56-.52S45,22.24,45,22s0-1.26.46.16a4,4,0,0,0,2.16,2.65c.77.26.56-.19.54-.49s0-2.25,0-2.48a.28.28,0,0,1,.54,0,8.68,8.68,0,0,0,1.22,2,3,3,0,0,0,1.73.56,10.29,10.29,0,0,0,.14-1.27,2,2,0,0,1,.31-1.26.31.31,0,0,1,.42-.05s-.31,2.13,1,2.32a2.69,2.69,0,0,0,2.34-.77,1,1,0,0,0,.49-1.06s0-.7.26-.89.28.26.28.26S56.62,22.4,57.46,23.39Z"/><path class="cls-3" d="M49.05,51.2c-.06-.3-.07-.3-.16-.3s-.06,0-.06,0,0,.17,0,.29h0c0,.52.1,1.36.12,1.44a.38.38,0,0,0,.2,0s0-.18,0-.4S49.08,51.37,49.05,51.2Z"/><path class="cls-4" d="M49.11,52.77c.16,0,.15-.13.15-.16s0-.21,0-.39c0-.37,0-.87-.05-1s-.08-.41-.3-.41a.21.21,0,0,0-.17.07c-.07.07-.07.19-.06.39s.09,1.39.13,1.48a.17.17,0,0,0,.18.09Zm-.26-.09c0-.09-.12-1.46-.12-1.46,0-.26,0-.39.16-.39s.17.07.23.35.05,1.36.07,1.44S48.89,52.76,48.85,52.68Z"/><path class="cls-4" d="M49.19,52.62c0-.08,0-1.15-.07-1.44s-.07-.35-.23-.35-.18.13-.16.39c0,0,.09,1.37.12,1.46S49.21,52.71,49.19,52.62Zm-.27,0c0-.08-.09-.92-.12-1.44h0c0-.12,0-.25,0-.29s0,0,.06,0,.1,0,.16.3,0,.66.05,1,0,.35,0,.4A.38.38,0,0,1,48.92,52.65Z"/><path class="cls-3" d="M50.89,52a.14.14,0,0,0,.07.11.24.24,0,0,0,.2,0,3.85,3.85,0,0,0,0-1c0-.06,0-.11,0-.16s0-.4-.07-.41h0a.26.26,0,0,0-.18,0,.13.13,0,0,0,0,.12h0S50.87,51.81,50.89,52Z"/><path class="cls-4" d="M50.89,52.25a.29.29,0,0,0,.18,0,.33.33,0,0,0,.15,0c.16-.08.13-.83.11-1.14,0-.05,0-.1,0-.16,0-.26,0-.52-.19-.54a.43.43,0,0,0-.35.09.27.27,0,0,0-.08.23c0,.06,0,1.07,0,1.28A.27.27,0,0,0,50.89,52.25Zm.23-1.75c.14,0,.12.35.14.63s0,1-.07,1.07-.35,0-.37-.17,0-1.28,0-1.28C50.75,50.52,51,50.48,51.12,50.5Z"/><path class="cls-4" d="M51.19,52.2c.1-.05.09-.79.07-1.07s0-.61-.14-.63-.37,0-.35.25c0,0,0,1.07,0,1.28S51.08,52.26,51.19,52.2Zm-.31-1.58a.26.26,0,0,1,.18,0h0c.06,0,.07.28.07.41s0,.1,0,.16a3.85,3.85,0,0,1,0,1,.24.24,0,0,1-.2,0,.14.14,0,0,1-.07-.11c0-.21,0-1.27,0-1.28h0A.13.13,0,0,1,50.88,50.62Z"/><path class="cls-7" d="M25.75,27.36h0s0,.11,0,.17S25.74,27.39,25.75,27.36Z"/><path class="cls-7" d="M24.93,31.53a42.07,42.07,0,0,0-4.55,2.17c0-.28.84-1.54.84-1.86a1.62,1.62,0,0,1,.1-.5c.07-.15.16-.29.24-.44a9.93,9.93,0,0,0-1.36,3.55,20.83,20.83,0,0,0,.95,11.62s.7.46,1.05.67,1.09.28,1.44.53a11.89,11.89,0,0,0,1.9.53c.28.1-.11.38-.29.28a14.39,14.39,0,0,1-2.35-.57c-.53-.22-1.54-.77-1.54-.77a13.22,13.22,0,0,0,2.84,3.65,5.7,5.7,0,0,0,3.65,1.55,28.2,28.2,0,0,1-3.44-13.8A39.58,39.58,0,0,1,24.93,31.53Zm-1.7,3.82-.77,1.3L21.3,38.09l-.59.32-.14-.28-.43-.81,0-1.44a17.58,17.58,0,0,1,4.52-2.32c0,.34-.05.68-.08,1l-.82.69Z"/><path class="cls-7" d="M23.15,28.92c-.14.14-.28.28-.42.44C22.87,29.22,23,29.09,23.15,28.92Z"/><path class="cls-7" d="M25,30.93c.11-.66.22-1.24.33-1.75,0,.17-.08.35-.13.55S25.09,30.44,25,30.93Z"/><path class="cls-7" d="M25.76,27a10.57,10.57,0,0,0-2.37,1.72c.55-.46,1-.83,1-.83A14.8,14.8,0,0,1,25.76,27Z"/><path class="cls-8" d="M35.16,47.69s-.39-1.93-.92-6.95a85.31,85.31,0,0,1,0-12.3c-.21.25-.35,0-.35,0A5.85,5.85,0,0,1,34.7,25l-.17-.18s-1.58.85-1.62,10.43,1.12,13,1.55,14,.73,1.12.94,1.08.11-1.08.14-1.75A.88.88,0,0,0,35.16,47.69Z"/><path class="cls-9" d="M25.8,36l-.67-.14.7-.37v.08a51,51,0,0,1,1.32-8.27A33.37,33.37,0,0,0,26.32,31c-.31.1-.6.21-.87.31,0-.14,0-.27.05-.41-.11.76-.23,1.58-.32,2.45l.87-.32c0,.24-.05.49-.07.73a8.34,8.34,0,0,0-.89.47,33.05,33.05,0,0,0,.3,10c1.48,6.43,3.52,8.19,3.52,8.19l.77,0c-1.25-1.63-2.85-4.85-3.72-11A28.57,28.57,0,0,1,25.8,36Zm1.06,12,.39,0a.21.21,0,0,1,.2.22.22.22,0,0,1-.21.2h0l-.41,0a.21.21,0,0,1-.18-.24A.2.2,0,0,1,26.86,47.94Z"/><path class="cls-9" d="M26.34,26.65v.05c.09-.07.31-.24.54-.39C26.58,26.48,26.34,26.65,26.34,26.65Z"/><path class="cls-9" d="M28,25.91l-.18.06c-.05.16-.11.37-.17.6.11-.36.18-.57.18-.57Z"/><path class="cls-9" d="M26.86,33.38s0,.1,0,.15l-.53.2.06-.71.55-.18c0,.15,0,.3-.05.46a51,51,0,0,1,1.45-7.51l-.28.09c0,.1-.47,2.11-.87,4.92l-.48.18c0-.27.08-.52.12-.78a36.6,36.6,0,0,0-.57,11.15c.89,6.35,2.53,9.52,3.78,11.07l.46,0c-1.25-1.66-2.82-4.9-3.68-11.09A32.22,32.22,0,0,1,26.86,33.38ZM26.13,36c0-.22,0-.44,0-.66l.48-.2-.06.94Z"/><path class="cls-7" d="M31.05,25a14.16,14.16,0,0,1,1.55-.18A15,15,0,0,0,32,26.9a8.14,8.14,0,0,1,.81-2.24l-.19.1c-.74-.18-3.41.73-3.76.84l-.22.07c-.07.23-.15.53-.24.86.07-.22.13-.46.19-.67A17.06,17.06,0,0,1,31.05,25Z"/><path class="cls-7" d="M31.28,34.24l-.55,1.29h-1.1s-2.16.66-2.47.66l-.24,0c0-.38,0-.76.08-1.13a15.91,15.91,0,0,1,4.28-.88c0-.44,0-.88,0-1.33v-.08a15.54,15.54,0,0,0-4.19.66,32.15,32.15,0,0,0-.06,7.84c.88,6.3,2.48,9.5,3.72,11.09h.07c.46-.11,1.48-.29,2-.43l.78-.23a6.55,6.55,0,0,1-.87-1.46C31.6,47,31.07,41.11,31.28,34.24Zm.34,14a19.71,19.71,0,0,1-2.43.17h0a.2.2,0,0,1-.21-.2.21.21,0,0,1,.2-.22,21.43,21.43,0,0,0,2.39-.16.21.21,0,0,1,.05.41Z"/><path class="cls-7" d="M31.38,31.91c.05-.82.11-1.56.18-2.23-1.51.32-2.83.67-4,1,.12-.89.27-1.73.43-2.52-.28,1.26-.57,2.83-.79,4.53,1.19-.4,2.57-.8,4.16-1.19C31.39,31.66,31.38,31.79,31.38,31.91Z"/><path class="cls-9" d="M33.12,44.85a78.61,78.61,0,0,1-.24-15.07c.24-3.55.84-4.43,1.29-5s-.17-.45-.45-.45a1.24,1.24,0,0,0-.39.1c-.5.57-1.31,2.24-1.64,7l.64-.15-.18,1.44h-.53l0-.64,0-.54c0,.4-.05.82-.07,1.27-.33,7.44.19,13.89,1.4,17.26a5,5,0,0,0,.9,1.45.7.7,0,0,0,.23-.14c.17-.17.6-.56.6-.56l-.21-.6C33.54,48.6,33.12,44.85,33.12,44.85Zm.24,3.06-.43.12h-.06a.21.21,0,0,1,0-.42,4,4,0,0,0,.41-.11.21.21,0,0,1,.27.13A.22.22,0,0,1,33.36,47.91Z"/><path class="cls-3" d="M57.16,53.91a6,6,0,0,1,2.76-1.78l.16-1.49c-1,.61-7,4.4-8.12,4.63s-1.31.39-1.31.57v0c0,.29,0,1.05-.67,1.09-.48,0-.52,0-.59-.39a5.56,5.56,0,0,0-.15-.57c-.14-.46-.5-.55-1.37-.76a21.4,21.4,0,0,1-3-.92,28.26,28.26,0,0,1-5.81-3.19l0,.6c.12.11.76.67,3.77,3.07,3.23,2.57,2.46,7.71,2.35,8.36a20.5,20.5,0,0,0,8,.31C53.6,60.5,54.7,56.45,57.16,53.91Zm-6.34,5.58a3.71,3.71,0,0,1-2.56-.11c-.42-.2-.74-.59-.6-.8s.46-.35,1.19-.11a2.32,2.32,0,0,0,1.83-.1c.53-.25,1-.39,1-.18A1.32,1.32,0,0,1,50.82,59.49Z"/><path class="cls-4" d="M45,63.26l.06,0a21.3,21.3,0,0,0,5,.58,17.67,17.67,0,0,0,3.19-.26h.05v-.05c.48-2.95,1.57-7,4-9.52A6,6,0,0,1,60,52.25h0l.2-1.88-.13.08c-.07,0-7,4.46-8.19,4.7s-1.43.4-1.43.7v0c0,.42,0,.91-.53.94s-.38,0-.45-.28a3.57,3.57,0,0,0-.14-.58c-.17-.54-.58-.64-1.47-.85a22,22,0,0,1-3-.92A26.91,26.91,0,0,1,39,50.93l-.11-.08,0,.94,0,0s.39.39,3.8,3.1S45,63.14,45,63.2Zm-2.24-8.41C39.3,52.11,39,51.76,39,51.76L39,51a27.48,27.48,0,0,0,5.9,3.27c3.19,1.23,4.14.84,4.42,1.72s0,1,.67.91.59-.81.59-1,.18-.39,1.37-.63,8.22-4.71,8.22-4.71L60,52.19s-5.13.94-6.82,11.34a20.06,20.06,0,0,1-8.11-.32S46.19,57.59,42.74,54.85Z"/><path class="cls-4" d="M53.17,63.53C54.86,53.13,60,52.19,60,52.19l.17-1.69s-7,4.46-8.22,4.71-1.37.38-1.37.63,0,1-.59,1-.39,0-.67-.91-1.23-.49-4.42-1.72A27.48,27.48,0,0,1,39,51l0,.77s.35.35,3.79,3.09,2.32,8.36,2.32,8.36A20.06,20.06,0,0,0,53.17,63.53Zm-8-.37c.11-.65.88-5.79-2.35-8.36-3-2.4-3.65-3-3.77-3.07l0-.6a28.26,28.26,0,0,0,5.81,3.19,21.4,21.4,0,0,0,3,.92c.87.21,1.23.3,1.37.76a5.56,5.56,0,0,1,.15.57c.07.37.11.42.59.39.67,0,.67-.8.67-1.09v0c0-.18.09-.31,1.31-.57s7.15-4,8.12-4.63l-.16,1.49a6,6,0,0,0-2.76,1.78c-2.46,2.54-3.56,6.59-4,9.56A20.5,20.5,0,0,1,45.14,63.16Z"/><path class="cls-10" d="M60.62,79.47c-.25-3.72.24-16.75.24-17.42a.67.67,0,0,0-1-.63c-.46.32-5.16,3.41-5.76,3.69a31,31,0,0,1-4.6.56c-.46,0-.28.74-.28.74-.53,6.42-.28,18.26-.28,18.26h-.7s0-7.59.07-10.61.45-9.2.45-9.2a23.7,23.7,0,0,0-4-.38c-.32-.21-1.51-.74-1.51-.74a24.84,24.84,0,0,1-4.5-2.63c-.53-.29-1.69.38-1.69.38s1.34,6.74.92,6.67-.25.18-.25.43.84,2.63,1.2,3.79.17,1.61,0,1.26-.74-1.86-.74-1.86.1,9.1-.07,9.52a3.61,3.61,0,0,1-.92,1.23.46.46,0,0,1-.42,0l0,3.23a5.53,5.53,0,0,1,1.19.57c.92-.74,3.13-.46,3.13-.46a1.29,1.29,0,0,1,.35-.91c.39-.43.91-.25,1.47-.25s8.26.42,10.64.53,2.32,1.72,2.32,1.72c3,0,3.76.63,3.76.63l.39,0L60,88s.7-.1,1.34-.24-.14-.78-.14-.78S60.86,83.2,60.62,79.47Zm-7.17,3.16a1.83,1.83,0,0,1-.68.88,1.21,1.21,0,0,1-.79.16s-.19.16-.35.12-.39-.24-.56-.28a1.62,1.62,0,0,1-.76-.68,2.66,2.66,0,0,1-.12-.65.32.32,0,0,1-.12-.3c0-.21.08-.74.08-.74a2.51,2.51,0,0,1,.42-.65,2.75,2.75,0,0,1,.88-.6,1.81,1.81,0,0,1,1.39.14,1.43,1.43,0,0,1,.67.92c.07.14.23.31.21.49A3.9,3.9,0,0,1,53.45,82.63Zm.27-6.28a1.93,1.93,0,0,1-.69.87,1.14,1.14,0,0,1-.79.16c-.05,0-.19.16-.35.13s-.38-.25-.56-.29a1.62,1.62,0,0,1-.76-.68,2.58,2.58,0,0,1-.12-.65.32.32,0,0,1-.12-.3c0-.21.09-.74.09-.74a2.42,2.42,0,0,1,.42-.65,2.53,2.53,0,0,1,.88-.59,1.7,1.7,0,0,1,1.38.14,1.36,1.36,0,0,1,.67.91c.07.14.23.32.21.49A4.19,4.19,0,0,1,53.72,76.35Zm0-6.78a2,2,0,0,1-.69.88,1.18,1.18,0,0,1-.79.15s-.19.16-.35.13-.39-.25-.56-.28a1.65,1.65,0,0,1-.76-.69,2.58,2.58,0,0,1-.12-.65.32.32,0,0,1-.12-.3c0-.21.08-.73.08-.73a2.37,2.37,0,0,1,.43-.65,2.45,2.45,0,0,1,.87-.6,1.73,1.73,0,0,1,1.39.14,1.42,1.42,0,0,1,.67.91c.07.14.23.32.21.49A4.13,4.13,0,0,1,53.74,69.57Z"/><path class="cls-10" d="M39.16,60.47A14.46,14.46,0,0,0,43.73,63c.24-3.87-.18-4.29-.85-5.52s-4.35-4.63-4.6-4.88-.87-1.09-.8-.56.94,5.79,1.15,6.81S38.72,60.09,39.16,60.47Z"/><path class="cls-10" d="M60.94,53c0-.24-1.27.78-1.8,1.44s-2.63,2.67-4,8.64c1.23,0,3.65-1.93,4.21-2.39C59.35,60.68,60.94,53.24,60.94,53Z"/><path class="cls-10" d="M59.88,53s.49-.21.32-.28-.88.07-2,1.12-3.09,3.06-4.46,9.59l.77-.21S55.39,56.29,59.88,53Z"/><path class="cls-10" d="M44.57,63.21s.77-4.21-.88-6.6A21.62,21.62,0,0,0,38.49,52s4.39,3.52,5.1,5.17.87,3,.49,5.93Z"/><path class="cls-8" d="M63.57,47.37a6.58,6.58,0,0,0,.14,1.48c.14.31.35.49.6.17s1.16-1.54,1.33-6.21-.63-13.21-2-17.14a5.63,5.63,0,0,0-1.3-2.35c-.81-.63-1.48-1.41-1.79-1.62s-.28-.07-.28-.07c.45.53,2.14,3.55,2.63,4.46s1,2.42.63,2.88c0,0,1.16,9.8,1.09,15a7.19,7.19,0,0,1-.14,1.79A13,13,0,0,1,63.57,47.37Z"/><path class="cls-7" d="M72.36,28c-.23-.86-.49-1.7-.77-2.5C71.82,26.11,72.09,27,72.36,28Z"/><path class="cls-7" d="M72.42,28.19l0-.14Z"/><path class="cls-7" d="M71.12,24.2c0-.15-.05-.26,0-.29L71,23.84Z"/><path class="cls-7" d="M77.28,30.37a14.47,14.47,0,0,1,.56,1.72,14.4,14.4,0,0,0-5.13-2.77,41.85,41.85,0,0,1,.8,4.29c.74,5.65.7,9.94-1.3,15.41-.23.64-.67,1.27.07,1.09a8.8,8.8,0,0,0,5.16-5c1.17-2.72,1.49-7.32.78-11.31A29.23,29.23,0,0,1,78.53,37a1.07,1.07,0,0,1-.9.68c-1.43-.28-2-4.39-2-4.39L75,33.14l-.65-.6-.51,0-.5-.06c-.08-.48-.17-1-.28-1.51l.17.06,1.91.84,0-.25a4.28,4.28,0,0,0,.92.5,16.1,16.1,0,0,1,2.15,1.58,17.79,17.79,0,0,0-1-3.47,11.45,11.45,0,0,0-2.48-3.66,18.84,18.84,0,0,1,2.52,3.82Zm0,13.49a.21.21,0,0,1,.22.36A15.46,15.46,0,0,1,73.66,46H73.6a.21.21,0,0,1-.2-.15.21.21,0,0,1,.15-.26A14.78,14.78,0,0,0,77.33,43.86Z"/><path class="cls-9" d="M70.25,25.89a13.21,13.21,0,0,0-.78-2.06C69.71,24.4,70,25.09,70.25,25.89Z"/><path class="cls-9" d="M69.35,23.55c0-.11,0-.22,0-.24l.17.05a5.12,5.12,0,0,1,.65.34,1,1,0,0,0-.33-.28,5.27,5.27,0,0,0-.67-.22C69.24,23.31,69.3,23.43,69.35,23.55Z"/><path class="cls-9" d="M72.15,32.33l-.21-.08a34.39,34.39,0,0,1,.76,7.47,28.69,28.69,0,0,1-2.56,11.05c.37-.05.59-.1.59-.1,4.71-7.16,2.15-18,2.15-18s-.1-.53-.26-1.33c.06.35.11.68.17,1Zm.37,13.88a2.83,2.83,0,0,1-.53.08.2.2,0,0,1-.17-.22.2.2,0,0,1,.17-.21,2.54,2.54,0,0,0,.48-.06c.09,0,.17.05.19.17A.22.22,0,0,1,72.52,46.21Z"/><path class="cls-9" d="M71.15,28.88c.21.78.42,1.6.6,2.44,0-.28-.1-.58-.16-.88l.92.34a30.42,30.42,0,0,0-1.9-6.42,36.44,36.44,0,0,1,1.47,4.77C71.79,29,71.47,29,71.15,28.88Z"/><path class="cls-9" d="M69.29,50.85l.52,0a28.09,28.09,0,0,0,2.61-11.1,43.46,43.46,0,0,0-3.59-16.6L68.28,23a43.88,43.88,0,0,1,3.61,16.73A28.25,28.25,0,0,1,69.29,50.85Zm1.13-22.1a49.69,49.69,0,0,0-1.85-5.58l.28.12a18,18,0,0,1,1.34,3.6l.5,1.91Zm.78,3.38c-.12-.63-.25-1.25-.39-1.85l.25.08c.14.6.28,1.21.4,1.81Z"/><path class="cls-9" d="M65.9,28.33l-1,0c-.88-4.53-2.46-5.79-2.46-5.79l.88-.14.19.1a.53.53,0,0,1,.11.14c.15.22.4.5.69.95a8.89,8.89,0,0,0-.79-1.26c-.9-.23-1.5,0-1.38.11,1.34,1.44,1.65,2.22,2.53,5.66a68.12,68.12,0,0,1,1.23,15.1C65.71,47.16,65,48.5,65,48.5l-.35,1.09a7.91,7.91,0,0,0,1.07.62,5.12,5.12,0,0,0,.93-1.61A49.43,49.43,0,0,0,65.34,26l.06.21C65.54,26.82,65.71,27.53,65.9,28.33Zm.67,18.26h0a3.91,3.91,0,0,1-.73-.14.21.21,0,0,1,.14-.4,3,3,0,0,0,.63.12.21.21,0,0,1,0,.42Zm.19-14a1.28,1.28,0,0,1-.61-.06L66,31.35l-.59-1.13-.14-.77h.91C66.36,30.44,66.58,31.52,66.76,32.64Z"/><path class="cls-7" d="M68.33,23.79c.14.41.91,2.35,1.62,4.89a24.28,24.28,0,0,0-2.48-.35s-1.16-4-2-5.16a15.79,15.79,0,0,1,2-.19h0c.28.13.55.09.78.56-.1-.23-.21-.45-.3-.61-1.58-.28-3.44-.44-4-.48,1.38,1.91,2.56,5.73,3.22,10.45a49.46,49.46,0,0,1-.24,15.77h0A5.37,5.37,0,0,1,66,50.33a6,6,0,0,0,1.68.49,8.09,8.09,0,0,0,1.29,0,27.65,27.65,0,0,0,2.64-11.15c.16-5.9-2.08-13.31-3.36-16.14C68.28,23.64,68.3,23.71,68.33,23.79Zm2.1,22.7a12.68,12.68,0,0,1-2.25.18h-.33a.21.21,0,0,1,0-.42,13.4,13.4,0,0,0,2.5-.16.2.2,0,0,1,.23.17A.21.21,0,0,1,70.43,46.49Zm-.08-16.31c.15.63.3,1.28.42,1.94a26.55,26.55,0,0,1-2.88-.74l-.14-1.68a3.82,3.82,0,0,1,2.39.42Z"/><path class="cls-11" d="M81.55,38.54A9.59,9.59,0,0,0,79,38.42v.79l1.31-.11A6.3,6.3,0,0,1,81.55,38.54Z"/><path class="cls-11" d="M80.24,40.71c-.07.33.33.94.68,1.36a1.07,1.07,0,0,0,1.45,0,1.72,1.72,0,0,0,.72-1.17c0-.21-.44-.63-.44-.63l-.12.54c-1.07,1.22-1.28.49-1.57.12s.8-2.16,1.92-1.08a5.12,5.12,0,0,1,1.2,3.49,6.09,6.09,0,0,1-1.45,3.37c-1,.91-1.69,1-2.11.84s-1.31-1.43-.19-1.87a1.92,1.92,0,0,1,2,.59l.39-.5s0-.09-.72-.51-2.18-.45-2.69.23A1.28,1.28,0,0,0,79,46.68a1.93,1.93,0,0,0,2.48,1.38,5.33,5.33,0,0,0,3-3.3c.65-1.87-.31-4.09-.85-5a2,2,0,0,0-2.45-.7C80.33,39.38,80.41,39.91,80.24,40.71Z"/><path class="cls-11" d="M83.36,47.39a4.08,4.08,0,0,1,.52,4.1,1.68,1.68,0,0,1-1.13.9,3.43,3.43,0,0,1-2.06-.12.9.9,0,0,1-.33-.65.88.88,0,0,1,.36-.73,1,1,0,0,1,.9-.2,1.86,1.86,0,0,1,1.2,1.12l.65-.28A2.55,2.55,0,0,0,81.79,50a1.66,1.66,0,0,0-1.52.34,1.56,1.56,0,0,0,0,2.5,3.46,3.46,0,0,0,1.62.34,3.5,3.5,0,0,0,1-.13,2.34,2.34,0,0,0,1.58-1.26,4.82,4.82,0,0,0-.6-4.84Z"/><path class="cls-11" d="M69.8,63.57a4.18,4.18,0,0,1-1.24-1.1.94.94,0,0,0-.78-.48.74.74,0,0,0-.66.37A1.74,1.74,0,0,0,67.44,64a2.74,2.74,0,0,0,1.51.89c-.06-.1-.73-1-.92-1.26-.35-.57-.34-.91-.3-1h0c.06,0,.07,0,.22.2a4.92,4.92,0,0,0,1.42,1.26c1.35.86,3.06.53,4.8-.76l-.58-.28C72.12,64.24,70.89,64.27,69.8,63.57Z"/><path class="cls-11" d="M83.31,53.27a4.93,4.93,0,0,1-2,5,3,3,0,0,1-2.44.68,2.19,2.19,0,0,1-1.36-.85,1.62,1.62,0,0,1-.21-1.16.82.82,0,0,1,.5-.48,1,1,0,0,1,1,0c.35.25.52.9.46,1.84l.56,0a2.54,2.54,0,0,0-.7-2.33,1.51,1.51,0,0,0-1.51,0,1.34,1.34,0,0,0-.81.82A2.11,2.11,0,0,0,77,58.36a2.77,2.77,0,0,0,1.73,1.13,2.6,2.6,0,0,0,.6.07,3.88,3.88,0,0,0,2.3-.85,5.48,5.48,0,0,0,2.21-5.55Z"/><path class="cls-11" d="M75.22,62.61a2.77,2.77,0,0,1-2-1.09A1.84,1.84,0,0,1,73,60a.92.92,0,0,1,.81-.65,1.25,1.25,0,0,1,1.14.39,1.66,1.66,0,0,1-.2,2.19l.41.38a2.2,2.2,0,0,0,.26-2.87,1.78,1.78,0,0,0-1.69-.65,1.5,1.5,0,0,0-1.27,1,2.43,2.43,0,0,0,.21,2,3.25,3.25,0,0,0,2.43,1.34,3.77,3.77,0,0,0,4.32-3L78.91,60A3.37,3.37,0,0,1,75.22,62.61Z"/><path class="cls-10" d="M64.34,63.49A23.82,23.82,0,0,0,62,62.23a.85.85,0,0,1-.45.28s-.39,11.69-.42,13,.26.62.66.28a36.22,36.22,0,0,1,11.77-6.57l.07-.28-.42-.07s-.92-.81-2.53-2-5.76-3.4-5.76-3.4S64.8,63.84,64.34,63.49Z"/><path class="cls-12" d="M76.39,71.32s-1.16-1.12-1.65-1.47a1.78,1.78,0,0,0-1.16-.25,42.27,42.27,0,0,0-12.36,7.1,10.26,10.26,0,0,0,0,2.53l.25,0a38.25,38.25,0,0,1,8.5-5.62C74.49,71.32,76.39,71.32,76.39,71.32Z"/><path class="cls-13" d="M76.74,72.45c-.28-.25-1-.53-1.23-.35S73,73.33,72.63,73.43,68,76.49,67.57,76.8a3.58,3.58,0,0,0-1,1.2,29.64,29.64,0,0,0-.14,4.18l2.84,4.32a7.89,7.89,0,0,1,.95-1.13,17.53,17.53,0,0,1,3.16-2,22.7,22.7,0,0,1,4.32-1.8,15.82,15.82,0,0,1,3.62-1c1.33-.17,4.67-.31,4.67-.31A45.92,45.92,0,0,0,76.74,72.45Z"/><path class="cls-13" d="M86.57,80.88l-.53.21L86,80.6s-3.68.17-5.12.45a34.11,34.11,0,0,0-4.29,1.41,22.39,22.39,0,0,0-5,2.56c-1.16.88-1.19.53-2.11,1.86a31.89,31.89,0,0,1,3.09,6.5c.13.35.25.71.37,1.07A50.09,50.09,0,0,0,88,82.43q-.5-.59-1.05-1.17Z"/><path class="cls-14" d="M37.21,96.62l-1.84,1.2,1.81.52c0-.84.07-1.55.07-1.6S37.21,96.62,37.21,96.62Z"/><path class="cls-14" d="M39.93,95c.25,0,.71,0,.81-.11s.14-.63-.17-.63a5.82,5.82,0,0,0-1.37.07,2.72,2.72,0,0,0-.6.49,8.57,8.57,0,0,0-.49,1.06,4.45,4.45,0,0,0-.39,1.68c0,.32,0,.6-.08.87l.9.21L38.6,98C38.66,97.14,38.49,95,39.93,95Z"/><path class="cls-14" d="M40.46,98.89c0-.52.18-2.7.18-2.7l.1-.77a2.34,2.34,0,0,0-1,0c-.35.14-.73.38-.73.77s-.14,1.23-.14,1.4,0,.62-.08,1.13c.56.13,1.12.25,1.69.36Z"/><path class="cls-14" d="M29.68,92.68a9.27,9.27,0,0,0,.25-1.09,2.32,2.32,0,0,1,.52-1h-.38c-.18,0-.43.6-.53.81a6.09,6.09,0,0,0-.11,1.3.75.75,0,0,0-.14.45,12.77,12.77,0,0,1-.24,2.08.41.41,0,0,0,0,.11l.48.22c0-.33.05-.87.05-1.25A14.2,14.2,0,0,1,29.68,92.68Z"/><path class="cls-14" d="M36.35,96.12l.14-.32.84-.52a7.49,7.49,0,0,1,.18-2.22c.11-.45.53-1.65.53-1.65a12.08,12.08,0,0,1-1.27.14,23.6,23.6,0,0,0-2.49.67,4.79,4.79,0,0,1-1.62,0c-.21-.07,0-.39,0-.39l1.16.1s1.19-.21.77-.24a12.29,12.29,0,0,1-2.18-.74A11.15,11.15,0,0,0,31,90.64a3.66,3.66,0,0,0-.56.56A5,5,0,0,0,30,92.78c-.07.35-.07,2.85-.07,2.85l.38.32c1.26.54,2.55,1,3.85,1.46a3.31,3.31,0,0,1,.34-.27C34.74,96.93,36.35,96.12,36.35,96.12ZM32,92.92c-.09,0,0,0,.25.1a5.31,5.31,0,0,0,2.1,0c.71-.14,2.08-1,1.69-.49a5,5,0,0,1-2.42.88A3.58,3.58,0,0,1,32.21,93,1.45,1.45,0,0,1,32,92.92Z"/><path d="M36,92.5c.39-.49-1,.35-1.69.49a5.31,5.31,0,0,1-2.1,0,3.58,3.58,0,0,0,1.37.36A5,5,0,0,0,36,92.5Z"/><path d="M32,92.92a1.45,1.45,0,0,0,.25.1C32,92.93,31.87,92.87,32,92.92Z"/><path class="cls-14" d="M37,96.43a14.72,14.72,0,0,0,1.16-1.05,9.21,9.21,0,0,0,.1-1.26,4.93,4.93,0,0,1,.78-2.6,9.89,9.89,0,0,1,1.3-.74.72.72,0,0,0-.53-.21,3,3,0,0,0-1.41,1,5.4,5.4,0,0,0-.63,1.86c0,.46,0,1.9,0,1.9a1,1,0,0,1-.43.45,5.85,5.85,0,0,0-1.19.74,13.19,13.19,0,0,1-1.51,1l-.15.11.44.15.13-.05A10.84,10.84,0,0,0,37,96.43Z"/><path class="cls-7" d="M66.94,94.63c-.35-.11-.4.12-.47.26a2.74,2.74,0,0,0,0,1.19c.07.42.13.76.18,1.07.36-.13.71-.25,1.06-.39,0-.4-.12-1-.18-1.24S67.29,94.75,66.94,94.63ZM67.26,96c-.09.28-.07.61-.28.54s-.42-.47-.33-1,.31-.71.4-.71a.82.82,0,0,1,.38.54A3.14,3.14,0,0,1,67.26,96Z"/><path class="cls-14" d="M63.9,97.07a2.49,2.49,0,0,0-.66-.47,2.15,2.15,0,0,1-.63-.61,1.07,1.07,0,0,0-.47-.33c-.12,0-.75-.84-.82-.86s-.07.3,0,.6c0,0,.37,2.18.42,2.56,0,.11,0,.34.08.63.91-.22,1.8-.46,2.69-.73-.09-.22-.17-.44-.17-.44A3.58,3.58,0,0,1,63.9,97.07Z"/><path class="cls-14" d="M60.81,94.19c0-.26-.19-1.59-.19-1.59l-.19.18a.86.86,0,0,0-.07.4s0,1.08,0,1.29.26.42.23.56-.21.07-.21.07l.17,1.33c0,.23.25,2,.29,2.37l.67-.16c-.11-.66-.34-1.88-.38-2.09S60.81,94.44,60.81,94.19Z"/><path class="cls-14" d="M62.28,95.19c.19.14.61.54.77.66s.45.4.68.61.45.21.52.09-.31-.3-.31-.3-.35-.4-.44-.42a1,1,0,0,1-.38-.21,5.53,5.53,0,0,0-.67-.61,1.53,1.53,0,0,1-.43-.78c0-.21-.25-.25-.3-.16s-.33,0-.33,0h-.26v.25s.4.22.57.33S62.09,95.05,62.28,95.19Z"/><path class="cls-14" d="M65.77,95.19a1.22,1.22,0,0,1,.26-.67,1,1,0,0,0,.23-.4c0-.14,0-.49,0-.61s0-.26-.14-.33S66,93,66,93s-.1-.56-.1-.7a2,2,0,0,0-.11-.52,2.3,2.3,0,0,1-.1-.44L65.37,91a3.33,3.33,0,0,0-.49-.09c-.23,0-1.1,0-1.24,0s-.84,0-1.1,0a4.75,4.75,0,0,0-1.12.3,4.32,4.32,0,0,0-.92.71,2.87,2.87,0,0,0-.19.6l.71-.63a.39.39,0,0,1,.3,0,.88.88,0,0,0-.07.3c0,.07.38-.07.54-.12s.42,0,.58-.07l.71-.07a5.37,5.37,0,0,1,1.14.28c.17.12.59,0,.73.19a3.38,3.38,0,0,1,.16,1.24c0,.4.31,2.23.33,2.74a11.39,11.39,0,0,0,.16,1.17l.36-.13c0-.17-.08-.39-.12-.64A10.3,10.3,0,0,1,65.77,95.19Z"/><path class="cls-10" d="M28.66,69c4.07,2.81,8.92,9.59,8.92,9.59s-.21-8.67-.21-8.92-.28-.21-.28-.21,0-1,0-1.51.18-.53.18-.53a20.2,20.2,0,0,0-.67-5.23c-.14-1-.28-.56-.28-.56l-.13,0a70.62,70.62,0,0,0-8.51,3.22l-2.84,1.3S24.59,66.23,28.66,69Z"/><path class="cls-12" d="M37.51,79.4s-.25-.77-4.11-5.27a44.17,44.17,0,0,0-9.06-7.69l-1.26.67-.49.21-.11.35c1.16.53,1.23.88,1.23.88a45.43,45.43,0,0,1,8,6.85c1.3,1.26,5.44,6.18,5.44,6.18C37.58,81.23,37.51,79.4,37.51,79.4Z"/><path class="cls-13" d="M22.9,69.78a47.84,47.84,0,0,0-9.73,6.64c-.45.38.39.52.39.52A29,29,0,0,1,25.29,90.22a39.12,39.12,0,0,1,4.95-8.82l.14-4.81A27.59,27.59,0,0,0,22.9,69.78Z"/><path class="cls-13" d="M23.32,87.34A28.5,28.5,0,0,0,13.14,77.19a1.11,1.11,0,0,0-1.2.42L9.76,79.67a50.32,50.32,0,0,0,14.32,13.1A11.52,11.52,0,0,0,24.8,91C25,90,23.32,87.34,23.32,87.34Z"/><path class="cls-14" d="M38.25,86.67l-.14,4a8.42,8.42,0,0,0,1.51-.49c.67-.32,1.47.39,1.47.39L41,93.91l.35.45v1.09l.64,0L41,86.32A4.53,4.53,0,0,0,38.25,86.67Z"/><path class="cls-14" d="M56,87.48s.32,6.32-.17,7.59a17.69,17.69,0,0,1,4.07.17s-.17-5.58-.42-7.2C59.46,88,58.72,87.51,56,87.48Z"/><path class="cls-9" d="M53.91,85.76c-.84-.11-9.45-.56-10.78-.53s-1.48,1.23-1.37,2.14c0,0,.81,8.61,1,9.94s.5,1.34,1.2,1.34,6.28.17,7.16.14,3.48.7,3.86-.7.57-7.77.57-9.8S54.75,85.86,53.91,85.76Zm-10,1.59a2.7,2.7,0,0,0-.75.91c-.21.45-.38.66-.38.89s0,.78-.11.82l-.17,0s-.42-.68-.37-1a9.53,9.53,0,0,0-.21-1.53c0-.49-.1-1.21.23-1.42a2.71,2.71,0,0,1,1.9-.64l4.07.19c.4,0,1.19.14.94.33a1.9,1.9,0,0,1-1.06.28c-.3,0-.79,0-.93.16a1.21,1.21,0,0,1-1,.43c-.44,0-1.52-.14-1.85.18S44,87.28,43.9,87.35Zm9.73,8.17a1.73,1.73,0,0,1-1.4,1.3,43.06,43.06,0,0,1-6.47.14c-1-.1-1.12-1-1.12-1.61s-.21-6.61-.21-6.61c0-.91.32-1.26,1.3-1.3s6.14.18,6.78.29,1.23.66,1.26,1.93S53.7,94.92,53.63,95.52Z"/><path d="M52.51,87.73c-.64-.11-5.8-.32-6.78-.29s-1.27.39-1.3,1.3c0,0,.21,6,.21,6.61s.14,1.51,1.12,1.61a43.06,43.06,0,0,0,6.47-.14,1.73,1.73,0,0,0,1.4-1.3c.07-.6.18-4.6.14-5.86S53.14,87.83,52.51,87.73Zm.1,8.35c-1,.5-4.7.5-4.7.5l-2.67-.15s-.42-4.84-.32-7.83c0,0,4.25,0,5.76,0s2.46.38,2.49,1.65S53.56,95.59,52.61,96.08Z"/><path class="cls-9" d="M52.54,99.35l-9-.32A42.36,42.36,0,0,0,52.54,99.35Z"/><path class="cls-14" d="M50.68,88.64c-1.51-.07-5.76,0-5.76,0-.1,3,.32,7.83.32,7.83l2.67.15s3.75,0,4.7-.5.6-4.53.56-5.79S52.19,88.71,50.68,88.64Zm.91,4.21c-.07,1-.1,1.27-.45,1.23s-.42-.28-1-.21-2.07-.31-2.07-.91-.18-1.44.59-1.58a10.13,10.13,0,0,1,1.93-.07s.6-.56.78-.53A3.73,3.73,0,0,1,51.59,92.85Z"/><path d="M51.35,90.78c-.18,0-.78.53-.78.53a10.13,10.13,0,0,0-1.93.07c-.77.14-.59,1-.59,1.58s1.47,1,2.07.91.67.18,1,.21.38-.21.45-1.23A3.73,3.73,0,0,0,51.35,90.78Zm-.14,2.85c0,.17-.32-.32-.32-.32l-1.4,0c-.21,0-.68-.42-.85-.76l-.09,0a.89.89,0,0,1,0-.14s0,0,0,0a.61.61,0,0,1,.5-.55.71.71,0,0,1,.28-.06h1.22s.46-.31.53-.14A14.5,14.5,0,0,1,51.21,93.63Z"/><path class="cls-9" d="M50.57,91.69H50.4c.19.07.45.09.45,0s.19-.23.21-.09,0,.29,0,.54H49.89s-.42.09-.54.28a.66.66,0,0,1-.71.08c.17.34.64.76.85.76l1.4,0s.28.49.32.32a14.5,14.5,0,0,0-.11-2.08C51,91.38,50.57,91.69,50.57,91.69Z"/><path class="cls-9" d="M49.07,91.74a.61.61,0,0,0-.5.55s0,0,0,0,0-.06,0-.09A.81.81,0,0,1,49.07,91.74Z"/><path class="cls-12" d="M42.22,97.8c-.11-.8-.25-1.72-.25-1.72l-.74,0s0,1.34-.11,3.15c.72.13,1.45.24,2.18.34C42.36,99.17,42.3,98.47,42.22,97.8Z"/><path class="cls-12" d="M47.91,100h0Z"/><path class="cls-14" d="M64.81,97.11l.09.63.32-.11c0-.33-.11-.67-.18-.7S64.81,97,64.81,97.11Z"/><path class="cls-12" d="M48.33,100h0c.55,0,1.11,0,1.67,0s1.23,0,1.84,0v0Z"/><path class="cls-12" d="M52.33,99.91v0h.21v-.1Z"/><path class="cls-12" d="M55.77,95.69s-.23,2.76-.23,3.13-.47,1-2.58,1.06v0a50.49,50.49,0,0,0,7.54-1c-.19-1.53-.35-2.8-.42-3.06A14.71,14.71,0,0,0,55.77,95.69Z"/><path class="cls-15" d="M43.79,40.92a5.88,5.88,0,0,0,3-3.63,1,1,0,0,0-.1-1,10.58,10.58,0,0,0-.4-2.08,5.44,5.44,0,0,0-1.49-2.77,3.3,3.3,0,0,0-1.57-1,7.76,7.76,0,0,0-2-.09,3.09,3.09,0,0,0-1.69.51,7.2,7.2,0,0,0-2,2.58A8.06,8.06,0,0,0,37,35.77c-.05.45.09,1.57.09,1.85a5.46,5.46,0,0,0,.66,1.43,6.54,6.54,0,0,0,1.71,1.69A4.37,4.37,0,0,0,43.79,40.92Zm-3.93-4.47a2.34,2.34,0,0,1,1.83-2.77,2.69,2.69,0,0,1,3,1c.39.45-.18.49-.6.49-.66,0-1,.28-1,1.26s.49,1.48,1.16,1.51.38.6.24.67-.45.56-2.17.49A2.59,2.59,0,0,1,39.86,36.45Z"/><path class="cls-15" d="M59.87,34c-.07-.19-.23-1.22-.3-1.52a3.18,3.18,0,0,0-.8-1,4.77,4.77,0,0,0-2.65-1.31,8.62,8.62,0,0,0-3,.12,4.51,4.51,0,0,0-1.52.87,3.7,3.7,0,0,0-1.1,1.61s-.28,1.17-.35,1.78-.12,1.34-.12,1.76a3.88,3.88,0,0,0,.66,1.43c.11.16.46,1.07.63,1.28a8,8,0,0,0,1.94,1.6,5.54,5.54,0,0,0,4.14.3A3.75,3.75,0,0,0,60,38.68a7.38,7.38,0,0,0,.26-2.77A10.74,10.74,0,0,0,59.87,34ZM56.4,35.08c-.49-.14-.63.07-.94.35a2,2,0,0,0-.5,1c-.14.7.5,1.09,1.06,1.09s1.16.11.77.46a2.7,2.7,0,0,1-4.42-2.29,2.32,2.32,0,0,1,1.47-2.38,3,3,0,0,1,2.49,0c.64.17.88,1.33,1,1.75S56.9,35.22,56.4,35.08Z"/><path d="M44.46,38.63c.14-.07.43-.63-.24-.67s-1.2-.52-1.16-1.51.39-1.26,1-1.26c.42,0,1,0,.6-.49a2.69,2.69,0,0,0-3-1,2.34,2.34,0,0,0-1.83,2.77,2.59,2.59,0,0,0,2.43,2.67C44,39.19,44.32,38.7,44.46,38.63Z"/><path d="M56.33,33.33a3,3,0,0,0-2.49,0,2.32,2.32,0,0,0-1.47,2.38A2.7,2.7,0,0,0,56.79,38c.39-.35-.21-.46-.77-.46s-1.2-.39-1.06-1.09a2,2,0,0,1,.5-1c.31-.28.45-.49.94-.35s1.09.42,1,0S57,33.5,56.33,33.33Z"/><path class="cls-3" d="M57.39,45.41a.68.68,0,0,1-.21.06,1,1,0,0,1-.5-.26,1.49,1.49,0,0,0-.4.11.21.21,0,0,0,.1.11.17.17,0,0,0,.18,0l.16,0a.65.65,0,0,1,.35.14s.1.08.13.08a1,1,0,0,1,.37.08h0a.73.73,0,0,1,.2.14c.09.07.22.17.27.13s0,0,0,0a1,1,0,0,0-.34-.56C57.68,45.31,57.52,45.37,57.39,45.41Z"/><path class="cls-4" d="M57.34,45.28l-.16,0a.84.84,0,0,1-.4-.22c-.07-.07-.27,0-.61.1l-.06,0v0a.52.52,0,0,0,.19.27.37.37,0,0,0,.31,0,.37.37,0,0,1,.37.1.41.41,0,0,0,.21.1.92.92,0,0,1,.32.07l.06,0a.77.77,0,0,1,.15.11.68.68,0,0,0,.34.17.15.15,0,0,0,.11,0,.17.17,0,0,0,.06-.14,1.24,1.24,0,0,0-.39-.67C57.72,45.15,57.51,45.22,57.34,45.28Zm.8.75c-.14.11-.4-.21-.54-.26a1.16,1.16,0,0,0-.4-.09c-.14,0-.33-.31-.61-.19a.28.28,0,0,1-.4-.21s.47-.19.54-.12a.93.93,0,0,0,.45.24c.14,0,.47-.22.63-.07S58.28,45.91,58.14,46Z"/><path class="cls-4" d="M57.18,45.4a.93.93,0,0,1-.45-.24c-.07-.07-.54.12-.54.12a.28.28,0,0,0,.4.21c.28-.12.47.19.61.19a1.16,1.16,0,0,1,.4.09c.14,0,.4.37.54.26s-.17-.56-.33-.7S57.32,45.4,57.18,45.4Zm.91.57c-.05,0-.18-.06-.27-.13a.73.73,0,0,0-.2-.14h0a1,1,0,0,0-.37-.08s-.08,0-.13-.08a.65.65,0,0,0-.35-.14l-.16,0a.17.17,0,0,1-.18,0,.21.21,0,0,1-.1-.11,1.49,1.49,0,0,1,.4-.11,1,1,0,0,0,.5.26.68.68,0,0,0,.21-.06c.13,0,.29-.1.37,0a1,1,0,0,1,.34.56S58.1,46,58.09,46Z"/><path class="cls-16" d="M47.25,41.86c-.21,1-.51,1.85-.61,2.22,0,0-.12.14.07.12a10.23,10.23,0,0,0,1.64-.82c1-.51.73.19.7.68s.33,1.43.85,1.41.39-.87.39-1-.14-.66.26-.68.42.21.63.51a.65.65,0,0,0,.78.15c.09-.07-.17-.66-.5-1.06s-2.76-4-3-4.33-.35-.37-.49-.12A27.75,27.75,0,0,0,47.25,41.86Z"/><path d="M50.68,58.37a2.32,2.32,0,0,1-1.83.1c-.73-.24-1.05-.1-1.19.11s.18.6.6.8a3.71,3.71,0,0,0,2.56.11,1.32,1.32,0,0,0,.91-1.3C51.73,58,51.21,58.12,50.68,58.37Z"/><path d="M70.36,46.08a13.4,13.4,0,0,1-2.5.16.21.21,0,0,0,0,.42h.33a12.68,12.68,0,0,0,2.25-.18.21.21,0,0,0,.16-.24A.2.2,0,0,0,70.36,46.08Z"/><path d="M66.59,46.17a3,3,0,0,1-.63-.12.21.21,0,0,0-.14.4,3.91,3.91,0,0,0,.73.14h0a.21.21,0,0,0,0-.42Z"/><path d="M73.4,45.8a.21.21,0,0,0,.2.15h.06a15.46,15.46,0,0,0,3.89-1.73.21.21,0,0,0-.22-.36,14.78,14.78,0,0,1-3.78,1.68A.21.21,0,0,0,73.4,45.8Z"/><path d="M72.47,45.8a2.54,2.54,0,0,1-.48.06.2.2,0,0,0-.17.21.2.2,0,0,0,.17.22,2.83,2.83,0,0,0,.53-.08.22.22,0,0,0,.14-.24C72.64,45.85,72.56,45.78,72.47,45.8Z"/><path d="M33.23,47.51a4,4,0,0,1-.41.11.21.21,0,0,0,0,.42h.06l.43-.12a.22.22,0,0,0,.14-.27A.21.21,0,0,0,33.23,47.51Z"/><path d="M31.57,47.86a21.43,21.43,0,0,1-2.39.16.21.21,0,0,0-.2.22.2.2,0,0,0,.21.2h0a19.71,19.71,0,0,0,2.43-.17.21.21,0,0,0-.05-.41Z"/><path d="M26.81,48.36l.41,0h0a.22.22,0,0,0,.21-.2.21.21,0,0,0-.2-.22l-.39,0a.2.2,0,0,0-.23.18A.21.21,0,0,0,26.81,48.36Z"/><path d="M53.12,67a1.73,1.73,0,0,0-1.39-.14,2.45,2.45,0,0,0-.87.6,2.37,2.37,0,0,0-.43.65s-.07.52-.08.73a.32.32,0,0,0,.12.3,2.58,2.58,0,0,0,.12.65,1.65,1.65,0,0,0,.76.69c.17,0,.4.24.56.28s.3-.11.35-.13a1.18,1.18,0,0,0,.79-.15,2,2,0,0,0,.69-.88,4.13,4.13,0,0,0,.26-1.2c0-.17-.14-.35-.21-.49A1.42,1.42,0,0,0,53.12,67Zm.44,2a1.61,1.61,0,0,1-.6,1,1.33,1.33,0,0,1-1.16.18A2.47,2.47,0,0,1,51,69.6a2.38,2.38,0,0,1-.17-.66c0-.11,0-.64,0-.64a2.16,2.16,0,0,1,.48-.77c.17-.12.65-.49.88-.44s.66,0,.87.34.48.37.49.59A4.59,4.59,0,0,1,53.56,68.94Z"/><path class="cls-9" d="M53,67.43c-.21-.32-.65-.28-.87-.34s-.71.32-.88.44a2.16,2.16,0,0,0-.48.77s0,.53,0,.64a2.38,2.38,0,0,0,.17.66,2.47,2.47,0,0,0,.79.55A1.33,1.33,0,0,0,53,70a1.61,1.61,0,0,0,.6-1,4.59,4.59,0,0,0,0-.92C53.51,67.8,53.24,67.74,53,67.43Zm-1.4,1.51a.25.25,0,1,1,0-.49.25.25,0,0,1,0,.49Zm.84.33a.29.29,0,0,1-.28-.28.28.28,0,0,1,.28-.28.27.27,0,0,1,.28.28A.28.28,0,0,1,52.47,69.27Zm.39-.54a1.18,1.18,0,0,0-.32-.64A.66.66,0,0,0,52,68c-.14.18-.53.11-.35-.1s.53-.46.77-.35a1.08,1.08,0,0,1,.74.77C53.24,68.83,52.89,68.83,52.86,68.73Z"/><circle cx="51.63" cy="68.69" r="0.25"/><path d="M52.47,68.71a.28.28,0,0,0-.28.28.29.29,0,0,0,.28.28.28.28,0,0,0,.28-.28A.27.27,0,0,0,52.47,68.71Z"/><path d="M52.4,67.57c-.24-.11-.6.14-.77.35s.21.28.35.1a.66.66,0,0,1,.56.07,1.18,1.18,0,0,1,.32.64c0,.1.38.1.28-.39A1.08,1.08,0,0,0,52.4,67.57Z"/><path d="M53.1,73.75a1.7,1.7,0,0,0-1.38-.14,2.53,2.53,0,0,0-.88.59,2.42,2.42,0,0,0-.42.65s-.07.53-.09.74a.32.32,0,0,0,.12.3,2.58,2.58,0,0,0,.12.65,1.62,1.62,0,0,0,.76.68c.18,0,.4.25.56.29s.3-.11.35-.13a1.14,1.14,0,0,0,.79-.16,1.93,1.93,0,0,0,.69-.87,4.19,4.19,0,0,0,.26-1.2c0-.17-.14-.35-.21-.49A1.36,1.36,0,0,0,53.1,73.75Zm.44,2a1.59,1.59,0,0,1-.59,1,1.36,1.36,0,0,1-1.16.18,2.36,2.36,0,0,1-.79-.55,2.17,2.17,0,0,1-.18-.67c0-.1,0-.63,0-.63a2,2,0,0,1,.47-.77c.18-.12.65-.49.88-.44s.66,0,.88.33.47.37.49.6A5.43,5.43,0,0,1,53.54,75.71Z"/><path class="cls-9" d="M53,74.2c-.22-.31-.65-.28-.88-.33s-.7.32-.88.44a2,2,0,0,0-.47.77s0,.53,0,.63a2.17,2.17,0,0,0,.18.67,2.36,2.36,0,0,0,.79.55A1.36,1.36,0,0,0,53,76.75a1.59,1.59,0,0,0,.59-1,5.43,5.43,0,0,0,0-.91C53.49,74.57,53.23,74.52,53,74.2Zm-1.41,1.51a.25.25,0,1,1,0-.49.25.25,0,1,1,0,.49Zm.84.34a.29.29,0,0,1-.28-.28.28.28,0,0,1,.28-.28.27.27,0,0,1,.28.28A.28.28,0,0,1,52.45,76.05Zm.39-.55a1.19,1.19,0,0,0-.32-.63A.63.63,0,0,0,52,74.8c-.14.18-.52.11-.35-.1s.53-.46.77-.35a1.06,1.06,0,0,1,.74.77C53.23,75.61,52.88,75.61,52.84,75.5Z"/><circle cx="51.61" cy="75.47" r="0.25"/><path d="M52.45,75.49a.28.28,0,0,0-.28.28.29.29,0,0,0,.28.28.28.28,0,0,0,.28-.28A.27.27,0,0,0,52.45,75.49Z"/><path d="M52.38,74.35c-.24-.11-.59.14-.77.35s.21.28.35.1a.63.63,0,0,1,.56.07,1.19,1.19,0,0,1,.32.63c0,.11.39.11.28-.38A1.06,1.06,0,0,0,52.38,74.35Z"/><path d="M52.84,80a1.81,1.81,0,0,0-1.39-.14,2.75,2.75,0,0,0-.88.6,2.51,2.51,0,0,0-.42.65s-.07.53-.08.74a.32.32,0,0,0,.12.3,2.66,2.66,0,0,0,.12.65,1.62,1.62,0,0,0,.76.68c.17,0,.4.25.56.28s.3-.1.35-.12a1.21,1.21,0,0,0,.79-.16,1.83,1.83,0,0,0,.68-.88,3.9,3.9,0,0,0,.27-1.19c0-.18-.14-.35-.21-.49A1.43,1.43,0,0,0,52.84,80Zm.44,2a1.63,1.63,0,0,1-.6,1,1.32,1.32,0,0,1-1.16.17,1.17,1.17,0,0,1-1-1.21c0-.1,0-.63,0-.63A2,2,0,0,1,51,80.6c.17-.13.65-.5.87-.44s.67,0,.88.33.48.37.49.6A5.4,5.4,0,0,1,53.28,82Z"/><path class="cls-9" d="M52.75,80.49c-.21-.32-.65-.28-.88-.33s-.7.31-.87.44a2,2,0,0,0-.48.77s0,.53,0,.63a1.17,1.17,0,0,0,1,1.21A1.32,1.32,0,0,0,52.68,83a1.63,1.63,0,0,0,.6-1,5.4,5.4,0,0,0,0-.91C53.23,80.86,53,80.81,52.75,80.49ZM51.35,82a.25.25,0,1,1,.24-.24A.25.25,0,0,1,51.35,82Zm.84.33a.28.28,0,0,1-.28-.28.29.29,0,0,1,.28-.28.28.28,0,0,1,.28.28A.27.27,0,0,1,52.19,82.33Zm.39-.54a1.16,1.16,0,0,0-.32-.63.63.63,0,0,0-.56-.07c-.14.17-.53.1-.35-.11s.52-.45.77-.35a1.1,1.1,0,0,1,.74.77C53,81.9,52.61,81.9,52.58,81.79Z"/><path d="M51.35,81.51a.25.25,0,1,0,0,.49.25.25,0,0,0,0-.49Z"/><path d="M52.19,81.77a.29.29,0,0,0-.28.28.28.28,0,0,0,.28.28.27.27,0,0,0,.28-.28A.28.28,0,0,0,52.19,81.77Z"/><path d="M52.12,80.63c-.25-.1-.6.14-.77.35s.21.28.35.11a.63.63,0,0,1,.56.07,1.16,1.16,0,0,1,.32.63c0,.11.38.11.28-.39A1.1,1.1,0,0,0,52.12,80.63Z"/><path class="cls-13" d="M25.94,70.82h0Z"/><path class="cls-13" d="M24,69.42c.56.37,1.72,1.21,1.93,1.39-.15-.13-1-.88-1.62-1.28l-1.64-1,.28.35A7,7,0,0,1,24,69.42Z"/><path class="cls-13" d="M31.92,76.21c-.4-.43-.57-.66-1.13-1.2s-2.29-2.22-2.62-2.48l-1.45-1.15c.61.52,2.15,1.85,2.76,2.49S31,75.36,31,75.36a4.88,4.88,0,0,1,.39.52c.07.14.73.63.82.79s.47.68.47.68.24,0,.14-.11S32.31,76.63,31.92,76.21Z"/><path class="cls-7" d="M39.92,43.85c.63-.84-.64-1.83-.85-2s-1.51-1-2.07-1.3a.94.94,0,0,0-1.3.71c-.1.56.32,1.19,1.06,1.68A14.74,14.74,0,0,1,38.12,44,1.09,1.09,0,0,0,39.92,43.85Z"/><path class="cls-7" d="M58.32,41.78c-.53.28-1.06,1.3-.39,1.82s1.44.11,2-.31a8.51,8.51,0,0,1,1.4-1c.81-.46.64-.88.5-1.26a1.16,1.16,0,0,0-.92-.64C60.74,40.41,58.85,41.5,58.32,41.78Z"/><path class="cls-7" d="M67.75,29.7l.14,1.68a26.55,26.55,0,0,0,2.88.74c-.12-.66-.27-1.31-.42-1.94l-.21-.06A3.82,3.82,0,0,0,67.75,29.7Z"/><path class="cls-17" d="M67.75,29.7l.14,1.68a26.55,26.55,0,0,0,2.88.74c-.12-.66-.27-1.31-.42-1.94l-.21-.06A3.82,3.82,0,0,0,67.75,29.7Z"/><path d="M68.23,23.54l0,0Z"/><path class="cls-17" d="M68.23,23.54l0,0Z"/><path class="cls-7" d="M67.45,23h0a15.79,15.79,0,0,0-2,.19c.85,1.15,2,5.16,2,5.16a24.28,24.28,0,0,1,2.48.35c-.71-2.54-1.48-4.48-1.62-4.89,0-.08,0-.15-.08-.22l0,0C68,23.07,67.73,23.11,67.45,23Z"/><path class="cls-17" d="M67.45,23h0a15.79,15.79,0,0,0-2,.19c.85,1.15,2,5.16,2,5.16a24.28,24.28,0,0,1,2.48.35c-.71-2.54-1.48-4.48-1.62-4.89,0-.08,0-.15-.08-.22l0,0C68,23.07,67.73,23.11,67.45,23Z"/><path class="cls-9" d="M65.38,30.22,66,31.35l.18,1.23a1.28,1.28,0,0,0,.61.06c-.18-1.12-.4-2.2-.61-3.19h-.91Z"/><path class="cls-18" d="M65.38,30.22,66,31.35l.18,1.23a1.28,1.28,0,0,0,.61.06c-.18-1.12-.4-2.2-.61-3.19h-.91Z"/><path d="M26.28,26.74a33.85,33.85,0,0,0-.78,4.2c.32-2.06.66-3.63.83-4.24Z"/><path class="cls-18" d="M26.28,26.74a33.85,33.85,0,0,0-.78,4.2c.32-2.06.66-3.63.83-4.24Z"/><path d="M27.47,26.05c-.09.33-.2.75-.32,1.23.22-.79.39-1.24.39-1.24a.5.5,0,0,0-.25.05l-.36.19-.06,0a2.32,2.32,0,0,1,.6-.25Z"/><path class="cls-18" d="M27.47,26.05c-.09.33-.2.75-.32,1.23.22-.79.39-1.24.39-1.24a.5.5,0,0,0-.25.05l-.36.19-.06,0a2.32,2.32,0,0,1,.6-.25Z"/><path class="cls-9" d="M26.32,31a33.37,33.37,0,0,1,.83-3.76c.12-.48.23-.9.32-1.23h0a2.32,2.32,0,0,0-.6.25c-.23.15-.45.32-.54.39-.17.61-.51,2.18-.83,4.24,0,.14,0,.27-.05.41C25.72,31.25,26,31.14,26.32,31Z"/><path class="cls-18" d="M26.32,31a33.37,33.37,0,0,1,.83-3.76c.12-.48.23-.9.32-1.23h0a2.32,2.32,0,0,0-.6.25c-.23.15-.45.32-.54.39-.17.61-.51,2.18-.83,4.24,0,.14,0,.27-.05.41C25.72,31.25,26,31.14,26.32,31Z"/><path d="M25.71,27.52c-.06.27-.2.86-.36,1.66C25.51,28.45,25.63,27.9,25.71,27.52Z"/><path class="cls-19" d="M25.71,27.52c-.06.27-.2.86-.36,1.66C25.51,28.45,25.63,27.9,25.71,27.52Z"/><path d="M25,31.52c0-.21.05-.4.07-.59l-.09.6Z"/><path class="cls-19" d="M25,31.52c0-.21.05-.4.07-.59l-.09.6Z"/><path d="M21.57,30.89h0a11.29,11.29,0,0,1,1.17-1.54A6.28,6.28,0,0,0,21.57,30.89Z"/><path class="cls-19" d="M21.57,30.89h0a11.29,11.29,0,0,1,1.17-1.54A6.28,6.28,0,0,0,21.57,30.89Z"/><path d="M25.75,27.35c0-.21.07-.37.09-.46l-.08.06,0,0S25.82,26.94,25.75,27.35Z"/><path class="cls-19" d="M25.75,27.35c0-.21.07-.37.09-.46l-.08.06,0,0S25.82,26.94,25.75,27.35Z"/><path d="M23.39,28.67l-.14.13-.1.12Z"/><path class="cls-19" d="M23.39,28.67l-.14.13-.1.12Z"/><path class="cls-7" d="M21.22,31.84c0,.32-.84,1.58-.84,1.86a42.07,42.07,0,0,1,4.55-2.17l.09-.6c.07-.49.14-.91.2-1.2s.09-.38.13-.55c.16-.8.3-1.39.36-1.66,0-.06,0-.12,0-.17.07-.41,0-.42,0-.42l0,0a14.8,14.8,0,0,0-1.34.89s-.48.37-1,.83l-.24.25c-.15.17-.28.3-.42.44a11.29,11.29,0,0,0-1.17,1.54c-.08.15-.17.29-.24.44A1.62,1.62,0,0,0,21.22,31.84Z"/><path class="cls-19" d="M21.22,31.84c0,.32-.84,1.58-.84,1.86a42.07,42.07,0,0,1,4.55-2.17l.09-.6c.07-.49.14-.91.2-1.2s.09-.38.13-.55c.16-.8.3-1.39.36-1.66,0-.06,0-.12,0-.17.07-.41,0-.42,0-.42l0,0a14.8,14.8,0,0,0-1.34.89s-.48.37-1,.83l-.24.25c-.15.17-.28.3-.42.44a11.29,11.29,0,0,0-1.17,1.54c-.08.15-.17.29-.24.44A1.62,1.62,0,0,0,21.22,31.84Z"/><path d="M31.58,29.67A25.22,25.22,0,0,1,32,26.9a25.72,25.72,0,0,0-.45,2.78Z"/><path class="cls-19" d="M31.58,29.67A25.22,25.22,0,0,1,32,26.9a25.72,25.72,0,0,0-.45,2.78Z"/><path d="M28,28.19c.14-.64.27-1.19.39-1.66C28.27,27.05,28.14,27.6,28,28.19Z"/><path class="cls-19" d="M28,28.19c.14-.64.27-1.19.39-1.66C28.27,27.05,28.14,27.6,28,28.19Z"/><path class="cls-7" d="M31.56,29.68A25.72,25.72,0,0,1,32,26.9a15,15,0,0,1,.59-2.09,14.16,14.16,0,0,0-1.55.18,17.06,17.06,0,0,0-2.45.87c-.06.21-.12.45-.19.67-.12.47-.25,1-.39,1.66s-.31,1.63-.43,2.52C28.73,30.35,30.05,30,31.56,29.68Z"/><path class="cls-19" d="M31.56,29.68A25.72,25.72,0,0,1,32,26.9a15,15,0,0,1,.59-2.09,14.16,14.16,0,0,0-1.55.18,17.06,17.06,0,0,0-2.45.87c-.06.21-.12.45-.19.67-.12.47-.25,1-.39,1.66s-.31,1.63-.43,2.52C28.73,30.35,30.05,30,31.56,29.68Z"/><path d="M26.81,30.2c.28-1.5.58-2.76.81-3.63A28.86,28.86,0,0,0,26.81,30.2Z"/><path class="cls-18" d="M26.81,30.2c.28-1.5.58-2.76.81-3.63A28.86,28.86,0,0,0,26.81,30.2Z"/><path d="M28.05,25.86l-.08.05.07,0Z"/><path class="cls-18" d="M28.05,25.86l-.08.05.07,0Z"/><path class="cls-9" d="M27.17,30.8C27.57,28,28,26,28,25.88l-.07,0L27.8,26s-.07.21-.18.57c-.23.87-.53,2.13-.81,3.63,0,.26-.09.51-.12.78Z"/><path class="cls-18" d="M27.17,30.8C27.57,28,28,26,28,25.88l-.07,0L27.8,26s-.07.21-.18.57c-.23.87-.53,2.13-.81,3.63,0,.26-.09.51-.12.78Z"/><path d="M26.87,33.3v0Z"/><path class="cls-18" d="M26.87,33.3v0Z"/><path class="cls-9" d="M26.37,33l-.06.71.53-.2c0-.05,0-.1,0-.15V33.3c0-.16,0-.31.05-.46Z"/><path class="cls-18" d="M26.37,33l-.06.71.53-.2c0-.05,0-.1,0-.15V33.3c0-.16,0-.31.05-.46Z"/><path d="M31.28,34.23v-.07h0v.08Z"/><path class="cls-19" d="M31.28,34.23v-.07h0v.08Z"/><path class="cls-7" d="M26.92,36.17l.24,0c.31,0,2.47-.66,2.47-.66h1.1l.55-1.29v-.08A15.91,15.91,0,0,0,27,35C27,35.41,26.94,35.79,26.92,36.17Z"/><path class="cls-19" d="M26.92,36.17l.24,0c.31,0,2.47-.66,2.47-.66h1.1l.55-1.29v-.08A15.91,15.91,0,0,0,27,35C27,35.41,26.94,35.79,26.92,36.17Z"/><path class="cls-9" d="M26.15,35.37c0,.22,0,.44,0,.66l.44.08.06-.94Z"/><path class="cls-18" d="M26.15,35.37c0,.22,0,.44,0,.66l.44.08.06-.94Z"/><path d="M31.69,31.46a.41.41,0,0,1,0,.11v-.11Z"/><path class="cls-18" d="M31.69,31.46a.41.41,0,0,1,0,.11v-.11Z"/><path class="cls-9" d="M31.62,32.75h.53l.18-1.44-.64.15v.11l0,.54Z"/><path class="cls-18" d="M31.62,32.75h.53l.18-1.44-.64.15v.11l0,.54Z"/><path d="M27.2,32.72c0,.23,0,.46-.07.69h0l.09-.69Z"/><path class="cls-17" d="M27.2,32.72c0,.23,0,.46-.07.69h0l.09-.69Z"/><path d="M31.34,32.75c0-.28,0-.56,0-.84,0,.27,0,.55-.05.84Z"/><path class="cls-17" d="M31.34,32.75c0-.28,0-.56,0-.84,0,.27,0,.55-.05.84Z"/><path class="cls-7" d="M31.38,31.91c0-.12,0-.25,0-.38-1.59.39-3,.79-4.16,1.19l-.09.69a15.54,15.54,0,0,1,4.19-.66C31.35,32.46,31.36,32.18,31.38,31.91Z"/><path class="cls-17" d="M31.38,31.91c0-.12,0-.25,0-.38-1.59.39-3,.79-4.16,1.19l-.09.69a15.54,15.54,0,0,1,4.19-.66C31.35,32.46,31.36,32.18,31.38,31.91Z"/><path class="cls-7" d="M24.63,33.56a17.58,17.58,0,0,0-4.52,2.32l0,1.44.43.81.14.28.59-.32,1.16-1.44.77-1.3.5-.07.82-.69C24.58,34.24,24.6,33.9,24.63,33.56Z"/><path class="cls-19" d="M24.63,33.56a17.58,17.58,0,0,0-4.52,2.32l0,1.44.43.81.14.28.59-.32,1.16-1.44.77-1.3.5-.07.82-.69C24.58,34.24,24.6,33.9,24.63,33.56Z"/><path d="M25.17,33.39c0,.31-.07.61-.11.89h0c0-.3.05-.59.09-.88Z"/><path class="cls-18" d="M25.17,33.39c0,.31-.07.61-.11.89h0c0-.3.05-.59.09-.88Z"/><path class="cls-9" d="M26.05,33.07l-.87.32c0,.29-.06.58-.09.88A8.34,8.34,0,0,1,26,33.8C26,33.56,26,33.31,26.05,33.07Z"/><path class="cls-18" d="M26.05,33.07l-.87.32c0,.29-.06.58-.09.88A8.34,8.34,0,0,1,26,33.8C26,33.56,26,33.31,26.05,33.07Z"/><path d="M25.82,36c0-.15,0-.3,0-.44l0,.43Z"/><path class="cls-18" d="M25.82,36c0-.15,0-.3,0-.44l0,.43Z"/><path class="cls-9" d="M25.13,35.84l.67.14,0-.43v-.08Z"/><path class="cls-18" d="M25.13,35.84l.67.14,0-.43v-.08Z"/><path d="M65.34,26a8.31,8.31,0,0,0-1-2.42A16.06,16.06,0,0,1,65.34,26Z"/><path class="cls-18" d="M65.34,26a8.31,8.31,0,0,0-1-2.42A16.06,16.06,0,0,1,65.34,26Z"/><path class="cls-9" d="M63.64,22.67a.53.53,0,0,0-.11-.14l-.19-.1-.88.14s1.58,1.26,2.46,5.79l1,0c-.19-.8-.36-1.51-.5-2.08L65.34,26a16.06,16.06,0,0,0-1-2.42C64,23.17,63.79,22.89,63.64,22.67Z"/><path class="cls-18" d="M63.64,22.67a.53.53,0,0,0-.11-.14l-.19-.1-.88.14s1.58,1.26,2.46,5.79l1,0c-.19-.8-.36-1.51-.5-2.08L65.34,26a16.06,16.06,0,0,0-1-2.42C64,23.17,63.79,22.89,63.64,22.67Z"/><path class="cls-9" d="M70.81,30.28c.14.6.27,1.22.39,1.85l.26,0c-.12-.6-.26-1.21-.4-1.81Z"/><path class="cls-18" d="M70.81,30.28c.14.6.27,1.22.39,1.85l.26,0c-.12-.6-.26-1.21-.4-1.81Z"/><path class="cls-9" d="M68.85,23.29l-.28-.12a49.69,49.69,0,0,1,1.85,5.58l.27.05-.5-1.91A18,18,0,0,0,68.85,23.29Z"/><path class="cls-18" d="M68.85,23.29l-.28-.12a49.69,49.69,0,0,1,1.85,5.58l.27.05-.5-1.91A18,18,0,0,0,68.85,23.29Z"/><path d="M72.54,30.79h0c0,.21.08.4.11.58C72.6,31.17,72.56,31,72.54,30.79Z"/><path class="cls-18" d="M72.54,30.79h0c0,.21.08.4.11.58C72.6,31.17,72.56,31,72.54,30.79Z"/><path d="M71.91,32.23l0,0c-.06-.31-.12-.62-.19-.93C71.81,31.64,71.86,31.94,71.91,32.23Z"/><path class="cls-18" d="M71.91,32.23l0,0c-.06-.31-.12-.62-.19-.93C71.81,31.64,71.86,31.94,71.91,32.23Z"/><path class="cls-9" d="M71.75,31.32c.07.31.13.62.19.93l.21.08.64.08c-.06-.37-.11-.7-.17-1,0-.18-.07-.37-.11-.58l-.92-.34C71.65,30.74,71.7,31,71.75,31.32Z"/><path class="cls-18" d="M71.75,31.32c.07.31.13.62.19.93l.21.08.64.08c-.06-.37-.11-.7-.17-1,0-.18-.07-.37-.11-.58l-.92-.34C71.65,30.74,71.7,31,71.75,31.32Z"/><path d="M69.44,23.76l0,.07-.12-.28A.78.78,0,0,0,69.44,23.76Z"/><path class="cls-18" d="M69.44,23.76l0,.07-.12-.28A.78.78,0,0,0,69.44,23.76Z"/><path d="M70.41,23.86a1,1,0,0,0-.22-.16,3,3,0,0,1,.42.66A3.73,3.73,0,0,0,70.41,23.86Z"/><path class="cls-18" d="M70.41,23.86a1,1,0,0,0-.22-.16,3,3,0,0,1,.42.66A3.73,3.73,0,0,0,70.41,23.86Z"/><path d="M71.07,28.85l.08,0c-.29-1.09-.6-2.1-.9-3C70.52,26.77,70.8,27.81,71.07,28.85Z"/><path class="cls-18" d="M71.07,28.85l.08,0c-.29-1.09-.6-2.1-.9-3C70.52,26.77,70.8,27.81,71.07,28.85Z"/><path class="cls-9" d="M69.37,23.31c-.06,0-.05.13,0,.24l.12.28a13.21,13.21,0,0,1,.78,2.06c.3.89.61,1.9.9,3,.32.08.64.16.93.25a36.44,36.44,0,0,0-1.47-4.77,3,3,0,0,0-.42-.66,5.12,5.12,0,0,0-.65-.34Z"/><path class="cls-18" d="M69.37,23.31c-.06,0-.05.13,0,.24l.12.28a13.21,13.21,0,0,1,.78,2.06c.3.89.61,1.9.9,3,.32.08.64.16.93.25a36.44,36.44,0,0,0-1.47-4.77,3,3,0,0,0-.42-.66,5.12,5.12,0,0,0-.65-.34Z"/><path d="M72.39,28.05l0-.1Z"/><path class="cls-17" d="M72.39,28.05l0-.1Z"/><path d="M74.61,26.36,74.23,26a15,15,0,0,0-3-2.07c-.07,0-.11,0-.14,0a14,14,0,0,1,3.63,2.63Z"/><path class="cls-17" d="M74.61,26.36,74.23,26a15,15,0,0,0-3-2.07c-.07,0-.11,0-.14,0a14,14,0,0,1,3.63,2.63Z"/><path d="M71.3,24.67c.1.25.19.52.29.78-.2-.56-.36-1-.47-1.25Z"/><path class="cls-17" d="M71.3,24.67c.1.25.19.52.29.78-.2-.56-.36-1-.47-1.25Z"/><path d="M72.7,29.32h0c-.09-.39-.19-.77-.29-1.13C72.52,28.57,72.62,28.94,72.7,29.32Z"/><path class="cls-17" d="M72.7,29.32h0c-.09-.39-.19-.77-.29-1.13C72.52,28.57,72.62,28.94,72.7,29.32Z"/><path class="cls-7" d="M71.12,24.2c.11.27.27.69.47,1.25.28.8.54,1.64.77,2.5l0,.1,0,.14c.1.36.2.74.29,1.13a14.4,14.4,0,0,1,5.13,2.77,14.47,14.47,0,0,0-.56-1.72h0a18.84,18.84,0,0,0-2.52-3.82,14,14,0,0,0-3.63-2.63C71.07,23.94,71.08,24.05,71.12,24.2Z"/><path class="cls-17" d="M71.12,24.2c.11.27.27.69.47,1.25.28.8.54,1.64.77,2.5l0,.1,0,.14c.1.36.2.74.29,1.13a14.4,14.4,0,0,1,5.13,2.77,14.47,14.47,0,0,0-.56-1.72h0a18.84,18.84,0,0,0-2.52-3.82,14,14,0,0,0-3.63-2.63C71.07,23.94,71.08,24.05,71.12,24.2Z"/><path d="M78.22,33.67h0s0,0,0,.08Z"/><path class="cls-17" d="M78.22,33.67h0s0,0,0,.08Z"/><path class="cls-7" d="M75.14,31.59l0,.25L73.27,31l-.17-.06c.11.53.2,1,.28,1.51l.5.06.51,0,.65.6.61.14s.55,4.11,2,4.39a1.07,1.07,0,0,0,.9-.68,29.23,29.23,0,0,0-.31-3.24s0,0,0-.08a16.1,16.1,0,0,0-2.15-1.58A4.28,4.28,0,0,1,75.14,31.59Z"/><path class="cls-17" d="M75.14,31.59l0,.25L73.27,31l-.17-.06c.11.53.2,1,.28,1.51l.5.06.51,0,.65.6.61.14s.55,4.11,2,4.39a1.07,1.07,0,0,0,.9-.68,29.23,29.23,0,0,0-.31-3.24s0,0,0-.08a16.1,16.1,0,0,0-2.15-1.58A4.28,4.28,0,0,1,75.14,31.59Z"/><path class="cls-20" d="M48.55,92.47l.09,0a.76.76,0,0,1-.06-.18A.89.89,0,0,0,48.55,92.47Z"/><path class="cls-20" d="M50.18,91.69h-.83a.71.71,0,0,0-.28.06l.17,0Z"/><path class="cls-20" d="M49.35,92.43c.12-.19.54-.28.54-.28H51.1c0-.25,0-.48,0-.54s-.21,0-.21.09-.26.07-.45,0H49.24l-.17,0a.81.81,0,0,0-.47.5s0,.06,0,.09a.76.76,0,0,0,.06.18A.66.66,0,0,0,49.35,92.43Z"/><path class="cls-21" d="M67.05,94.84c-.09,0-.3.14-.4.71s.12,1,.33,1,.19-.26.28-.54a3.14,3.14,0,0,0,.17-.66A.82.82,0,0,0,67.05,94.84Z"/><path class="cls-20" d="M46.07,86.84a1.21,1.21,0,0,0,1-.43c.14-.21.63-.18.93-.16A1.9,1.9,0,0,0,49.05,86c.25-.19-.54-.3-.94-.33L44,85.45a2.71,2.71,0,0,0-1.9.64c-.33.21-.28.93-.23,1.42A9.53,9.53,0,0,1,42.12,89c0,.3.37,1,.37,1l.17,0c.16,0,.11-.58.11-.82s.17-.44.38-.89a2.7,2.7,0,0,1,.75-.91c.11-.07,0,0,.32-.33S45.63,86.81,46.07,86.84Z"/></g></g></svg>