<svg xmlns="http://www.w3.org/2000/svg" xmlns:xlink="http://www.w3.org/1999/xlink" viewBox="0 0 100 100"><defs><style>.cls-1{fill:none;}.cls-2{clip-path:url(#clip-path);}.cls-3{fill:#7c3357;}.cls-4{fill:#d9d0c5;}.cls-5{fill:#f0efdb;}.cls-6{fill:#3a0036;}.cls-7{fill:#5e98a1;}.cls-8{fill:#393b60;}.cls-9{fill:#27e3d0;}.cls-10{fill:#fff;}.cls-11{fill:#f0f1f2;}.cls-12{fill:#32cfaf;}.cls-13{fill:#1b082e;}.cls-14{fill:#93278f;}.cls-15{fill:#24294a;}</style><clipPath id="clip-path"><circle class="cls-1" cx="50" cy="50" r="50"/></clipPath></defs><title>Felix</title><g id="Layer_2" data-name="Layer 2"><g id="Layer_1-2" data-name="Layer 1"><circle class="cls-3" cx="50" cy="50" r="50"/><path class="cls-1" d="M45.25,36.39l0,0h0Z"/><path class="cls-1" d="M43.22,35.31a3.43,3.43,0,0,0-.34-.06h0A1.86,1.86,0,0,1,43.22,35.31Z"/><path class="cls-1" d="M50.3,38.27l0,0-.77.72.77-.71Z"/><path class="cls-1" d="M42.8,35.25h0Z"/><path class="cls-1" d="M33.25,37.07c-1.58-.15-3.17-.27-4.76-.42-.35,0-.71-.07-1.07-.09.36,0,.72.06,1.07.09C30.08,36.81,31.67,36.92,33.25,37.07Z"/><path class="cls-1" d="M52.86,36.05l.06,0-.06,0a3.5,3.5,0,0,0-.43.33.87.87,0,0,0-.11.09l.11-.09A4.87,4.87,0,0,1,52.86,36.05Z"/><path class="cls-1" d="M40.2,37.27c0,.26-.08.52-.12.85l-.13,0,.13,0C40.12,37.79,40.17,37.53,40.2,37.27Z"/><path class="cls-1" d="M20.35,44.82c0,.3.07.6.09.91a1.93,1.93,0,0,0,0,.24,1.93,1.93,0,0,1,0-.24C20.42,45.42,20.39,45.12,20.35,44.82Z"/><path class="cls-1" d="M39.62,38.06l.1,0-.1,0-1.35-.31h0Z"/><path class="cls-1" d="M23.89,37A5.39,5.39,0,0,1,25,36.67a5.39,5.39,0,0,0-1.06.33,7.58,7.58,0,0,0-2.29,1.44,5.6,5.6,0,0,0-1.14,2.27,5.6,5.6,0,0,1,1.14-2.27A7.58,7.58,0,0,1,23.89,37Z"/><path class="cls-1" d="M89.3,48c.38-.44.73-.91,1.11-1.36C90,47.09,89.68,47.56,89.3,48Z"/><path class="cls-1" d="M66.44,35.87l-2.5.62-1.8.39,1.8-.39Z"/><path class="cls-1" d="M69.14,35.29h0l-.38.12-1,.15,1-.15Z"/><path class="cls-1" d="M93.28,44.41l-.23.17.23-.17Z"/><path class="cls-1" d="M58.56,38.12l-.25.1-.22.09.22-.09Z"/><path class="cls-1" d="M57.24,37.18c0,.47,0,.94-.07,1.54h0c0-.6,0-1.07.07-1.54V37a1.23,1.23,0,0,0,0-.19A1.83,1.83,0,0,1,57.24,37.18Z"/><path class="cls-1" d="M59.57,37.71l-.7.27,0,0h0Z"/><path class="cls-1" d="M56.78,35.82a1.24,1.24,0,0,0-.26-.19,2.71,2.71,0,0,0-.77-.28,2.71,2.71,0,0,1,.77.28A1.24,1.24,0,0,1,56.78,35.82Z"/><path class="cls-1" d="M55.49,35.32a2.22,2.22,0,0,0-.44-.06h-.22a3.75,3.75,0,0,0-.6.11,3.75,3.75,0,0,1,.6-.11A2.48,2.48,0,0,1,55.49,35.32Z"/><path class="cls-1" d="M85,43.52c0-.07,0-.14-.07-.21h0c0,.07,0,.14.07.21Z"/><path class="cls-1" d="M83.77,51a12.49,12.49,0,0,0,2-1.11,1.09,1.09,0,0,0,.17-.13,1.09,1.09,0,0,1-.17.13A12.49,12.49,0,0,1,83.77,51Z"/><path class="cls-1" d="M81,52.72h0Z"/><path class="cls-1" d="M83.65,52.19l.52-.23-.52.23-.37.16a2.15,2.15,0,0,1-.32.13,2.15,2.15,0,0,0,.32-.13Z"/><path class="cls-1" d="M88.1,49.33a9.06,9.06,0,0,1-1,.88,14.78,14.78,0,0,1-1.65,1,14.78,14.78,0,0,0,1.65-1A9.06,9.06,0,0,0,88.1,49.33Z"/><path class="cls-1" d="M87.76,48.05c-.44.44-.86.89-1.32,1.3.46-.41.88-.86,1.32-1.3a16.64,16.64,0,0,0,1.64-1.82c.11-.14.2-.3.3-.45-.1.15-.19.31-.3.45A15.67,15.67,0,0,1,87.76,48.05Z"/><path class="cls-1" d="M89.3,48c-.07.08-.13.17-.21.25-.31.34-.62.69-.94,1,.32-.34.63-.69.94-1C89.17,48.17,89.23,48.08,89.3,48Z"/><path class="cls-1" d="M86.76,28.74c-.12.49-.24,1-.32,1.47C86.52,29.71,86.64,29.23,86.76,28.74Z"/><polygon class="cls-1" points="90.77 35.09 90.7 35 90.6 34.98 90.7 35 90.77 35.09"/><path class="cls-1" d="M89.36,37.23a4.26,4.26,0,0,1-.59.74,2.39,2.39,0,0,1-.22.23A3.84,3.84,0,0,0,89.36,37.23Z"/><path class="cls-1" d="M72.91,37.24a.45.45,0,0,1-.16.14l-.26.19.26-.19A.45.45,0,0,0,72.91,37.24Z"/><path class="cls-1" d="M90.18,35.86a4,4,0,0,0,.26-.56A4,4,0,0,1,90.18,35.86Z"/><path class="cls-1" d="M74.5,68.35c.46-.5.91-1,1.34-1.53.7-.86,1.33-1.77,1.94-2.69-.61.92-1.24,1.83-1.94,2.69C75.41,67.34,75,67.85,74.5,68.35Z"/><path class="cls-1" d="M79.09,61.85l.54-1.11a1.45,1.45,0,0,0,.11-.29,1.45,1.45,0,0,1-.11.29Z"/><path class="cls-1" d="M80,59.84l.06-.19h0Z"/><path class="cls-1" d="M80.78,52.66a.31.31,0,0,0,.13.06A.31.31,0,0,1,80.78,52.66Z"/><path class="cls-1" d="M80.43,59.26h.11l-.1,0Z"/><path class="cls-1" d="M80.3,61c-.16.41-.31.82-.46,1.23a.8.8,0,0,0,0,.18.8.8,0,0,1,0-.18C80,61.78,80.14,61.37,80.3,61Z"/><path class="cls-1" d="M83.65,60.76c-.58.34-1.18.68-1.77,1,.59-.32,1.19-.66,1.77-1,.37-.23.74-.45,1.1-.69.51-.33,1-.68,1.49-1-.49.36-1,.71-1.49,1C84.39,60.31,84,60.53,83.65,60.76Z"/><path class="cls-1" d="M80.43,59.26a.31.31,0,0,0-.22.11A.31.31,0,0,1,80.43,59.26Z"/><path class="cls-1" d="M92.44,51.48c.27-.62.5-1.25.73-1.89,0,0,0-.09,0-.13s0,.09,0,.13C92.94,50.23,92.71,50.86,92.44,51.48Z"/><path class="cls-1" d="M80.6,59.3h0c.08,0,.12.26.11.45C80.72,59.56,80.68,59.34,80.6,59.3Z"/><path class="cls-1" d="M69.15,35.29l.17-.07Z"/><path class="cls-1" d="M48.74,39.24h0Z"/><path class="cls-1" d="M57.21,36.66a1.21,1.21,0,0,1,0,.19A1.21,1.21,0,0,0,57.21,36.66Z"/><path class="cls-1" d="M38.83,68.75l-.15-.1Z"/><path class="cls-1" d="M69.52,35.18l0,0a.21.21,0,0,1,.08,0S69.54,35.18,69.52,35.18Z"/><path class="cls-1" d="M39.13,68.92l-.05,0Z"/><path class="cls-1" d="M50.3,38.27c.66-.62,1.33-1.23,2-1.8C51.63,37,51,37.65,50.3,38.27Z"/><path class="cls-1" d="M55.49,35.32a2.06,2.06,0,0,1,.26,0Z"/><path class="cls-1" d="M49,39.28a.53.53,0,0,0,.16,0A.53.53,0,0,1,49,39.28Z"/><path class="cls-1" d="M53.08,35.91a2.71,2.71,0,0,1,.37-.21A2.71,2.71,0,0,0,53.08,35.91Z"/><path class="cls-1" d="M57.13,36.41a1.83,1.83,0,0,1,.08.25A1.83,1.83,0,0,0,57.13,36.41Z"/><path class="cls-1" d="M38.53,68.56l-.3-.2Z"/><path class="cls-1" d="M72.82,36.52a2,2,0,0,0,.1.42s0,0,0,0,0,0,0,0A2,2,0,0,1,72.82,36.52Z"/><path class="cls-1" d="M72.92,37a.29.29,0,0,1,0,.26A.29.29,0,0,0,72.92,37Z"/><path class="cls-1" d="M80,37.74l-.74-.7a5.24,5.24,0,0,0-1.91-1.3A5.24,5.24,0,0,1,79.22,37Z"/><path class="cls-1" d="M73.19,35.57c1,0,2-.06,3-.1a2.35,2.35,0,0,0,.42-.1l.5.27-.5-.27a1.73,1.73,0,0,1-.42.09c-1,0-2,.09-3,.11-.27,0-.39.13-.42.31C72.8,35.7,72.92,35.57,73.19,35.57Z"/><path class="cls-1" d="M35.34,66.12,35.19,66Z"/><path class="cls-1" d="M34.6,65.56l-.29-.23Z"/><path class="cls-1" d="M35.77,66.45l-.2-.15.2.15Z"/><path class="cls-1" d="M36.57,67.08l-.19-.18.08.08Z"/><path class="cls-1" d="M40.23,37a1.55,1.55,0,0,1,.14-.49A1.55,1.55,0,0,0,40.23,37Z"/><path class="cls-1" d="M20.71,47.89l0-.13Z"/><path class="cls-1" d="M21,48.88l0-.12Z"/><path class="cls-1" d="M20.61,47.43l0-.14Z"/><path class="cls-1" d="M43.94,35.56a14.54,14.54,0,0,1,1.25.78A14.54,14.54,0,0,0,43.94,35.56Z"/><path class="cls-1" d="M26.46,36.52h-.19l.83,0Z"/><path class="cls-1" d="M66.76,74.86c.72-.45,1.43-.93,2.14-1.41-.71.48-1.42,1-2.15,1.41Z"/><path class="cls-1" d="M21.17,49.33l0-.12Z"/><path class="cls-1" d="M72.11,73.24l.14-.09Z"/><path class="cls-1" d="M72.29,73.13l.11,0Z"/><path class="cls-1" d="M25.81,36.55l.28,0Z"/><path class="cls-1" d="M42,35.32l.26,0Z"/><path class="cls-1" d="M42.4,35.25h0Z"/><path class="cls-1" d="M43.42,35.34a2,2,0,0,1,.52.22A2,2,0,0,0,43.42,35.34Z"/><path class="cls-1" d="M41.2,35.62l.37-.17Z"/><path class="cls-1" d="M80.17,59.41a1,1,0,0,0-.15.24A1,1,0,0,1,80.17,59.41Z"/><path class="cls-1" d="M40.43,36.4a1.4,1.4,0,0,1,.22-.32A1.4,1.4,0,0,0,40.43,36.4Z"/><path class="cls-1" d="M27.1,36.54l.32,0Z"/><path class="cls-1" d="M41.1,35.68l.1-.06Z"/><path class="cls-1" d="M40.65,36.08l.07-.09Z"/><path class="cls-1" d="M91.92,39.16a5.85,5.85,0,0,0-.3-1.93L91.53,37l.09.26A5.85,5.85,0,0,1,91.92,39.16Z"/><path class="cls-1" d="M12.27,26.86h0Z"/><path class="cls-1" d="M12.23,27.53v0Z"/><path class="cls-1" d="M12.45,25.29c.07-.42.15-.83.25-1.23C12.6,24.46,12.52,24.87,12.45,25.29Z"/><path class="cls-1" d="M12.21,28.07h0Z"/><path class="cls-1" d="M12.31,26.32c0-.05,0-.09,0-.13S12.32,26.27,12.31,26.32Z"/><path class="cls-1" d="M12.21,28.74v0Z"/><path class="cls-1" d="M13.19,35.58v0Z"/><path class="cls-1" d="M13,35.16h0a4.07,4.07,0,0,1-.25-.82A3.8,3.8,0,0,0,13,35.16Z"/><path class="cls-1" d="M12.26,30v0Z"/><path class="cls-1" d="M26.6,70.23c-.93-.76-1.86-1.52-2.74-2.34S22,66,21.07,65.05c-.36-.39-.7-.8-1-1.22.34.42.68.83,1,1.22.9,1,1.82,1.94,2.79,2.84s1.81,1.58,2.74,2.34l.13.11.5.41h0l-.5-.41Z"/><path class="cls-1" d="M16.43,52.66h0c0,.07-.09.13-.18.18C16.34,52.79,16.42,52.73,16.43,52.66Z"/><path class="cls-1" d="M15.94,52.93h-.21Z"/><path class="cls-1" d="M11,50.28l.45.32L11,50.28a7.08,7.08,0,0,1-1-.91A7.08,7.08,0,0,0,11,50.28Z"/><path class="cls-1" d="M14.66,52.65a2.82,2.82,0,0,1-.38-.21c-.33-.2-.67-.42-1-.64.33.22.67.44,1,.64A2.82,2.82,0,0,0,14.66,52.65Z"/><path class="cls-1" d="M16.78,59a4.3,4.3,0,0,0,.63,2.88A4.3,4.3,0,0,1,16.78,59,.59.59,0,0,1,17,59l-.1,0Z"/><path class="cls-1" d="M15,37.51c-.16.18-.33.36-.49.55C14.64,37.87,14.81,37.69,15,37.51Z"/><path class="cls-1" d="M12.25,58.45c-.85-.82-1.7-1.65-2.52-2.5a3.81,3.81,0,0,1-.24-.32,3.81,3.81,0,0,0,.24.32c.82.85,1.67,1.68,2.52,2.5l.22.22a13.8,13.8,0,0,0,1.13,1,13.8,13.8,0,0,1-1.13-1Z"/><polygon class="cls-1" points="5.21 45.99 5.21 45.99 5.21 46 5.21 45.99 5.21 45.99"/><path class="cls-1" d="M7.94,47c.18.23.39.44.59.66-.2-.22-.41-.43-.59-.66a9.86,9.86,0,0,0-1-1.1A9.86,9.86,0,0,1,7.94,47Z"/><path class="cls-1" d="M5.32,44.75l-.07.1c0,.38,0,.75,0,1.12,0-.37,0-.74,0-1.12Z"/><path class="cls-1" d="M70.11,4.21A50.13,50.13,0,0,0,27.25,5.46L48.18,20.65Z"/><path class="cls-1" d="M17.93,35.09c-.24.13-.49.27-.72.42C17.44,35.36,17.69,35.22,17.93,35.09Z"/><path class="cls-1" d="M24.67,70.19l.07,0Z"/><path class="cls-1" d="M16.44,52.6s0,0,0,.06S16.44,52.62,16.44,52.6Z"/><path class="cls-1" d="M25,70.37l.21.13Z"/><path class="cls-1" d="M18.84,61.73a16.69,16.69,0,0,0-1-1.84A16.69,16.69,0,0,1,18.84,61.73Z"/><path class="cls-1" d="M42.27,78l.22,0Z"/><path class="cls-1" d="M24,70.25a.53.53,0,0,1,.25-.16A.53.53,0,0,0,24,70.25Z"/><path class="cls-1" d="M11.42,81.43l10-10.69.57-.61.15,0,.06-.08a9.3,9.3,0,0,0,.7-.83l-.07-.36c-.56-.58-1.12-1.15-1.7-1.7A8.91,8.91,0,0,1,19.37,65a4.87,4.87,0,0,0-1.65-1.84,5.88,5.88,0,0,0-.93-.39,16.78,16.78,0,0,1-2-.89,15.22,15.22,0,0,1-2.29-1.61l-.2-.19a25.12,25.12,0,0,1-3.68-4,38.28,38.28,0,0,1-2.35-3.32c-.37-.62-.71-1.26-1-1.91a13.21,13.21,0,0,1-.68-1.75,18.58,18.58,0,0,1-.76-3.46,4.44,4.44,0,0,1-.15-1.18,12.71,12.71,0,0,1,.58-2.09c.1-.3.23-.1.38.06s.42.42.63.63l.92.91c0,.05.16.06.34.11,0-.31-.07-.56-.12-.81A18,18,0,0,0,6,41.33a8.69,8.69,0,0,1-.14-3.86,21.54,21.54,0,0,1,.69-3,7.86,7.86,0,0,1,.53-1c.18-.38.48-.35.78-.29s.42.31.45.61a6.64,6.64,0,0,0,.84,2.53,6.14,6.14,0,0,1,.38-2.85,3.32,3.32,0,0,0,.19-1.76c0-.41-.11-.81-.18-1.21A2.24,2.24,0,0,0,8.67,29c-.92-.67-1-3,.07-3.81A4.47,4.47,0,0,0,10,20,49.74,49.74,0,0,0,1.19,39.13l1,15.16-1,6.6A49.79,49.79,0,0,0,11.26,81.61Z"/><path class="cls-1" d="M1.19,39.13a50.33,50.33,0,0,0,0,21.76l1-6.6Z"/><path class="cls-1" d="M19.25,17.37a3.85,3.85,0,0,1,.54,1.29c.19.27.39.53.58.79a13,13,0,0,0,3.12,3c1,.7,2.12,1.27,3.19,1.88.73.41,1.45.82,2.2,1.19a21.88,21.88,0,0,0,2.18.92c1.21.42,2.46.76,3.67,1.18a1.88,1.88,0,0,0,.31.06,5,5,0,0,0,1.59-.17c.91-.16,1.81-.42,2.72-.58l1.17-.19,2.8-.45h0c.23,0,.46,0,.69-.07,1.13-.22,2.26-.49,3.41-.66a20.34,20.34,0,0,1,2.47-.15h0q1.2,0,2.4-.06h.84c1.26,0,2.52,0,3.77.16l.5,0c1.38.18,2.73.59,4.1.87a2,2,0,0,0,.77,0c.89-.21,1.78-.45,2.66-.69a9.11,9.11,0,0,0,3-1.3c.81-.56,1.68-1,2.48-1.6a8.56,8.56,0,0,0,1-.89l.72-.86c.22-.13.44-.29.66-.43.85-.77,1.7-1.55,2.51-2.36a17,17,0,0,0,1.72-2.07c.56-.74,1-1.55,1.6-2.29a3.15,3.15,0,0,1,.35-.38,5.08,5.08,0,0,1,.57-.47A15.53,15.53,0,0,1,81.29,11,49.69,49.69,0,0,0,70.11,4.21L48.18,20.65,27.25,5.46A50,50,0,0,0,16,13.37l.22.19A17.24,17.24,0,0,1,19.25,17.37Z"/><path class="cls-1" d="M7.57,34.58c-.06.11-.13.21-.2.32.07-.11.14-.21.2-.32Z"/><path class="cls-1" d="M15.2,52.86a1.36,1.36,0,0,0,.29.06A1.36,1.36,0,0,1,15.2,52.86Z"/><path class="cls-1" d="M14.77,52.71l.29.11Z"/><path class="cls-1" d="M17.19,59.08,17.06,59Z"/><path class="cls-1" d="M12.76,44l.07,0Z"/><path class="cls-1" d="M17.06,59,17,59Z"/><path class="cls-1" d="M14.71,60.46c-.2-.12-.38-.25-.57-.38C14.33,60.21,14.51,60.34,14.71,60.46Z"/><path class="cls-1" d="M89.42,22a2.92,2.92,0,0,1,.65,2.89A5.67,5.67,0,0,1,89.82,28a9.18,9.18,0,0,0-.26,6.33c.17-.31.37-.59.6-.94a5.63,5.63,0,0,1,1.77,1.93A7.63,7.63,0,0,1,92.86,40a28.89,28.89,0,0,1-.54,3c0,.22-.1.44-.15.66l.13.13,1-.76.76-.57c0,.43,0,.75.07,1.07a11.06,11.06,0,0,1,.23,3c-.14.89-.14,1.81-.28,2.7a13.28,13.28,0,0,1-.78,2.81,10.53,10.53,0,0,1-.88,1.74c-.44.68-.79,1.43-1.29,2.07-.63.8-1.32,1.55-2,2.3a11.63,11.63,0,0,1-1.25,1.18c-.46.36-1,.67-1.45,1L85,61.28c-.44.26-.89.5-1.33.75l-.37.21c-.28.16-.56.32-.85.45-1.07.5-2.13,1-3.22,1.47-.57.23-.66.78-.94,1.19-.85,1.22-1.65,2.47-2.5,3.69-.56.8-1.16,1.57-1.78,2.39.47.62,1,1.27,1.45,1.92s.87,1,1.25,1.57a.4.4,0,0,1,0,.19l0,0v0L87.9,82.61a49.83,49.83,0,0,0,9.95-18.08l-1.19-6.12L98.29,37A49.76,49.76,0,0,0,87.92,17.41,4.53,4.53,0,0,0,89.42,22Z"/><path class="cls-1" d="M97.85,64.53A50.22,50.22,0,0,0,98.29,37L96.66,58.41Z"/><path class="cls-1" d="M12.16,51.07l1.12.73Z"/><path class="cls-1" d="M46.11,27.45c.42,0,.84,0,1.26-.05C47,27.42,46.53,27.42,46.11,27.45Z"/><path class="cls-1" d="M51.93,27Z"/><path class="cls-1" d="M56.43,27.2h0Z"/><path class="cls-1" d="M44.85,27.61l-.21,0h0Z"/><path class="cls-1" d="M48.94,27.27l-1.12.11-.45,0,.45,0Z"/><path class="cls-1" d="M62.42,27.81c-.45-.09-.9-.16-1.36-.21l-1.43-.15,1.43.15C61.52,27.65,62,27.72,62.42,27.81Z"/><path class="cls-1" d="M64,27.11l.13,0-.13,0Z"/><path class="cls-1" d="M43.37,27.74h0l-1.4.19,1.4-.19Z"/><path class="cls-1" d="M53.7,27.06l.65,0Z"/><path class="cls-1" d="M70.56,29.4a.74.74,0,0,1,.27.31A.74.74,0,0,0,70.56,29.4Z"/><path class="cls-1" d="M65.67,27.63c1.51.52,3,1,4.53,1.58a1.55,1.55,0,0,1,.36.19,1.55,1.55,0,0,0-.36-.19C68.7,28.67,67.18,28.15,65.67,27.63Z"/><path class="cls-1" d="M70.92,30.06a1.2,1.2,0,0,0-.09-.35,1.2,1.2,0,0,1,.09.35c-.6-.1-1.16-.17-1.7-.3l-.46-.14.46.14C69.76,29.89,70.32,30,70.92,30.06Z"/><path class="cls-1" d="M37,28.87l-.17,0h0Z"/><path class="cls-1" d="M15,37.51l.51-.53a9.15,9.15,0,0,1,.78-.75A17.29,17.29,0,0,0,15,37.51Z"/><path class="cls-1" d="M22.82,23.52c.75.51,1.53,1,2.32,1.44C24.35,24.5,23.57,24,22.82,23.52Z"/><path class="cls-1" d="M7.22,35.22a1,1,0,0,1,.15-.32,1,1,0,0,0-.15.32c-.19,1-.31,2-.53,3.05a5.25,5.25,0,0,0-.12,1,5.25,5.25,0,0,1,.12-1C6.91,37.26,7,36.23,7.22,35.22Z"/><path class="cls-1" d="M31.44,27.77l.28.08-.28-.08a19.52,19.52,0,0,1-4.6-1.85l-.45-.25h0l.45.25A19.52,19.52,0,0,0,31.44,27.77Z"/><path class="cls-1" d="M32.23,30.17c-.39.14-.77.29-1.16.42l-.35-.09.35.09C31.46,30.46,31.84,30.31,32.23,30.17Z"/><polygon class="cls-1" points="33.36 28.42 33.36 28.42 33.11 28.68 33.36 28.42"/><path class="cls-1" d="M21.18,22.18a11.15,11.15,0,0,0,1.64,1.34A11.15,11.15,0,0,1,21.18,22.18Z"/><path class="cls-1" d="M12.6,50.1c-.16-.09-.3-.19-.45-.29A13,13,0,0,1,8.73,46.6,10.52,10.52,0,0,1,6.88,42c-.06-.3-.12-.61-.17-.92,0,.31.11.62.17.92A10.47,10.47,0,0,0,8.73,46.6a13,13,0,0,0,3.42,3.21c.15.1.29.2.45.29,1.13.6,2.24,1.21,3.36,1.82l.2.14-.2-.14C14.84,51.31,13.73,50.7,12.6,50.1Z"/><path class="cls-4" d="M82.59,12.08,82.46,12l-.51.11Z"/><path class="cls-4" d="M86.74,22.94c0-.34-.07-.69-.13-1a1.6,1.6,0,0,1,0-.21h0a1.6,1.6,0,0,0,0,.21C86.67,22.25,86.69,22.6,86.74,22.94Z"/><path class="cls-4" d="M10.27,25.74a1.79,1.79,0,0,0-.34,2l.31.67h.55l.42,1.66a14.41,14.41,0,0,1,.14-3.65c.05-.28.11-.56.17-.85.26-2,.54-3.94.9-5.9a17,17,0,0,1,.83-2.59,1.71,1.71,0,0,1,2.46-.74l.18.14a3.43,3.43,0,0,1,1.06,0,8.23,8.23,0,0,0-1.8-2.35,49.57,49.57,0,0,0-4.24,4.69,7.36,7.36,0,0,1,.69,2.06A5.91,5.91,0,0,1,10.27,25.74Z"/><path class="cls-5" d="M70.82,93.14a7.9,7.9,0,0,0,2.64-5.57,6.65,6.65,0,0,0-.5-2.48,8.78,8.78,0,0,0-1.16-2,12,12,0,0,0-1.59-1.7L70,81.25l-.24.18c-.36.27-.71.55-1.08.8a26,26,0,0,1-4.9,2.57,17,17,0,0,1-2.47.73,3.55,3.55,0,0,1,0,.46,3.7,3.7,0,0,1-7.2,1.17h0A3.67,3.67,0,0,1,53.94,86a3.39,3.39,0,0,1,.06-.64,3.7,3.7,0,0,1,7.14-.54.53.53,0,0,1,0,.12,18.37,18.37,0,0,0,2.09-1.14,24,24,0,0,0,2.93-2.36c.35-.32.7-.62,1-1s.44-.51.66-.76c-.33-.2-.68-.39-1-.59l0-.13-.66-2-.09-.27h0l-.71.3-.23.1-.13,0-1.22.49-1.83.74a7.49,7.49,0,0,1-1.39.44h0a.47.47,0,0,1-.25,0l-.09,0-.31-.15h0l0-.14,0-.16c.32-.16.66-.3,1-.44l1.57-.63,0,0c.19-.08.38-.15.57-.24l.13-.06.56-.31c.29-.16.58-.31.86-.49l.79-.49.17-.1h0l-.17-.51-.78-2.3-.32-1-.86-2.57-.29-.87-.06-.16a1.41,1.41,0,0,0-.27.43,1.8,1.8,0,0,0-.07,1.16c0,.06,0,.11,0,.17a1.44,1.44,0,0,1-.48,1.42.68.68,0,0,1-.12.12,1.44,1.44,0,0,1-.51.32,1,1,0,0,1-1-.19,1.1,1.1,0,0,1-.35-.11A1.4,1.4,0,0,1,59.8,71l0,0-.06-.12-.13-.19h0a1.73,1.73,0,0,0-.34.19,1.89,1.89,0,0,1-.85.4.92.92,0,0,1-.59-.24.7.7,0,0,1-.33-.08,1.46,1.46,0,0,1-.41-.27c-.18-.18-.35-.38-.53-.56-.87-.9-1.73-1.8-2.57-2.72s-1.61-1.81-2.41-2.73c-.36-.41-.73-.81-1.09-1.23s-.62-.74-.94-1.1l-.41.49-.92,1.1-1,1.14-.51.61c-.58.69-1.16,1.38-1.76,2.07-.78.9-1.62,1.75-2.42,2.63-.23.25-.4.55-.64.77l-.34.09-.16,0-.11-.06a.39.39,0,0,1-.11-.06l-.09,0-.19-.1-.09,0-.44-.23c-.36-.18-.72-.35-1.06-.56-.11,0-.21.14-.39.36l0,0s0,0,0,0a2,2,0,0,1-.41.35,2.6,2.6,0,0,1-.66.29,2.41,2.41,0,0,1-1.38,0,1,1,0,0,1-.31-.21l-.15,0a.59.59,0,0,1-.13,0,1,1,0,0,1-.39-.27l-.25-.25,0,.23-.13.86-.06.44-.09.58-.08.49-.08.52-.23,1.5a10.2,10.2,0,0,0,1,.45l1.21.44.45.16c.5.16,1,.32,1.5.44s1.15.23,1.73.31l1.57.19a.91.91,0,0,1,.88.66l-.3.08-.22,0A1.65,1.65,0,0,1,42,78h0A19,19,0,0,1,39,77.81a18,18,0,0,1-2.72-.9l-.75-.29-1.27-.48-.14.9-.64,4.19.59.2H32.37a9.16,9.16,0,0,0-2.65-2.57c-.65.33-1.26.69-1.84,1.06L28,80c.48.49,1,.94,1.5,1.39a25.72,25.72,0,0,0,2.46,1.92A18.37,18.37,0,0,0,34,84.49l0-.12h0a3.67,3.67,0,0,1,2.13-2.24,3.53,3.53,0,0,1,1.37-.28,3.73,3.73,0,0,1,1.18.19,3.78,3.78,0,0,1,2.52,3.51,3.67,3.67,0,0,1-.19,1.17L40,86.36l1.08.36a3.7,3.7,0,0,1-7.2-1.17,3.55,3.55,0,0,1,0-.46,18.29,18.29,0,0,1-2.47-.72,26.68,26.68,0,0,1-4.9-2.58c-.17-.11-.32-.24-.49-.36l-.1-.07-.09.07A11.83,11.83,0,0,0,24.34,83a8.7,8.7,0,0,0-1,1.63,6.71,6.71,0,0,0-.71,2.91c0,2.32,1.27,4.49,3.49,6.35A49.71,49.71,0,0,0,50,100c.86,0,1.71,0,2.56-.06a38.07,38.07,0,0,0,13.87-3.7Zm-7.19-12c-.1.09-.21.17-.31.27H63Z"/><polygon class="cls-5" points="55.21 86.8 55.67 86.64 55.67 86.64 55.21 86.8"/><path class="cls-5" d="M36.57,67.08l-.11-.1-.08-.08-.61-.45h0c.27.22.54.42.82.63Z"/><path class="cls-5" d="M36.43,68.37a.14.14,0,0,0-.09.08.48.48,0,0,0-.05.22c0,.07,0,.16,0,.24a1.37,1.37,0,0,0,.15.74,2,2,0,0,0,.44.47,2.11,2.11,0,0,0,.49-.37,1.21,1.21,0,0,0,.19-.23.35.35,0,0,0,.07-.16l-.12-.28C37.17,68.83,36.8,68.6,36.43,68.37Z"/><path class="cls-5" d="M61.56,69.67l-.06-.28q-.39.26-.75.54a.34.34,0,0,0-.13.44.42.42,0,0,0,.08.12c.43.06.9-.21.91-.59v-.09S61.57,69.72,61.56,69.67Z"/><path class="cls-5" d="M52.86,36.05l.06,0,.16-.1a2.71,2.71,0,0,1,.37-.21l.2-.1a3.12,3.12,0,0,1,.39-.15l.19-.07a3.75,3.75,0,0,1,.6-.11h.22a2.22,2.22,0,0,1,.44.06l.26,0a2.71,2.71,0,0,1,.77.28,1.24,1.24,0,0,1,.26.19l.07.07.08.12a1.82,1.82,0,0,1,.15.23l.05.17a1.83,1.83,0,0,1,.08.25,1.21,1.21,0,0,1,0,.19,1.23,1.23,0,0,1,0,.19v.14c0,.47,0,.94-.07,1.54l.92-.41.22-.09-.37-3.53-.79-7.44-.72-.05H56.3l-1.95-.11-.65,0c-.42,0-.84,0-1.26,0l.35,7.59Zm2.67-5.18a1.61,1.61,0,1,1-1.61,1.6A1.6,1.6,0,0,1,55.53,30.87Z"/><path class="cls-5" d="M45.2,36.35l0,0c.13.09.26.18.38.28.39.28.76.58,1.12.88l.39.33c.46.4.92.8,1.37,1.21a.75.75,0,0,0,.23.15h.06a.51.51,0,0,0,.17,0,.53.53,0,0,0,.16,0l.08,0a.87.87,0,0,0,.23-.16h0l0,0,.77-.72-.09-3.7L50,27.17l-1.06.1-1.12.11-.45,0c-.42,0-.84,0-1.26.05s-.84.11-1.26.16l-.21,0h0l-1,.08,1.26,6.81Z"/><path class="cls-5" d="M38.27,37.75l1.35.31.1,0,.23,0,.13,0c0-.33.09-.59.12-.85a2.3,2.3,0,0,0,0-.26h0a1.55,1.55,0,0,1,.14-.49l.06-.12a1.4,1.4,0,0,1,.22-.32l.07-.09a2.33,2.33,0,0,1,.38-.31l.1-.06.37-.17.14-.05.24-.08.26,0h0l.18,0h.48l-.21-.75-1.78-6.41-1.11.21-.88.16L37,28.87l-.17,0h0c-.41.09-.83.2-1.24.31l1.68,5.2Zm1.33-6.59A1.61,1.61,0,1,1,38,32.76,1.61,1.61,0,0,1,39.6,31.16Z"/><path class="cls-6" d="M88.3,21.7a6.24,6.24,0,0,1,1.77,3.16A2.92,2.92,0,0,0,89.42,22a4.53,4.53,0,0,1-1.5-4.56l-.58-.66C86.86,18.33,87.14,20.84,88.3,21.7Z"/><path class="cls-6" d="M8.74,25.21c-1,.85-1,3.14-.07,3.81a2.24,2.24,0,0,1,.83,1.53c.07.4.13.8.18,1.21a3.32,3.32,0,0,1-.19,1.76,6.14,6.14,0,0,0-.38,2.85,6.64,6.64,0,0,1-.84-2.53c0-.3-.13-.55-.45-.61s-.6-.09-.78.29a7.86,7.86,0,0,0-.53,1,21.54,21.54,0,0,0-.69,3A8.69,8.69,0,0,0,6,41.33a18,18,0,0,1,.39,1.94c.05.25.08.5.12.81-.18,0-.29-.06-.34-.11l-.92-.91c-.21-.21-.43-.41-.63-.63s-.28-.36-.38-.06a12.71,12.71,0,0,0-.58,2.09,4.44,4.44,0,0,0,.15,1.18,18.58,18.58,0,0,0,.76,3.46,13.21,13.21,0,0,0,.68,1.75c.31.65.65,1.29,1,1.91a38.28,38.28,0,0,0,2.35,3.32,25.12,25.12,0,0,0,3.68,4l.2.19a15.22,15.22,0,0,0,2.29,1.61,16.78,16.78,0,0,0,2,.89,5.88,5.88,0,0,1,.93.39A4.87,4.87,0,0,1,19.37,65a8.91,8.91,0,0,0,1.73,2.22c.58.55,1.14,1.12,1.7,1.7l.07.36a9.3,9.3,0,0,1-.7.83l-.06.08-.15,0-.57.61-10,10.69-.16.18c.4.49.81,1,1.23,1.45L14,81.43l1.53-1.64,1.15-1.23,2.84-3a1.07,1.07,0,0,1-.14-.16l.88-.94,2.17-2.33,0,.08.3-.36c.13-.17.27-.33.41-.5l.08-.1.37-.46c.1-.11.2-.26.3-.38l0,0,.08-.08a.53.53,0,0,1,.25-.16h0a.36.36,0,0,1,.14,0l.08,0,.15.07.07,0,.21.14.21.13h0l.11.08c.14.09.27.19.4.29l1.17.85q.84.63,1.68,1.23h0l.6.44c.75.53,1.53,1,2.31,1.47l0,0a11.13,11.13,0,0,0,1.42.72l1.39.53,1.27.48.75.29a18,18,0,0,0,2.72.9A19,19,0,0,0,42,78h0a1.65,1.65,0,0,0,.31,0l.22,0,.3-.08a.91.91,0,0,0-.88-.66L40.34,77c-.58-.08-1.16-.18-1.73-.31s-1-.28-1.5-.44l-.45-.16-1.21-.44a10.2,10.2,0,0,1-1-.45L34,75l-.49-.26-.74-.46-1.56-1L30.84,73,30.68,73c-.58-.33-1.18-.63-1.75-1l-.31-.18c-.48-.32-.94-.68-1.39-1h0l-.5-.41-.13-.11c-.93-.76-1.86-1.52-2.74-2.34S22,66,21.07,65.05c-.36-.39-.7-.8-1-1.22-.22-.27-.43-.54-.65-.8l-.13-.29a7.36,7.36,0,0,0-.41-1,16.69,16.69,0,0,0-1-1.84c-.09-.14-.18-.29-.28-.43l0,0-.09-.14-.05,0-.1-.11-.07-.05L17.06,59,17,59a.59.59,0,0,0-.19,0,4.3,4.3,0,0,0,.63,2.88,1.06,1.06,0,0,1-.31,0l-.1,0-.19-.08c-.5-.28-1-.57-1.49-.87l-.61-.37c-.2-.12-.38-.25-.57-.38s-.28-.18-.41-.28l-.13-.1a13.8,13.8,0,0,1-1.13-1l-.22-.22c-.85-.82-1.7-1.65-2.52-2.5a3.81,3.81,0,0,1-.24-.32c-.18-.25-.34-.52-.52-.78-.29-.41-.61-.82-.92-1.23a12.21,12.21,0,0,1-.85-1.27c-.27-.48-.51-1-.74-1.49s-.43-1-.66-1.54a6.64,6.64,0,0,1-.54-2.2,10.49,10.49,0,0,1,0-1.12h0c0-.37,0-.74,0-1.12l.07-.1,0,0a2.8,2.8,0,0,1,.41.25c.39.32.77.65,1.13,1a9.86,9.86,0,0,1,1,1.1c.18.23.39.44.59.66s.62.72,1,1.07l.57.6a7.08,7.08,0,0,0,1,.91l.45.32.49.34.18.13,1.12.73c.33.22.67.44,1,.64a2.82,2.82,0,0,0,.38.21l.11.06.29.11.14,0a1.36,1.36,0,0,0,.29.06l.15,0h.42l.19-.08c.09-.05.17-.11.18-.18s0,0,0-.06a.68.68,0,0,0,0-.19,1,1,0,0,0-.12-.25l-.13-.1-.2-.14c-1.12-.61-2.23-1.22-3.36-1.82-.16-.09-.3-.19-.45-.29A13,13,0,0,1,8.73,46.6,10.47,10.47,0,0,1,6.88,42c-.06-.3-.12-.61-.17-.92a9.21,9.21,0,0,1-.14-1.89,5.25,5.25,0,0,1,.12-1c.22-1,.34-2,.53-3.05a1,1,0,0,1,.15-.32c.07-.11.14-.21.2-.32h0A9.08,9.08,0,0,0,8.2,36.3a17.11,17.11,0,0,0,1,1.43c.22.31.46.62.71.91a6.83,6.83,0,0,0,1,1,5.62,5.62,0,0,0,.5.35l.51.29c.14.07.27.14.42.2l.07,0c.23.1.43.24.25.62a4.23,4.23,0,0,0-.38,2.18.34.34,0,0,0,0,.1,4.93,4.93,0,0,0,.07.66h.19l.1,0,.1-.06.07,0a.62.62,0,0,0,.08-.12l0,0a.77.77,0,0,0,.07-.16l0,0h0l.12-.31a19.82,19.82,0,0,1,1.07-2.71c.28-.51.58-1,.91-1.5s.67-1,1-1.44a7.43,7.43,0,0,1,.87-1,20,20,0,0,1,1.66-1.39c.17-.13.33-.28.49-.41l-.07-.08L19,34.63a7.83,7.83,0,0,0-1.11.46c-.24.13-.49.27-.72.42a7.76,7.76,0,0,0-.68.49l-.27.23a9.15,9.15,0,0,0-.78.75l-.51.53h0c-.16.18-.33.36-.49.55a2.65,2.65,0,0,1-.28-.39c-.23-.43-.46-.87-.66-1.32,0-.13-.12-.26-.18-.4s-.12-.25-.17-.37v0c-.06-.13-.12-.26-.17-.39h0a3.8,3.8,0,0,1-.25-.81c0-.07,0-.14,0-.22a.25.25,0,0,0,0-.08c0-.22-.06-.44-.1-.66-.14-1-.24-1.93-.32-2.9l0-.54v-.13c0-.36,0-.72,0-1.08v-.67h0c0-.18,0-.36,0-.53v-.14c0-.18,0-.36,0-.53h0c0-.18,0-.35,0-.53s0-.09,0-.13q0-.45.12-.9c.07-.42.15-.83.25-1.23,0-.16.06-.32.1-.48l0-.12A10.51,10.51,0,0,1,13.22,22c.26-.64.55-1.28.84-1.91.14-.3.28-.59.41-.89s.25-.53.38-.8l.18-.25.81-.18.12,0a3.56,3.56,0,0,1,.79-.1,1.7,1.7,0,0,1,.39,0A2.78,2.78,0,0,1,19,19.2c.16.26.31.53.46.8s.21.37.32.55a10.69,10.69,0,0,0,1.36,1.63,11.15,11.15,0,0,0,1.64,1.34c.75.51,1.53,1,2.32,1.44l1.25.71h0l.45.25a19.52,19.52,0,0,0,4.6,1.85l.28.08.36.12,1.28.45h0l-.25.27-.55.22a2.89,2.89,0,0,0-.53.26c-.15.09-.28.19-.42.29s-.55.41-.81.63l-.08.41.35.09c.39-.13.77-.28,1.16-.42.16-.06.33-.13.5-.18h0c.79-.23,1.58-.45,2.38-.66l.4-.1c.41-.11.83-.22,1.24-.31h0l.17,0,1.94-.41.88-.16,1.11-.21.2,0c.29-.05.58-.08.87-.12l1.4-.19h0l.24,0,1-.08h0l.21,0c.42-.05.84-.12,1.26-.16s.84,0,1.26-.05l.45,0,1.12-.11,1.06-.1c.63-.07,1.26-.12,1.88-.14h.56c.42,0,.84,0,1.26,0l.65,0,1.95.11h.13l.72.05.3,0c.73.05,1.45.11,2.18.18l1.43.15c.46,0,.91.12,1.36.21s1.12.21,1.66.35c1.19.31,2.36.72,3.54,1.09l1.14.37.46.14c.54.13,1.1.2,1.7.3a1.2,1.2,0,0,0-.09-.35.74.74,0,0,0-.27-.31,1.55,1.55,0,0,0-.36-.19c-1.5-.54-3-1.06-4.53-1.58l-1-.32-.53-.16-.13,0h0a7.14,7.14,0,0,0,1-.26c.86-.34,1.71-.71,2.56-1.07a7,7,0,0,0,1.16-.5c1-.64,2-1.37,3-2l.39-.27.13-.09a17.45,17.45,0,0,0,2.65-2.43l.69-.72,2.83-3c.19-.21.4-.42.6-.62s3.23-4.43,4.55-2.48a1.14,1.14,0,0,1,.27.33c.26.55.52,1.1.79,1.65.14.29.31.57.46.85a3.6,3.6,0,0,1,.38.88c.41,1.4.79,2.83,1.06,4.27h0a1.6,1.6,0,0,0,0,.21c.06.34.08.69.13,1,.13,1.08.21,2.17.29,3.25a5.9,5.9,0,0,1,0,.73c0,.15,0,.3,0,.46s0,.38-.06.57-.12.53-.19.79c-.12.49-.24,1-.32,1.47,0,.07,0,.14,0,.21a18.19,18.19,0,0,1-.32,2,1.87,1.87,0,0,1,0,.25,7.52,7.52,0,0,1-.82,2.07,9.11,9.11,0,0,1-.68.95q-.35.42-.69.81l-.19,0h0l-.31,0a3.2,3.2,0,0,1-.27-.25,5.08,5.08,0,0,1-.5-.54c-.17-.2-.32-.4-.47-.61L82,35c-.13-.16-.25-.33-.39-.48a.76.76,0,0,0-.39-.14l-.22,0h0a3.22,3.22,0,0,0,.1.54l.08.12.09.13.06.09a12,12,0,0,1,1.38,1.66,8.79,8.79,0,0,1,.94,1.8l.06.13a14.16,14.16,0,0,1,.91,3.58,3.24,3.24,0,0,0,.27.94h0c0,.07,0,.14.07.21h.21c0-.17.11-.35.17-.52a2.27,2.27,0,0,0,.06-.25,1.31,1.31,0,0,0,.06-.38h0s0-.11,0-.17c0-.25,0-.49-.08-.74s-.13-.69-.19-1a.2.2,0,0,1,0-.07c0-.25,0-.39.32-.43a3.48,3.48,0,0,0,.87-.23,6,6,0,0,0,1.08-.61l.28-.21c.29-.21.56-.44.83-.66a2.39,2.39,0,0,0,.22-.23,4.26,4.26,0,0,0,.59-.74l0-.06.36-.59c.12-.2.23-.4.36-.59l.06-.13a4,4,0,0,0,.26-.56l.14-.33h0l.1,0,.07.09,0,0,.41,1,.31.78.09.26a5.85,5.85,0,0,1,.3,1.93,9.58,9.58,0,0,1-.22,1.92,11.39,11.39,0,0,1-.37,1.42c-.16.47-.34.93-.54,1.37a12.06,12.06,0,0,1-1.09,1.91c-.1.15-.19.31-.3.45a16.64,16.64,0,0,1-1.64,1.82c-.44.44-.86.89-1.32,1.3a4,4,0,0,1-.51.41,1.09,1.09,0,0,1-.17.13,12.49,12.49,0,0,1-2,1.11l-.12,0a9.58,9.58,0,0,1-1.48.51,4.54,4.54,0,0,0-.7.26l-.67.34-.31.34.29.16a.31.31,0,0,0,.13.06h0a6.19,6.19,0,0,0,2-.24,2.15,2.15,0,0,0,.32-.13l.37-.16.52-.23.2-.09.86-.48.24-.14a14.78,14.78,0,0,0,1.65-1,9.06,9.06,0,0,0,1-.88l.05,0c.32-.34.63-.69.94-1,.08-.08.14-.17.21-.25.38-.44.73-.91,1.11-1.36a4.15,4.15,0,0,1,.7-.69c.52-.39,1.06-.75,1.59-1.12l.35-.25.23-.17h0c0,.44,0,.76,0,1.08,0,1.09,0,2.19,0,3.29a2.62,2.62,0,0,1-.12.68s0,.09,0,.13c-.23.64-.46,1.27-.73,1.89-.07.18-.14.37-.23.55a15.48,15.48,0,0,1-1.28,2.33c-.23.33-.46.67-.7,1A12,12,0,0,1,87.71,58c-.49.35-1,.72-1.47,1.08s-1,.71-1.49,1c-.36.24-.73.46-1.1.69-.58.34-1.18.68-1.77,1s-1.34.57-2.11.9c0-.12,0-.21,0-.29a.8.8,0,0,1,0-.18c.15-.41.3-.82.46-1.23s.27-.69.39-1.05a.7.7,0,0,0,0-.16c0-.19,0-.41-.11-.45h0l-.06,0h-.11a.31.31,0,0,0-.22.11l0,0a1,1,0,0,0-.15.24h0l-.06.19c-.07.2-.14.41-.22.61a1.45,1.45,0,0,1-.11.29l-.54,1.11c-.19.37-.38.74-.58,1.1-.09.16-.17.33-.27.48s-.31.47-.46.7c-.61.92-1.24,1.83-1.94,2.69-.43.52-.88,1-1.34,1.53-.59.65-1.2,1.29-1.81,1.91-.42.43-.85.86-1.29,1.27A15.13,15.13,0,0,1,70,72.69l-.56.38-.56.38c-.71.48-1.42,1-2.14,1.41h0l-1.1.71h0l-.17.1-.79.49c-.28.18-.57.33-.86.49l-.56.31-.13.06c-.19.09-.38.16-.57.24l0,0L61,77.91c-.34.14-.68.28-1,.44l0,.16,0,.14h0l.31.15.09,0a.47.47,0,0,0,.25,0h0a7.49,7.49,0,0,0,1.39-.44l1.83-.74L65,77.21l.13,0,.23-.1.71-.3h0l1.28-.55c.36-.17.71-.36,1.06-.55l.68-.35.21-.1.19-.1a4.74,4.74,0,0,0,.7-.38l0,0,.62-.47c.43-.33.86-.67,1.3-1h0l.14-.09,0,0,.11,0h.08l0,0a.46.46,0,0,1,.13.12l.43.63c.11.18.23.36.35.53a1.34,1.34,0,0,1,.11.14h0l.29.26L75.12,76h0l.11,0-.06.07.25.23-.2.22,1.92,1.33L78.93,79l.26.18,7.39,4.88,0,0-9.48-6.32-.37-2.61,0,0a.4.4,0,0,0,0-.19c-.38-.55-.84-1-1.25-1.57s-1-1.3-1.45-1.92c.62-.82,1.22-1.59,1.78-2.39.85-1.22,1.65-2.47,2.5-3.69.28-.41.37-1,.94-1.19,1.09-.44,2.15-1,3.22-1.47.29-.13.57-.29.85-.45l.37-.21c.44-.25.89-.49,1.33-.75l1.46-.92c.49-.33,1-.64,1.45-1a11.63,11.63,0,0,0,1.25-1.18c.69-.75,1.38-1.5,2-2.3.5-.64.85-1.39,1.29-2.07a10.53,10.53,0,0,0,.88-1.74,13.28,13.28,0,0,0,.78-2.81c.14-.89.14-1.81.28-2.7a11.06,11.06,0,0,0-.23-3c0-.32,0-.64-.07-1.07l-.76.57-1,.76-.13-.13c0-.22.11-.44.15-.66a28.89,28.89,0,0,0,.54-3,7.63,7.63,0,0,0-.93-4.67,5.63,5.63,0,0,0-1.77-1.93c-.23.35-.43.63-.6.94a4.78,4.78,0,0,1-4.67,4.06l-.72-1.16a5.09,5.09,0,0,0,2.48-3.15,7.18,7.18,0,0,0,.21-3c0-.71,1.21-3.5,1-4.67-.2-1.38-1.29-8.86-2.41-11.69-.93-.94-1.89-1.83-2.89-2.69H82l.24-.34-.9-.74a15.53,15.53,0,0,0-1.68,2.09,5.08,5.08,0,0,0-.57.47,3.15,3.15,0,0,0-.35.38c-.57.74-1,1.55-1.6,2.29a17,17,0,0,1-1.72,2.07c-.81.81-1.66,1.59-2.51,2.36-.22.14-.44.3-.66.43l-.72.86a8.56,8.56,0,0,1-1,.89c-.8.57-1.67,1-2.48,1.6a9.11,9.11,0,0,1-3,1.3c-.88.24-1.77.48-2.66.69a2,2,0,0,1-.77,0c-1.37-.28-2.72-.69-4.1-.87l-.5,0c-1.25-.12-2.51-.14-3.77-.16h-.84q-1.2,0-2.4.06h0a20.34,20.34,0,0,0-2.47.15c-1.15.17-2.28.44-3.41.66-.23,0-.46,0-.69.07h0l-2.8.45L39.35,27c-.91.16-1.81.42-2.72.58a5,5,0,0,1-1.59.17,1.88,1.88,0,0,1-.31-.06c-1.21-.42-2.46-.76-3.67-1.18a21.88,21.88,0,0,1-2.18-.92c-.75-.37-1.47-.78-2.2-1.19-1.07-.61-2.17-1.18-3.19-1.88a13,13,0,0,1-3.12-3c-.19-.26-.39-.52-.58-.79a3.85,3.85,0,0,0-.54-1.29,17.24,17.24,0,0,0-3.06-3.81L16,13.37l-.82.77A8.23,8.23,0,0,1,17,16.49a3.43,3.43,0,0,0-1.06,0l-.18-.14a1.71,1.71,0,0,0-2.46.74,17,17,0,0,0-.83,2.59c-.36,2-.64,3.93-.9,5.9-.06.29-.12.57-.17.85a14.41,14.41,0,0,0-.14,3.65,38.38,38.38,0,0,0,.59,3.8,11.17,11.17,0,0,0,2.44,4.46,2.64,2.64,0,0,0-1.11,1.73c-3.72-1.65-4-4.71-2.89-6.53s0-5.1,0-5.12l-.31-.67a1.79,1.79,0,0,1,.34-2,5.91,5.91,0,0,0,1.33-4.85,7.36,7.36,0,0,0-.69-2.06c-.31.38-.61.76-.9,1.15A4.47,4.47,0,0,1,8.74,25.21Z"/><path class="cls-6" d="M60.2,78.8l.09,0Z"/><path class="cls-6" d="M54.35,27.08l1.95.11Z"/><path class="cls-6" d="M44.85,27.61c.42-.05.84-.12,1.26-.16C45.69,27.49,45.27,27.56,44.85,27.61Z"/><path class="cls-6" d="M37,28.87l1.94-.41Z"/><path class="cls-6" d="M23.44,53.55c.52.74,1.09,1.46,1.65,2.17s1.31,1.69,2,2.5c1,1.19,2,2.43,3.12,3.52,1.3,1.27,2.7,2.43,4.1,3.59l.29.23.59.45.15.11.14.11h0l.09.07.2.15.61.45.19.18h0c.55.43,1.09.87,1.65,1.28l.3.2.15.09.15.1.25.14.05,0,.3.16h0l.08,0a1.75,1.75,0,0,0,1.47.17c.08-.06.16-.14.24-.21a.76.76,0,0,0,.11-.14l7.67-8s0-.19.35,0l9,8.52a.48.48,0,0,0,.35.2,3,3,0,0,0,.38-.23c1.23-.83,2.44-1.71,3.59-2.63a38.19,38.19,0,0,0,2.94-2.6c.92-.91,1.72-1.95,2.59-2.92.64-.72,1.32-1.39,1.94-2.12s1.4-1.74,2-2.64c1-1.3,1.89-2.62,2.77-4,.72-1.1,1.36-2.25,2-3.39s1.47-2.53,2.22-3.79a8,8,0,0,1,.62-.82h0l1.41-2.68A2.82,2.82,0,0,0,81,38.74h0c-.32-.35-.65-.68-1-1l-.74-.7a5.24,5.24,0,0,0-1.91-1.3l-.22-.1-.5-.27a2.35,2.35,0,0,1-.42.1c-1,0-2,.08-3,.1-.27,0-.39.13-.42.31a1.27,1.27,0,0,0,0,.2c0,.15,0,.29.06.44a2,2,0,0,0,.1.42s0,0,0,0a.29.29,0,0,1,0,.26.45.45,0,0,1-.16.14l-.26.19-.07,0L72,38l-.53,1.66,0,0a10.47,10.47,0,0,1,.78-1,15.38,15.38,0,0,1,1.32-1.1.51.51,0,0,0,.24-.65c-.15-.5,0-.65.47-.71a5,5,0,0,1,3.6,1c.4.28.81.53,1.21.81a2,2,0,0,1,.81,2.5c-.43,1.27-.83,2.54-1.34,3.78a17.62,17.62,0,0,1-1.24,2.3c-.55.93-1.12,1.85-1.7,2.77-.93,1.45-1.83,2.92-2.81,4.34S70.77,56.58,69.72,58c-.14.2-.45.27-.61.46-1.25,1.49-2.46,3-3.74,4.48-.71.82-1.52,1.56-2.28,2.33l-.68.7c-.32.34-.65.68-1,1-.67.61-1.4,1.17-2.09,1.75-.35.3-.63.13-.89-.1-.71-.64-1.43-1.28-2.12-1.93S54.78,65.14,54,64.4s-1.61-1.43-2.4-2.16-1.38-1.35-2.06-2c-.23-.23-.45-.29-.7,0-1.07,1.15-2.14,2.3-3.23,3.44S43.17,66.15,42,67.41c-.42.44-.83.88-1.23,1.34-.18.2-.31.23-.53,0-1-.82-1.94-1.61-2.91-2.41l-1.34-1.1-.6-.49c-.85-.69-1.71-1.36-2.54-2.07s-1.65-1.47-2.48-2.2a19.81,19.81,0,0,1-1.88-1.65A36.85,36.85,0,0,1,26,55.78c-.63-.87-1.16-1.8-1.7-2.72s-1.05-1.94-1.58-2.91a10.94,10.94,0,0,1-1.23-4.22c-.1-1-.27-2.09-.27-3.13a4.24,4.24,0,0,1,.44-1.68c.24-.57.64-1.07.92-1.63a2.53,2.53,0,0,1,1.34-1.05,13.36,13.36,0,0,1,1.39-.75,5.42,5.42,0,0,1,1.64-.32c1.62,0,3.25,0,4.87.1a31.51,31.51,0,0,1,3.75.36c1,.18,2,.49,3,.76l.41.12,2.24.58.67.22.12-.12a5.76,5.76,0,0,1-.41-1,11.82,11.82,0,0,1-.19-1.77c0-.37.76-.53,1.14-.5a2,2,0,0,1,.62.15,6.89,6.89,0,0,1,1.45.93c.31.22.59.47.88.71a21.17,21.17,0,0,1,1.88,1.79,11.85,11.85,0,0,0,1.42,1.22c.38.3.52.22.74-.18a5.34,5.34,0,0,1,.7-.94l.07-.08a17.41,17.41,0,0,1,2-2.07,5.16,5.16,0,0,1,.67-.44,17.55,17.55,0,0,1,1.6-.85c.77-.36,1.57.63,1.63,1.24a3.09,3.09,0,0,1-.52,1.64c-.16.36-.37.7-.51,1.07,0,.14,0,.33.07.49.2,0,.49,0,.57-.14a3.42,3.42,0,0,1,1.46-1c.39-.2.79-.39,1.19-.57L60,38.24l.3-.11c1.32-.4,2.65-.77,3.95-1.2a17.34,17.34,0,0,1,3.89-.79,4.41,4.41,0,0,0,.8-.18c.38-.11.58.1.73.39.4.78.79,1.58,1.21,2.36,0,.08.1.17.15.25h0l-1-3.36h0a.92.92,0,0,0-.2-.28l-.07,0a.36.36,0,0,0-.18-.07.21.21,0,0,0-.08,0l-.16,0-.17.07h0l-.38.12-1,.15-.36.07-1,.24-2.5.62-1.8.39c-.24,0-.47.1-.71.17-.63.19-1.24.42-1.86.66l-.7.28h0l-.28.12-.25.1-.22.09-.92.41h0c0-.6,0-1.07.07-1.54a1.83,1.83,0,0,0,0-.33,1.21,1.21,0,0,0,0-.19,1.83,1.83,0,0,0-.08-.25l-.05-.17a1.82,1.82,0,0,0-.15-.23l-.08-.12-.07-.07a1.24,1.24,0,0,0-.26-.19,2.71,2.71,0,0,0-.77-.28,2.06,2.06,0,0,0-.26,0,2.48,2.48,0,0,0-.66,0,3.75,3.75,0,0,0-.6.11l-.19.07a3.12,3.12,0,0,0-.39.15l-.2.1a2.71,2.71,0,0,0-.37.21l-.16.1-.06,0a4.87,4.87,0,0,0-.43.33l-.11.09c-.69.57-1.36,1.18-2,1.8l0,0-.77.71,0,0h0a.87.87,0,0,1-.23.16l-.08,0a.53.53,0,0,1-.16,0,.51.51,0,0,1-.17,0h-.06a.75.75,0,0,1-.23-.15c-.45-.41-.91-.81-1.37-1.21l-.39-.33c-.36-.3-.73-.6-1.12-.88-.12-.1-.25-.19-.38-.28l0,0h0a14.54,14.54,0,0,0-1.25-.78,2,2,0,0,0-.52-.22l-.2,0a1.86,1.86,0,0,0-.34-.05H42.4l-.18,0h0l-.26,0-.24.08-.14.05-.37.17-.1.06a2.33,2.33,0,0,0-.38.31l-.07.09a1.4,1.4,0,0,0-.22.32l-.06.12a1.55,1.55,0,0,0-.14.49h0a2.3,2.3,0,0,1,0,.26c0,.26-.08.52-.12.85l-.13,0-.23,0-.1,0-1.35-.31h0c-.47-.11-.94-.21-1.42-.28s-.8-.1-1.2-.15l-2.4-.25c-1.58-.15-3.17-.26-4.76-.42-.35,0-.71-.07-1.07-.09l-.32,0-.83,0h-.18l-.28,0a4.55,4.55,0,0,0-.73.09l-.13,0a5.39,5.39,0,0,0-1.06.33,7.58,7.58,0,0,0-2.29,1.44,5.6,5.6,0,0,0-1.14,2.27l-.06.17a4.38,4.38,0,0,0-.21,1,10.93,10.93,0,0,0,.16,2.91c0,.3.07.6.09.91a1.93,1.93,0,0,0,0,.24c0,.28,0,.56.05.83,0,0,0,0,0,0s0,.3.07.45l0,.14c0,.11.05.22.07.33l0,.13c.08.29.16.59.26.87l0,.12.12.33,0,.12c.12.29.24.59.37.88l.22.45c.2.41.41.8.63,1.19s.5.83.75,1.24h0C23.24,53.24,23.33,53.4,23.44,53.55Z"/><polygon class="cls-6" points="36.58 67.08 36.57 67.08 36.58 67.08 36.58 67.08"/><path class="cls-6" d="M56.85,35.89l.08.12Z"/><path class="cls-6" d="M54,35.45l.19-.07Z"/><path class="cls-6" d="M56.78,35.82l.07.07Z"/><path class="cls-6" d="M57.08,36.24l.05.17Z"/><path class="cls-6" d="M53.65,35.6a3.12,3.12,0,0,1,.39-.15A3.12,3.12,0,0,0,53.65,35.6Z"/><path class="cls-6" d="M49.21,39.22a.87.87,0,0,0,.23-.16A.87.87,0,0,1,49.21,39.22Z"/><path class="cls-6" d="M45.63,36.67c.39.28.76.58,1.12.88C46.39,37.25,46,37,45.63,36.67Z"/><path class="cls-6" d="M42.49,35.25h0Z"/><path class="cls-6" d="M41.71,35.4l.24-.08Z"/><path class="cls-6" d="M42.22,35.27l.18,0Z"/><path class="cls-6" d="M39.72,38.08l.23,0Z"/><path class="cls-7" d="M66.43,96.24a38.07,38.07,0,0,1-13.87,3.7,50.17,50.17,0,0,0,14.92-3.08l-1-.62Z"/><path class="cls-7" d="M73,78.73a36.45,36.45,0,0,1-3,2.52l.22.18a12,12,0,0,1,1.59,1.7,8.78,8.78,0,0,1,1.16,2,6.65,6.65,0,0,1,.5,2.48,7.9,7.9,0,0,1-2.64,5.57l5.57-3.93L78.88,79l.31.21L78.93,79l-1.78-1.24-1.92-1.33C74.52,77.25,73.79,78,73,78.73Z"/><path class="cls-7" d="M22.6,87.57a6.71,6.71,0,0,1,.71-2.91,8.7,8.7,0,0,1,1-1.63,11.83,11.83,0,0,1,1.51-1.6l.09-.07a36.76,36.76,0,0,1-3.76-3.07c-.93-.89-1.81-1.79-2.66-2.78l-2.84,3-1.15,1.23L14,81.43l-1.51,1.63a50.3,50.3,0,0,0,13.6,10.86C23.87,92.06,22.6,89.89,22.6,87.57Z"/><path class="cls-7" d="M66.8,79l0,.13c.36.2.71.39,1,.59.44-.49.87-1,1.27-1.5s.88-1.13,1.29-1.72l.09-.15c.25-.37.5-.75.74-1.14s.47-.77.69-1.15c.12-.21.24-.42.35-.63l.54.49.7.63a1.34,1.34,0,0,0-.11-.14c-.12-.17-.24-.35-.35-.53l-.43-.63a.46.46,0,0,0-.13-.12l0,0H72.4l-.11,0,0,0-.14.09h0c-.44.32-.87.66-1.3,1l-.62.47,0,0a4.74,4.74,0,0,1-.7.38l-.19.1-.21.1-.68.35c-.35.19-.7.38-1.06.55l-1.28.55.09.27Z"/><path class="cls-7" d="M72.48,73.11l0,0Z"/><path class="cls-7" d="M72.25,73.15l0,0Z"/><path class="cls-7" d="M58.31,38.22l.25-.1.28-.12,0,0,.7-.27c.62-.24,1.23-.47,1.86-.66.24-.07.47-.12.71-.17l1.8-.39,2.5-.62,1-.24.36-.07,1-.15.38-.12h0l.17-.07.16,0,0,0s0,0,0,0a.36.36,0,0,1,.18.07l.07,0a.92.92,0,0,1,.2.28h0L71,39h0v.71l.33.31.11-.35L72,38l.43-.35.07,0,.26-.19a.45.45,0,0,0,.16-.14.29.29,0,0,0,0-.26s0,0,0,0a2,2,0,0,1-.1-.42c0-.15,0-.29-.06-.44a1.27,1.27,0,0,1,0-.2c0-.18.15-.31.42-.31,1,0,2-.06,3-.11a1.73,1.73,0,0,0,.42-.09l.5.27.22.1A5.24,5.24,0,0,1,79.22,37l.74.7c.34.32.67.65,1,1h0a2.82,2.82,0,0,1,.32,3.13l-1.41,2.68.12.07c0,.25,0,.5,0,.75.14-.2.3-.39.45-.59l0,0,.1.06a5.89,5.89,0,0,1-.45,2.77,3.93,3.93,0,0,1-.42.7c-.65.8-1.21,1.68-1.8,2.52l-3.53,5c-.12.17-.26.33-.37.51a.37.37,0,0,0,.06.55,1.66,1.66,0,0,0,.16.21,3.42,3.42,0,0,1,.62,1.05,1.29,1.29,0,0,1-.33.92,2.31,2.31,0,0,1-.32.3,4.13,4.13,0,0,1-.59.41h0a.74.74,0,0,1-.94-.14h-.15a1,1,0,0,1-.52-.33l-.07.08c-.29.37-.58.74-.89,1.09s-.13.74,0,1.07a1.4,1.4,0,0,1,.09.17,1.91,1.91,0,0,1-.37,2,1.41,1.41,0,0,1-.51.35H70.2a.84.84,0,0,1-.86-.21.67.67,0,0,1-.28-.06,1.76,1.76,0,0,1-.6-.46l-.78.76a3.94,3.94,0,0,1-.56.59c-.26.19-.23.3-.07.55a3,3,0,0,1,.25.47,6.81,6.81,0,0,1,.31.74A1.77,1.77,0,0,1,67.14,68a1.47,1.47,0,0,1-.28.28.71.71,0,0,1-.4.11,1.05,1.05,0,0,1-.69-.25,1.12,1.12,0,0,1-.67-.33,1.47,1.47,0,0,1-.21-.22l-.27-.43-.05-.08a8.06,8.06,0,0,1-.93.73,2.32,2.32,0,0,0-.47.39l.06.16.29.87.86,2.57.32,1,.78,2.3.17.51,1.1-.71c.73-.45,1.44-.93,2.15-1.41l.56-.38.56-.38a15.13,15.13,0,0,0,1.38-1.16c.44-.41.87-.84,1.29-1.27.61-.62,1.22-1.26,1.81-1.91.46-.5.91-1,1.34-1.53.7-.86,1.33-1.77,1.94-2.69.15-.23.31-.46.46-.7s.18-.32.27-.48c.2-.36.39-.73.58-1.1l.54-1.11a1.45,1.45,0,0,0,.11-.29c.08-.2.15-.41.22-.61l.06-.19h0a1,1,0,0,1,.15-.24l0,0a.31.31,0,0,1,.22-.11h0l.1,0,.06,0h0c.08,0,.12.26.11.45a.7.7,0,0,1,0,.16c-.12.36-.26.7-.39,1.05s-.31.82-.46,1.23a.8.8,0,0,0,0,.18c0,.08,0,.17,0,.29.77-.33,1.47-.56,2.11-.9s1.19-.66,1.77-1c.37-.23.74-.45,1.1-.69.51-.33,1-.68,1.49-1s1-.73,1.47-1.08a12,12,0,0,0,2.52-2.6c.24-.32.47-.66.7-1A15.48,15.48,0,0,0,92.21,52c.09-.18.16-.37.23-.55.27-.62.5-1.25.73-1.89,0,0,0-.09,0-.13a2.62,2.62,0,0,0,.12-.68c0-1.1,0-2.2,0-3.29,0-.32,0-.64,0-1.08l-.23.17-.35.25c-.53.37-1.07.73-1.59,1.12a4.15,4.15,0,0,0-.7.69c-.38.45-.73.92-1.11,1.36-.07.08-.13.17-.21.25-.31.34-.62.69-.94,1l-.05,0a9.06,9.06,0,0,1-1,.88,14.78,14.78,0,0,1-1.65,1l-.24.14-.86.48-.2.09-.52.23-.37.16a2.15,2.15,0,0,1-.32.13,6.19,6.19,0,0,1-2,.24h0a.31.31,0,0,1-.13-.06l-.29-.16.31-.34.67-.34a4.54,4.54,0,0,1,.7-.26,9.58,9.58,0,0,0,1.48-.51l.12,0a12.49,12.49,0,0,0,2-1.11,1.09,1.09,0,0,0,.17-.13,4,4,0,0,0,.51-.41c.46-.41.88-.86,1.32-1.3a15.67,15.67,0,0,0,1.64-1.82c.11-.14.2-.3.3-.45a12.06,12.06,0,0,0,1.09-1.91c.2-.44.38-.9.54-1.37a11.39,11.39,0,0,0,.37-1.42c.06-.28.1-.57.14-.87a7.42,7.42,0,0,0,.08-1.05,5.85,5.85,0,0,0-.3-1.93L91.53,37l-.31-.78-.41-1,0,0L90.7,35l-.1,0h0l-.14.33a4,4,0,0,1-.26.56l-.06.13c-.13.19-.24.39-.36.59l-.36.59,0,.06a3.84,3.84,0,0,1-.81,1c-.27.22-.54.45-.83.66l-.28.21a6,6,0,0,1-1.08.61,3.48,3.48,0,0,1-.87.23c-.32,0-.36.18-.32.43a.2.2,0,0,0,0,.07c.06.35.13.69.19,1s.06.49.08.74c0,.06,0,.12,0,.17h0a1.31,1.31,0,0,1-.06.38,2.27,2.27,0,0,1-.06.25c-.06.17-.12.35-.17.52H85c0-.07,0-.14-.07-.21a3.24,3.24,0,0,1-.27-.94,14.16,14.16,0,0,0-.91-3.58l-.06-.13a8.79,8.79,0,0,0-.94-1.8,12,12,0,0,0-1.38-1.66l-.06-.09L81.18,35l-.08-.12a3.22,3.22,0,0,1-.1-.54h0l.22,0a.76.76,0,0,1,.39.14c.14.15.26.32.39.48l.1.12c.15.21.3.41.47.61a5.08,5.08,0,0,0,.5.54,3.2,3.2,0,0,0,.27.25l.31,0h0l.19,0q.34-.39.69-.81a9.11,9.11,0,0,0,.68-.95A7.52,7.52,0,0,0,86,32.63a1.87,1.87,0,0,0,0-.25,18.19,18.19,0,0,0,.32-2c0-.07,0-.14,0-.21.08-.5.2-1,.32-1.47.07-.26.14-.52.19-.79s0-.38.06-.57,0-.31,0-.46a5.9,5.9,0,0,0,0-.73c-.08-1.08-.16-2.17-.29-3.25,0-.34-.07-.69-.13-1a1.6,1.6,0,0,1,0-.21c-.12-.63-.26-1.25-.42-1.88a2.61,2.61,0,0,0-.06-.27c-.18-.71-.37-1.42-.58-2.12a3.6,3.6,0,0,0-.38-.88c-.15-.28-.32-.56-.46-.85-.27-.55-.53-1.1-.79-1.65a1.14,1.14,0,0,0-.27-.33l-.48,2L79,16.2h0c-.2.2-.41.41-.6.62l-2.83,3-.69.72a17.45,17.45,0,0,1-2.65,2.43l-.13.09-.39.27c-1,.62-2,1.35-3,2a7,7,0,0,1-1.16.5c-.85.36-1.7.73-2.56,1.07a7.14,7.14,0,0,1-1,.26l.13,0,.53.16,1,.32c1.51.52,3,1,4.53,1.58a1.55,1.55,0,0,1,.36.19.74.74,0,0,1,.27.31,1.2,1.2,0,0,1,.09.35c-.6-.1-1.16-.17-1.7-.3l-.46-.14-1.14-.37c-1.18-.37-2.35-.78-3.54-1.09-.54-.14-1.1-.25-1.66-.35s-.9-.16-1.36-.21l-1.43-.15c-.73-.07-1.45-.13-2.18-.18l-.3,0,.79,7.44Z"/><path class="cls-7" d="M82.71,36.86a8.79,8.79,0,0,1,.94,1.8A8.79,8.79,0,0,0,82.71,36.86Z"/><path class="cls-7" d="M57.45,27.27c.73.05,1.45.11,2.18.18C58.9,27.38,58.18,27.32,57.45,27.27Z"/><path class="cls-7" d="M65.67,27.63l-1-.32Z"/><path class="cls-7" d="M79.09,61.85c-.19.37-.38.74-.58,1.1C78.71,62.59,78.9,62.22,79.09,61.85Z"/><path class="cls-7" d="M86.44,49.35a4,4,0,0,1-.51.41A4,4,0,0,0,86.44,49.35Z"/><path class="cls-7" d="M64.69,27.31l-.53-.16Z"/><path class="cls-7" d="M91.22,36.19l.31.78Z"/><path class="cls-7" d="M85.34,43a2.27,2.27,0,0,0,.06-.25A2.27,2.27,0,0,1,85.34,43Z"/><path class="cls-7" d="M80.91,52.72Z"/><path class="cls-7" d="M92.7,44.83l.35-.25Z"/><path class="cls-7" d="M69.46,73.07l-.56.38Z"/><path class="cls-7" d="M87.44,39.07l.28-.21Z"/><path class="cls-7" d="M80.6,59.3l-.06,0Z"/><path class="cls-7" d="M86.14,19.82c.16.63.3,1.25.42,1.88-.27-1.44-.65-2.87-1.06-4.27.21.7.4,1.41.58,2.12A2.61,2.61,0,0,1,86.14,19.82Z"/><path class="cls-7" d="M91.7,41.08a9.58,9.58,0,0,0,.22-1.92,7.42,7.42,0,0,1-.08,1.05C91.8,40.51,91.76,40.8,91.7,41.08Z"/><path class="cls-7" d="M69.32,35.22l.16,0Z"/><path class="cls-7" d="M81,38.74c-.32-.35-.65-.68-1-1C80.3,38.06,80.63,38.39,81,38.74Z"/><path class="cls-7" d="M58.56,38.12l.28-.12Z"/><path class="cls-7" d="M77.09,35.64l.22.1Z"/><path class="cls-7" d="M69.56,35.2a.36.36,0,0,1,.18.07A.36.36,0,0,0,69.56,35.2Z"/><path class="cls-7" d="M69.74,35.27l.07,0Z"/><path class="cls-7" d="M35.57,66.3l-.09-.07.28.22h0Z"/><path class="cls-7" d="M35.48,66.23h0l.09.07Z"/><path class="cls-7" d="M42.88,35.25a3.43,3.43,0,0,1,.34.06l.2,0a2,2,0,0,1,.52.22,14.54,14.54,0,0,1,1.25.78h0l-.33-1.82-1.26-6.81-.24,0h0l-1.4.19c-.29,0-.58.07-.87.12l-.2,0,1.78,6.41Z"/><path class="cls-7" d="M43.22,35.31l.2,0Z"/><path class="cls-7" d="M50.26,38.3l0,0c.66-.62,1.33-1.23,2-1.8a.87.87,0,0,1,.11-.09,3.5,3.5,0,0,1,.43-.33l-.07-1.42L52.44,27h-.56c-.62,0-1.25.07-1.88.14l.17,7.43Z"/><path class="cls-7" d="M34.74,73.16l.08-.49.09-.58.06-.44.13-.86,0-.23,0,0a3.59,3.59,0,0,1-.32-.36l-.11-.12a1,1,0,0,1-.25-1.22h0a4.45,4.45,0,0,1,.4-.82,1.4,1.4,0,0,0,.09-.17c.11-.25,0-.44-.23-.63s-.43-.34-.65-.51h-.16a1.14,1.14,0,0,0-.19.19c-.08.09-.15.19-.22.28a1.3,1.3,0,0,1-.89.53,1.5,1.5,0,0,1-.69,0,1.78,1.78,0,0,1-.46-.22l-.13,0-.11,0a1.4,1.4,0,0,1-.75-.58,1.7,1.7,0,0,1-.2-.45,2.24,2.24,0,0,1,0-1.26,2.7,2.7,0,0,1,.42-.78,1.3,1.3,0,0,1,.1-.15l0-.33c-.32-.33-.66-.66-1-1a4.41,4.41,0,0,1-.3.39,1.22,1.22,0,0,1-.74.39,1.43,1.43,0,0,1-.23,0,2.55,2.55,0,0,1-1.4-.29h0a1.39,1.39,0,0,1-.8-.42h0L27,63l-.5-.39s-.11-.09-.15-.14a1,1,0,0,1-.19-.5,2.23,2.23,0,0,1,.21-1.18,2.89,2.89,0,0,1,.41-.66l0,0a.4.4,0,0,0,0-.59,17.34,17.34,0,0,1-1.12-1.44l-.17.1-.15.09a5,5,0,0,1-.7.34l-.19.08a1.65,1.65,0,0,1-1.32-.22,1.86,1.86,0,0,1-.55-.22,1.89,1.89,0,0,1-.57-.52,1.82,1.82,0,0,1-.35-.76c-.09-.47.25-1,.39-1.52l.05-.07.06-.08a1.85,1.85,0,0,0,.42-.7c0-.2-.07-.4-.35-.81-.42-.64-.87-1.28-1.3-1.93-.25-.39-.51-.77-.74-1.18a20.8,20.8,0,0,1-1.46-3.31.07.07,0,0,1,0-.05,7.28,7.28,0,0,1-.1-1.88l.1-.16,0-.1.24.17.2.45v-.12l.15-.25.23.16a11.78,11.78,0,0,1,.54,1.21c.34.91.61,1.84,1,2.73a15.18,15.18,0,0,0,1.06,2c.32.54.67,1.07,1,1.59-.25-.41-.51-.82-.75-1.24s-.43-.78-.63-1.19l-.22-.45c-.07-.15-.14-.31-.2-.46l-.17-.42,0-.12L21,48.88l0-.12c-.1-.28-.18-.58-.26-.87l0-.13c0-.11-.05-.22-.07-.33l0-.14c0-.15,0-.3-.07-.45s0,0,0,0c0-.27,0-.55-.05-.83a1.93,1.93,0,0,1,0-.24c0-.31-.05-.61-.09-.91a10.93,10.93,0,0,1-.16-2.91,4.38,4.38,0,0,1,.21-1l.06-.17a5.6,5.6,0,0,1,1.14-2.27A7.58,7.58,0,0,1,23.89,37,5.39,5.39,0,0,1,25,36.67l.13,0a4.55,4.55,0,0,1,.73-.09l.28,0h.37l.64,0,.32,0c.36,0,.72.06,1.07.09,1.59.15,3.18.27,4.76.42l2.4.25c.4,0,.8.09,1.2.15s.95.17,1.42.28h0l-1.06-3.32-1.68-5.2-.4.1c-.8.21-1.59.43-2.38.66h0c-.17.05-.34.12-.5.18-.39.14-.77.29-1.16.42l-.35-.09.08-.41q.39-.33.81-.63c.14-.1.27-.2.42-.29a2.89,2.89,0,0,1,.53-.26l.55-.22.25-.27L32.08,28l-.36-.12-.28-.08a19.52,19.52,0,0,1-4.6-1.85l-.45-.25L25.14,25c-.79-.46-1.57-.93-2.32-1.44a11.15,11.15,0,0,1-1.64-1.34,10.69,10.69,0,0,1-1.36-1.63c-.11-.18-.22-.36-.32-.55s-.3-.54-.46-.8a2.78,2.78,0,0,0-1.9-1.38,1.7,1.7,0,0,0-.39,0,3.56,3.56,0,0,0-.79.1l-.12,0-.81.18-.18.25c-.13.27-.25.54-.38.8s-.27.59-.41.89c-.29.63-.58,1.27-.84,1.91a10.51,10.51,0,0,0-.39,1.49l0,.12c0,.16-.06.32-.1.48-.1.4-.18.81-.25,1.23,0,.12,0,.24,0,.36s-.05.36-.07.54,0,.08,0,.13,0,.35,0,.53h0c0,.17,0,.35,0,.53v.14c0,.17,0,.35,0,.53h0v.67c0,.36,0,.72,0,1.08V30l0,.54c.08,1,.18,1.94.32,2.9,0,.22.06.44.1.66a.25.25,0,0,1,0,.08c0,.08,0,.15,0,.22a4.07,4.07,0,0,0,.25.82c.05.13.11.26.17.39v0c.05.12.11.25.17.37s.13.27.18.4c.2.45.43.89.66,1.32a2.65,2.65,0,0,0,.28.39c.16-.19.33-.37.49-.55h0a17.29,17.29,0,0,1,1.29-1.28l.27-.23a6.51,6.51,0,0,1,.68-.49c.23-.15.48-.29.72-.42A7.83,7.83,0,0,1,19,34.63l.05.07.07.08c-.16.13-.32.28-.49.41A20,20,0,0,0,17,36.58a7.43,7.43,0,0,0-.87,1c-.34.47-.68.95-1,1.44s-.63,1-.91,1.5a19.82,19.82,0,0,0-1.07,2.71l-.12.31h0l0,0a.77.77,0,0,1-.07.16l0,0a.62.62,0,0,1-.08.12l-.07,0a.33.33,0,0,1-.1.06l-.1,0h-.19a4.93,4.93,0,0,1-.07-.66.34.34,0,0,1,0-.1,4.23,4.23,0,0,1,.38-2.18c.18-.38,0-.52-.25-.62l-.07,0c-.15-.06-.28-.13-.42-.2L11.42,40a5.62,5.62,0,0,1-.5-.35,6.83,6.83,0,0,1-1-1c-.25-.29-.49-.6-.71-.91a17.11,17.11,0,0,1-1-1.43,9.08,9.08,0,0,1-.63-1.72c-.06.11-.13.21-.2.32a1,1,0,0,0-.15.32c-.19,1-.31,2-.53,3.05a5.25,5.25,0,0,0-.12,1,9.21,9.21,0,0,0,.14,1.89c0,.31.11.62.17.92A10.52,10.52,0,0,0,8.73,46.6a13,13,0,0,0,3.42,3.21c.15.1.29.2.45.29,1.13.6,2.24,1.21,3.36,1.82l.2.14.13.1a1,1,0,0,1,.12.25.68.68,0,0,1,0,.19s0,0,0,.06h0c0,.07-.09.13-.18.18l-.19.08h-.12l-.21,0h-.09l-.15,0a1.36,1.36,0,0,1-.29-.06l-.14,0-.29-.11-.11-.06a2.82,2.82,0,0,1-.38-.21c-.33-.2-.67-.42-1-.64l-1.12-.73L12,50.94l-.49-.34L11,50.28a7.08,7.08,0,0,1-1-.91l-.57-.6c-.33-.35-.64-.71-1-1.07s-.41-.43-.59-.66a9.86,9.86,0,0,0-1-1.1c-.36-.34-.74-.67-1.13-1a2.8,2.8,0,0,0-.41-.25l0,0-.07.1c0,.38,0,.75,0,1.12h0a10.49,10.49,0,0,0,0,1.12,6.64,6.64,0,0,0,.54,2.2c.23.51.44,1,.66,1.54s.47,1,.74,1.49a12.21,12.21,0,0,0,.85,1.27c.31.41.63.82.92,1.23.18.26.34.53.52.78a3.81,3.81,0,0,0,.24.32c.82.85,1.67,1.68,2.52,2.5l.22.22a13.8,13.8,0,0,0,1.13,1l.13.1c.13.1.27.19.41.28s.37.26.57.38l.61.37c.49.3,1,.59,1.49.87l.19.08.1,0a1.06,1.06,0,0,0,.31,0A4.3,4.3,0,0,1,16.78,59h.09l.1,0,.09,0,.13.07.07.05.1.11.05,0,.09.14,0,0c.1.14.19.29.28.43a16.69,16.69,0,0,1,1,1.84,7.36,7.36,0,0,1,.41,1l.13.29c.22.26.43.53.65.8.34.42.68.83,1,1.22.9,1,1.82,1.94,2.79,2.84s1.81,1.58,2.74,2.34l.13.11.5.41c.45.37.91.73,1.39,1l.31.18c.57.34,1.17.64,1.75,1l.16.09.38.24,1.56,1,.74.46L34,75l.42.22.23-1.5Z"/><path class="cls-7" d="M31.72,27.85l.36.12Z"/><path class="cls-7" d="M12.45,25.29q-.07.45-.12.9c0-.18,0-.36.07-.54S12.43,25.41,12.45,25.29Z"/><path class="cls-7" d="M31.61,29.46q-.42.3-.81.63Q31.19,29.76,31.61,29.46Z"/><path class="cls-7" d="M32.75,30c.79-.23,1.58-.45,2.38-.66C34.33,29.54,33.54,29.76,32.75,30Z"/><path class="cls-7" d="M16.41,52.41a.68.68,0,0,1,0,.19A.68.68,0,0,0,16.41,52.41Z"/><path class="cls-7" d="M15.94,52.93h0Z"/><path class="cls-7" d="M12.27,26.85c0-.18,0-.35,0-.53C12.3,26.5,12.28,26.67,12.27,26.85Z"/><path class="cls-7" d="M17.21,35.51a6.51,6.51,0,0,0-.68.49A7.76,7.76,0,0,1,17.21,35.51Z"/><path class="cls-7" d="M12.83,43.91a.62.62,0,0,0,.08-.12A.62.62,0,0,1,12.83,43.91Z"/><path class="cls-7" d="M12.91,43.79l0,0Z"/><path class="cls-7" d="M12.56,44l.1,0Z"/><path class="cls-7" d="M11.49,50.6l.49.34Z"/><path class="cls-7" d="M17.1,61.81l-.1,0Z"/><path class="cls-7" d="M5.26,47.12a10.49,10.49,0,0,1,0-1.12A10.49,10.49,0,0,0,5.26,47.12Z"/><path class="cls-7" d="M12.66,44a.33.33,0,0,0,.1-.06Z"/><path class="cls-7" d="M15,37.51Z"/><path class="cls-7" d="M12.21,28.06c0-.18,0-.36,0-.53C12.22,27.7,12.22,27.88,12.21,28.06Z"/><path class="cls-7" d="M12.23,27.39c0-.18,0-.36,0-.53C12.25,27,12.24,27.21,12.23,27.39Z"/><path class="cls-7" d="M12.21,28.6v0Z"/><path class="cls-7" d="M13.36,36c-.06-.12-.12-.25-.17-.37C13.24,35.7,13.3,35.83,13.36,36Z"/><path class="cls-7" d="M12.25,29.82c0-.36,0-.72,0-1.08C12.22,29.1,12.23,29.46,12.25,29.82Z"/><path class="cls-7" d="M12.29,30.49l0-.54Z"/><path class="cls-7" d="M13.18,35.56c-.06-.13-.12-.26-.17-.39C13.06,35.3,13.12,35.43,13.18,35.56Z"/><path class="cls-7" d="M20.58,47.29c0-.15,0-.3-.07-.45C20.53,47,20.55,47.14,20.58,47.29Z"/><path class="cls-7" d="M20.68,47.76c0-.11-.05-.22-.07-.33C20.63,47.54,20.66,47.65,20.68,47.76Z"/><path class="cls-7" d="M21,48.76c-.1-.28-.18-.58-.26-.87C20.79,48.18,20.87,48.48,21,48.76Z"/><path class="cls-7" d="M21.13,49.21,21,48.88Z"/><path class="cls-7" d="M25.08,36.64a4.55,4.55,0,0,1,.73-.09A4.55,4.55,0,0,0,25.08,36.64Z"/><path class="cls-7" d="M20.5,46.8c0-.27,0-.55-.05-.83C20.46,46.25,20.47,46.53,20.5,46.8Z"/><path class="cls-7" d="M21.34,49.75c.06.15.13.31.2.46-.13-.29-.25-.59-.37-.88Z"/><path class="cls-7" d="M24.77,76.06l.12.17a34,34,0,0,0,3,3.69c.58-.37,1.19-.73,1.84-1.06a9.16,9.16,0,0,1,2.65,2.57H34.1l-.59-.2L34.15,77l.14-.9-1.39-.53a11.13,11.13,0,0,1-1.42-.72l0,0c-.78-.47-1.56-.94-2.31-1.47l-.6-.44h0q-.84-.6-1.68-1.23l-1.17-.85c-.13-.1-.26-.2-.4-.29l-.11-.08h0L25,70.37l-.21-.14-.07,0-.15-.07-.08,0a.36.36,0,0,0-.14,0h0a.53.53,0,0,0-.25.16l-.08.08,0,0c-.1.12-.2.27-.3.38l-.37.46-.08.1c-.14.17-.28.33-.41.5l-.3.36a.75.75,0,0,0,.07.12A30.73,30.73,0,0,0,24.77,76.06Z"/><path class="cls-7" d="M23.94,70.33l.08-.08Z"/><path class="cls-7" d="M75.24,75.94l-.11,0,.05,0Z"/><path class="cls-7" d="M63.63,81.16l-.63.27h.32C63.42,81.33,63.53,81.25,63.63,81.16Z"/><path class="cls-7" d="M65.81,67.16a1.05,1.05,0,0,0,.53-.75v-.18l0-.18c0-.12-.12-.24-.18-.36l0,0-.26.18a3.5,3.5,0,0,0-.39.38l-.12.23s0,0,0,0A1.35,1.35,0,0,0,65.81,67.16Z"/><path class="cls-7" d="M69.6,63.2h.08s0,0,0,0a.68.68,0,0,0,.29-.48,1.43,1.43,0,0,0-.09-1c-.12.11-.24.22-.35.34a1.69,1.69,0,0,0-.34.41v.4A1.93,1.93,0,0,0,69.6,63.2Z"/><path class="cls-7" d="M70.56,63s0-.07,0-.12a1.7,1.7,0,0,0,.05-.44,1.89,1.89,0,0,1-.13.48,1.81,1.81,0,0,1-.29.48C70.38,63.4,70.48,63.26,70.56,63Z"/><path class="cls-7" d="M73.5,57.94l-.26-.37-.2.23-.2.24a3.78,3.78,0,0,0,.1.57Z"/><path class="cls-7" d="M32,64.84H32l-.17.45a7.16,7.16,0,0,0-.23.75.57.57,0,0,0,.05.4,7.27,7.27,0,0,0,.82-.61l0,0,0-.52A3,3,0,0,0,32,64.84Z"/><path class="cls-7" d="M23.5,55.57a.44.44,0,0,0-.16.17.64.64,0,0,0-.11.16,6.46,6.46,0,0,0-.27.93c.07.12.13.25.21.36a.5.5,0,0,0,.08.12,3.33,3.33,0,0,0,.32.24h.09a1.47,1.47,0,0,0,.79-.09l.14-.07c.26-.13.29-.28.05-.55C24.27,56.41,23.89,56,23.5,55.57Z"/><path class="cls-7" d="M28,60.94a.53.53,0,0,0-.13.16l-.11.16-.09.13a3.12,3.12,0,0,0-.11,1.12s0,0,0,.05a.32.32,0,0,0,.08.09.74.74,0,0,0,.17,0,1.19,1.19,0,0,0,.7-.47l.16-.2,0-.28C28.47,61.42,28.24,61.18,28,60.94Z"/><path class="cls-8" d="M69.66,36.35c-.15-.29-.35-.5-.73-.39a4.41,4.41,0,0,1-.8.18,17.34,17.34,0,0,0-3.89.79c-1.3.43-2.63.8-3.95,1.2l-.3.11L58.4,39c-.4.18-.8.37-1.19.57a3.42,3.42,0,0,0-1.46,1c-.08.12-.37.1-.57.14,0-.16-.12-.35-.07-.49.14-.37.35-.71.51-1.07a3.09,3.09,0,0,0,.52-1.64c-.06-.61-.86-1.6-1.63-1.24a17.55,17.55,0,0,0-1.6.85,5.16,5.16,0,0,0-.67.44,17.41,17.41,0,0,0-2,2.07l-.07.08a5.34,5.34,0,0,0-.7.94c-.22.4-.36.48-.74.18a11.85,11.85,0,0,1-1.42-1.22,21.17,21.17,0,0,0-1.88-1.79c-.29-.24-.57-.49-.88-.71a6.89,6.89,0,0,0-1.45-.93,2,2,0,0,0-.62-.15c-.38,0-1.15.13-1.14.5a11.82,11.82,0,0,0,.19,1.77,5.76,5.76,0,0,0,.41,1l-.12.12-.67-.22L39,38.71l-.41-.12c-1-.27-2-.58-3-.76a31.51,31.51,0,0,0-3.75-.36c-1.62-.08-3.25-.11-4.87-.1a5.42,5.42,0,0,0-1.64.32,13.36,13.36,0,0,0-1.39.75,2.53,2.53,0,0,0-1.34,1.05c-.28.56-.68,1.06-.92,1.63a4.24,4.24,0,0,0-.44,1.68c0,1,.17,2.08.27,3.13a10.94,10.94,0,0,0,1.23,4.22c.53,1,1,2,1.58,2.91s1.07,1.85,1.7,2.72a36.85,36.85,0,0,0,2.48,3.09,19.81,19.81,0,0,0,1.88,1.65c.83.73,1.64,1.48,2.48,2.2s1.69,1.38,2.54,2.07l.6.49,1.34,1.1c1,.8,1.95,1.59,2.91,2.41.22.19.35.16.53,0,.4-.46.81-.9,1.23-1.34,1.22-1.26,2.44-2.51,3.65-3.78s2.16-2.29,3.23-3.44c.25-.27.47-.21.7,0,.68.68,1.36,1.37,2.06,2s1.62,1.42,2.4,2.16,1.54,1.51,2.32,2.26,1.41,1.29,2.12,1.93c.26.23.54.4.89.1.69-.58,1.42-1.14,2.09-1.75.35-.31.68-.65,1-1l.68-.7c.76-.77,1.57-1.51,2.28-2.33,1.28-1.47,2.49-3,3.74-4.48.16-.19.47-.26.61-.46,1-1.4,2.12-2.8,3.11-4.25s1.88-2.89,2.81-4.34c.58-.92,1.15-1.84,1.7-2.77a17.62,17.62,0,0,0,1.24-2.3c.51-1.24.91-2.51,1.34-3.78a2,2,0,0,0-.81-2.5c-.4-.28-.81-.53-1.21-.81a5,5,0,0,0-3.6-1c-.51.06-.62.21-.47.71a.51.51,0,0,1-.24.65,15.38,15.38,0,0,0-1.32,1.1,10.47,10.47,0,0,0-.78,1l0,0-.11.35a5.62,5.62,0,0,0,.88.66v0a8.15,8.15,0,0,1,.61.68,1.18,1.18,0,0,1,.27.58,1.88,1.88,0,0,1-1,1.66c-.61-.82-.61-.82-1-1a3.16,3.16,0,0,1-.3.78,1.59,1.59,0,0,0-.21,1.43c.21,1,.39,2,.57,3.06a8.79,8.79,0,0,1,.11,2,1.36,1.36,0,0,1-1,1.31c-.51.15-1,.24-1.56.34-1.33.25-2.65.53-4,.72a36.36,36.36,0,0,1-5.32.57c-.38,0-.54.19-.67.52-.48,1.32-1,2.63-1.5,4,.12.35.27.73.4,1.11s.13.62-.21.84a.64.64,0,0,0-.27.65A5.06,5.06,0,0,1,57,61.78a.88.88,0,0,1-1.06.32,6.86,6.86,0,0,0-.67-3.62.75.75,0,0,1-.07-.28,6.61,6.61,0,0,0,.39-.92,23.94,23.94,0,0,1,1.06-2.79c.36-.92.77-1.87,0-2.85a5.77,5.77,0,0,1-.51-1.19L56.68,49l.52-.44a1,1,0,0,0,1-1c.09-.73.24-1.46.36-2.19.05-.3.1-.61.16-.92.1-.55.18-1.11.33-1.65a.8.8,0,0,1,.41-.46c.6-.25,1.22-.47,1.85-.67q2.54-.82,5.1-1.61a1.2,1.2,0,0,0,.82-.57c.2-.45.62-.59,1-.84a1,1,0,0,1,1.14,0,.94.94,0,0,0,.7.22,1.08,1.08,0,0,0,.39.18h.05a6.91,6.91,0,0,0,.51.57V39c0-.08-.11-.17-.15-.25C70.45,37.93,70.06,37.13,69.66,36.35ZM40.81,53a4.5,4.5,0,0,1-2.58,1A.7.7,0,0,1,38,54a13.36,13.36,0,0,1-4.38-1.17,23,23,0,0,1-3.19-1.76,19.79,19.79,0,0,1-3.15-2.7,6.82,6.82,0,0,1-1.56-2.61,3,3,0,0,1-.08-1,3.18,3.18,0,0,0-.34-1.68c-.32-.6-.21-.88.33-1.27a4.07,4.07,0,0,1,2-.66,8.43,8.43,0,0,1,3.2.38,23.36,23.36,0,0,1,3.41,1.28,14.89,14.89,0,0,1,5.09,3.8,8,8,0,0,1,2,4.22A6.2,6.2,0,0,1,40.81,53Zm5-3.68a6.18,6.18,0,0,1-.72.26c-1,.15-1.36-.79-1.39-1.44a2.7,2.7,0,0,1,.64-1.73c.26-.36,1.14-.28,1.48.12a6.44,6.44,0,0,1,.38.52,5.42,5.42,0,0,0,.64-1.89A6.71,6.71,0,0,0,46,40.68a3.53,3.53,0,0,0-1.3-1.25,1.72,1.72,0,0,1-.51.53.62.62,0,0,1-.68-.06A1.45,1.45,0,0,1,43,38.2a.6.6,0,0,1,.53-.2l.17.08a8.51,8.51,0,0,1,1.28.55,4.63,4.63,0,0,1,.76.52A5.34,5.34,0,0,1,47.18,41a5.79,5.79,0,0,1,.49,2.48,14.33,14.33,0,0,1-.4,4.08h0A2.26,2.26,0,0,1,45.79,49.35ZM50.53,53a1.49,1.49,0,0,0-.41,1.52,5.62,5.62,0,0,1,.09,1.7c0,.52,0,1,0,1.57v0c0,.23-.54,1-.76,1l-.29-.15-.22-.6a1.83,1.83,0,0,1-.09-.39c-.07-1.2-.09-2.41-.15-3.62a1.09,1.09,0,0,0-.29-.55c-.48-.62-1-1.23-1.47-1.84l-.13-.19c-.08-.13-.25-.31-.21-.39a.53.53,0,0,1,.4-.26,18.91,18.91,0,0,1,4.57.31l.2.13Zm4.07-14a3.77,3.77,0,0,1-.64,1,1,1,0,0,1-.71.21,1.33,1.33,0,0,0-.2,0,.43.43,0,0,0-.34.2,9,9,0,0,0-1.42,2.9,8.62,8.62,0,0,0-.22,4,13.56,13.56,0,0,0,.45,1.5l.16,0c0-.2.07-.4.08-.6,0-.56.81-1.15,1.22-1.2a1.25,1.25,0,0,1,1.23,1.48l-.21.95a1.32,1.32,0,0,1-1.16,1,1.65,1.65,0,0,1-.94,0,.9.9,0,0,1-.28-.2l-.1-.12a7.4,7.4,0,0,1-.87-1.35,6.87,6.87,0,0,1-.49-2.66,12.58,12.58,0,0,1-.09-1.5,4.44,4.44,0,0,1,.31-1.28h0c.32-.88.64-1.76,1-2.6A6.76,6.76,0,0,1,53,38.64l.49-.43a.65.65,0,0,1,.85,0A.7.7,0,0,1,54.6,39.08Z"/><path class="cls-8" d="M53.17,49.22c.18-.27.33-.56.48-.84l-.08-.05v-.18c-.09-.16-.21-.32-.32-.48-.14.13-.38.25-.4.4a4.34,4.34,0,0,0,0,1.08Z"/><path class="cls-8" d="M44.83,47.24a3.07,3.07,0,0,0-.22.7c0,.27,0,.44.07.6,0,.39.31.52.57.28A1.3,1.3,0,0,0,45.7,48a2.13,2.13,0,0,0-.44-.91Z"/><path class="cls-8" d="M39.6,34.37A1.61,1.61,0,1,0,38,32.76,1.61,1.61,0,0,0,39.6,34.37Z"/><path class="cls-8" d="M55.53,34.08a1.61,1.61,0,1,0-1.61-1.61A1.61,1.61,0,0,0,55.53,34.08Z"/><path class="cls-9" d="M47,50.85a.53.53,0,0,0-.4.26c0,.08.13.26.21.39l.13.19c.49.61,1,1.22,1.47,1.84a1.09,1.09,0,0,1,.29.55c.06,1.21.08,2.42.15,3.62a1.83,1.83,0,0,0,.09.39l.22.6.29.15c.22,0,.76-.74.76-1v0c0-.52,0-1,0-1.57a5.62,5.62,0,0,0-.09-1.7A1.49,1.49,0,0,1,50.53,53l1.26-1.74-.2-.13A18.91,18.91,0,0,0,47,50.85Z"/><path class="cls-9" d="M54.32,38.22a.65.65,0,0,0-.85,0l-.49.43a6.76,6.76,0,0,0-1.57,2.1c-.39.84-.71,1.72-1,2.6h0a4.44,4.44,0,0,0-.31,1.28,12.58,12.58,0,0,0,.09,1.5,6.87,6.87,0,0,0,.49,2.66,7.4,7.4,0,0,0,.87,1.35l.1.12a.9.9,0,0,0,.28.2,1.65,1.65,0,0,0,.94,0,1.32,1.32,0,0,0,1.16-1l.21-.95A1.25,1.25,0,0,0,53,47c-.41.05-1.2.64-1.22,1.2,0,.2,0,.4-.08.6l-.16,0a13.56,13.56,0,0,1-.45-1.5,8.62,8.62,0,0,1,.22-4,9,9,0,0,1,1.42-2.9.43.43,0,0,1,.34-.2,1.33,1.33,0,0,1,.2,0,1,1,0,0,0,.71-.21,3.77,3.77,0,0,0,.64-1A.7.7,0,0,0,54.32,38.22Zm-1.48,9.85c0-.15.26-.27.4-.4.11.16.23.32.32.48v.18l.08.05c-.15.28-.3.57-.48.84l-.32-.07A4.34,4.34,0,0,1,52.84,48.07Z"/><path class="cls-9" d="M47.27,47.6a14.33,14.33,0,0,0,.4-4.08A5.79,5.79,0,0,0,47.18,41a5.34,5.34,0,0,0-1.47-1.89,4.63,4.63,0,0,0-.76-.52,8.51,8.51,0,0,0-1.28-.55L43.5,38a.6.6,0,0,0-.53.2,1.45,1.45,0,0,0,.54,1.7.62.62,0,0,0,.68.06,1.72,1.72,0,0,0,.51-.53A3.53,3.53,0,0,1,46,40.68a6.71,6.71,0,0,1,.82,4.51,5.42,5.42,0,0,1-.64,1.89,6.44,6.44,0,0,0-.38-.52c-.34-.4-1.22-.48-1.48-.12a2.7,2.7,0,0,0-.64,1.73c0,.65.43,1.59,1.39,1.44a6.18,6.18,0,0,0,.72-.26,2.26,2.26,0,0,0,1.48-1.75Zm-2,1.22c-.26.24-.52.11-.57-.28,0-.16,0-.33-.07-.6a3.07,3.07,0,0,1,.22-.7l.43-.15a2.13,2.13,0,0,1,.44.91A1.3,1.3,0,0,1,45.25,48.82Z"/><path class="cls-9" d="M63.64,67.82a8.06,8.06,0,0,0,.93-.73l.05.08.27.43a1.47,1.47,0,0,0,.21.22,1.12,1.12,0,0,0,.67.33,1.05,1.05,0,0,0,.69.25.71.71,0,0,0,.4-.11,1.47,1.47,0,0,0,.28-.28,1.77,1.77,0,0,0,.47-1.57,6.81,6.81,0,0,0-.31-.74,3,3,0,0,0-.25-.47c-.16-.25-.19-.36.07-.55a3.94,3.94,0,0,0,.56-.59l.78-.76a1.76,1.76,0,0,0,.6.46.67.67,0,0,0,.28.06.84.84,0,0,0,.86.21h.07a1.41,1.41,0,0,0,.51-.35,1.91,1.91,0,0,0,.37-2,1.4,1.4,0,0,0-.09-.17c-.18-.33-.43-.66,0-1.07s.6-.72.89-1.09l.07-.08a1,1,0,0,0,.52.33h.15a.74.74,0,0,0,.94.14h0a4.13,4.13,0,0,0,.59-.41,2.31,2.31,0,0,0,.32-.3,1.29,1.29,0,0,0,.33-.92,3.42,3.42,0,0,0-.62-1.05,1.66,1.66,0,0,1-.16-.21.37.37,0,0,1-.06-.55c.11-.18.25-.34.37-.51l3.53-5c.59-.84,1.15-1.72,1.8-2.52a3.93,3.93,0,0,0,.42-.7,5.89,5.89,0,0,0,.45-2.77l-.1-.06,0,0c-.15.2-.31.39-.45.59,0-.25,0-.5,0-.75l-.12-.07h0a8,8,0,0,0-.62.82c-.75,1.26-1.47,2.53-2.22,3.79s-1.3,2.29-2,3.39c-.88,1.35-1.82,2.67-2.77,4-.65.9-1.34,1.78-2,2.64s-1.3,1.4-1.94,2.12c-.87,1-1.67,2-2.59,2.92a38.19,38.19,0,0,1-2.94,2.6c-1.15.92-2.36,1.8-3.59,2.63a3,3,0,0,1-.38.23.48.48,0,0,1-.35-.2l-9-8.52c-.35-.19-.35,0-.35,0l-7.67,8a.76.76,0,0,1-.11.14c-.08.07-.16.15-.24.21a1.75,1.75,0,0,1-1.47-.17l-.38-.2-.05,0-.25-.14-.15-.1-.15-.09-.3-.2c-.56-.41-1.1-.85-1.65-1.28h0c-.28-.21-.55-.41-.82-.63l-.28-.22h0l-.14-.11L35.19,66l-.59-.45-.29-.23c-1.4-1.16-2.8-2.32-4.1-3.59-1.12-1.09-2.1-2.33-3.12-3.52-.69-.81-1.34-1.66-2-2.5S24,54.29,23.44,53.55c-.11-.15-.2-.31-.3-.46h0c-.35-.52-.7-1.05-1-1.59a15.18,15.18,0,0,1-1.06-2c-.37-.89-.64-1.82-1-2.73a11.78,11.78,0,0,0-.54-1.21l-.23-.16-.15.25v.12l-.2-.45-.24-.17,0,.1-.1.16a7.28,7.28,0,0,0,.1,1.88.07.07,0,0,0,0,.05,20.8,20.8,0,0,0,1.46,3.31c.23.41.49.79.74,1.18.43.65.88,1.29,1.3,1.93.28.41.39.61.35.81a1.85,1.85,0,0,1-.42.7l-.06.08-.05.07c-.14.51-.48,1-.39,1.52a1.82,1.82,0,0,0,.35.76,1.89,1.89,0,0,0,.57.52,1.86,1.86,0,0,0,.55.22,1.65,1.65,0,0,0,1.32.22l.19-.08a5,5,0,0,0,.7-.34l.15-.09.17-.1a17.34,17.34,0,0,0,1.12,1.44.4.4,0,0,1,0,.59l0,0a2.89,2.89,0,0,0-.41.66A2.23,2.23,0,0,0,26.13,62a1,1,0,0,0,.19.5c0,.05.1.09.15.14L27,63l-.63-.11h0a1.39,1.39,0,0,0,.8.42h0a2.55,2.55,0,0,0,1.4.29,1.43,1.43,0,0,0,.23,0,1.22,1.22,0,0,0,.74-.39,4.41,4.41,0,0,0,.3-.39c.34.34.68.67,1,1l0,.33a1.3,1.3,0,0,0-.1.15,2.7,2.7,0,0,0-.42.78,2.24,2.24,0,0,0,0,1.26,1.7,1.7,0,0,0,.2.45,1.4,1.4,0,0,0,.75.58l.11,0,.13,0a1.78,1.78,0,0,0,.46.22,1.5,1.5,0,0,0,.69,0,1.3,1.3,0,0,0,.89-.53c.07-.09.14-.19.22-.28a1.14,1.14,0,0,1,.19-.19h.16c.22.17.43.35.65.51s.34.38.23.63a1.4,1.4,0,0,1-.09.17,4.45,4.45,0,0,0-.4.82h0a1,1,0,0,0,.25,1.22l.11.12a3.59,3.59,0,0,0,.32.36l0,0,.25.25a1,1,0,0,0,.39.27.59.59,0,0,0,.13,0l.15,0a1,1,0,0,0,.31.21,2.41,2.41,0,0,0,1.38,0,2.6,2.6,0,0,0,.66-.29,2,2,0,0,0,.41-.35s0,0,0,0l0,0c.18-.22.28-.33.39-.36.34.21.7.38,1.06.56l.44.23.09,0,.19.1.09,0a.39.39,0,0,0,.11.06l.11.06.16,0,.34-.09c.24-.22.41-.52.64-.77.8-.88,1.64-1.73,2.42-2.63.6-.69,1.18-1.38,1.76-2.07l.51-.61,1-1.14.92-1.1.41-.49c.32.36.62.74.94,1.1s.73.82,1.09,1.23c.8.92,1.59,1.83,2.41,2.73s1.7,1.82,2.57,2.72c.18.18.35.38.53.56a1.46,1.46,0,0,0,.41.27.7.7,0,0,0,.33.08.92.92,0,0,0,.59.24,1.89,1.89,0,0,0,.85-.4,1.73,1.73,0,0,1,.34-.19h0l.13.19.06.12,0,0a1.4,1.4,0,0,0,.59.53,1.1,1.1,0,0,0,.35.11,1,1,0,0,0,1,.19,1.44,1.44,0,0,0,.51-.32.68.68,0,0,0,.12-.12A1.44,1.44,0,0,0,62.85,70c0-.06,0-.11,0-.17a1.8,1.8,0,0,1,.07-1.16,1.41,1.41,0,0,1,.27-.43A2.32,2.32,0,0,1,63.64,67.82Zm9.4-10,.2-.23.26.37-.56.67a3.78,3.78,0,0,1-.1-.57ZM70.52,63a1.89,1.89,0,0,0,.13-.48,1.7,1.7,0,0,1-.05.44s0,.08,0,.12c-.08.22-.18.36-.33.4A1.81,1.81,0,0,0,70.52,63ZM69.58,62c.11-.12.23-.23.35-.34a1.43,1.43,0,0,1,.09,1,.68.68,0,0,1-.29.48s0,0,0,0H69.6a1.93,1.93,0,0,1-.35-.35v-.4A1.69,1.69,0,0,1,69.58,62Zm-4.1,4.17a3.5,3.5,0,0,1,.39-.38l.26-.18,0,0c.06.12.13.24.18.36l0,.18v.18a1.05,1.05,0,0,1-.53.75,1.35,1.35,0,0,1-.44-.68s0,0,0,0ZM24.59,57.39l-.14.07a1.47,1.47,0,0,1-.79.09h-.09a3.33,3.33,0,0,1-.32-.24.5.5,0,0,1-.08-.12c-.08-.11-.14-.24-.21-.36a6.46,6.46,0,0,1,.27-.93.64.64,0,0,1,.11-.16.44.44,0,0,1,.16-.17c.39.42.77.84,1.14,1.27C24.88,57.11,24.85,57.26,24.59,57.39Zm4,4.76a1.19,1.19,0,0,1-.7.47.74.74,0,0,1-.17,0,.32.32,0,0,1-.08-.09s0,0,0-.05a3.12,3.12,0,0,1,.11-1.12l.09-.13.11-.16a.53.53,0,0,1,.13-.16c.23.24.46.48.68.73l0,.28Zm3.89,3.69a7.27,7.27,0,0,1-.82.61.57.57,0,0,1-.05-.4,7.16,7.16,0,0,1,.23-.75l.17-.45H32a3,3,0,0,1,.43.45l0,.52Zm5.13,3.68a1.21,1.21,0,0,1-.19.23,2.11,2.11,0,0,1-.49.37,2,2,0,0,1-.44-.47,1.37,1.37,0,0,1-.15-.74c0-.08,0-.17,0-.24a.48.48,0,0,1,.05-.22.14.14,0,0,1,.09-.08c.37.23.74.46,1.1.71l.12.28A.35.35,0,0,1,37.58,69.52Zm23.12,1a.42.42,0,0,1-.08-.12.34.34,0,0,1,.13-.44q.36-.29.75-.54l.06.28s0,.09,0,.14v.09C61.6,70.28,61.13,70.55,60.7,70.49Z"/><path class="cls-9" d="M35.76,66.45c.27.22.54.42.82.63h0C36.3,66.87,36,66.67,35.76,66.45Z"/><path class="cls-9" d="M36.58,67.08h0c.55.43,1.09.87,1.65,1.28-.56-.41-1.1-.85-1.65-1.28Z"/><path class="cls-9" d="M39.43,69.08l-.3-.16.38.2-.08,0Z"/><path class="cls-9" d="M35.48,66.23l-.14-.11.14.11Z"/><path class="cls-9" d="M38.68,68.65l-.15-.09Z"/><path class="cls-9" d="M35.19,66l-.59-.45Z"/><path class="cls-9" d="M39.08,68.89l-.25-.14Z"/><polygon class="cls-9" points="36.58 67.08 36.58 67.08 36.58 67.08 36.58 67.08"/><polygon class="cls-9" points="34.06 84.38 34.06 84.37 34.06 84.37 34.06 84.38"/><path class="cls-9" d="M22.18,78.29a36.76,36.76,0,0,0,3.76,3.07l.1.07c.17.12.32.25.49.36a26.68,26.68,0,0,0,4.9,2.58,18.29,18.29,0,0,0,2.47.72,3.55,3.55,0,0,0,0,.46,3.7,3.7,0,0,0,7.2,1.17L40,86.36a2.27,2.27,0,0,1-4.48-.47,2.1,2.1,0,0,1,.06-.51c0-.08,0-.16.07-.23a2.26,2.26,0,0,1,4.4.74,2.42,2.42,0,0,1,0,.47l1.08.36a3.67,3.67,0,0,0,.19-1.17A3.78,3.78,0,0,0,38.74,82a3.73,3.73,0,0,0-1.18-.19,3.53,3.53,0,0,0-1.37.28,3.67,3.67,0,0,0-2.13,2.24l0,.12a18.37,18.37,0,0,1-2.09-1.14,25.72,25.72,0,0,1-2.46-1.92c-.52-.45-1-.9-1.5-1.39l-.1-.12a34,34,0,0,1-3-3.69l-.12-.17a30.73,30.73,0,0,1-2.24-3.78.75.75,0,0,1-.07-.12l0-.08-2.17,2.33-.88.94a1.07,1.07,0,0,0,.14.16C20.37,76.5,21.25,77.4,22.18,78.29Z"/><path class="cls-9" d="M72.31,73.43c-.11.21-.23.42-.35.63-.22.38-.45.77-.69,1.15s-.49.77-.74,1.14l-.09.15c-.41.59-.84,1.15-1.29,1.72s-.83,1-1.27,1.5c-.22.25-.43.52-.66.76s-.68.63-1,1a24,24,0,0,1-2.93,2.36,18.37,18.37,0,0,1-2.09,1.14.53.53,0,0,0,0-.12,3.69,3.69,0,0,0-7.14.54,3.39,3.39,0,0,0-.06.64,3.67,3.67,0,0,0,.19,1.17h0A3.7,3.7,0,0,0,61.33,86a3.55,3.55,0,0,0,0-.46,17,17,0,0,0,2.47-.73,26,26,0,0,0,4.9-2.57c.37-.25.72-.53,1.08-.8l.24-.18a36.45,36.45,0,0,0,3-2.52c.77-.74,1.5-1.48,2.21-2.27l.2-.22L75.18,76l-.05,0h0l-1.28-1.16-.29-.26h0l-.7-.63ZM57.8,88.15a2.26,2.26,0,0,1-2.13-1.5l-.46.15.46-.16a2.08,2.08,0,0,1-.14-.75,2.22,2.22,0,0,1,.53-1.44,2.24,2.24,0,0,1,1.74-.83l.13,0A2.25,2.25,0,0,1,60,85.41c0,.12,0,.23,0,.35s0,.08,0,.13A2.26,2.26,0,0,1,57.8,88.15Z"/><path class="cls-10" d="M36.16,85.44s0,.07,0,.11A1.44,1.44,0,0,0,37.56,87a1.44,1.44,0,0,0,1.35-1,1.45,1.45,0,0,0,.07-.45,1.42,1.42,0,0,0-2.76-.45v0a.85.85,0,0,0,0,.22c.18.06.36.13.55.18Z"/><path class="cls-10" d="M36.73,85.5c-.19,0-.37-.12-.55-.18a.5.5,0,0,0,0,.12Z"/><path class="cls-10" d="M38.91,86h0a1.4,1.4,0,0,1-1.8.89,1.41,1.41,0,0,1-1-1.34s0-.07,0-.11l-.59-.06a2.1,2.1,0,0,0-.06.51,2.27,2.27,0,0,0,4.48.47h0Z"/><path class="cls-10" d="M37.78,83.62a2.26,2.26,0,0,0-2.14,1.53l.54.17a.85.85,0,0,1,0-.22v0a1.42,1.42,0,0,1,2.76.45,1.45,1.45,0,0,1-.07.45h0l1.08.36h0a2.42,2.42,0,0,0,0-.47A2.27,2.27,0,0,0,37.78,83.62Z"/><polygon class="cls-10" points="39.99 86.36 38.91 86 38.91 86 38.91 86 39.99 86.36"/><path class="cls-10" d="M36.18,85.32l-.54-.17c0,.07,0,.15-.07.23l.59.06A.5.5,0,0,1,36.18,85.32Z"/><path class="cls-10" d="M57.64,87.41a1.47,1.47,0,0,0,.45-.08,1.42,1.42,0,0,0,1-1.34s0-.07,0-.11c-.19,0-.38.05-.57.06l.55-.18a.78.78,0,0,0,0-.22,1.42,1.42,0,0,0-2.69.9l-.62.2h0l.62-.21A1.45,1.45,0,0,0,57.64,87.41Z"/><path class="cls-10" d="M58.47,85.94c.19,0,.38,0,.57-.06a.5.5,0,0,0,0-.12Z"/><path class="cls-10" d="M56.22,86A1.42,1.42,0,0,1,59,85.54a.78.78,0,0,1,0,.22c.33-.11.67-.22,1-.35a2.25,2.25,0,0,0-2.08-1.77l-1.87.81a2.22,2.22,0,0,0-.53,1.44,2.08,2.08,0,0,0,.14.75l.62-.2A1.41,1.41,0,0,1,56.22,86Z"/><path class="cls-10" d="M59,85.88s0,.07,0,.11a1.42,1.42,0,0,1-1,1.34,1.47,1.47,0,0,1-.45.08,1.45,1.45,0,0,1-1.35-1l-.62.21a2.26,2.26,0,0,0,4.39-.76s0-.09,0-.13C59.71,85.81,59.38,85.85,59,85.88Z"/><path class="cls-10" d="M57.8,83.62a2.24,2.24,0,0,0-1.74.83l1.87-.81Z"/><path class="cls-10" d="M59,85.88c.34,0,.67-.07,1-.12,0-.12,0-.23,0-.35-.32.13-.66.24-1,.35A.5.5,0,0,1,59,85.88Z"/><path class="cls-7" d="M83.6,13.72l-.09-.05Z"/><path class="cls-7" d="M81.53,14.16a1.57,1.57,0,0,0-.43.09A1.57,1.57,0,0,1,81.53,14.16Z"/><path class="cls-7" d="M80.93,14.32l.06,0,0,0Z"/><path class="cls-7" d="M80,15.06a2.32,2.32,0,0,1,.4-.43l.15-.1.13-.07.23-.14.09-.05,0,0,.11-.05a1.57,1.57,0,0,1,.43-.09l.12,0a1.65,1.65,0,0,1,.58.1h0c.25.09.52.14.78.21l0-.07h0L82,14l.23-.1.51-.23a.92.92,0,0,1,.38-.09h.09a.71.71,0,0,1,.28.09l.09.05c-1.32-2-4.42,2.28-4.55,2.48l.22-.24A7.16,7.16,0,0,0,80,15.06Z"/><path class="cls-7" d="M83.12,15.7l.48-2-.09-.05a.71.71,0,0,0-.28-.09h-.09a.92.92,0,0,0-.38.09l-.51.23L82,14l1,.39h0l0,.07c-.26-.07-.53-.12-.78-.21h0a1.65,1.65,0,0,0-.58-.1l-.12,0a1.57,1.57,0,0,0-.43.09L81,14.3l-.06,0-.23.14-.13.07-.15.1a2.32,2.32,0,0,0-.4.43,7.16,7.16,0,0,1-.75.9l-.22.24h0Z"/><path class="cls-4" d="M10.24,28.43h0c.27.57.6,1.16.95,1.86,0-.07,0-.13,0-.2l-.42-1.66Z"/><path class="cls-4" d="M10.24,28.43s1.14,3.3,0,5.12-.83,4.88,2.89,6.53a2.64,2.64,0,0,1,1.11-1.73,11.17,11.17,0,0,1-2.44-4.46,38.38,38.38,0,0,1-.59-3.8c0,.07,0,.13,0,.2C10.84,29.59,10.51,29,10.24,28.43Z"/><path class="cls-4" d="M89.82,28a5.67,5.67,0,0,0,.25-3.15,1.71,1.71,0,0,1-.57.92,2.2,2.2,0,0,0-.83,1.53c-.08.4-.14.8-.19,1.21a3.43,3.43,0,0,0,.2,1.76,6.1,6.1,0,0,1,.37,3,8,8,0,0,0,0,2c.15-.31.3-.62.46-.91A9.18,9.18,0,0,1,89.82,28Z"/><path class="cls-4" d="M86.62,17c0,.05,0,.1,0,.15a8.39,8.39,0,0,1,.29-.79c-.43-.47-.87-.93-1.32-1.39l.58.95A5.6,5.6,0,0,1,86.62,17Z"/><path class="cls-4" d="M88.15,24.7c0-.06.06-.12.08-.18a1.77,1.77,0,0,0-.33-2h0s0,.09,0,.14A11,11,0,0,1,88.15,24.7Z"/><path class="cls-4" d="M86.86,31.13a7.18,7.18,0,0,1-.21,3,5.09,5.09,0,0,1-2.48,3.15l.72,1.16a4.78,4.78,0,0,0,4.67-4.06c-.16.29-.31.6-.46.91a8,8,0,0,1,0-2,6.1,6.1,0,0,0-.37-3,3.43,3.43,0,0,1-.2-1.76c0-.41.11-.81.19-1.21a2.2,2.2,0,0,1,.83-1.53,1.71,1.71,0,0,0,.57-.92A6.24,6.24,0,0,0,88.3,21.7c-1.16-.86-1.44-3.37-1-4.95L87,16.31a8.39,8.39,0,0,0-.29.79c0-.05,0-.1,0-.15a5.6,5.6,0,0,0-.41-1.08l-.58-.95-.15-.15c1.12,2.83,2.21,10.31,2.41,11.69C88.07,27.63,86.81,30.42,86.86,31.13Zm1-8.63a1.77,1.77,0,0,1,.33,2c0,.06-.06.12-.08.18a11,11,0,0,0-.24-2.06c0-.05,0-.1,0-.14Z"/><path class="cls-4" d="M82.46,12l-.26-.22-.25.33Z"/><path class="cls-4" d="M82.2,11.75h0l-.24.34Z"/><path class="cls-6" d="M35.54,44.19h0a7.91,7.91,0,0,1,.27.78c3.08,2.18,4.91,4.94,4.46,6.64C40.77,49.77,38.87,46.4,35.54,44.19Z"/><path class="cls-6" d="M34.24,42.85a23.36,23.36,0,0,0-3.41-1.28,8.43,8.43,0,0,0-3.2-.38,4.07,4.07,0,0,0-2,.66c-.54.39-.65.67-.33,1.27a3.18,3.18,0,0,1,.34,1.68,3,3,0,0,0,.08,1,6.82,6.82,0,0,0,1.56,2.61,19.79,19.79,0,0,0,3.15,2.7,23,23,0,0,0,3.19,1.76A13.36,13.36,0,0,0,38,54a.7.7,0,0,0,.25,0,4.5,4.5,0,0,0,2.58-1,6.2,6.2,0,0,0,.51-2.16,8,8,0,0,0-2-4.22A14.89,14.89,0,0,0,34.24,42.85ZM40,52.13c-1.08,1.62-4.77,1.07-8.34-1.2-.3-.19-.59-.38-.87-.59-3.32-2.4-5.14-5.48-4.09-7.06.78-1.18,3-1.46,5.54-.67a12.83,12.83,0,0,1,3.26,1.58h0c3.33,2.21,5.23,5.58,4.73,7.42A1.87,1.87,0,0,1,40,52.13Z"/><path class="cls-6" d="M32.13,43l.15-.38c-2.53-.79-4.76-.51-5.54.67C27.52,42.11,29.66,42.07,32.13,43Z"/><path class="cls-11" d="M30.83,50.34c.28.21.57.4.87.59l-.32-.21C31.19,50.6,31,50.47,30.83,50.34Z"/><path class="cls-11" d="M35.81,45a13.48,13.48,0,0,1,.33,1.39A12.86,12.86,0,0,1,38.74,49a13.71,13.71,0,0,1,.84,1.43,1.8,1.8,0,0,1,.19.55,1.3,1.3,0,0,1-1.08,1.81,5.24,5.24,0,0,1-1.81.06,13.92,13.92,0,0,1-5.18-1.89C35.27,53.2,39,53.75,40,52.13a2.22,2.22,0,0,0,.23-.52C40.72,49.91,38.89,47.15,35.81,45Z"/><path class="cls-11" d="M27.76,47.23A6,6,0,0,1,27,45.66a1.79,1.79,0,0,1,.08-1.38,1.39,1.39,0,0,1,1.33-1,7.51,7.51,0,0,1,2.83.41l-.1.46,0,.36a6.36,6.36,0,0,1,.7.16,6.89,6.89,0,0,1,.3-1.73c-2.47-.92-4.61-.88-5.39.29-1,1.58.77,4.66,4.09,7.06A14.39,14.39,0,0,1,27.76,47.23Z"/><path class="cls-11" d="M40.27,51.61a2.22,2.22,0,0,1-.23.52A1.87,1.87,0,0,0,40.27,51.61Z"/><path class="cls-11" d="M32.64,50c-.25-.15-.5-.3-.74-.46l.34.71.49.55a1.71,1.71,0,0,0,.91.55,5.22,5.22,0,0,1-.78-1.23Z"/><path class="cls-11" d="M38.69,52.76A1.3,1.3,0,0,0,39.77,51a1.8,1.8,0,0,0-.19-.55A13.71,13.71,0,0,0,38.74,49a12.86,12.86,0,0,0-2.6-2.61l0,.15.06.39c2,1.48,3.18,3.16,2.66,4.06a1,1,0,0,1-.46.41,1.42,1.42,0,0,1-.52.34,3,3,0,0,1-1.71.1l-.68-.16a1,1,0,0,1-.59.33,1.47,1.47,0,0,1-1.29-.66,1.71,1.71,0,0,1-.91-.55l-.49-.55a.69.69,0,0,1-.25,0,11.55,11.55,0,0,1-3.87-3.42,2.55,2.55,0,0,1-.31-.59A1.51,1.51,0,0,1,29.27,44c.63,0,1.26.12,1.89.18l.1-.46a7.51,7.51,0,0,0-2.83-.41,1.39,1.39,0,0,0-1.33,1A1.79,1.79,0,0,0,27,45.66a6,6,0,0,0,.74,1.57,14.39,14.39,0,0,0,3.07,3.11c.18.13.36.26.55.38l.32.21a13.92,13.92,0,0,0,5.18,1.89A5.24,5.24,0,0,0,38.69,52.76Z"/><path class="cls-11" d="M28.66,45.05a1.27,1.27,0,0,1,.95-.55,2.42,2.42,0,0,0-1.26.33,2.08,2.08,0,0,0,.47,1.87,10.25,10.25,0,0,0,2.79,2.7.19.19,0,0,0,.1,0C29.44,47.85,28.1,46,28.66,45.05Z"/><path class="cls-11" d="M35.76,51.32l.17,0-.17-.05Z"/><path class="cls-11" d="M35.93,51.35l-.17,0-.24.33.68.16a3,3,0,0,0,1.71-.1,1.42,1.42,0,0,0,.52-.34A4,4,0,0,1,35.93,51.35Z"/><path class="cls-11" d="M31.71,49.39a.19.19,0,0,1-.1,0,10.25,10.25,0,0,1-2.79-2.7,2.08,2.08,0,0,1-.47-1.87,2.42,2.42,0,0,1,1.26-.33,4.45,4.45,0,0,1,1.52.06l0-.36c-.63-.06-1.26-.18-1.89-.18a1.51,1.51,0,0,0-1.46,2.16,2.55,2.55,0,0,0,.31.59A11.55,11.55,0,0,0,32,50.19a.69.69,0,0,0,.25,0l-.34-.71Z"/><path class="cls-12" d="M31.8,48.46l-.34-.05.32-.24c-.07.31.18.62.28,1.14l0-.07.08.17-.09-.1c.32.2.62.41.95.58l-.33.31A12.49,12.49,0,0,1,32,48.44l.18.19Zm.21-.54.31.2.16.09,0,.09A8.84,8.84,0,0,0,33.07,50l.31.69-.63-.38-1-.58-.05,0,0-.06-.08-.17v-.07a4,4,0,0,1-.34-1.26l0-.27.3,0Z"/><path class="cls-12" d="M31.26,46.26a3.25,3.25,0,0,1,.56-.28l-.21.27V44.71l.17.23c-.22-.06-.45-.1-.68-.15l.28-.21,0,.3v0A9.4,9.4,0,0,1,31.26,46.26Zm-.31.49c-.05-.61-.1-1.27-.09-1.89h0l0-.3,0-.27.25.06.73.17.16,0v.2l0,1.48v.2l-.22.07A6.53,6.53,0,0,1,31,46.75Z"/><path class="cls-12" d="M38,48.37a3.87,3.87,0,0,1,.88,1.43,2.51,2.51,0,0,1,.11.87,1.4,1.4,0,0,1-.36.87l-.3-.4a.77.77,0,0,0,.43-.93A3.14,3.14,0,0,0,38.14,49a9.66,9.66,0,0,0-2.07-1.91l.42-.25,0,.17-.09-.17Zm-.42.4-1.49-1.5L36,47.18v-.09l0-.16-.07-.62.49.37a10.65,10.65,0,0,1,2.13,2.06,4,4,0,0,1,.71,1.37,1.51,1.51,0,0,1-.06.86,1.23,1.23,0,0,1-.62.63l-1.22.58.93-1a1.25,1.25,0,0,0,.1-1.23A3.23,3.23,0,0,0,37.57,48.77Z"/><path class="cls-12" d="M31.34,47.91a2.81,2.81,0,0,1,.58,0l-.19.5a1.29,1.29,0,0,1,0-2l-.09.22,0-.36.3.23-.7.25-.36.13v-2l.13.22a3,3,0,0,0-1.39-.35h0c-.53.06-.92.38-.88.85A2.69,2.69,0,0,0,29.4,47a10.57,10.57,0,0,0,2.46,2.2l-.24,0,.13,0-.19.3a4.21,4.21,0,0,0-.2-.54,2.72,2.72,0,0,1-.11-.34l0-.2v-.12A.55.55,0,0,1,31.34,47.91Zm.34.46a.14.14,0,0,0,.11-.12v0s0,.08,0,.12a1.36,1.36,0,0,0,.07.25,3.43,3.43,0,0,1,.21.66l0,.21-.23.08-.09,0-.13,0-.11-.07A11.12,11.12,0,0,1,29,47.26a3.17,3.17,0,0,1-.72-1.67,1.21,1.21,0,0,1,.39-.93,1.66,1.66,0,0,1,.88-.39h0a3.35,3.35,0,0,1,1.61.38l.13.07v1.79L31,46.28l.82-.3.26-.09,0,.32,0,.34v.15l-.11.08a.78.78,0,0,0,0,1.2l.93.66-1.12-.17A.49.49,0,0,1,31.68,48.37Z"/><path class="cls-12" d="M36,51.2c0-.06,0-.13,0-.13h0a3.79,3.79,0,0,0,1.12,0,.42.42,0,0,0,.29-.27,1.18,1.18,0,0,0,0-.5,4.07,4.07,0,0,0-1.23-2l.41-.17a10.5,10.5,0,0,1-.07,1.68,8.33,8.33,0,0,1-.17.84c0,.14-.08.28-.13.42l-.09.21,0,0v0A.09.09,0,0,0,36,51.2Zm-.53.21a.77.77,0,0,1,0-.25.61.61,0,0,0,0-.12l0,0,.08-.17a3,3,0,0,0,.13-.36,4.68,4.68,0,0,0,.18-.76,9.37,9.37,0,0,0,.09-1.59v-.63l.42.45a4.9,4.9,0,0,1,1.37,2.25,1.6,1.6,0,0,1,0,.75.88.88,0,0,1-.58.58,4.13,4.13,0,0,1-1.39.11h0A.69.69,0,0,1,35.5,51.41Z"/><path class="cls-12" d="M38.41,50.26a3.05,3.05,0,0,0-.92-1.59l-1.41-1.41L36.5,47l.07,1.07-.07-.16a6.76,6.76,0,0,1,.83,1,3.81,3.81,0,0,1,.53,1.24,1.55,1.55,0,0,1,0,.74.92.92,0,0,1-.58.59,4,4,0,0,1-1.37.08l.1-.5a6.32,6.32,0,0,0,1.21.18,2.5,2.5,0,0,0,1.11-.16l-.08.06A1,1,0,0,0,38.41,50.26Zm.56-.11a1.59,1.59,0,0,1-.33,1.4l0,.05,0,0a2.93,2.93,0,0,1-1.38.19,7.16,7.16,0,0,1-1.31-.21l-1.8-.46,1.9,0a3.52,3.52,0,0,0,1.13,0,.45.45,0,0,0,.3-.27,1.28,1.28,0,0,0,0-.52,4.13,4.13,0,0,0-1.25-2l-.06-.06v-.1l-.08-1-.06-.68.47.46,1.48,1.43A3.53,3.53,0,0,1,39,50.15Z"/><path class="cls-12" d="M29.9,44.47a.23.23,0,0,0,0-.18.22.22,0,0,0-.14-.07h.11l.21,0a3.76,3.76,0,0,1,1.18.4l-.33.18c0-.1,0-.2,0-.3l.19.25a4.62,4.62,0,0,0-.73-.07H30l-.17,0h-.09s0,0,.1,0A.24.24,0,0,0,29.9,44.47Zm-.58.05a.37.37,0,0,1,.35-.31H30a2.82,2.82,0,0,1,.41,0,7,7,0,0,1,.78.11l.21,0,0,.21c0,.1,0,.2,0,.3v.35L31,45.07a2.9,2.9,0,0,0-.68-.24l-.35,0H29.7a.42.42,0,0,1-.23-.07A.4.4,0,0,1,29.32,44.52Z"/><path class="cls-12" d="M32,49.42c.05,0,.05-.12,0-.1l-.34.29a1.4,1.4,0,0,0-.1-.16l.3.14S32,49.5,32,49.42Zm-.57-.07a.63.63,0,0,1,.33-.25l.23,0,.07.17a.49.49,0,0,0,.06.17l.53.7-.87-.4A1,1,0,0,1,31.42,49.35Z"/><path class="cls-6" d="M35.4,44.68l.41.29a7.91,7.91,0,0,0-.27-.78,12.83,12.83,0,0,0-3.26-1.58l-.15.38A16.46,16.46,0,0,1,35.4,44.68Z"/><path class="cls-6" d="M34.11,51.34l.56-.4a12.71,12.71,0,0,1-1.81-.85,5.22,5.22,0,0,0,.78,1.23A1.45,1.45,0,0,0,34.11,51.34Z"/><path class="cls-6" d="M32.13,43a6.89,6.89,0,0,0-.3,1.73A13.65,13.65,0,0,1,34.91,46l.59.36-.07-.48a4.35,4.35,0,0,1,.4.21l.31.23A13.48,13.48,0,0,0,35.81,45l-.41-.29A16.46,16.46,0,0,0,32.13,43Z"/><path class="cls-6" d="M35.43,45.92l.07.48c.25.16.49.33.73.5l-.06-.39,0-.15-.31-.23A4.35,4.35,0,0,0,35.43,45.92Z"/><path class="cls-6" d="M34.11,51.34a1.45,1.45,0,0,1-.47,0,1.47,1.47,0,0,0,1.29.66,1,1,0,0,0,.59-.33l-.76-.2C34.54,51.4,34.32,51.38,34.11,51.34Z"/><path class="cls-6" d="M34.94,51.05a.28.28,0,0,0,.13.09,3.88,3.88,0,0,0,.69.18v0C35.5,51.23,35.22,51.15,34.94,51.05Z"/><path class="cls-6" d="M35.07,51.14a.28.28,0,0,1-.13-.09l-.27-.11-.56.4c.21,0,.43.06.65.11l.76.2.24-.33A3.88,3.88,0,0,1,35.07,51.14Z"/><path class="cls-6" d="M35.49,48.53c0-.32,0-.65,0-1l0-1,0,1C35.52,47.88,35.51,48.21,35.49,48.53Z"/><path class="cls-6" d="M31.87,46.23a1,1,0,0,1,.7.12,1,1,0,0,1,0,2.08.87.87,0,0,1-.32-.06,9.83,9.83,0,0,0,.62,1.72,12.71,12.71,0,0,0,1.81.85l.13-.08a4.79,4.79,0,0,0,.69-2.33c0-.32,0-.65,0-1l0-1V46.4L34.91,46a13.65,13.65,0,0,0-3.08-1.32A11.12,11.12,0,0,0,31.87,46.23Z"/><path class="cls-6" d="M35.51,46.52a7.77,7.77,0,0,1,.74.54.88.88,0,0,1,0-.16c-.24-.17-.48-.34-.73-.5Z"/><path class="cls-6" d="M32.56,46.35h0a1,1,0,0,0-.7-.12l0,.35A1.08,1.08,0,0,1,32.56,46.35Z"/><path class="cls-6" d="M35.84,47.64c-.07-.06-.2-.06-.3-.09,0,.33,0,.66,0,1a4.79,4.79,0,0,1-.69,2.33c.05,0,.09.13.14.19.28.1.56.18.82.25a6.26,6.26,0,0,0,.57-3.19C36.17,48,36,47.79,35.84,47.64Z"/><path class="cls-6" d="M34.67,50.94l.27.11c0-.06-.09-.14-.14-.19Z"/><path class="cls-6" d="M35.84,47.64c.17.15.33.31.49.47,0-.34,0-.69-.08-1a7.77,7.77,0,0,0-.74-.54l0,1C35.64,47.58,35.77,47.58,35.84,47.64Z"/><path class="cls-10" d="M31.91,48.19a1.06,1.06,0,0,0,.33.18c0-.06,0-.12-.05-.19A.87.87,0,0,1,31.91,48.19Z"/><path class="cls-10" d="M32.19,48.18a9.43,9.43,0,0,1-.2-1c0-.21-.06-.41-.09-.62a1,1,0,0,0-.38.81,1,1,0,0,0,.39.8A.87.87,0,0,0,32.19,48.18Z"/><path class="cls-10" d="M32.83,46.58a.92.92,0,0,1,.14,1,1,1,0,0,1-.78.58c0,.07,0,.13.05.19a.87.87,0,0,0,.32.06,1,1,0,0,0,0-2.08A1.1,1.1,0,0,1,32.83,46.58Z"/><path class="cls-10" d="M31.9,46.58c0,.21.05.41.09.62a9.43,9.43,0,0,0,.2,1A1,1,0,0,0,33,47.6a.92.92,0,0,0-.14-1,1.1,1.1,0,0,0-.26-.23h0A1.08,1.08,0,0,0,31.9,46.58Z"/><path class="cls-9" d="M61.63,44a5.61,5.61,0,0,0,1.61-1.5h0A5.61,5.61,0,0,1,61.63,44a3.45,3.45,0,0,0-1.34,1.61,9.5,9.5,0,0,0-.3,2.11,9.5,9.5,0,0,1,.3-2.11A3.45,3.45,0,0,1,61.63,44Z"/><path class="cls-9" d="M69.23,40.85h0c0-.11-.13-.22-.25-.31C69.1,40.63,69.22,40.74,69.23,40.85Z"/><path class="cls-9" d="M69.72,41.69c0-.12.25-.21.5-.23h0c-.25,0-.47.11-.5.23a1.41,1.41,0,0,1-1.1,1.21A1.41,1.41,0,0,0,69.72,41.69Z"/><path class="cls-10" d="M64,43.87l-.39.08-.76.1c-.29.09-.59.17-.88.28a1.35,1.35,0,0,0-1,.91c-.21.86-.37,1.74-.55,2.62L60.3,48c-.1,1.55-.14,1.59-1.58,2l-.09,0A.77.77,0,0,0,58,51c0,.25.05.49.11.94a2.39,2.39,0,0,1,2-1.1c2.63-.19,5.25-.43,7.88-.66a1.21,1.21,0,0,0,1-.33c0-.33-.07-.68-.1-1-.06-.52-.11-1-.17-1.57-.31-.39,0-.88-.22-1.3l-.18-1.55c0-.34-.09-.67-.14-1a.85.85,0,0,0,.44,0,.85.85,0,0,1-.44,0c-.11-.3-.26-.52-.64-.38-.07,0-.17,0-.26,0l-1.06.3Zm3.25,1v1.94h.58V48H65.57v.54h1.16v1.17H64.45V48.5h.09V48H64v1.22H62.89v1.17H60.4v-1H62v-.59h-.83V46.31h2.49V46h-.54V44.26h1.8v1.17h.78v-.58Z"/><path class="cls-9" d="M66.27,40.91l-5.18,1.65a2.49,2.49,0,0,0-.48.26l-.79.12a6,6,0,0,0-.33,1.35,14.48,14.48,0,0,1-.56,2.86c-.11.49-.25,1-.37,1.46a1.5,1.5,0,0,0,0,.22,1.5,1.5,0,0,1,0-.22c.12-.49.26-1,.37-1.46a14.48,14.48,0,0,0,.56-2.86,6,6,0,0,1,.33-1.35l.79-.12a2.49,2.49,0,0,1,.48-.26c1.73-.56,3.45-1.1,5.18-1.64.48-.16,1-.31,1.42-.48a1.84,1.84,0,0,1,.6-.1,1.84,1.84,0,0,0-.6.1C67.22,40.61,66.75,40.76,66.27,40.91Z"/><path class="cls-9" d="M69.48,44.59c0,.17.06.33.08.5,0-.17,0-.33-.08-.5a4.2,4.2,0,0,1-.06-.61A4.2,4.2,0,0,0,69.48,44.59Z"/><path class="cls-9" d="M57.13,50.06a.33.33,0,0,1,.09-.16A.33.33,0,0,0,57.13,50.06Z"/><path class="cls-9" d="M66.34,42.63a1,1,0,0,1,.71.12,1,1,0,0,0-.71-.12,5.93,5.93,0,0,1-2.29-.29h0A5.93,5.93,0,0,0,66.34,42.63Z"/><path class="cls-9" d="M69.93,49.06h0c.24.09.3.21.3.32C70.23,49.27,70.17,49.15,69.93,49.06Z"/><path class="cls-9" d="M72.37,41.88a.42.42,0,0,1,.11.29A.42.42,0,0,0,72.37,41.88Z"/><path class="cls-9" d="M69.37,39.25a.85.85,0,0,0-1.19.21h0A.86.86,0,0,1,69.37,39.25Z"/><path class="cls-13" d="M71,40.38l.14.14.17-.54L71,39.67v.69Z"/><path class="cls-13" d="M70.46,39.09a1.08,1.08,0,0,1-.39-.18.94.94,0,0,1-.7-.22,1,1,0,0,0-1.14,0c-.36.25-.78.39-1,.84a1.2,1.2,0,0,1-.82.57q-2.57.78-5.1,1.61c-.63.2-1.25.42-1.85.67a.8.8,0,0,0-.41.46c-.15.54-.23,1.1-.33,1.65-.06.31-.11.62-.16.92-.12.73-.27,1.46-.36,2.19a1,1,0,0,1-1,1l-.52.44-.53,1.41a5.77,5.77,0,0,0,.51,1.19c.72,1,.31,1.93,0,2.85a23.94,23.94,0,0,0-1.06,2.79,6.61,6.61,0,0,1-.39.92.75.75,0,0,0,.07.28,6.86,6.86,0,0,1,.67,3.62A.88.88,0,0,0,57,61.78a5.06,5.06,0,0,0,.16-1.86.64.64,0,0,1,.27-.65c.34-.22.31-.52.21-.84s-.28-.76-.4-1.11c.51-1.34,1-2.65,1.5-4,.13-.33.29-.52.67-.52a36.36,36.36,0,0,0,5.32-.57c1.34-.19,2.66-.47,4-.72.52-.1,1-.19,1.56-.34a1.36,1.36,0,0,0,1-1.31,8.79,8.79,0,0,0-.11-2c-.18-1-.36-2-.57-3.06a1.59,1.59,0,0,1,.21-1.43,3.16,3.16,0,0,0,.3-.78c.43.2.43.2,1,1a1.88,1.88,0,0,0,1-1.66,1.18,1.18,0,0,0-.27-.58,8.15,8.15,0,0,0-.61-.68v0a5.62,5.62,0,0,1-.88-.66l-.17.54a11.14,11.14,0,0,1,1.19,1.36.42.42,0,0,1,.11.29v0a.41.41,0,0,1-.23.25,14.52,14.52,0,0,0-4.06-3h0a.85.85,0,0,1,1.19-.21A6.37,6.37,0,0,1,71,40.36v-.69a6.91,6.91,0,0,1-.51-.57ZM57.27,50.64a1.36,1.36,0,0,1-.14-.58.33.33,0,0,1,.09-.16l.22-.19C57.39,50,57.34,50.27,57.27,50.64Zm12.9-.9-.18,0c0-.23,0-.45-.06-.72h0c.24.09.3.21.3.32S70.16,49.63,70.17,49.74Zm-1.88-9.4.3,0a1.11,1.11,0,0,1,.29.1l.1.07c.12.09.24.2.25.31h0a.28.28,0,0,1-.1.17.69.69,0,0,1-.25.18,5.77,5.77,0,0,1-.82.2l-3.68.8a1.56,1.56,0,0,0-.33.14,5.93,5.93,0,0,0,2.29.29,1,1,0,0,1,.71.12.76.76,0,0,1,.17.22c.09,0,.19.06.26,0,.38-.14.53.08.64.38a.85.85,0,0,0,.44,0,.38.38,0,0,0,.13-.1l-.07-.43a1.41,1.41,0,0,0,1.1-1.21c0-.12.25-.21.5-.23h0A6.81,6.81,0,0,1,69.7,43a1.64,1.64,0,0,0-.28.8V44a4.2,4.2,0,0,0,.06.61c0,.17.06.33.08.5.17,1,.33,2,.5,3v.18h0v.06c0,.07,0,.16,0,.28-.17-.25-.26-.33-.28-.42-.16-.64-.29-1.28-.44-1.91a2,2,0,0,0-.14-.34l-.17.21a1.64,1.64,0,0,0-.14.22c0,.13-.08.27-.11.41s-.07.27-.1.41c.06.52.11,1.05.17,1.57,0,.34.06.69.1,1a1.21,1.21,0,0,1-1,.33c-2.63.23-5.25.47-7.88.66a2.39,2.39,0,0,0-2,1.1C58,51.46,58,51.22,58,51a.77.77,0,0,1,.66-1l.09,0c1.44-.38,1.48-.42,1.58-2l-.2-.15c-.06,0-.11-.1-.11-.14a9.5,9.5,0,0,1,.3-2.11A3.45,3.45,0,0,1,61.63,44a5.61,5.61,0,0,0,1.61-1.5c-.54.09-1.08.2-1.62.27-.33,0-.66,0-1,.06l-.07.13a6.15,6.15,0,0,0-.89,2.09c-.17,1.14-.35,2.28-.52,3.42,0,.34-.14.59-.61.63h0a2.26,2.26,0,0,1,0-.27,1.5,1.5,0,0,1,0-.22c.12-.49.26-1,.37-1.46a14.48,14.48,0,0,0,.56-2.86,6,6,0,0,1,.33-1.35l.79-.12a2.49,2.49,0,0,1,.48-.26l5.18-1.65c.48-.15,1-.3,1.42-.47A1.84,1.84,0,0,1,68.29,40.34Z"/><path class="cls-14" d="M66.27,40.92c-1.73.54-3.45,1.08-5.18,1.64a2.49,2.49,0,0,0-.48.26v0h0c.34,0,.67,0,1-.06.54-.07,1.08-.18,1.62-.27h0l.81-.17h0a1.56,1.56,0,0,1,.33-.14l3.68-.8a5.77,5.77,0,0,0,.82-.2.69.69,0,0,0,.25-.18.28.28,0,0,0,.1-.17c0-.11-.13-.22-.25-.31l-.1-.07a1.11,1.11,0,0,0-.29-.1l-.3,0a1.84,1.84,0,0,0-.6.1C67.22,40.61,66.75,40.76,66.27,40.92Z"/><path class="cls-14" d="M64.05,42.34h0a1.56,1.56,0,0,1,.33-.14l3.68-.8-3.68.8A1.56,1.56,0,0,0,64.05,42.34Z"/><path class="cls-14" d="M69,40.54l-.1-.07a1.11,1.11,0,0,0-.29-.1,1.11,1.11,0,0,1,.29.1Z"/><path class="cls-14" d="M61.62,42.78c-.33,0-.66,0-1,.06h0c.34,0,.67,0,1-.06.54-.07,1.08-.18,1.62-.27h0C62.7,42.6,62.16,42.71,61.62,42.78Z"/><path class="cls-14" d="M68.88,41.2a5.77,5.77,0,0,1-.82.2,5.77,5.77,0,0,0,.82-.2.69.69,0,0,0,.25-.18A.69.69,0,0,1,68.88,41.2Z"/><path class="cls-14" d="M69.23,40.85a.28.28,0,0,1-.1.17A.28.28,0,0,0,69.23,40.85Z"/><path class="cls-13" d="M66.34,42.63a5.93,5.93,0,0,1-2.29-.29l-.81.17A5.61,5.61,0,0,1,61.63,44a3.45,3.45,0,0,0-1.34,1.61,9.5,9.5,0,0,0-.3,2.11s0,.09.11.14l.2.15h0l.16-.16c.18-.88.34-1.76.55-2.62a1.35,1.35,0,0,1,1-.91c.29-.11.59-.19.88-.28a1.58,1.58,0,0,1,1.55-1,9.45,9.45,0,0,1,1.74.19l1.06-.3a.76.76,0,0,0-.17-.22A1,1,0,0,0,66.34,42.63Z"/><path class="cls-13" d="M67.22,43a.76.76,0,0,0-.17-.22A.76.76,0,0,1,67.22,43Z"/><path class="cls-13" d="M60.1,47.87l.2.15h0Z"/><path class="cls-14" d="M69.18,46a2,2,0,0,1,.14.34c.15.63.28,1.27.44,1.91,0,.09.11.17.28.42,0-.12,0-.21,0-.28v-.06h0v-.18c-.17-1-.33-2-.5-3,0-.17,0-.33-.08-.5a4.2,4.2,0,0,1-.06-.61v-.2a1.64,1.64,0,0,1,.28-.8,6.81,6.81,0,0,0,.52-1.52c-.25,0-.47.11-.5.23a1.41,1.41,0,0,1-1.1,1.21l.07.43A6.34,6.34,0,0,1,69.18,46Z"/><path class="cls-14" d="M69.42,44v0Z"/><path class="cls-14" d="M70.06,48.25v-.13c-.17-1-.33-2-.5-3,.17,1,.33,2,.5,3Z"/><path class="cls-14" d="M69.18,46h0a2,2,0,0,1,.14.34c.15.63.28,1.27.44,1.91-.16-.64-.29-1.28-.44-1.91A2,2,0,0,0,69.18,46Z"/><path class="cls-14" d="M69.42,43.78a1.64,1.64,0,0,1,.28-.8,6.81,6.81,0,0,0,.52-1.52A6.81,6.81,0,0,1,69.7,43,1.64,1.64,0,0,0,69.42,43.78Z"/><path class="cls-14" d="M69.76,48.23c0,.09.11.17.28.42,0-.12,0-.21,0-.28s0,.16,0,.28C69.87,48.4,69.78,48.32,69.76,48.23Z"/><path class="cls-14" d="M71,40.36h0l.1.35.06-.19L71,40.38Z"/><path class="cls-14" d="M71,40.36h0a6.37,6.37,0,0,0-1.65-1.11.86.86,0,0,0-1.19.21,14.52,14.52,0,0,1,4.06,3,.41.41,0,0,0,.23-.25v0a.42.42,0,0,0-.11-.29,11.14,11.14,0,0,0-1.19-1.36l-.06.19Z"/><path class="cls-14" d="M72.24,42.46a14.52,14.52,0,0,0-4.06-3h0a14.52,14.52,0,0,1,4.06,3,.41.41,0,0,0,.23-.25A.41.41,0,0,1,72.24,42.46Z"/><path class="cls-14" d="M59.82,42.94a6,6,0,0,0-.33,1.35,14.48,14.48,0,0,1-.56,2.86c-.11.49-.25,1-.37,1.46a1.5,1.5,0,0,0,0,.22,2.26,2.26,0,0,0,0,.27c.47,0,.56-.28.61-.62.17-1.14.35-2.28.52-3.42A6.15,6.15,0,0,1,60.55,43l.07-.13v0Z"/><path class="cls-14" d="M58.53,49.1a2.26,2.26,0,0,1,0-.27A2.26,2.26,0,0,0,58.53,49.1Z"/><path class="cls-14" d="M59.14,48.48c0,.34-.14.59-.61.62h0c.47,0,.56-.29.61-.63.17-1.14.35-2.28.52-3.42A6.15,6.15,0,0,1,60.55,43a6.15,6.15,0,0,0-.89,2.09C59.49,46.2,59.31,47.34,59.14,48.48Z"/><path class="cls-15" d="M68.12,43.38c0,.33.1.66.14,1l.18,1.55c.19.42-.09.91.22,1.3h0c0-.14.06-.28.1-.41s.07-.28.11-.41a1.64,1.64,0,0,1,.14-.22l.17-.21a6.34,6.34,0,0,0-.49-2.65.38.38,0,0,1-.13.1A.85.85,0,0,1,68.12,43.38Z"/><path class="cls-15" d="M69,46.19l.17-.21h0Z"/><path class="cls-15" d="M68.66,47.23c0-.14.06-.28.1-.41,0,.13-.07.27-.1.41Z"/><path class="cls-15" d="M57.22,49.9a.33.33,0,0,0-.09.16,1.36,1.36,0,0,0,.14.58c.07-.37.12-.65.17-.93Z"/><path class="cls-15" d="M57.13,50.06a1.36,1.36,0,0,0,.14.58c.07-.37.12-.65.17-.93,0,.28-.1.56-.17.93A1.36,1.36,0,0,1,57.13,50.06Z"/><path class="cls-14" d="M69.93,49.06c0,.27,0,.49.06.72l.18,0c0-.11.06-.24.06-.36S70.17,49.15,69.93,49.06Z"/><path class="cls-14" d="M70,49.78c0-.23,0-.45-.06-.72,0,.27,0,.49.06.72l.18,0c0-.11.06-.24.06-.36,0,.12-.07.25-.06.36Z"/><path class="cls-13" d="M64,43.87l2.14-.6a9.45,9.45,0,0,0-1.74-.19,1.58,1.58,0,0,0-1.55,1l.76-.1Z"/><polygon class="cls-9" points="65.66 45.43 64.88 45.43 64.88 44.26 63.08 44.26 63.08 45.97 63.62 45.97 63.62 46.31 61.13 46.31 61.13 48.74 61.96 48.74 61.96 49.33 60.4 49.33 60.4 50.35 62.89 50.35 62.89 49.81 62.89 49.33 62.89 49.18 64.01 49.18 64.01 48.74 64.01 47.96 64.54 47.96 64.54 48.5 64.44 48.5 64.44 49.67 66.73 49.67 66.73 48.5 65.56 48.5 65.56 47.96 67.86 47.96 67.86 46.79 67.27 46.79 67.27 44.84 65.66 44.84 65.66 45.43"/><path class="cls-7" d="M74.3,93.71a50,50,0,0,0,12-9.38l-1.47-.28Z"/><path class="cls-7" d="M70.82,93.14l-4.39,3.1A17.52,17.52,0,0,0,70.82,93.14Z"/><path class="cls-7" d="M82.39,81.43l1.44,1L68.39,96.51a51.55,51.55,0,0,0,5.91-2.8l10.58-9.66,1.47.28.23-.24-7.39-4.88Z"/><path class="cls-7" d="M82.39,81.43l-3.2-2.22L78.88,79,76.39,89.21l-5.57,3.93a17.52,17.52,0,0,1-4.39,3.1h0l1,.62.91-.35L83.83,82.42Z"/><path class="cls-1" d="M76.75,75.14,80.81,78l3.89,2.7,1.13.78,1.92,1.36.15-.18L76.75,75.12Z"/><path class="cls-6" d="M84.7,80.65,80.81,78l-4.06-2.81.37,2.61,9.48,6.32c.39-.42.77-.85,1.15-1.28l-1.92-1.36Z"/></g></g></svg>