<svg xmlns="http://www.w3.org/2000/svg" viewBox="0 0 100 100"><defs><style>.cls-1{fill:#181866;}.cls-2{fill:#48b0a9;}.cls-3{fill:#b28d31;}.cls-4{fill:#f28f04;}.cls-5{fill:#567578;}.cls-6{fill:#570f01;}.cls-7{fill:#d58a6a;}.cls-8{fill:#d44f28;}.cls-9{fill:#fff;}</style></defs><title>Riley</title><g id="Layer_2" data-name="Layer 2"><g id="Layer_1-2" data-name="Layer 1"><circle class="cls-1" cx="50" cy="50" r="50"/><path d="M58.87,82.06l.18-.3-.19.23A.42.42,0,0,0,58.87,82.06Z"/><path d="M67.32,92.2a.68.68,0,0,0-.18-.8,51.08,51.08,0,0,1-3.68-5.94c-1.51-2.69-2.7-5.17-3.24-6.3a6.86,6.86,0,0,1-.58,1.65s0,0,0,0a.26.26,0,0,1,.2,0h0l.12,0h0l.11,0h0l.06,0h0l2.75,5,.45.53a38.79,38.79,0,0,0,2.94,5l.13.2.09.13,0,0c-.22-.08-.38,0-.44.06a.14.14,0,0,0,0,.06.36.36,0,0,0,.15.33c.31.26,3.59,3.59,3.59,3.59l0,.06.63-.28A17.58,17.58,0,0,0,67.32,92.2Z"/><path d="M63.59,96c-.17.1-.33.19-.5.27a11.85,11.85,0,0,0,1,1.76l.63-.19-.08-.13S64.26,97,63.59,96Z"/><path class="cls-2" d="M66.17,91.86a.14.14,0,0,0,0,.06A.14.14,0,0,1,66.17,91.86Z"/><path class="cls-2" d="M60.15,80.85l.06,0Z"/><path class="cls-2" d="M60,80.8l.11,0Z"/><path class="cls-2" d="M59.83,80.74h.06a.26.26,0,0,0-.2,0s0,0,0,0l0,.07Z"/><path class="cls-2" d="M60.21,80.89h0Z"/><path class="cls-2" d="M59.9,80.76l.12,0Z"/><path class="cls-2" d="M67.54,95.18c.25-.07,0-.39.14-.52-.86-.86-1.85-1.86-2.05-2.1-.35-.45-1.24-1.91-1.59-2.4s-.67-1.68-1.33-2.84-2.68-4.84-3.4-5.93a3.3,3.3,0,0,1-.26.37l-.18.3a21.46,21.46,0,0,0,2,4.35,85.52,85.52,0,0,1,3.66,8.26l.13.43a3.71,3.71,0,0,1-1,.85c.67,1,1.07,1.71,1.07,1.71l.08.13c1.05-.32,2.08-.68,3.09-1.06a4.26,4.26,0,0,0,0-.45S67.23,95.26,67.54,95.18Z"/><path class="cls-2" d="M68.7,95.67a4.38,4.38,0,0,1,.08.68l.24-.1c0-.17,0-.28,0-.28Z"/><path d="M67.68,94.66c-.14.13.11.45-.14.52s.27,1.1.27,1.1a4.26,4.26,0,0,1,0,.45l1-.38a4.38,4.38,0,0,0-.08-.68Z"/><path class="cls-3" d="M60.14,80.85h0Z"/><path class="cls-3" d="M60,80.8h0Z"/><path class="cls-3" d="M60.21,80.88h0Z"/><path class="cls-3" d="M66.3,92.25a.36.36,0,0,1-.15-.33.36.36,0,0,0,.15.33c.31.26,3.59,3.59,3.59,3.59l0,.06h0l0-.06S66.61,92.51,66.3,92.25Z"/><path class="cls-3" d="M66.17,91.86c.06-.1.22-.14.44-.06C66.39,91.72,66.23,91.76,66.17,91.86Z"/><path class="cls-3" d="M66.49,91.63l.09.13Z"/><path class="cls-3" d="M63.42,86.39a38.79,38.79,0,0,0,2.94,5,38.79,38.79,0,0,1-2.94-5L63,85.86l-2.75-5,2.75,5Z"/><path class="cls-3" d="M59.89,80.75h0Z"/><path class="cls-3" d="M66.3,92.25a.36.36,0,0,1-.15-.33.14.14,0,0,1,0-.06c.06-.1.22-.14.44-.06l0,0-.09-.13-.13-.2a38.79,38.79,0,0,1-2.94-5L63,85.86l-2.75-5h0l-.06,0h0l-.11,0h0l-.12,0h-.07l-.22.14a5.75,5.75,0,0,1-.3.51c.72,1.09,2.78,4.87,3.4,5.93s1,2.35,1.33,2.84,1.24,2,1.59,2.4c.2.24,1.19,1.24,2.05,2.1a.29.29,0,0,1,.22-.06c.37,0,.66.4.8,1.07L69,96s0,.11,0,.28l.84-.35,0-.06S66.61,92.51,66.3,92.25Z"/><path class="cls-3" d="M67.9,94.6a.29.29,0,0,0-.22.06l1,1C68.56,95,68.27,94.6,67.9,94.6Z"/><path d="M62.8,95.53c-.44,0-.64.38-1.71.5H61l0,.17c1-.08,1.55-.15,1.55-.15a3.69,3.69,0,0,1,.23.32l.33-.16a.77.77,0,0,1-.07-.16C63,95.94,62.89,95.76,62.8,95.53Z"/><path d="M43.12,95.64l2.22.64,3.32-.08,1,0a2.42,2.42,0,0,1,0-.27l-4.19.1a3.55,3.55,0,0,0-1.43-.6s-1.86.1-2.23-.27a1.43,1.43,0,0,0-1-.33,13,13,0,0,1-2.43-.93v-2.5c0-1.06-.1-6.35-.1-6.59a3.16,3.16,0,0,1,.3-1.26c.2-.3.36.26.36.26l.34-.49a4.19,4.19,0,0,0,.1,1.39,2.53,2.53,0,0,1,0,1.7,19.94,19.94,0,0,0,.2,3.09,3,3,0,0,0,1,1.87s.1.26.93.16,1,0,1,0a7.58,7.58,0,0,1,.4,2,5,5,0,0,1-2,0c-.23.07-.46.57-.23.67a10.9,10.9,0,0,0,2.5.17c.66-.07.56,0,.56-1.27s-1.43-5.26-1.9-6.85-.83-3.5-.93-3.9a6.57,6.57,0,0,0-.3-.86c.14-.33.74-1.66.87-1.93a2.41,2.41,0,0,0,.13-.8l-.17,0-.19-.36a28.41,28.41,0,0,0-.4-4c0-.1-.6-.2-.47.27a24,24,0,0,1,.27,4.46,2.84,2.84,0,0,0-.3.7c0,.09-.77,1.19-.77,1.19,0-1-.56-4.36-.66-4.79a17.26,17.26,0,0,0-.94-2l-.26-.06-.43-.43,0-.34h-.2s-.27-.1-.7-.8a7.42,7.42,0,0,0-1-1.12h0c-.41-.38-.78-.7-.82-.73h0a34.12,34.12,0,0,1,2.66-2.53l.07,0,0,0h0c.37-.14.77-.07,1.37.92s1.2,3.62,1.6,3.42-.44-2.69-1-3.59a2,2,0,0,0-.35-.42h0a4.19,4.19,0,0,0-.66-.47,4.48,4.48,0,0,0-1.85-.22l-.05-.08a52,52,0,0,0-4.54,4.92,4.33,4.33,0,0,0,.23,1.22l.81-.47s2.49,2,3,2.53a7.58,7.58,0,0,1,.93,6.3c-.37.14-.83.31-1.33.52h0l.1.44a15.23,15.23,0,0,1,1.37,1.09l.63-.16-.1.36.13,9.65a9.35,9.35,0,0,0,3.86,1.43c0-.11,0-.18,0-.18ZM40.26,85.38c.26.9,2.13,5.63,2.13,5.63-.9,0-1.47.29-1.9-1.27S40.12,84.9,40.26,85.38Zm-2.47-2.16c-.16.2-.56.6-.56.6l-1.07-1.23.24-.1a2.06,2.06,0,0,1,.53.43c.23.27.5,0,.5-.23a33.84,33.84,0,0,0,.2-3.73,7.92,7.92,0,0,0-.9-2.83c-.33-.4-3.39-3.13-3.39-3.13s-.24-.26-.44-.13-.66.2-.16-.3S34,71.31,34,71.31s.2-.24.53.26a14.56,14.56,0,0,0,1.66,1.87,4,4,0,0,1,.57.7,14.85,14.85,0,0,1,1.1,1.13,9.42,9.42,0,0,1,.43,1.59c.23.87.5,2.37.63,2.77a10.78,10.78,0,0,1,.1,2l0,.47S38,83,37.79,83.22Z"/><path d="M55,72.07c.37.43,1.66,1.9,2.2,2.36A15.28,15.28,0,0,1,58.59,76c0,.1,0,.2,0,.31h0a8.8,8.8,0,0,1-1,3.17,13.35,13.35,0,0,0-.8-1.93,3.76,3.76,0,0,1-.53-.9,7.88,7.88,0,0,1,.23-1.43,1.4,1.4,0,0,0,0-.41h0c0-.24-.14-.4-.29-.39h0c-.23,0-.4,1-.4,1a13.5,13.5,0,0,0-.7-1.33c-.26-.4-.59-.66-.76-.23s.07.76.3,1.13.5,1.26.9,2.1S58,82,58,82l0,.54.06.09a23.94,23.94,0,0,0,1.55-2.89c.18-.62.49-.71.49-.71l.09.18a7.53,7.53,0,0,0,.13-2.23l-.06-.27L60,76.43v-.27a3.85,3.85,0,0,1-1.1-.93c-.44-.56-2.13-2.73-2.56-3.46a6.27,6.27,0,0,0-2.17-1.94l-.68.65A13.18,13.18,0,0,1,55,72.07Zm3.89,4.43a8.08,8.08,0,0,1,.7.9,3.06,3.06,0,0,1-.26,1.43s-.37-.4-.44-.24.2.64.2.64a5.9,5.9,0,0,1-.79,2.09l-.54-1.23v-.43C58.46,79.06,58.92,76.5,58.92,76.5Z"/><path d="M63.25,95.41a.47.47,0,0,1-.33.12H62.8c.09.23.16.41.22.53a.77.77,0,0,0,.07.16c.17-.08.33-.17.5-.27-.07-.11-.14-.22-.22-.33Z"/><path d="M59.64,79.69a23.94,23.94,0,0,1-1.55,2.89l.25.4.53-.92a.42.42,0,0,1,0-.07l.19-.23.33-.54h0c.11-.18.21-.33.26-.4a6.86,6.86,0,0,0,.58-1.65L60.13,79S59.82,79.07,59.64,79.69Z"/><path d="M59.38,81.22l-.33.54a3.3,3.3,0,0,0,.26-.37l0,0Z"/><path d="M58.89,83.82l.13.9,4.76,9.85a2.1,2.1,0,0,1-.53.84l.12.21c.08.11.15.22.22.33a3.71,3.71,0,0,0,1-.85l-.13-.43a85.52,85.52,0,0,0-3.66-8.26,21.46,21.46,0,0,1-2-4.35l-.53.92Z"/><path d="M59.58,80.89h0l0-.07c0,.07-.15.22-.26.4Z"/><path d="M59.38,81.22h0Z"/><path d="M59.38,81.21h0l-.09.13,0,0a5.75,5.75,0,0,0,.3-.51h0Z"/><path d="M50.68,65.63c-1.59-.45-5.54-3-7.89-4.48A45.89,45.89,0,0,1,34,53.26l-.14-.07-.15.05a5.42,5.42,0,0,1,.4.54,5.29,5.29,0,0,1,.95,3,4.28,4.28,0,0,0,.43.76s.39,2.62,1.06,3.29a5.4,5.4,0,0,1-.18.93,10.93,10.93,0,0,0,0,1.68s-.45.23-.05.71a5.82,5.82,0,0,0,1.07.94l-.93,1.37-.31.62.39.63.32-.27a4.9,4.9,0,0,1,1.59.16c.8.24,8.59,3,11.25,3.06A9.25,9.25,0,0,0,54,69.78l.1,0a3.11,3.11,0,0,1,.37-.34c.4-.27.22-.76,0-.76s-.09-.88.85-1.33a3.67,3.67,0,0,0,1.87-2.87l-.14,0S52.28,66.07,50.68,65.63ZM40,67.76s-1.29-.4-1.56-.53-.84-.71-1.19-.49l.62-1.25.22.09,1.37,1.2a26,26,0,0,0,2.71,1.78C42.65,68.78,40,67.76,40,67.76ZM54.1,67.4a3.89,3.89,0,0,0-2,.27s-2.35-.53-3.51-.76-1.24-.62-1.33-.31.76,1,.76,1l.39.09.23.27a22.12,22.12,0,0,0,3.86.57l.31.18h.62l.4.58a6.8,6.8,0,0,1-3.82,1.06,12.58,12.58,0,0,1-4.79-1.24c-.58-.22-.31,0-.89-.18a5,5,0,0,1-1.33-.84,3.87,3.87,0,0,1-1.28-.62,26.73,26.73,0,0,1-2.8-2c-.84-.75-2-1.69-2-1.69a10.17,10.17,0,0,0,0-1.28c0-1.07.45-1.2.45-1.2A12.86,12.86,0,0,0,40,63.94a12,12,0,0,0,1.59,1.24c.62.36,2.09,1.34,2.71,1.6s.09-.35.09-.35a4.76,4.76,0,0,0,1.2.44c.09.13.8.93.8.93l.57.09a7.79,7.79,0,0,0-.53-1.15c-.31-.54-.62-.36-.62-.36a.66.66,0,0,0-.4-.49c-.36-.13,0,.31,0,.31l-.44,0A12.75,12.75,0,0,0,43,65a3,3,0,0,1-1.29-1.07,17.08,17.08,0,0,1-1.86-1.24,20.11,20.11,0,0,1-1.91-2,8.8,8.8,0,0,1-1-1.15,6.16,6.16,0,0,1-.75-2.58,19.69,19.69,0,0,0,1.59,1.47c.31.17,3,2.13,3,2.13h.31l.27.4.31.08a6,6,0,0,1,1,.63C43.14,62,45,63.23,45,63.23a53.58,53.58,0,0,0,5.37,3,5.67,5.67,0,0,0,2.57-.09c.93-.27,1.24-.09,1.24-.09s.45-.22.76-.4a6.62,6.62,0,0,1,1.37-.35A8.26,8.26,0,0,1,54.1,67.4Z"/><path d="M49.64,70.67c-2.66-.06-10.45-2.82-11.25-3.06a4.9,4.9,0,0,0-1.59-.16l-.32.27.05.08a4.48,4.48,0,0,1,1.85.22,2.68,2.68,0,0,0-.33-.18h0l-.36-.16h0l.09,0,.36.13h0l.46.18h0l.18.06,0,0,.13,0,.08,0,.15,0,.07,0,.18.06.07,0,.14,0c1.55.55,3.81,1.31,5.89,1.84l0-.08,5.28.74a9.17,9.17,0,0,0,2.08-.28h0c.32-.08.5-.15.54-.16h0l.05,0,.68-.65-.1,0A9.25,9.25,0,0,1,49.64,70.67Z"/><path class="cls-4" d="M54.14,66.07s-.31-.18-1.24.09a5.67,5.67,0,0,1-2.57.09,53.58,53.58,0,0,1-5.37-3S43.14,62,42.7,61.64a6,6,0,0,0-1-.63l-.31-.08-.27-.4h-.31s-2.71-2-3-2.13a19.69,19.69,0,0,1-1.59-1.47,6.16,6.16,0,0,0,.75,2.58,8.8,8.8,0,0,0,1,1.15,20.11,20.11,0,0,0,1.91,2,17.08,17.08,0,0,0,1.86,1.24A3,3,0,0,0,43,65a12.75,12.75,0,0,1,1.91,1.15l.44,0s-.36-.44,0-.31a.66.66,0,0,1,.4.49s.31-.18.62.36a7.79,7.79,0,0,1,.53,1.15l-.57-.09s-.71-.8-.8-.93a4.76,4.76,0,0,1-1.2-.44s.53.62-.09.35-2.09-1.24-2.71-1.6A12,12,0,0,1,40,63.94a12.86,12.86,0,0,1-2.53-2.66s-.45.13-.45,1.2a10.17,10.17,0,0,1,0,1.28s1.2.94,2,1.69a26.73,26.73,0,0,0,2.8,2,3.87,3.87,0,0,0,1.28.62,5,5,0,0,0,1.33.84c.58.18.31,0,.89.18a12.58,12.58,0,0,0,4.79,1.24,6.8,6.8,0,0,0,3.82-1.06l-.4-.58h-.62l-.31-.18a22.12,22.12,0,0,1-3.86-.57l-.23-.27-.39-.09s-.85-.67-.76-1,.18.09,1.33.31,3.51.76,3.51.76a3.89,3.89,0,0,1,2-.27,8.26,8.26,0,0,0,2.17-2.08,6.62,6.62,0,0,0-1.37.35C54.59,65.85,54.14,66.07,54.14,66.07Z"/><path class="cls-4" d="M39.41,66.78,38,65.58l-.22-.09-.62,1.25c.35-.22.93.35,1.19.49s1.56.53,1.56.53,2.7,1,2.17.8A26,26,0,0,1,39.41,66.78Z"/><path class="cls-2" d="M50.94,94.6c.43,0,1.33-.06,2.38-.08,0-.46-.1-.89-.15-1.28l-.44-.14C52.4,93,48,92,47.61,91.87s-1-.2-1,0,.63.77.63.77a1,1,0,0,1-.46.3l-.54-.2s-.73-.9-.46-1.1.13-.5.66-.44,4.66.74,6.06,1.17a3.24,3.24,0,0,0,.63.38,10.32,10.32,0,0,0-.24-1.35,16.81,16.81,0,0,1-.58-2.26,10.14,10.14,0,0,0-.49-2.39,27.82,27.82,0,0,1-1.24-4,11.13,11.13,0,0,0-.71-2,58.8,58.8,0,0,0-4.17-10.35,27.66,27.66,0,0,1-6-1.85,2.64,2.64,0,0,0-.29-.15l-.39,0a2,2,0,0,1,.35.42c.53.9,1.37,3.4,1,3.59s-.93-2.32-1.6-3.42-1-1.06-1.37-.92c.29-.11.6-.08,1,.41l-.25,0a1.18,1.18,0,0,1,0,.71c-.13.18-2,1.66-2.68,2.17a7.42,7.42,0,0,1,1,1.12c.43.7.7.8.7.8h.2l0,.34.43.43.26.06a17.26,17.26,0,0,1,.94,2c.1.43.63,3.83.66,4.79,0,0,.73-1.1.77-1.19a2.84,2.84,0,0,1,.3-.7,24,24,0,0,0-.27-4.46c-.13-.47.47-.37.47-.27a28.41,28.41,0,0,1,.4,4l.19.36.17,0a2.41,2.41,0,0,1-.13.8c-.13.27-.73,1.6-.87,1.93a6.57,6.57,0,0,1,.3.86c.1.4.47,2.3.93,3.9s1.9,5.55,1.9,6.85.1,1.2-.56,1.27a10.9,10.9,0,0,1-2.5-.17c-.23-.1,0-.6.23-.67a5,5,0,0,0,2,0,7.58,7.58,0,0,0-.4-2s-.16-.1-1,0-.93-.16-.93-.16a3,3,0,0,1-1-1.87,19.94,19.94,0,0,1-.2-3.09,2.53,2.53,0,0,0,0-1.7,4.19,4.19,0,0,1-.1-1.39l-.34.49s-.16-.56-.36-.26a3.16,3.16,0,0,0-.3,1.26c0,.24.1,5.53.1,6.59v2.5a13,13,0,0,0,2.43.93,1.43,1.43,0,0,1,1,.33c.37.37,2.23.27,2.23.27a3.55,3.55,0,0,1,1.43.6l4.19-.1C49.67,95.06,49.87,94.67,50.94,94.6Z"/><path class="cls-2" d="M58.59,76c0,.1,0,.2,0,.31C58.58,76.17,58.59,76.07,58.59,76Z"/><path class="cls-2" d="M57.23,75.79l-.77-1a1.4,1.4,0,0,1,0,.41,7.88,7.88,0,0,0-.23,1.43,3.76,3.76,0,0,0,.53.9,13.35,13.35,0,0,1,.8,1.93,8.8,8.8,0,0,0,1-3.17,8.63,8.63,0,0,1-.16.91C58.14,76.88,57.53,76.17,57.23,75.79Z"/><path class="cls-2" d="M37.33,68.18l0,0Z"/><path class="cls-2" d="M34.61,70.75h0Z"/><path class="cls-2" d="M54.45,72.06c-.17-.13-1-.42-1.11-.73a1.52,1.52,0,0,0-.31-.51,3.09,3.09,0,0,1-1.55.71h-.37c1,2.37,4.32,10.86,5.38,14.27.69,2.22,1.63,5.74,2.36,8.63h.47c.14,0,1.4-.13,1.47.67A7.7,7.7,0,0,0,61,96h.14c1.07-.12,1.27-.47,1.71-.5-1.14-2.79-5-12.51-5-12.51l.26-.44L58,82.49,58,82s-2.09-4-2.49-4.85-.67-1.73-.9-2.1-.47-.7-.3-1.13.5-.17.76.23a13.5,13.5,0,0,1,.7,1.33s.17-1,.4-1h0c-.49-.64-1-1.26-1-1.34A8.47,8.47,0,0,0,54.45,72.06Z"/><path class="cls-2" d="M62.8,95.53h.12a.47.47,0,0,0,.33-.12c-1-1.93-5-12.3-5-12.3l.07-.13-.25-.4-.26.44S61.66,92.74,62.8,95.53Z"/><path class="cls-2" d="M63.25,95.41a2.1,2.1,0,0,0,.53-.84L59,84.72l-.13-.9L58.34,83l-.07.13S62.22,93.48,63.25,95.41Z"/><path class="cls-2" d="M53.39,70.45Z"/><path class="cls-2" d="M37.7,67.68Z"/><path class="cls-2" d="M51.11,71.54h.37A3.09,3.09,0,0,0,53,70.82l-.18-.21a9.17,9.17,0,0,1-2.08.28l.09,0Z"/><path class="cls-2" d="M38.8,68.08l0,0Z"/><path class="cls-2" d="M39,68.14l.08,0Z"/><path class="cls-2" d="M38.61,68h0Z"/><path class="cls-2" d="M39.43,68.45a2.64,2.64,0,0,1,.29.15,27.66,27.66,0,0,0,6,1.85c0-.08-.09-.15-.13-.22-2.08-.53-4.34-1.29-5.89-1.84l.06,0Z"/><path class="cls-2" d="M37.79,67.71l-.09,0,.36.16h.09Z"/><path class="cls-2" d="M39.44,68.31l.07,0Z"/><path class="cls-2" d="M39.19,68.22l.07,0Z"/><path class="cls-5" d="M39,81.62a10.78,10.78,0,0,0-.1-2c-.13-.4-.4-1.9-.63-2.77a9.42,9.42,0,0,0-.43-1.59,14.85,14.85,0,0,0-1.1-1.13,4,4,0,0,0-.57-.7,14.56,14.56,0,0,1-1.66-1.87c-.33-.5-.53-.26-.53-.26s-.73.76-1.23,1.26-.05.44.16.3.44.13.44.13,3.06,2.73,3.39,3.13a7.92,7.92,0,0,1,.9,2.83,33.84,33.84,0,0,1-.2,3.73c0,.23-.27.5-.5.23a2.06,2.06,0,0,0-.53-.43l-.24.1,1.07,1.23s.4-.4.56-.6S39,82.09,39,82.09Z"/><path class="cls-5" d="M57.79,79.66v.43l.54,1.23a5.9,5.9,0,0,0,.79-2.09s-.26-.47-.2-.64.44.24.44.24a3.06,3.06,0,0,0,.26-1.43,8.08,8.08,0,0,0-.7-.9S58.46,79.06,57.79,79.66Z"/><path d="M52.47,92.37c-1.4-.43-5.52-1.1-6.06-1.17s-.4.24-.66.44.46,1.1.46,1.1l.54.2a1,1,0,0,0,.46-.3s-.66-.57-.63-.77.63-.1,1,0S52.4,93,52.73,93.1l.44.14c0-.17-.05-.34-.07-.49A3.24,3.24,0,0,1,52.47,92.37Z"/><path class="cls-2" d="M42.39,91s-1.87-4.73-2.13-5.63c-.14-.48-.2,2.8.23,4.36S41.49,91,42.39,91Z"/><path class="cls-3" d="M34.6,70.74Z"/><path class="cls-3" d="M37.26,68.21l.07,0Z"/><path class="cls-3" d="M35.43,71.48h0c-.41-.38-.78-.7-.82-.73S35,71.1,35.43,71.48Z"/><path class="cls-3" d="M37.37,68.16h0Z"/><path class="cls-3" d="M38.11,69.31a1.18,1.18,0,0,0,0-.71l.25,0c-.41-.49-.72-.52-1-.41h0l0,0-.07,0a34.12,34.12,0,0,0-2.66,2.53h0s.41.35.82.73C36.09,71,38,69.49,38.11,69.31Z"/><path class="cls-3" d="M39,68.49a4.11,4.11,0,0,0-.65-.47h0a4.19,4.19,0,0,1,.66.47Z"/><path class="cls-3" d="M38.06,67.84h0a2.68,2.68,0,0,1,.33.18h0Z"/><path class="cls-3" d="M38.62,68l.18.06Z"/><path class="cls-3" d="M38.15,67.84h0l.46.18Z"/><path class="cls-3" d="M39.26,68.25l.18.06Z"/><path class="cls-3" d="M38.83,68.1l.13,0Z"/><path class="cls-3" d="M39.51,68.34l.14,0Z"/><path class="cls-3" d="M39,68.17l.15,0Z"/><path class="cls-3" d="M38.39,68a4.11,4.11,0,0,1,.65.47l.39,0A6.58,6.58,0,0,0,38.39,68Z"/><path class="cls-3" d="M39.43,68.45l.28,0-.06,0-.14,0-.07,0-.18-.06-.07,0-.15,0-.08,0-.13,0,0,0L38.62,68h0l-.46-.18h-.09l.33.18A6.58,6.58,0,0,1,39.43,68.45Z"/><path class="cls-3" d="M56.17,74.4h0c.15,0,.26.15.29.39h0C56.43,74.55,56.32,74.38,56.17,74.4Z"/><path class="cls-3" d="M58.57,76.28h0Z"/><path class="cls-3" d="M52.85,70.61h0c.32-.08.5-.15.54-.16S53.17,70.53,52.85,70.61Z"/><path class="cls-3" d="M53.39,70.45h0Z"/><path class="cls-3" d="M53.34,71.33c.14.31.94.6,1.11.73a8.47,8.47,0,0,1,.69,1c.07.08.54.7,1,1.34.15,0,.26.15.29.39l.77,1c.3.38.91,1.09,1.18,1.41a8.63,8.63,0,0,0,.16-.91h0c0-.11,0-.21,0-.31a15.28,15.28,0,0,0-1.36-1.54C56.69,74,55.4,72.5,55,72.07a13.18,13.18,0,0,0-1.58-1.59c-.13.11-.27.23-.42.34A1.52,1.52,0,0,1,53.34,71.33Z"/><path class="cls-3" d="M53.45,70.48l-.05,0h0s-.22.08-.54.16l.18.21C53.18,70.71,53.32,70.59,53.45,70.48Z"/><path d="M28.23,86.13a75.74,75.74,0,0,1,7.37-3.39l-.27-.12.6-.47.87-.2.06-.66-.82,0s-.35-.13-.53-.88-.53-.8-.53-.8-.71-.27-1.2-.4-.89.13-.44.75a6.35,6.35,0,0,1,.53,2.35s-5.81,3.07-6.57,3.38a7.35,7.35,0,0,0-1.68,1.06c-.23.18-3.95,2.4-3.95,2.4a16.28,16.28,0,0,0-1.59.87l.56.41c1.09-.58,2.73-1.47,3.65-2.08C25.75,87.41,27.21,86.79,28.23,86.13Z"/><path d="M20,85c.27,0,.8-.89,1.38-1.25.2-.12.87-.57,1.68-1.12l.22-.16.47-.32,3.09-2.12L27,80c.44-.31.71-.13.71-.13a17.73,17.73,0,0,0,1.85-1.25l.1-.09,0-.06a.19.19,0,0,0,0-.07l0-.13a.33.33,0,0,0-.17-.31l-.09-.06a1.92,1.92,0,0,1-.4-.34c0-.76,1.07-1.2,1.07-1.2s1.64-1.38,2-1.73a1.61,1.61,0,0,1,.67-.46,1.23,1.23,0,0,1-.56-.23l0,0-.12.06c-3.77,2.8-3.77,3.38-3.77,3.38a2.14,2.14,0,0,1-1.11,1.9c-1,.67-3.15,1.91-6.17,4.13-1.25.92-3.08,2.22-4.84,3.47l.47.44c1.38-.95,2.72-1.86,3.19-2.14A.54.54,0,0,1,20,85Z"/><path d="M36.86,81.29a10,10,0,0,0-.59-2.52C36.58,80,36.86,81.29,36.86,81.29Z"/><path d="M37.24,80.05A9.27,9.27,0,0,0,36,75.92c-.53-.49-3-2.53-3-2.53l-.81.47,0,0a1.23,1.23,0,0,0,.56.23.27.27,0,0,1,.24,0c.07,0,.33.28.66.59l.52.47h0c.6.56,1.24,1.13,1.37,1.22a11.38,11.38,0,0,1,.72,2.32,10,10,0,0,1,.59,2.52L36.8,82l-.87.2-.6.47.27.12c.5-.21,1-.38,1.33-.52A9.34,9.34,0,0,0,37.24,80.05Z"/><path class="cls-2" d="M32.76,74.13a1.61,1.61,0,0,0-.67.46c-.35.35-2,1.73-2,1.73S29,76.76,29,77.52a1.92,1.92,0,0,0,.4.34,1.15,1.15,0,0,1-.2-.15,6.47,6.47,0,0,1,.51-1.08,37.83,37.83,0,0,1,3.52-2.22L33,74.17Z"/><path class="cls-2" d="M20,85a.54.54,0,0,0-.16.08A.54.54,0,0,1,20,85c.27,0,.8-.89,1.38-1.25.2-.12.87-.57,1.68-1.12-.81.55-1.48,1-1.68,1.12C20.78,84.13,20.25,85,20,85Z"/><path class="cls-2" d="M29.69,78.23l0,.13Z"/><path class="cls-2" d="M29.66,78.36a.19.19,0,0,1,0,.07A.19.19,0,0,0,29.66,78.36Z"/><path class="cls-2" d="M25.62,86.79a7.35,7.35,0,0,1,1.68-1.06c.76-.31,6.57-3.38,6.57-3.38A6.35,6.35,0,0,0,33.34,80c-.45-.62-.05-.88.44-.75s1.2.4,1.2.4.35,0,.53.8.53.88.53.88l.82,0s-.28-1.27-.59-2.52c0-.07-.05-.14-.07-.21-.67-2-.87-2.13-.87-2.13l-1.18-1.15a6.21,6.21,0,0,1-2.46,1.93c-.71.35-.71,1-.88,1.15s-1.42,1.91-1.64,2.09a29.51,29.51,0,0,1-3.11,1.9,42.78,42.78,0,0,0-3.73,2.27c-.82.54-3.31,2.62-4.53,3.63.74.62,1.5,1.23,2.28,1.81a16.28,16.28,0,0,1,1.59-.87S25.39,87,25.62,86.79Z"/><path class="cls-2" d="M27,80l-.13.09Z"/><path class="cls-2" d="M27,80c.44-.31.71-.13.71-.13h0S27.39,79.65,27,80Z"/><path class="cls-2" d="M34.18,75.23l0,0,1.18,1.15s.2.13.87,2.13c0,.07,0,.14.07.21a11.38,11.38,0,0,0-.72-2.32C35.42,76.36,34.78,75.79,34.18,75.23Z"/><path class="cls-2" d="M32.76,74.13l.24,0A.27.27,0,0,0,32.76,74.13Z"/><path class="cls-2" d="M33.66,74.76c-.33-.31-.59-.54-.66-.59l.26.24h0Z"/><path class="cls-3" d="M27.66,79.83a17.73,17.73,0,0,0,1.85-1.25,17.73,17.73,0,0,1-1.85,1.25Z"/><path class="cls-3" d="M29.69,78.23a.32.32,0,0,0-.17-.31l-.09-.06.09.06A.33.33,0,0,1,29.69,78.23Z"/><path class="cls-3" d="M23.73,82.17l-.47.32Z"/><path class="cls-3" d="M26.82,80.05l-3.09,2.12Z"/><path class="cls-3" d="M16.63,87.24h0c1.38-.95,2.72-1.86,3.19-2.14C19.35,85.38,18,86.29,16.63,87.24Z"/><path class="cls-3" d="M34.18,75.23l-.52-.47.52.47Z"/><path class="cls-3" d="M26.06,82.35a29.51,29.51,0,0,0,3.11-1.9c.22-.18,1.46-1.91,1.64-2.09s.17-.8.88-1.15a6.21,6.21,0,0,0,2.46-1.93l-.89-.87a37.83,37.83,0,0,0-3.52,2.22,6.47,6.47,0,0,0-.51,1.08,1.15,1.15,0,0,0,.2.15l.09.06a.32.32,0,0,1,.17.31l0,.13a.19.19,0,0,1,0,.07l0,.06-.1.09a17.73,17.73,0,0,1-1.85,1.25h0s-.27-.18-.71.13l-.13.09-3.09,2.12-.47.32-.22.16c-.81.55-1.48,1-1.68,1.12C20.78,84.13,20.25,85,20,85a.54.54,0,0,0-.16.08c-.47.28-1.81,1.19-3.19,2.14.39.34.77.68,1.17,1,1.22-1,3.71-3.09,4.53-3.63A42.78,42.78,0,0,1,26.06,82.35Z"/><path class="cls-3" d="M33.66,74.76l-.39-.36h0l.89.87,0,0Z"/><path d="M62.76,96.38a4.51,4.51,0,0,1-1,.35,4.32,4.32,0,0,1-.64,0c0,.11,0,.21.07.31l.88,0a4.65,4.65,0,0,1,.31,1.44l.91-.24A6,6,0,0,0,63,96.84C62.93,96.66,62.84,96.51,62.76,96.38Z"/><path d="M52.77,96.8a1,1,0,0,0-.72.14,7.74,7.74,0,0,1,1,.1,3.48,3.48,0,0,0,.53.06l0-.27Z"/><path d="M45,97.42c.46.13,1,.17,1.19-.07a13.31,13.31,0,0,1,3.27-.49h.21c0-.18,0-.36,0-.52-2.21.07-4.32.23-4.32.23a16.56,16.56,0,0,0-3.73-1h0c0,.37-.08,1.2-.17,1.72-.05.36-.14,1.22-.21,2l.6.11c.06-.47.24-2.65.3-2.9C42.14,96.44,44.56,97.28,45,97.42Z"/><path d="M48.66,96.2l-3.32.08-2.22-.64-1.49-.26s0,.07,0,.18h0a16.56,16.56,0,0,1,3.73,1s2.11-.16,4.32-.23v-.16Z"/><path d="M61,96.21c0,.18.08.37.13.55a4.32,4.32,0,0,0,.64,0,4.51,4.51,0,0,0,1-.35,3.69,3.69,0,0,0-.23-.32S61.93,96.13,61,96.21Z"/><path class="cls-3" d="M49.7,96.85h-.21a13.31,13.31,0,0,0-3.27.49c-.17.24-.73.2-1.19.07s-2.89-1-2.89-1c-.06.25-.24,2.43-.3,2.9a51.09,51.09,0,0,0,8.07.66c-.08-1.28-.2-3-.2-3A1.09,1.09,0,0,1,49.7,96.85Z"/><path class="cls-3" d="M61.18,97.07c.12.5.23,1,.27,1.22,0,.09,0,.22,0,.38l.87-.21A4.65,4.65,0,0,0,62.06,97Z"/><path class="cls-3" d="M53.06,97a7.74,7.74,0,0,0-1-.1.54.54,0,0,0-.11.65,19.4,19.4,0,0,1,.19,2.36c.58,0,1.16,0,1.74-.1-.1-.93-.19-1.86-.28-2.75A3.48,3.48,0,0,1,53.06,97Z"/><path d="M60.37,96.25l.61,0L61,96l-.63,0C60.34,96.12,60.35,96.19,60.37,96.25Z"/><path d="M51.23,95.91a.92.92,0,0,0-.09.25c.67,0,1.46,0,2.36.08l0-.28Z"/><path d="M50.13,95.9a3.37,3.37,0,0,0-.46,0h0a2.42,2.42,0,0,0,0,.27h.46Z"/><path d="M59.32,94.43h-.47c0,.17.09.34.13.5a3,3,0,0,1,.6.12c.22.12.51,0,.74,1L61,96a7.7,7.7,0,0,1-.16-.94C60.72,94.3,59.46,94.43,59.32,94.43Z"/><path d="M53.44,95.64a12.41,12.41,0,0,0-2.07.13.38.38,0,0,0-.14.14l2.24,0Z"/><path d="M50.13,95.9c0-.26,0-.43,0-.5s.29-.31,1.26-.4c.41,0,1.14-.08,2-.11,0-.13,0-.25,0-.37-1,0-2,0-2.38.08-1.07.07-1.27.46-1.27,1.3h0A3.37,3.37,0,0,1,50.13,95.9Z"/><path d="M52.77,96.8l.79,0c0-.15,0-.31-.05-.47-.64,0-1.49-.07-2.39-.06a5.24,5.24,0,0,0,0,.58l.95.06A1,1,0,0,1,52.77,96.8Z"/><path d="M60.45,96.76c0,.11,0,.23,0,.36l.68-.05c0-.1,0-.2-.07-.31Z"/><path d="M49.67,96.33c0,.16,0,.34,0,.52h.44c0-.19,0-.37,0-.53Z"/><path d="M51.14,96.16a.68.68,0,0,1,0,.14c.9,0,1.75,0,2.39.06v-.12C52.6,96.19,51.81,96.17,51.14,96.16Z"/><path d="M50.13,96.16h-.46v.16h.46Z"/><path d="M60.37,96.25c0,.15.06.32.08.51h.66c0-.18-.09-.37-.13-.55Z"/><path d="M52.05,96.94l-.95-.06c0,.34,0,.69,0,1,0,0,.05,1.1.11,2.12q.43,0,.87,0a19.4,19.4,0,0,0-.19-2.36A.54.54,0,0,1,52.05,96.94Z"/><path d="M50.14,96.85H49.7a1.09,1.09,0,0,0,0,.18s.12,1.69.2,3h.47c-.12-1.69-.18-2.1-.18-2.1C50.17,97.54,50.15,97.18,50.14,96.85Z"/><path d="M61.18,97.07l-.68.05q0,.13,0,.3l.15,1.44.82-.19c0-.16,0-.29,0-.38C61.41,98,61.3,97.57,61.18,97.07Z"/><path class="cls-5" d="M59.26,96.06l.07.25c.36,0,.71,0,1-.06,0-.06,0-.13,0-.19Z"/><path class="cls-5" d="M51.14,96.16a.92.92,0,0,1,.09-.25h-1.1v.26Z"/><path class="cls-5" d="M60.32,96.06c-.23-1-.52-.88-.74-1a3,3,0,0,0-.6-.12c.1.39.19.77.28,1.12Z"/><path class="cls-5" d="M51.37,95.77a12.41,12.41,0,0,1,2.07-.13c0-.26-.06-.51-.08-.75-.81,0-1.54.07-2,.11-1,.09-1.24.2-1.26.4s0,.24,0,.5h1.1A.38.38,0,0,1,51.37,95.77Z"/><path class="cls-5" d="M59.43,96.74c0,.16.08.3.11.45l1-.07c0-.13,0-.25,0-.36Z"/><path class="cls-5" d="M51.12,96.3l-1,0c0,.16,0,.34,0,.53l1,0A5.24,5.24,0,0,1,51.12,96.3Z"/><path class="cls-5" d="M50.13,96.16v.16l1,0a.68.68,0,0,0,0-.14Z"/><path class="cls-5" d="M59.43,96.74l1,0c0-.19-.05-.36-.08-.51-.33,0-.68,0-1,.06C59.36,96.46,59.4,96.6,59.43,96.74Z"/><path class="cls-5" d="M60.5,97.12l-1,.07c.21.85.36,1.49.43,1.81l.71-.14-.15-1.44Q60.52,97.26,60.5,97.12Z"/><path class="cls-5" d="M51.1,96.88l-1,0c0,.33,0,.69.06,1.05,0,0,.06.41.18,2.1l.88,0c-.06-1-.11-2.12-.11-2.12C51.14,97.57,51.11,97.22,51.1,96.88Z"/><path d="M50.77,70.89l-5.28-.74,0,.08c.8.2,1.57.37,2.27.48A14.69,14.69,0,0,0,50.77,70.89Z"/><path d="M55.37,94.48c0-.21-.08-.43-.13-.64l-.68-.19c0,.27.11.55.17.84Z"/><path d="M53.65,93.39l-.48-.15c0,.39.1.82.15,1.28h.44C53.72,94.2,53.69,93.81,53.65,93.39Z"/><path d="M50.55,82.75a27.82,27.82,0,0,0,1.24,4,10.14,10.14,0,0,1,.49,2.39,16.81,16.81,0,0,0,.58,2.26,10.32,10.32,0,0,1,.24,1.35c.14.07.31.15.51.23a16.09,16.09,0,0,0-.4-2.82,28.56,28.56,0,0,1-.71-3.55,6.87,6.87,0,0,0-.57-1.86,12.43,12.43,0,0,1-.58-2.35c-.13-.49-.71-1.87-.89-2.4s-.93-2-.93-2a2.72,2.72,0,0,0-.31-1.33,28.59,28.59,0,0,1-1.2-3l-.84-1.82,1.33,1.06s1.55,3.91,2,5.06,1.15,3.82,1.15,3.82,1.06,3.72,1.2,4.66.93,4.43.93,4.43l.26.4s.18.82.43,2l.7.21c-.87-4.29-2-8.3-2.19-9.06-.31-1-.58-2.4-2-6.48a54.4,54.4,0,0,0-2.53-6.25l1.78.88.27.4.62.71c.71,1.6,2.61,7,2.61,7a.79.79,0,0,1,.36.8s.71,2,1.69,4.79,1.41,5.54,2.3,8.16v0h.75c-.73-2.89-1.67-6.41-2.36-8.63-1.06-3.41-4.43-11.9-5.38-14.27a35.29,35.29,0,0,1-5.35-1.08h-.09A58.8,58.8,0,0,1,49.84,80.8,11.13,11.13,0,0,1,50.55,82.75Z"/><path d="M45.76,70.46a35.29,35.29,0,0,0,5.35,1.08l-.25-.63-.09,0a14.69,14.69,0,0,1-3-.18c-.7-.11-1.47-.28-2.27-.48,0,.07.09.14.13.22Z"/><path d="M55.24,93.84l-.06-.34-.7-.21c0,.12.05.24.08.36Z"/><path d="M53.61,93c-.2-.08-.37-.16-.51-.23,0,.15,0,.32.07.49l.48.15C53.64,93.25,53.63,93.12,53.61,93Z"/><path d="M58.81,97.18h0q0-.2-.06-.21C58.78,97,58.79,97.11,58.81,97.18Z"/><path d="M53.56,96.83l0,.27.55,0a2.51,2.51,0,0,1,0-.27Z"/><path d="M55.79,96.9l-.59,0a2.56,2.56,0,0,1,0,.27h.58v0A1.57,1.57,0,0,0,55.79,96.9Z"/><path d="M59,97.9c-.05-.31-.1-.56-.14-.72h0Z"/><path d="M55.25,97.15c.17.86.32,1.73.46,2.53l.52-.07c-.14-.88-.28-1.7-.4-2.45Z"/><path d="M53.59,97.1c.09.89.18,1.82.28,2.75l.6,0c-.11-.93-.23-1.88-.33-2.68Z"/><path d="M55,96l.06.33.61,0c0-.11,0-.23-.05-.34Z"/><path d="M58.55,96.06a2.86,2.86,0,0,1,.07.28H59c0-.11,0-.2,0-.27Z"/><path d="M53.47,96l0,.28.52,0A2.89,2.89,0,0,1,54,96Z"/><path d="M59,96.06c-.11-.45-.18-.31-.18-.31l-.31,0c0,.12.05.23.08.35Z"/><path d="M55,95.61c0,.13,0,.26.08.39h.62c0-.14,0-.27-.08-.41Z"/><path d="M53.44,95.64l0,.32H54c0-.12,0-.24-.06-.34Z"/><path d="M54.8,94.83l.63,0-.06-.33h-.64C54.75,94.6,54.78,94.72,54.8,94.83Z"/><path d="M58.23,94.87l.75.07c0-.16-.08-.33-.13-.5H58.1A4.17,4.17,0,0,1,58.23,94.87Z"/><path d="M53.76,94.51h-.44c0,.12,0,.24,0,.37l.44,0A3,3,0,0,1,53.76,94.51Z"/><path d="M53.8,96.4l-.29,0c0,.16,0,.32.05.47l.54,0L54,96.42Z"/><path d="M59.06,96.73h-.35c0,.08,0,.16,0,.25s0,.08.06.21h.3c0-.16,0-.3,0-.42Z"/><path d="M55.13,96.53c0,.12,0,.23.07.35l.59,0c0-.11,0-.22,0-.33Z"/><path d="M54,96.42l0-.16-.52,0v.12l.29,0Z"/><path d="M58.62,96.34l.09.38h.35c0-.15,0-.29-.05-.4Z"/><path d="M55.13,96.53l.61,0a2.07,2.07,0,0,0,0-.22l-.61,0Z"/><path d="M58.82,97.18c0,.16.09.41.14.72l.24,1.26.18,0c-.09-.7-.19-1.41-.26-1.93Z"/><path d="M59,96.33l.32,0-.07-.25H59C59,96.13,59,96.22,59,96.33Z"/><path d="M53.92,95.63c0-.26-.07-.44-.09-.54s0-.13,0-.22l-.44,0c0,.24,0,.49.08.75Z"/><path d="M58.47,95.71l.31,0s.07-.14.18.31h.3c-.09-.35-.18-.73-.28-1.12l-.75-.07C58.31,95.13,58.39,95.42,58.47,95.71Z"/><path d="M55,95.61h.62c0-.26-.09-.52-.14-.79l-.63,0Z"/><path d="M59.06,96.73v0c0,.12,0,.26,0,.42a1.91,1.91,0,0,0,.35,0h.07c0-.15-.07-.29-.11-.45Z"/><path d="M59,96.33c0,.11,0,.25.05.4h.37c0-.14-.07-.28-.1-.43Z"/><path d="M59.47,97.19a1.91,1.91,0,0,1-.35,0c.07.52.17,1.23.26,1.93L60,99c-.07-.32-.22-1-.43-1.81Z"/><path class="cls-4" d="M54.05,91.27l-.26-.4s-.8-3.5-.93-4.43-1.2-4.66-1.2-4.66S51,79.12,50.51,78s-2-5.06-2-5.06l-1.33-1.06L48,73.66a28.59,28.59,0,0,0,1.2,3A2.72,2.72,0,0,1,49.53,78s.75,1.51.93,2,.76,1.91.89,2.4a12.43,12.43,0,0,0,.58,2.35,6.87,6.87,0,0,1,.57,1.86,28.56,28.56,0,0,0,.71,3.55,16.09,16.09,0,0,1,.4,2.82c.25.1.53.2.87.31C54.23,92.09,54.05,91.27,54.05,91.27Z"/><path class="cls-4" d="M54.56,93.65l-.91-.26c0,.42.07.81.11,1.12l1,0C54.67,94.2,54.61,93.92,54.56,93.65Z"/><path class="cls-4" d="M54.56,93.65c0-.12-.05-.24-.08-.36-.34-.11-.62-.21-.87-.31,0,.14,0,.27,0,.41Z"/><path class="cls-4" d="M54.1,96.85a2.51,2.51,0,0,0,0,.27c.34,0,.73,0,1.11,0a2.56,2.56,0,0,0,0-.27Z"/><path class="cls-4" d="M54.14,97.12c.1.8.22,1.75.33,2.68l1.24-.12c-.14-.8-.29-1.67-.46-2.53C54.87,97.15,54.48,97.14,54.14,97.12Z"/><path class="cls-4" d="M55.09,96.33,55,96,54,96a2.89,2.89,0,0,0,0,.29l.7,0Z"/><path class="cls-4" d="M54.73,94.49l-1,0a3,3,0,0,0,0,.36l1,0C54.78,94.72,54.75,94.6,54.73,94.49Z"/><path class="cls-4" d="M53.92,95.63c0,.1,0,.22.06.34L55,96c0-.13-.05-.26-.08-.39Z"/><path class="cls-4" d="M54,96.42l.06.43,1.1,0c0-.12,0-.23-.07-.35Z"/><path class="cls-4" d="M54.72,96.31l-.7,0,0,.16,1.09.11,0-.2Z"/><path class="cls-4" d="M54.8,94.83l-1,0c0,.09,0,.16,0,.22s.06.28.09.54l1,0Z"/><path class="cls-4" d="M56.86,94.27c-.07,0-.79-.2-1.62-.43,0,.21.09.43.13.64l2.73,0v0c-.89-2.62-1.33-5.32-2.3-8.16s-1.69-4.79-1.69-4.79a.79.79,0,0,0-.36-.8s-1.9-5.37-2.61-7L50.51,73l-.27-.4-1.78-.88A54.4,54.4,0,0,1,51,78c1.42,4.08,1.69,5.5,2,6.48.24.76,1.32,4.77,2.19,9.06l.35.1C57.93,94.23,57,94.27,56.86,94.27Z"/><path class="cls-4" d="M56.86,94.27c.17,0,1.07,0-1.33-.67l-.35-.1.06.34C56.07,94.07,56.79,94.27,56.86,94.27Z"/><path class="cls-4" d="M58.76,97l-3-.06a1.57,1.57,0,0,1,0,.23v0c.48,0,.9,0,1.15,0,.53,0,1.28,0,1.83,0,0-.07,0-.14-.05-.21Z"/><path class="cls-4" d="M58.81,97.18c-.55,0-1.3-.06-1.83,0-.25,0-.67,0-1.15,0,.12.75.26,1.57.4,2.45,1-.12,2-.27,2.91-.44-.06-.46-.12-.9-.18-1.27Z"/><path class="cls-4" d="M55.65,96c0,.11,0,.23.05.34,1,0,2,0,2.92,0a2.86,2.86,0,0,0-.07-.28Z"/><path class="cls-4" d="M55.43,94.81h1c.51,0,1.21,0,1.82.07a4.17,4.17,0,0,0-.13-.42l-2.73,0Z"/><path class="cls-4" d="M55.57,95.6c0,.14,0,.27.08.41l2.9,0c0-.12,0-.23-.08-.35-.38,0-1-.11-1.31-.11Z"/><path class="cls-4" d="M55.79,96.9l3,.06h0c0-.09,0-.17,0-.25-1,0-2-.08-3-.15C55.76,96.68,55.78,96.79,55.79,96.9Z"/><path class="cls-4" d="M55.7,96.35a2.07,2.07,0,0,1,0,.22c1,.07,2,.12,3,.15l-.09-.38C57.71,96.38,56.71,96.39,55.7,96.35Z"/><path class="cls-4" d="M59.14,99.17h.06L59,97.9C59,98.27,59.08,98.71,59.14,99.17Z"/><path class="cls-4" d="M55.43,94.81c0,.27.1.53.14.79h1.59c.3,0,.93.07,1.31.11-.08-.29-.16-.58-.24-.84-.61,0-1.31-.07-1.82-.07Z"/><path d="M17.32,31.78c-1.82-.4-2.62.09-3,.71S13.06,33.6,15,37a38.36,38.36,0,0,0,5.1,6.56h.32l.75.89a29.24,29.24,0,0,0,8,5.73c0-.34-.07-.72-.1-1.11-.32-.24-.69-.41-.88-.32,0,0-5.1-3.81-5.86-4.43s-4.79-4.44-5.63-6.21-1.95-2.31-2.22-3.82a1.5,1.5,0,0,1,1.38-1.86,1.07,1.07,0,0,1,1,.31c.31.35.76-.05,2.26.53s5.24,1.86,6.57,2.62,1.46,1.2,1.46,1.2.4.48.67.09-1.15-2-1.51-2.49a25,25,0,0,1-1.91-4.08,42.48,42.48,0,0,1-2-8c0-.55-.08-1.22-.1-1.94H21.18c.23,6.2,3.95,13.88,3.95,13.88A47.57,47.57,0,0,0,17.32,31.78Z"/><path d="M38.88,19.49c.09-2.66,1.24-9.23,3.64-12s4-.31,4-.31A31.3,31.3,0,0,1,50,14.56a41,41,0,0,1,1.23,6.09h1.56c.37-1.07,2-5,2.13-5.16a9.61,9.61,0,0,0,1.33-1.68c.76-1.11,3.51-4.22,4.31-4.35a2.69,2.69,0,0,1,2,.62,13,13,0,0,1,2.13,3.64c.76,1.82.54,5.68.45,6.88v0h1a23.57,23.57,0,0,0-.64-6.53c-.27-1-1.91-5.1-3.46-5.37s-1.87-.89-5.15,2.57a24.25,24.25,0,0,0-4.79,8.08l-.18,0A53.41,53.41,0,0,0,48.33,8.13c-.22-.27-1.2-1.6-1.6-2.13s-.75-.93-2.61-.67-4.53,4-5.59,8.12a26.65,26.65,0,0,0-.54,7.2h.87C38.86,20.26,38.87,19.87,38.88,19.49Z"/><path d="M38.22,23.56h0Z"/><path d="M36.4,23c2.17,3.68,1.9,3.55,1.9,3.55a1.11,1.11,0,0,0,1,.35c.53-.13.58-.35.18-1.11a16,16,0,0,1-.6-5.09H38c.07,1.63.21,2.81.23,2.91h0c0-.06-.17-.57-2.14-2.91h-1.3A19.68,19.68,0,0,1,36.4,23Z"/><path d="M71.71,19c3.37-1.65,4.13-1.78,4.31-.94s.7,1.76.88,2.63h1a14,14,0,0,0-.91-3.2,1.48,1.48,0,0,1-.23-.8l-.71-.09c-.66-.22-.57.18-.57.18a8.43,8.43,0,0,0-2.35.26,18.11,18.11,0,0,0-5.33,3.65h1.31A12.55,12.55,0,0,1,71.71,19Z"/><path d="M22.51,14.21c.44-2,1.24-3.2,2.26-2a23.35,23.35,0,0,1,3.38,2.08,42.44,42.44,0,0,1,6.63,6.4h1.3c-.46-.54-1-1.17-1.68-1.92-3.81-4.26-8.74-8-10.29-7.81s-2.71,2.31-2.93,8.66c0,.35,0,.71,0,1.07h1.05A30.6,30.6,0,0,1,22.51,14.21Z"/><path d="M64.39,25.39s.14.26.76,0,.26-1,.26-1l.31,0a21.54,21.54,0,0,1,3.44-3.72H67.85a19.6,19.6,0,0,0-1.82,2l-.17-.14a7.91,7.91,0,0,0,.33-1.85h-1C65,21.9,64.39,25.39,64.39,25.39Z"/><path d="M77,21c.09.93,1.46,12.73-4.57,22.18l.13.76a21.67,21.67,0,0,1,3.59-4.44A16.74,16.74,0,0,1,84.58,36s.71-.14.71,0-.22.44-.22.58a1.77,1.77,0,0,1,0,1,12.33,12.33,0,0,1-1,2.31,36.64,36.64,0,0,1-7.76,8.39s-.36.93.31.53a7.15,7.15,0,0,0,1.19-.93s4.18-.09,5.91.13a5.16,5.16,0,0,1,2.83,1c.09.17.18.66-1.28,2s-5.81,6-17.88,6.3a10.21,10.21,0,0,1-.19,1.2h0c3.68,0,4.39-.18,9.81-1.6a21.48,21.48,0,0,0,9-5.19s3.32-3.28.17-4.17A23.87,23.87,0,0,0,79,47c3.2-2.62,6.79-7.63,6.66-8a5.8,5.8,0,0,1,.35-2,1.46,1.46,0,0,0,0-1.42c-.36-.8-1-.54-1-.54-4,.09-7.63,2.89-8.38,3.07s-1,1.1-1,1.1l-.27-.13c1.55-2.44,2.53-7.59,2.66-9.49s.18-6.48.09-7.9a8.43,8.43,0,0,0-.15-1.1h-1C76.92,20.75,76.94,20.85,77,21Z"/><path d="M51.39,21.88c-.09.4-.35,1.16.14,1.2s1-1.46,1.24-2.31c0,0,0-.07,0-.12H51.25c0,.37,0,.57,0,.57A.88.88,0,0,1,51.39,21.88Z"/><path class="cls-6" d="M28.15,14.25a23.35,23.35,0,0,0-3.38-2.08c-1-1.16-1.82,0-2.26,2a30.6,30.6,0,0,0-.28,6.44H34.78A42.44,42.44,0,0,0,28.15,14.25Z"/><path class="cls-6" d="M50,14.56a31.3,31.3,0,0,0-3.46-7.41s-1.64-2.48-4,.31-3.55,9.37-3.64,12c0,.38,0,.77,0,1.16H51.25A41,41,0,0,0,50,14.56Z"/><path class="cls-6" d="M29.12,45.89a5.6,5.6,0,0,1,1.47-2.36,2.67,2.67,0,0,1,2.61.8,15.51,15.51,0,0,1,2.62,3.29L36.49,49a173,173,0,0,1,.88-18.51c.18-1.15.36-1.1.76-1.1s.88.62.88.62,7.06,3.81,18.51,12.6c0,0,12-1.38,14-1.51s.53.93.53.93l-.57,0A19.35,19.35,0,0,1,69,50.9a6.1,6.1,0,0,0-.58,1.86l-.62.71a1.73,1.73,0,0,1-.08,1.33,7.17,7.17,0,0,0-.27,2.53c12.07-.31,16.41-5,17.88-6.3s1.37-1.82,1.28-2a5.16,5.16,0,0,0-2.83-1c-1.73-.22-5.91-.13-5.91-.13a7.15,7.15,0,0,1-1.19.93c-.67.4-.31-.53-.31-.53a36.64,36.64,0,0,0,7.76-8.39,12.33,12.33,0,0,0,1-2.31,1.77,1.77,0,0,0,0-1c0-.14.22-.4.22-.58s-.71,0-.71,0a16.74,16.74,0,0,0-8.48,3.41,21.67,21.67,0,0,0-3.59,4.44l-.13-.76C78.41,33.68,77,21.88,77,21c0-.1,0-.2,0-.3H69.16a21.54,21.54,0,0,0-3.44,3.72l-.31,0s.36.8-.26,1-.76,0-.76,0,.65-3.49.75-4.74H52.81c0,.05,0,.09,0,.12-.27.85-.76,2.36-1.24,2.31s-.23-.8-.14-1.2a.88.88,0,0,0-.09-.66s0-.2,0-.57H38.86a16,16,0,0,0,.6,5.09c.4.76.35,1-.18,1.11a1.11,1.11,0,0,1-1-.35s.27.13-1.9-3.55a19.68,19.68,0,0,0-1.62-2.3H22.23c0,.72.06,1.39.1,1.94a42.48,42.48,0,0,0,2,8,25,25,0,0,0,1.91,4.08c.36.53,1.78,2.09,1.51,2.49s-.67-.09-.67-.09-.13-.45-1.46-1.2-5.06-2-6.57-2.62-1.95-.18-2.26-.53a1.07,1.07,0,0,0-1-.31,1.5,1.5,0,0,0-1.38,1.86c.27,1.51,1.38,2,2.22,3.82s4.88,5.59,5.63,6.21,5.86,4.43,5.86,4.43c.19-.09.56.08.88.32A15.73,15.73,0,0,1,29.12,45.89Z"/><path class="cls-6" d="M65.15,20.6c.09-1.2.31-5.06-.45-6.88a13,13,0,0,0-2.13-3.64,2.69,2.69,0,0,0-2-.62c-.8.13-3.55,3.24-4.31,4.35a9.61,9.61,0,0,1-1.33,1.68c-.17.17-1.76,4.09-2.13,5.16H65.14Z"/><path class="cls-6" d="M76,18c-.18-.84-.94-.71-4.31.94a12.55,12.55,0,0,0-2.55,1.69H76.9C76.72,19.78,76.17,18.78,76,18Z"/><path d="M29.56,51h0a1.13,1.13,0,0,1,.38.57L30,52h.06l.17.45H30a16.42,16.42,0,0,0,1.44,1.52c.44.44.75,0,1-.14a1.81,1.81,0,0,1,.37-.18A3.75,3.75,0,0,0,32.3,53a.91.91,0,0,1-.43.13c-.35,0-1.06-.71-1.06-.71l0-.4s-.44-.21-.78-1.61l-.33-.07-.48-.22,0,.29h.14C29.61,50.54,29.56,51,29.56,51Z"/><path d="M66.48,58.49S62,63.9,52.06,64.74a3.26,3.26,0,0,1-1.73-.18c-.8-.35-5-2.7-5.28-2.88l-1.33-.75s-7.1-5.06-9-8c0,0-.26-.27.13-.44s.65-.48.5-.78L35,51.65a8.36,8.36,0,0,0-1.61.67l-.36.26a5.38,5.38,0,0,1,.45.43l.33.18.07,0,.07.1a6.39,6.39,0,0,1,.6.34,56.69,56.69,0,0,1,5.1,5.11c1,1.28,10.12,6.12,11,6.43s6.52-.75,6.52-.75,0,.09,0,.14c7-1.87,9.4-4.94,9.71-5.34a2,2,0,0,0,.25-.66,6.15,6.15,0,0,1-.74-.06Z"/><path d="M50.73,65.14c-.93-.31-10.07-5.15-11-6.43a56.69,56.69,0,0,0-5.1-5.11,6.39,6.39,0,0,0-.6-.34,45.89,45.89,0,0,0,8.81,7.89c2.35,1.46,6.3,4,7.89,4.48s6.44-1.07,6.44-1.07l.14,0s0-.1,0-.14S51.66,65.45,50.73,65.14Z"/><path d="M33.84,53.19,33.51,53l.18.23Z"/><path d="M30,50.44a11.47,11.47,0,0,1-.28-1.67c-.31-2.93.4-4.3.84-4.44a3.76,3.76,0,0,1,2.8,1,53,53,0,0,1,2.88,4.53,1.18,1.18,0,0,0,.44.26c.15,0,.32-.08.43-.2a1.58,1.58,0,0,1-.43-.46,28.55,28.55,0,0,0-3-4.3c-.76-.71-1.65-1.51-2.8-1.29s-1.51,2.44-1.51,2.44l.09,3.06a2,2,0,0,0-.36-.35c0,.39.06.77.1,1.11l.48.22Z"/><path d="M35,51.65l.31.07v0C35.29,51.63,35.18,51.62,35,51.65Z"/><path d="M66.58,57.34c0,.59-.09,1-.1,1.13a6.15,6.15,0,0,0,.74.06,10.21,10.21,0,0,0,.19-1.2Z"/><path d="M29.43,49.39l-.09-3.06s.36-2.22,1.51-2.44,2,.58,2.8,1.29a28.55,28.55,0,0,1,3,4.3,1.58,1.58,0,0,0,.43.46,1.46,1.46,0,0,0,.15-.2s.13-6.47.27-9.18a73,73,0,0,1,.75-9.49s0-.14,1,.48,10.25,6.35,14,9.23c3.34,2.55,2.84,1.87,3.15,2s.58.71,1.11.75,13.09-1.46,13.09-1.46a25.31,25.31,0,0,1-4.08,11.49,1,1,0,0,0,0,1.07,8.68,8.68,0,0,1,.06,2.71h.83a7.17,7.17,0,0,1,.27-2.53,1.73,1.73,0,0,0,.08-1.33l.62-.71A6.1,6.1,0,0,1,69,50.9,19.35,19.35,0,0,0,71.45,42l.57,0s1.42-1.07-.53-.93-14,1.51-14,1.51C46.07,33.86,39,30.05,39,30.05s-.48-.62-.88-.62-.58-.05-.76,1.1A173,173,0,0,0,36.49,49l-.67-1.42a15.51,15.51,0,0,0-2.62-3.29,2.67,2.67,0,0,0-2.61-.8,5.6,5.6,0,0,0-1.47,2.36A15.73,15.73,0,0,0,29.07,49,2,2,0,0,1,29.43,49.39Z"/><path class="cls-7" d="M32.42,52.12a.26.26,0,0,0,0-.18s-.1,0-.17,0A.25.25,0,0,1,32.42,52.12Z"/><path class="cls-7" d="M30.76,52.05l0,.4s.71.67,1.06.71A.91.91,0,0,0,32.3,53a.69.69,0,0,0-.21-.14c-.58-.16-.46-.51-.37-.77a.67.67,0,0,1,.71-.49c.4,0,0,.56.17.67a2.29,2.29,0,0,1,.46.28l.36-.26A8.36,8.36,0,0,1,35,51.65L30,50.44C30.32,51.84,30.76,52.05,30.76,52.05Z"/><path class="cls-7" d="M63.42,58.9a1.55,1.55,0,0,1-1.4-.74,1.87,1.87,0,0,1-.16-.49c-5.3-1.05-13.38-2.88-20.12-4.45a2.17,2.17,0,0,1-.48.25c-1.06.38-1.91-.14-2.81-1l-3.11-.73c.15.3-.11.6-.5.78s-.13.44-.13.44c1.91,2.93,9,8,9,8l1.33.75c.31.18,4.48,2.53,5.28,2.88a3.26,3.26,0,0,0,1.73.18c9.89-.84,14.42-6.25,14.42-6.25v0c-.43,0-1-.13-1.63-.24A3.21,3.21,0,0,1,63.42,58.9ZM58,58.63a23.37,23.37,0,0,1-3.26.13l-1.66,1.63a2.38,2.38,0,0,1-2.3.34c-.6-.34-3.19-2.5-3.19-2.5l-.3-.2a.78.78,0,0,1-.3-.6,26,26,0,0,1-2.43-2.59,3.47,3.47,0,0,0-1.33.23c-.57.07-.63-.13-.63-.13a4,4,0,0,1,2.53-.8c.46-.1.16.2.13.4s.33.93,1.36,1.19a10.33,10.33,0,0,1,2.23.8,21.83,21.83,0,0,0,4.83,1.1,5.93,5.93,0,0,1,1.73.3c.63.1,3.19,0,3.19.13S58.49,58.46,58,58.63Z"/><path class="cls-7" d="M41.74,53.22c6.74,1.57,14.82,3.4,20.12,4.45a1.61,1.61,0,0,1,0-.62,96.73,96.73,0,0,1-19.48-4.81A1.71,1.71,0,0,1,41.74,53.22Z"/><path class="cls-7" d="M37.83,51.81a1.55,1.55,0,0,1-.4-1.63l-.34-.24c-.11.12-.28.25-.43.2a1.18,1.18,0,0,1-.44-.26,53,53,0,0,0-2.88-4.53,3.76,3.76,0,0,0-2.8-1c-.44.14-1.15,1.51-.84,4.44A11.47,11.47,0,0,0,30,50.44L35,51.65c.15,0,.26,0,.3.05v0l3.11.73C38.24,52.25,38,52,37.83,51.81Zm-3.65-2a34.56,34.56,0,0,0-2.57-3s-.23-.24-.09,1.84l-.62.22s-.49-2,0-2.53l-.07-.35s-.78,0-.47-.49,1-.13,1.38.18a13.61,13.61,0,0,1,2.75,3.5S34.45,49.9,34.18,49.77Z"/><path class="cls-7" d="M64.85,58.23c.65.11,1.2.19,1.63.24,0-.08.06-.54.1-1.13H66C65.73,57.57,65.3,57.92,64.85,58.23Z"/><path class="cls-7" d="M55.26,54.5s.34,0,.4-.4a.68.68,0,0,0,0-.15l-.92.54A4.4,4.4,0,0,0,55.26,54.5Z"/><path class="cls-7" d="M66.52,54.63a1,1,0,0,1,0-1.07,25.31,25.31,0,0,0,4.08-11.49s-12.56,1.51-13.09,1.46-.8-.62-1.11-.75.19.55-3.15-2c-3.77-2.88-13-8.6-14-9.23s-1-.48-1-.48a73,73,0,0,0-.75,9.49c-.14,2.71-.27,9.18-.27,9.18a1.46,1.46,0,0,1-.15.2l.34.24a1.74,1.74,0,0,1,.6-.8,1.55,1.55,0,0,1,1.89-.3,1.27,1.27,0,0,1,.22.13,7.28,7.28,0,0,1-.64-2.39c-.26-2.58.54-3.24.54-3.24-.76-1.29.31-1.38.31-1.38a9.62,9.62,0,0,1,5.19.45c1.33.48,3.55,1.33,4.08,4s-.36,3.54-.36,3.54l-.44-.22a4.88,4.88,0,0,1-4.74,1.89,1.54,1.54,0,0,1-1-.09,6.37,6.37,0,0,1-.7-.27,1.62,1.62,0,0,1,0,.79,96.73,96.73,0,0,0,19.48,4.81,2.23,2.23,0,0,1,.62-1,4,4,0,0,1-1,.13,3.71,3.71,0,0,1-3.69-3.06s.1-.4-.4-.43a1.57,1.57,0,0,1,0-.77c.14-.23.1-.83.5-1.16s.5-1.36,2.4-2.36,5.69-1.23,6.65.3c0,0,.24.26-.16.5s-.67.2-.8.86a9.64,9.64,0,0,1-1.6,4.39,2.47,2.47,0,0,1-.16.3,1.23,1.23,0,0,1,1.66.2c.9,1.13.73,1.9.3,2.23l-.26.21h.56A8.68,8.68,0,0,0,66.52,54.63ZM48.68,42.89c-.47-.3-2.43-1.7-3.4-2.3s-3.73-2-3.73-2l-.43-.13c0-.37.3-.4.57-.43s1.06,0,1.06,0l.83,0,1.44.69a1.19,1.19,0,0,0,.33.07,23.53,23.53,0,0,1,2.19,1.3c.64.4,4,2.66,4,2.66s-.13.1.17.6A11.31,11.31,0,0,0,53.33,45l.07.23a3.53,3.53,0,0,0,.8.5c.73.4.83.6.73.73s-1-.39-1.66-.9c-1.4-1.06-1.53-.76-1.87-.9s-1.06-.89-1.29-.93A7.27,7.27,0,0,1,48.68,42.89Zm7.65,10.68,0,0c0,.34-.07.61-.08.67s-.14.53-.14.53.17.34-.3.44A8.63,8.63,0,0,1,52.9,55a6.92,6.92,0,0,1-2.56-1.46c-.48-.53.71-.62,1.49-.61a1.62,1.62,0,0,1,1.34-.62s.33-3.26,1.36-3.86a1.37,1.37,0,0,1,2.13.63A5.73,5.73,0,0,1,56.33,53.57ZM67,46.48a10.37,10.37,0,0,0-2-.3c-.83,0-4.63,0-5.62.2a12,12,0,0,1-2.83.37c-.47,0-1-.07-.83-.33a8,8,0,0,1,2.33-.4l.56-.13a1,1,0,0,1,.73-.6c.57-.1,2.27-.37,2.63-.4a14.37,14.37,0,0,1,4.16-.07c1.47.33,1.56,1.33,1.43,1.5A.62.62,0,0,1,67,46.48Z"/><path d="M53.27,45.55c.67.51,1.56,1,1.66.9s0-.33-.73-.73a3.53,3.53,0,0,1-.8-.5L53.33,45a11.31,11.31,0,0,1-1.66-1.6c-.3-.5-.17-.6-.17-.6s-3.32-2.26-4-2.66a23.53,23.53,0,0,0-2.19-1.3,1.19,1.19,0,0,1-.33-.07l-1.44-.69-.83,0s-.8,0-1.06,0-.6.06-.57.43l.43.13s2.77,1.37,3.73,2,2.93,2,3.4,2.3a7.27,7.27,0,0,0,1.43.83c.23,0,1,.8,1.29.93S51.87,44.49,53.27,45.55Z"/><path d="M67.64,46.32c.13-.17,0-1.17-1.43-1.5a14.37,14.37,0,0,0-4.16.07c-.36,0-2.06.3-2.63.4a1,1,0,0,0-.73.6l-.56.13a8,8,0,0,0-2.33.4c-.2.26.36.34.83.33a12,12,0,0,0,2.83-.37c1-.16,4.79-.2,5.62-.2a10.37,10.37,0,0,1,2,.3A.62.62,0,0,0,67.64,46.32Z"/><path class="cls-8" d="M41.26,53.47a2.17,2.17,0,0,0,.48-.25l-3.29-.77C39.35,53.33,40.2,53.85,41.26,53.47Z"/><path class="cls-8" d="M37.83,51.81c.21.23.41.44.62.64l3.29.77a1.71,1.71,0,0,0,.67-1c-2.53-.88-4.11-1.52-4.11-1.52s-.44-.24-.87-.54A1.55,1.55,0,0,0,37.83,51.81Z"/><path class="cls-8" d="M42.41,52.24a1.62,1.62,0,0,0,0-.79,4.71,4.71,0,0,1-2.27-2.24,1.27,1.27,0,0,0-.22-.13,1.55,1.55,0,0,0-1.89.3,1.74,1.74,0,0,0-.6.8c.43.3.87.54.87.54S39.88,51.36,42.41,52.24Z"/><path d="M42.29,51.18a.85.85,0,0,1,.12.27,6.37,6.37,0,0,0,.7.27,1.54,1.54,0,0,0,1,.09,4.88,4.88,0,0,0,4.74-1.89l.44.22s.89-.93.36-3.54-2.75-3.47-4.08-4a9.62,9.62,0,0,0-5.19-.45s-1.07.09-.31,1.38c0,0-.8.66-.54,3.24a7.28,7.28,0,0,0,.64,2.39A11.42,11.42,0,0,1,42.29,51.18Zm1.56-3.27,0,0a.92.92,0,0,1-.52.17.87.87,0,1,1,.82-1.15,3.91,3.91,0,0,0-.72-3.34c-.17-.21-.17-.4.4-.27a8.8,8.8,0,0,1,2.26.5,4.33,4.33,0,0,1,.8.6s.33-.1.37.3a4.77,4.77,0,0,1,1.5,3.59s-.7.9-.47,1.33a1.38,1.38,0,0,0-.63.67c-.17.43-2.43,1-3.53.73a4,4,0,0,1-2.26-1.23S43.62,48.88,43.85,47.91Z"/><path d="M42.41,51.45a.85.85,0,0,0-.12-.27,11.42,11.42,0,0,0-2.15-2A4.71,4.71,0,0,0,42.41,51.45Z"/><path class="cls-9" d="M44.15,51c1.1.3,3.36-.3,3.53-.73a1.38,1.38,0,0,1,.63-.67c-.23-.43.47-1.33.47-1.33a4.77,4.77,0,0,0-1.5-3.59c0-.4-.37-.3-.37-.3a4.33,4.33,0,0,0-.8-.6,8.8,8.8,0,0,0-2.26-.5c-.57-.13-.57.06-.4.27a3.91,3.91,0,0,1,.72,3.34.86.86,0,0,1-.3,1l0,0c-.23,1-2,1.87-2,1.87A4,4,0,0,0,44.15,51Z"/><path class="cls-9" d="M43.35,46.32a.87.87,0,0,0,0,1.73.92.92,0,0,0,.52-.17,5.11,5.11,0,0,0,.3-1A.87.87,0,0,0,43.35,46.32Z"/><path class="cls-9" d="M44.22,47.18a.87.87,0,0,0,0-.28,5.11,5.11,0,0,1-.3,1A.88.88,0,0,0,44.22,47.18Z"/><path class="cls-8" d="M62,58.16a1.55,1.55,0,0,0,1.4.74,3.21,3.21,0,0,0,1.43-.67c-.84-.14-1.85-.33-3-.56A1.87,1.87,0,0,0,62,58.16Z"/><path class="cls-8" d="M61.86,57.67c1.14.23,2.15.42,3,.56.45-.31.88-.66,1.17-.89-1.34,0-2.72-.13-4.13-.29A1.61,1.61,0,0,0,61.86,57.67Z"/><path class="cls-8" d="M66.28,57.13c.43-.33.6-1.1-.3-2.23a1.23,1.23,0,0,0-1.66-.2,1.63,1.63,0,0,1-.37.44c-.27.16,0,.33,0,.33a8.55,8.55,0,0,1-1.44.53,2.23,2.23,0,0,0-.62,1c1.41.16,2.79.26,4.13.29Z"/><path d="M62.82,55.73a10.48,10.48,0,0,1,1.5-1,2.47,2.47,0,0,0,.16-.3A9.64,9.64,0,0,0,66.08,50c.13-.66.4-.63.8-.86s.16-.5.16-.5c-1-1.53-4.76-1.3-6.65-.3s-2,2-2.4,2.36-.36.93-.5,1.16a1.57,1.57,0,0,0,0,.77c.5,0,.4.43.4.43a3.71,3.71,0,0,0,3.69,3.06,4,4,0,0,0,1-.13A2.61,2.61,0,0,1,62.82,55.73Zm-3.06-.89s-.17-.17.36-.44a2.91,2.91,0,0,0,1.2-1.13l.06-.17a.77.77,0,0,1-.34.07.85.85,0,1,1,0-1.69.86.86,0,0,1,.75.45A4.29,4.29,0,0,0,61,49s.17-.23.43.07.54-.37.54-.37a10.25,10.25,0,0,1,1.13-.2,2.71,2.71,0,0,1,.76,0,11.26,11.26,0,0,1,1.4.33c.23.13.27.6.13,1.3a10.78,10.78,0,0,1-1.89,4.46,2.73,2.73,0,0,0-.94.53A4.29,4.29,0,0,1,59.76,54.84Z"/><path d="M64,55.14a1.63,1.63,0,0,0,.37-.44,10.48,10.48,0,0,0-1.5,1,2.61,2.61,0,0,0-.31.27A8.55,8.55,0,0,0,64,55.47S63.68,55.3,64,55.14Z"/><path class="cls-9" d="M63.52,54.64a10.78,10.78,0,0,0,1.89-4.46c.14-.7.1-1.17-.13-1.3a11.26,11.26,0,0,0-1.4-.33,2.71,2.71,0,0,0-.76,0,10.25,10.25,0,0,0-1.13.2s-.27.67-.54.37S61,49,61,49a4.29,4.29,0,0,1,.77,2.92.87.87,0,0,1,.1.39.85.85,0,0,1-.51.78l-.06.17a2.91,2.91,0,0,1-1.2,1.13c-.53.27-.36.44-.36.44a4.29,4.29,0,0,0,2.82.33A2.73,2.73,0,0,1,63.52,54.64Z"/><path class="cls-9" d="M61.79,51.93a.86.86,0,0,0-.75-.45.85.85,0,1,0,0,1.69.77.77,0,0,0,.34-.07l.41-1.16Z"/><path class="cls-9" d="M61.89,52.32a.87.87,0,0,0-.1-.39h0l-.41,1.16A.85.85,0,0,0,61.89,52.32Z"/><path class="cls-8" d="M54.53,48.45c-1,.6-1.36,3.86-1.36,3.86a1.62,1.62,0,0,0-1.34.62h.47c.53,0,1.53.2,1.63.47s-.06.46-.23.46a5.59,5.59,0,0,0-2.1-.36c-.73.16,1.33.73,1.33.73s1.07.18,1.83.25l.92-.54c.06-.51.08-1.41.08-1.41,0-.57,0-1.1.3-1.26s.3,0,.34.59a12.79,12.79,0,0,1-.12,1.73l0,0a5.73,5.73,0,0,0,.33-4.49A1.37,1.37,0,0,0,54.53,48.45Z"/><path d="M55.66,54.1c-.06.44-.4.4-.4.4a4.4,4.4,0,0,1-.5,0l-.36.21a3.75,3.75,0,0,1-2.4-.23c-.83-.43-1.29-.63-.63-1.13a5.45,5.45,0,0,0,.46-.41c-.78,0-2,.08-1.49.61A6.92,6.92,0,0,0,52.9,55a8.63,8.63,0,0,0,2.86.24c.47-.1.3-.44.3-.44s.1-.36.14-.53,0-.33.08-.67l-.6.35A.68.68,0,0,1,55.66,54.1Z"/><path d="M52,54.47a3.75,3.75,0,0,0,2.4.23l.36-.21c-.76-.07-1.83-.25-1.83-.25s-2.06-.57-1.33-.73a5.59,5.59,0,0,1,2.1.36c.17,0,.33-.2.23-.46s-1.1-.44-1.63-.47h-.47a5.45,5.45,0,0,1-.46.41C50.71,53.84,51.17,54,52,54.47Z"/><path d="M56.4,51.87c0-.63,0-.76-.34-.59s-.26.69-.3,1.26c0,0,0,.9-.08,1.41l.6-.35A12.79,12.79,0,0,0,56.4,51.87Z"/><path d="M31.74,45.62c-.4-.31-1.09-.67-1.38-.18s.47.49.47.49l.07.35c-.49.54,0,2.53,0,2.53l.62-.22c-.14-2.08.09-1.84.09-1.84a34.56,34.56,0,0,1,2.57,3c.27.13.31-.65.31-.65A13.61,13.61,0,0,0,31.74,45.62Z"/><path d="M55.4,57.93a5.93,5.93,0,0,0-1.73-.3,21.83,21.83,0,0,1-4.83-1.1,10.33,10.33,0,0,0-2.23-.8c-1-.26-1.4-1-1.36-1.19s.33-.5-.13-.4a4,4,0,0,0-2.53.8s.06.2.63.13a3.47,3.47,0,0,1,1.33-.23A26,26,0,0,0,47,57.43a.78.78,0,0,0,.3.6l.3.2s2.59,2.16,3.19,2.5a2.38,2.38,0,0,0,2.3-.34l1.66-1.63A23.37,23.37,0,0,0,58,58.63c.5-.17.6-.43.6-.57S56,58,55.4,57.93Zm-1.73.57h-.44a1.09,1.09,0,0,1-1,.36,10.92,10.92,0,0,1-1.5-.3l-.06-.3a1,1,0,0,1-.67.07c-.33-.1-.83-.93-.83-.93v-.27a14.5,14.5,0,0,0,4.66,1.1Z"/><path class="cls-9" d="M49.21,57.4s.5.83.83.93a1,1,0,0,0,.67-.07l.06.3a10.92,10.92,0,0,0,1.5.3,1.09,1.09,0,0,0,1-.36h.44l.2-.27a14.5,14.5,0,0,1-4.66-1.1Z"/><path class="cls-4" d="M34.71,58.11c-.15,0-.13.38-.09-1.2a4.94,4.94,0,0,0-.75-3,4.21,4.21,0,0,0-.4-.57l-.45.17a4.21,4.21,0,0,1,.49.8A6.41,6.41,0,0,1,34,56.6a4.22,4.22,0,0,1-2.82,4.15c-.62.15-.6-.14-.6-.14s.07-.12.18-.2a4.23,4.23,0,0,1-2.09-.11,3.82,3.82,0,0,0-1,.09s-.1,0-.47-.21l-.3.3a13,13,0,0,1-1.14-.77,5.62,5.62,0,0,1-1.28-3,4,4,0,0,1,.86-2.73c.25-.31,1.45-1.49,1.62-1.18a.21.21,0,0,1,0,.15c.21-.11.37-.18.46-.24a1.29,1.29,0,0,1,.26-.12,1.24,1.24,0,0,1,1-.5c.43,0,.78,0,1,0a2.79,2.79,0,0,1-.41-.93s0-.06,0-.08c-.49,0-1.13.12-1.13.12s-1.82.93-2.09,1-.58.4-.8.66A4.53,4.53,0,0,0,23.93,55a9.1,9.1,0,0,0,0,3.29l.27.8-.23,0a5.88,5.88,0,0,0,2.4,2.43l.75,0a6.47,6.47,0,0,0,.77.26s0,0,0,0c.09-.22.36,0,1.58,0a5.87,5.87,0,0,0,2.59-.75,12.41,12.41,0,0,0,1.51-1.18.09.09,0,0,1,.15,0c.26-.2.49-.35.49-.35l.36-.58a3.3,3.3,0,0,0,.31-1.08C34.84,58,34.77,58.11,34.71,58.11Z"/><path class="cls-4" d="M29.92,51.56a1.13,1.13,0,0,0-.38-.57h-.26s0,0,0,.08a2.79,2.79,0,0,0,.41.93L30,52Z"/><path class="cls-4" d="M32.83,52.73l-.28.17c.15.17.32.38.47.59l.45-.17-.21-.22C33.11,53,33,52.84,32.83,52.73Z"/><path class="cls-4" d="M33.26,53.1a4.8,4.8,0,0,0-.4-.39l0,0C33,52.84,33.11,53,33.26,53.1Z"/><path class="cls-4" d="M31.89,52.45c0,.38.38.16.38.16a2.64,2.64,0,0,1,.28.29l.28-.17-.12-.1.12,0c-.25-.22-.45-.36-.45-.36a1.23,1.23,0,0,0,0-.2.25.25,0,0,0-.21-.16A.56.56,0,0,0,31.89,52.45Z"/><path class="cls-4" d="M32.71,52.63l.12.1,0,0,0,0Z"/><path d="M27.83,52.67A9.09,9.09,0,0,1,30,52.4l-.18-.24a7.82,7.82,0,0,0-2.16.39C27.58,52.67,27.63,52.74,27.83,52.67Z"/><path d="M29.81,52.16l.18.24h.28L30.1,52H30l.06.17Z"/><path d="M29.71,52c-.25,0-.6,0-1,0a1.24,1.24,0,0,0-1,.5,7.82,7.82,0,0,1,2.16-.39Z"/><path d="M30.1,52.14,30,52l-.33,0,.1.15Z"/><path d="M24.46,53.34a6.51,6.51,0,0,1,4.8-2.48q0-.2-.06-.42a14.31,14.31,0,0,0-1.94.41,5.72,5.72,0,0,0-1.51,1.07,3.08,3.08,0,0,0-1,.66,7.7,7.7,0,0,0-1.06,1.34c-.4,0-.53.88-.53,2.26a10.23,10.23,0,0,0,.62,3l.17,0a2.6,2.6,0,0,1-.13-.36C23.4,57.11,23.13,54.8,24.46,53.34Z"/><path d="M29.3,50.85a1,1,0,0,1,.24.14h0s.05-.45-.22-.54H29.2q0,.23.06.42Z"/><path d="M23.93,58.31a9.1,9.1,0,0,1,0-3.29,4.53,4.53,0,0,1,1.33-2.26c.22-.26.53-.62.8-.66s2.09-1,2.09-1,.64-.09,1.13-.12a.68.68,0,0,0,0-.14,6.51,6.51,0,0,0-4.8,2.48c-1.33,1.46-1.06,3.77-.62,5.46a2.6,2.6,0,0,0,.13.36l.23,0Z"/><path d="M29.3,50.85h0a.68.68,0,0,1,0,.14h.26A1,1,0,0,0,29.3,50.85Z"/><path d="M25.48,58.35a3.6,3.6,0,0,1-.42-2.46,5,5,0,0,1,.69-1.66l.38-.49c.3-.28.77-.56.8-.83a4.55,4.55,0,0,0-2.25,3.18,3.55,3.55,0,0,0,1.16,3.1,11.36,11.36,0,0,0,1.3,1h0A4,4,0,0,1,25.48,58.35Z"/><path d="M24.68,56.09a4.55,4.55,0,0,1,2.25-3.18.21.21,0,0,0,0-.15c-.17-.31-1.37.87-1.62,1.18a4,4,0,0,0-.86,2.73,5.62,5.62,0,0,0,1.28,3,13,13,0,0,0,1.14.77l.3-.3a11.36,11.36,0,0,1-1.3-1A3.55,3.55,0,0,1,24.68,56.09Z"/><path d="M33,58.8c.44-.94.75-3.51.08-4.66-.12-.22-.23-.4-.32-.55h0a3.38,3.38,0,0,1,.48,1,14,14,0,0,1,.09,2.62,5.26,5.26,0,0,1-1.07,2.24,15.67,15.67,0,0,1-1.55,1l.18-.06A3.54,3.54,0,0,0,33,58.8Z"/><path d="M34.89,57.85A3.34,3.34,0,0,0,35,56.8h0c0-.09-.07-.17-.11-.25A5.42,5.42,0,0,1,34.89,57.85Z"/><path d="M33.69,53.24l-.06,0a4.9,4.9,0,0,1,1.17,2.3,7.57,7.57,0,0,1,.13,1c0,.08.07.16.11.25a5.29,5.29,0,0,0-.95-3A5.42,5.42,0,0,0,33.69,53.24Z"/><path d="M33.29,52.91l.22.1a5.38,5.38,0,0,0-.45-.43l-.08.05A3.73,3.73,0,0,1,33.29,52.91Z"/><path d="M32.38,53l-.08,0a3.75,3.75,0,0,1,.47.57h0C32.6,53.29,32.47,53.11,32.38,53Z"/><path d="M33.63,53.26l.06,0L33.51,53l-.22-.1A3.8,3.8,0,0,1,33.63,53.26Z"/><path d="M32.43,51.63a.67.67,0,0,0-.71.49c-.09.26-.21.61.37.77a.69.69,0,0,1,.21.14l.08,0a1,1,0,0,0-.15-.18s-.71-.18-.36-.62c.14-.18.25-.23.34-.23s.14-.05.17,0a.26.26,0,0,1,0,.18l0,.07s.23.18.53.44l.08-.05a2.29,2.29,0,0,0-.46-.28C32.4,52.19,32.83,51.65,32.43,51.63Z"/><path d="M34.93,56.54c-.13-.3-.22-.54-.22-.54a4.15,4.15,0,0,0-1.22-2.69h0a4.21,4.21,0,0,1,.4.57,4.94,4.94,0,0,1,.75,3c0,1.58-.06,1.2.09,1.2s.13-.1.18-.26A5.42,5.42,0,0,0,34.93,56.54Z"/><path d="M33.11,54.14c.67,1.15.36,3.72-.08,4.66a3.54,3.54,0,0,1-2.13,1.55l-.18.06c-.11.08-.18.15-.18.2s0,.29.6.14A4.22,4.22,0,0,0,34,56.6a6.41,6.41,0,0,0-.45-2.31,4.21,4.21,0,0,0-.49-.8l-.23.1C32.88,53.74,33,53.92,33.11,54.14Z"/><path d="M34.71,56s.09.24.22.54a7.57,7.57,0,0,0-.13-1,4.9,4.9,0,0,0-1.17-2.3l-.14.05A4.15,4.15,0,0,1,34.71,56Z"/><path d="M33.47,53.32h0a1.51,1.51,0,0,0-.23-.21Z"/><path d="M32.38,53c.09.12.22.3.41.6l.23-.1c-.15-.21-.32-.42-.47-.59Z"/><path d="M33.29,52.91a3.73,3.73,0,0,0-.31-.28l-.11.07Z"/><path d="M33.29,52.91l-.42-.21h0a4.8,4.8,0,0,1,.4.39,1.51,1.51,0,0,1,.23.21l.14-.05A3.8,3.8,0,0,0,33.29,52.91Z"/><path d="M32.83,52.68l0,0,.11-.07c-.3-.26-.52-.4-.53-.44l0-.07a1.23,1.23,0,0,1,0,.2S32.58,52.46,32.83,52.68Z"/><path d="M32.27,52.61s-.38.22-.38-.16a.56.56,0,0,1,.32-.49c-.09,0-.2,0-.34.23-.35.44.36.62.36.62a1,1,0,0,1,.15.18l.17-.09A2.64,2.64,0,0,0,32.27,52.61Z"/><path d="M32.86,52.71h0l0,0Z"/><path d="M33.11,60.48A4.33,4.33,0,0,1,30.19,62a5.82,5.82,0,0,1-2.3-.18c-.05.22.27.4.65.42,0,0,.49,0,1.31,0A3.9,3.9,0,0,0,32,61.68a4.78,4.78,0,0,0,1.74-1.53c.06-.16,0-.25,0-.29C33.45,60.08,33.14,60.34,33.11,60.48Z"/><path d="M33.58,59.88a12.41,12.41,0,0,1-1.51,1.18,5.87,5.87,0,0,1-2.59.75c-1.22,0-1.49-.24-1.58,0,0,0,0,0,0,0a5.82,5.82,0,0,0,2.3.18,4.33,4.33,0,0,0,2.92-1.51c0-.14.34-.4.62-.62A.09.09,0,0,0,33.58,59.88Z"/></g></g></svg>