<?xml version="1.0" encoding="utf-8"?>
<!-- Generator: Adobe Illustrator 23.1.1, SVG Export Plug-In . SVG Version: 6.00 Build 0)  -->
<svg version="1.1" id="Layer_1" xmlns="http://www.w3.org/2000/svg" xmlns:xlink="http://www.w3.org/1999/xlink" x="0px" y="0px"
	 viewBox="0 0 100 100" style="enable-background:new 0 0 100 100;" xml:space="preserve">
<style type="text/css">
	.st0{fill:#D44F28;}
	.st1{fill:#48B0A9;}
	.st2{fill:#B28D31;}
	.st3{fill:#F28F04;}
	.st4{fill:#567578;}
	.st5{fill:#570F01;}
	.st6{fill:#D58A6A;}
	.st7{fill:#FFFFFF;}
</style>
<title>Riley</title>
<g>
	<g id="Layer_1-2">
		<circle class="st0" cx="50" cy="50" r="50"/>
		<path d="M58.9,82.1l0.2-0.3L58.9,82.1C58.9,82,58.9,82,58.9,82.1z"/>
		<path d="M67.3,92.2c0.1-0.3,0.1-0.6-0.2-0.8c-1.4-1.9-2.6-3.9-3.7-5.9c-1.5-2.7-2.7-5.2-3.2-6.3c-0.1,0.6-0.3,1.1-0.6,1.7l0,0
			c0.1,0,0.1,0,0.2,0l0,0H60l0,0h0.1l0,0h0.1l0,0l2.8,5l0.5,0.5c0.9,1.7,1.8,3.4,2.9,5l0.1,0.2l0.1,0.1l0,0c-0.2-0.1-0.4,0-0.4,0.1
			c0,0,0,0,0,0.1c0,0.1,0,0.3,0.2,0.3c0.3,0.3,3.6,3.6,3.6,3.6v0.1l0.6-0.3C69.5,94.3,68.5,93.2,67.3,92.2z"/>
		<path d="M63.6,96c-0.2,0.1-0.3,0.2-0.5,0.3c0.3,0.6,0.6,1.2,1,1.8l0.6-0.2l-0.1-0.1C64.6,97.7,64.3,97,63.6,96z"/>
		<path class="st1" d="M66.2,91.9C66.2,91.9,66.2,91.9,66.2,91.9C66.2,91.9,66.2,91.9,66.2,91.9z"/>
		<path class="st1" d="M60.2,80.8L60.2,80.8L60.2,80.8z"/>
		<path class="st1" d="M60,80.8h0.1H60z"/>
		<path class="st1" d="M59.8,80.7L59.8,80.7c0,0-0.1,0-0.1,0l0,0v0.1L59.8,80.7z"/>
		<path class="st1" d="M60.2,80.9L60.2,80.9z"/>
		<path class="st1" d="M59.9,80.8H60H59.9z"/>
		<path class="st1" d="M67.5,95.2c0.2-0.1,0-0.4,0.1-0.5c-0.9-0.9-1.8-1.9-2.1-2.1c-0.3-0.4-1.2-1.9-1.6-2.4s-0.7-1.7-1.3-2.8
			s-2.7-4.8-3.4-5.9c-0.1,0.1-0.2,0.3-0.3,0.4l-0.2,0.3c0.5,1.5,1.2,3,2,4.3c1.4,2.7,2.6,5.4,3.7,8.3l0.1,0.4
			c-0.3,0.3-0.6,0.6-1,0.8c0.7,1,1.1,1.7,1.1,1.7l0.1,0.1c1.1-0.3,2.1-0.7,3.1-1.1c0-0.1,0-0.3,0-0.4C67.9,96.3,67.2,95.3,67.5,95.2
			z"/>
		<path class="st1" d="M68.7,95.7c0,0.2,0.1,0.5,0.1,0.7l0.2-0.1c0-0.2,0-0.3,0-0.3L68.7,95.7z"/>
		<path d="M67.7,94.7c-0.1,0.1,0.1,0.4-0.1,0.5s0.3,1.1,0.3,1.1c0,0.1,0,0.3,0,0.4l1-0.4c0-0.2,0-0.5-0.1-0.7L67.7,94.7z"/>
		<path class="st2" d="M60.1,80.8L60.1,80.8z"/>
		<path class="st2" d="M60,80.8L60,80.8z"/>
		<path class="st2" d="M60.2,80.9L60.2,80.9z"/>
		<path class="st2" d="M66.3,92.2c-0.1-0.1-0.2-0.2-0.2-0.3C66.1,92,66.2,92.2,66.3,92.2c0.3,0.3,3.6,3.6,3.6,3.6v0.1l0,0v-0.1
			C69.9,95.8,66.6,92.5,66.3,92.2z"/>
		<path class="st2" d="M66.2,91.9c0.1-0.1,0.2-0.1,0.4-0.1C66.4,91.7,66.2,91.8,66.2,91.9z"/>
		<path class="st2" d="M66.5,91.6l0.1,0.1L66.5,91.6z"/>
		<path class="st2" d="M63.4,86.4c0.9,1.7,1.8,3.4,2.9,5C65.3,89.8,64.3,88.1,63.4,86.4L63,85.9l-2.8-5l2.8,5L63.4,86.4z"/>
		<path class="st2" d="M59.9,80.8L59.9,80.8z"/>
		<path class="st2" d="M66.3,92.2c-0.1-0.1-0.2-0.2-0.2-0.3c0,0,0,0,0-0.1c0.1-0.1,0.2-0.1,0.4-0.1l0,0l-0.1-0.1l-0.1-0.2
			c-1.1-1.6-2.1-3.3-2.9-5L63,85.9l-2.8-5l0,0h-0.1l0,0h-0.1l0,0H60h-0.1L59.7,81c-0.1,0.2-0.2,0.3-0.3,0.5c0.7,1.1,2.8,4.9,3.4,5.9
			s1,2.3,1.3,2.8c0.3,0.5,1.2,2,1.6,2.4c0.2,0.2,1.2,1.2,2.1,2.1c0.1,0,0.1-0.1,0.2-0.1c0.4,0,0.7,0.4,0.8,1.1L69,96
			c0,0,0,0.1,0,0.3l0.8-0.3v-0.1C69.8,95.9,66.6,92.5,66.3,92.2z"/>
		<path class="st2" d="M67.9,94.6c-0.1,0-0.2,0-0.2,0.1l1,1C68.6,95,68.3,94.6,67.9,94.6z"/>
		<path d="M62.8,95.5c-0.4,0-0.6,0.4-1.7,0.5H61v0.2c1-0.1,1.5-0.2,1.5-0.2c0.1,0.1,0.2,0.2,0.2,0.3l0.3-0.2c0-0.1-0.1-0.1-0.1-0.2
			C63,95.9,62.9,95.8,62.8,95.5z"/>
		<path d="M43.1,95.6l2.2,0.6l3.3-0.1h1c0-0.1,0-0.2,0-0.3L45.5,96c-0.4-0.3-0.9-0.5-1.4-0.6c0,0-1.9,0.1-2.2-0.3
			c-0.3-0.2-0.6-0.4-1-0.3c-0.8-0.2-1.7-0.5-2.4-0.9v-2.5c0-1.1-0.1-6.3-0.1-6.6c0-0.4,0.1-0.9,0.3-1.3c0.2-0.3,0.4,0.3,0.4,0.3
			l0.3-0.5c0,0.5,0,0.9,0.1,1.4c0.2,0.5,0.2,1.2,0,1.7c0,1,0.1,2.1,0.2,3.1c0.1,0.7,0.5,1.4,1,1.9c0,0,0.1,0.3,0.9,0.2s1,0,1,0
			c0.2,0.6,0.4,1.3,0.4,2c-0.7,0.1-1.3,0.1-2,0c-0.2,0.1-0.5,0.6-0.2,0.7c0.8,0.2,1.7,0.2,2.5,0.2c0.7-0.1,0.6,0,0.6-1.3
			s-1.4-5.3-1.9-6.8s-0.8-3.5-0.9-3.9c-0.1-0.3-0.2-0.6-0.3-0.9c0.1-0.3,0.7-1.7,0.9-1.9c0.1-0.3,0.1-0.5,0.1-0.8h-0.2l-0.2-0.4
			c0-1.3-0.2-2.7-0.4-4c0-0.1-0.6-0.2-0.5,0.3c0.2,1.5,0.3,3,0.3,4.5c-0.1,0.2-0.2,0.5-0.3,0.7c0,0.1-0.8,1.2-0.8,1.2
			c0-1-0.6-4.4-0.7-4.8c-0.3-0.7-0.6-1.4-0.9-2l-0.3-0.1l-0.4-0.4v-0.3h-0.2c0,0-0.3-0.1-0.7-0.8c-0.3-0.4-0.6-0.8-1-1.1l0,0
			c-0.4-0.4-0.8-0.7-0.8-0.7l0,0c0.8-0.9,1.7-1.7,2.7-2.5h0.1l0,0l0,0c0.4-0.1,0.8-0.1,1.4,0.9s1.2,3.6,1.6,3.4s-0.4-2.7-1-3.6
			c-0.1-0.2-0.2-0.3-0.3-0.4l0,0c-0.2-0.2-0.4-0.3-0.7-0.5c-0.6-0.2-1.2-0.3-1.8-0.2l0-0.1c-1.6,1.5-3.1,3.2-4.5,4.9
			c0,0.4,0.1,0.8,0.2,1.2l0.8-0.5c0,0,2.5,2,3,2.5c1.2,1.9,1.6,4.2,0.9,6.3c-0.4,0.1-0.8,0.3-1.3,0.5l0,0l0.1,0.4
			c0.5,0.3,0.9,0.7,1.4,1.1l0.6-0.2l-0.1,0.4l0.1,9.7c1.2,0.8,2.5,1.2,3.9,1.4c0-0.1,0-0.2,0-0.2L43.1,95.6z M40.3,85.4
			c0.3,0.9,2.1,5.6,2.1,5.6c-0.9,0-1.5,0.3-1.9-1.3S40.1,84.9,40.3,85.4z M37.8,83.2c-0.2,0.2-0.6,0.6-0.6,0.6l-1.1-1.2l0.2-0.1
			c0.2,0.1,0.4,0.3,0.5,0.4c0.2,0.3,0.5,0,0.5-0.2c0.1-1.2,0.2-2.5,0.2-3.7c-0.1-1-0.4-2-0.9-2.8c-0.3-0.4-3.4-3.1-3.4-3.1
			s-0.2-0.3-0.4-0.1s-0.7,0.2-0.2-0.3s1.3-1.3,1.3-1.3s0.2-0.2,0.5,0.3c0.5,0.7,1.1,1.3,1.7,1.9c0.2,0.2,0.4,0.4,0.6,0.7
			c0.4,0.4,0.8,0.7,1.1,1.1c0.2,0.5,0.3,1,0.4,1.6c0.2,0.9,0.5,2.4,0.6,2.8c0.1,0.7,0.1,1.3,0.1,2v0.5C39,82.1,38,83,37.8,83.2z"/>
		<path d="M55,72.1c0.4,0.4,1.7,1.9,2.2,2.4c0.5,0.5,1,1,1.4,1.6c0,0.1,0,0.2,0,0.3l0,0c-0.1,1.1-0.5,2.2-1,3.2
			c-0.2-0.7-0.5-1.3-0.8-1.9c-0.2-0.3-0.4-0.6-0.5-0.9c0-0.5,0.1-1,0.2-1.4c0-0.1,0-0.3,0-0.4l0,0c0-0.2-0.1-0.4-0.3-0.4l0,0
			c-0.2,0-0.4,1-0.4,1c-0.2-0.5-0.4-0.9-0.7-1.3c-0.3-0.4-0.6-0.7-0.8-0.2s0.1,0.8,0.3,1.1s0.5,1.3,0.9,2.1S58,82,58,82v0.5l0.1,0.1
			c0.6-0.9,1.1-1.9,1.5-2.9c0.2-0.6,0.5-0.7,0.5-0.7l0.1,0.2c0.2-0.7,0.2-1.5,0.1-2.2l-0.1-0.3L60,76.4v-0.3
			c-0.4-0.2-0.8-0.6-1.1-0.9c-0.4-0.6-2.1-2.7-2.6-3.5c-0.6-0.8-1.3-1.5-2.2-1.9l-0.7,0.7C54,71,54.5,71.5,55,72.1z M58.9,76.5
			c0.3,0.3,0.5,0.6,0.7,0.9c0,0.5-0.1,1-0.3,1.4c0,0-0.4-0.4-0.4-0.2s0.2,0.6,0.2,0.6c-0.1,0.7-0.4,1.5-0.8,2.1l-0.5-1.2v-0.4
			C58.5,79.1,58.9,76.5,58.9,76.5L58.9,76.5z"/>
		<path d="M63.2,95.4c-0.1,0.1-0.2,0.1-0.3,0.1h-0.1c0.1,0.2,0.2,0.4,0.2,0.5c0,0.1,0,0.1,0.1,0.2c0.2-0.1,0.3-0.2,0.5-0.3
			c-0.1-0.1-0.1-0.2-0.2-0.3L63.2,95.4z"/>
		<path d="M59.6,79.7c-0.5,1-1,2-1.5,2.9l0.2,0.4l0.5-0.9c0,0,0,0,0-0.1l0.2-0.2l0.3-0.5l0,0c0.1-0.2,0.2-0.3,0.3-0.4
			c0.3-0.5,0.5-1.1,0.6-1.7L60.1,79C60.1,79,59.8,79.1,59.6,79.7z"/>
		<path d="M59.4,81.2L59,81.8c0.1-0.1,0.2-0.2,0.3-0.4l0,0L59.4,81.2z"/>
		<path d="M58.9,83.8l0.1,0.9l4.8,9.8c-0.1,0.3-0.3,0.6-0.5,0.8l0.1,0.2c0.1,0.1,0.2,0.2,0.2,0.3c0.4-0.2,0.7-0.5,1-0.8l-0.1-0.4
			c-1.1-2.8-2.3-5.6-3.7-8.3c-0.8-1.4-1.5-2.8-2-4.3L58.3,83L58.9,83.8z"/>
		<path d="M59.6,80.9L59.6,80.9L59.6,80.9c0,0-0.2,0.2-0.3,0.3L59.6,80.9z"/>
		<path d="M59.4,81.2L59.4,81.2z"/>
		<path d="M59.4,81.2L59.4,81.2l-0.1,0.1l0,0c0.1-0.2,0.2-0.3,0.3-0.5l0,0L59.4,81.2z"/>
		<path d="M50.7,65.6c-1.6-0.4-5.5-3-7.9-4.5c-3.3-2.2-6.2-4.9-8.8-7.9l-0.1-0.1l-0.2,0c0.1,0.2,0.3,0.4,0.4,0.5
			c0.6,0.9,0.9,1.9,1,3c0.1,0.3,0.3,0.5,0.4,0.8c0,0,0.4,2.6,1.1,3.3c0,0.3-0.1,0.6-0.2,0.9c0,0.6,0,1.1,0,1.7c0,0-0.5,0.2,0,0.7
			c0.3,0.4,0.7,0.7,1.1,0.9l-0.9,1.4l-0.3,0.6l0.4,0.6l0.3-0.3c0.5,0,1.1,0,1.6,0.2c0.8,0.2,8.6,3,11.2,3.1c1.5,0.1,3-0.2,4.3-0.9
			h0.1c0.1-0.1,0.2-0.2,0.4-0.3c0.4-0.3,0.2-0.8,0-0.8s-0.1-0.9,0.8-1.3c1.1-0.6,1.8-1.7,1.9-2.9H57C57,64.5,52.3,66.1,50.7,65.6z
			 M40,67.8c0,0-1.3-0.4-1.6-0.5s-0.8-0.7-1.2-0.5l0.6-1.2l0.2,0.1l1.4,1.2c0.9,0.6,1.8,1.2,2.7,1.8C42.7,68.8,40,67.8,40,67.8z
			 M54.1,67.4c-0.7-0.1-1.4,0-2,0.3c0,0-2.3-0.5-3.5-0.8s-1.2-0.6-1.3-0.3s0.8,1,0.8,1l0.4,0.1l0.2,0.3c1.3,0.3,2.6,0.5,3.9,0.6
			l0.3,0.2h0.6l0.4,0.6c-1.1,0.7-2.5,1.1-3.8,1.1c-1.7-0.1-3.3-0.5-4.8-1.2c-0.6-0.2-0.3,0-0.9-0.2c-0.5-0.2-0.9-0.5-1.3-0.8
			c-0.5-0.1-0.9-0.3-1.3-0.6c-1-0.6-1.9-1.3-2.8-2c-0.8-0.8-2-1.7-2-1.7c0-0.4,0-0.9,0-1.3c0-1.1,0.5-1.2,0.5-1.2
			c0.7,1,1.6,1.9,2.6,2.6c0.5,0.5,1,0.9,1.6,1.2c0.6,0.4,2.1,1.3,2.7,1.6s0.1-0.3,0.1-0.3c0.4,0.2,0.8,0.3,1.2,0.4
			c0.1,0.1,0.8,0.9,0.8,0.9l0.6,0.1c-0.1-0.4-0.3-0.8-0.5-1.2c-0.3-0.5-0.6-0.4-0.6-0.4c0-0.2-0.2-0.4-0.4-0.5c-0.4-0.1,0,0.3,0,0.3
			H45c-0.6-0.5-1.3-0.9-2-1.2c-0.5-0.2-1-0.6-1.3-1.1c-0.6-0.4-1.3-0.8-1.9-1.2c-0.7-0.6-1.3-1.3-1.9-2c-0.4-0.4-0.7-0.7-1-1.2
			c-0.4-0.8-0.7-1.7-0.8-2.6c0.5,0.5,1,1,1.6,1.5c0.3,0.2,3,2.1,3,2.1h0.3l0.3,0.4l0.3,0.1c0.4,0.2,0.7,0.4,1,0.6
			c0.5,0.3,2.3,1.6,2.3,1.6c1.7,1.1,3.5,2.1,5.4,3c0.9,0.2,1.7,0.1,2.6-0.1c0.9-0.3,1.2-0.1,1.2-0.1s0.5-0.2,0.8-0.4
			c0.4-0.2,0.9-0.3,1.4-0.3C55.7,66.1,55,66.8,54.1,67.4z"/>
		<path d="M49.6,70.7c-2.7-0.1-10.5-2.8-11.2-3.1c-0.5-0.1-1.1-0.2-1.6-0.2l-0.3,0.3l0,0.1c0.6-0.1,1.3,0,1.8,0.2
			c-0.1-0.1-0.2-0.1-0.3-0.2l0,0l-0.4-0.2l0,0h0.1l0.4,0.1l0,0l0.5,0.2l0,0l0.2,0.1l0,0h0.1H39h0.2h0.1l0.2,0.1h0.1h0.1
			c1.5,0.6,3.8,1.3,5.9,1.8v-0.1l5.3,0.7c0.7,0,1.4-0.1,2.1-0.3l0,0c0.3-0.1,0.5-0.2,0.5-0.2l0,0h0l0.7-0.7H54
			C52.7,70.3,51.2,70.7,49.6,70.7z"/>
		<path class="st3" d="M54.1,66.1c0,0-0.3-0.2-1.2,0.1c-0.8,0.2-1.7,0.3-2.6,0.1c-1.8-0.9-3.6-1.9-5.4-3c0,0-1.8-1.2-2.3-1.6
			c-0.3-0.2-0.6-0.5-1-0.6l-0.3-0.1l-0.3-0.4h-0.3c0,0-2.7-2-3-2.1c-0.6-0.5-1.1-1-1.6-1.5c0.1,0.9,0.3,1.8,0.8,2.6
			c0.3,0.4,0.6,0.8,1,1.2c0.6,0.7,1.2,1.4,1.9,2c0.6,0.5,1.2,0.9,1.9,1.2c0.3,0.5,0.7,0.9,1.3,1.1c0.7,0.3,1.3,0.7,1.9,1.2h0.4
			c0,0-0.4-0.4,0-0.3c0.2,0.1,0.4,0.3,0.4,0.5c0,0,0.3-0.2,0.6,0.4c0.2,0.4,0.4,0.8,0.5,1.2l-0.6-0.1c0,0-0.7-0.8-0.8-0.9
			c-0.4-0.1-0.8-0.2-1.2-0.4c0,0,0.5,0.6-0.1,0.3s-2.1-1.2-2.7-1.6c-0.5-0.4-1.1-0.8-1.5-1.2c-1-0.8-1.8-1.7-2.5-2.7
			c0,0-0.5,0.1-0.5,1.2c0,0.4,0,0.9,0,1.3c0,0,1.2,0.9,2,1.7c0.9,0.7,1.8,1.4,2.8,2c0.4,0.3,0.8,0.5,1.3,0.6
			c0.4,0.3,0.8,0.6,1.3,0.8c0.6,0.2,0.3,0,0.9,0.2c1.5,0.7,3.1,1.1,4.8,1.2c1.4,0,2.7-0.3,3.8-1.1l-0.4-0.6h-0.6l-0.3-0.2
			c-1.3-0.1-2.6-0.3-3.9-0.6l-0.2-0.3l-0.4-0.1c0,0-0.8-0.7-0.8-1s0.2,0.1,1.3,0.3s3.5,0.8,3.5,0.8c0.6-0.3,1.3-0.4,2-0.3
			c0.8-0.6,1.6-1.3,2.2-2.1c-0.5,0.1-0.9,0.2-1.4,0.3C54.6,65.8,54.1,66.1,54.1,66.1z"/>
		<path class="st3" d="M39.4,66.8L38,65.6l-0.2-0.1l-0.6,1.2c0.3-0.2,0.9,0.3,1.2,0.5s1.6,0.5,1.6,0.5s2.7,1,2.2,0.8
			C41.2,68,40.3,67.4,39.4,66.8z"/>
		<path class="st1" d="M50.9,94.6c0.4,0,1.3-0.1,2.4-0.1c0-0.5-0.1-0.9-0.2-1.3l-0.4-0.1C52.4,93,48,92,47.6,91.9s-1-0.2-1,0
			s0.6,0.8,0.6,0.8c-0.1,0.1-0.3,0.2-0.5,0.3l-0.5-0.2c0,0-0.7-0.9-0.5-1.1s0.1-0.5,0.7-0.4s4.7,0.7,6.1,1.2
			c0.2,0.2,0.4,0.3,0.6,0.4c0-0.5-0.1-0.9-0.2-1.3c-0.2-0.7-0.4-1.5-0.6-2.3c-0.1-0.8-0.2-1.6-0.5-2.4c-0.5-1.3-0.9-2.6-1.2-4
			c-0.2-0.7-0.4-1.4-0.7-2c-1.1-3.6-2.5-7-4.2-10.3c-2.1-0.4-4.1-1-6-1.8c-0.1-0.1-0.2-0.1-0.3-0.2H39c0.1,0.1,0.3,0.3,0.3,0.4
			c0.5,0.9,1.4,3.4,1,3.6s-0.9-2.3-1.6-3.4s-1-1.1-1.4-0.9c0.3-0.1,0.6-0.1,1,0.4h-0.2c0.1,0.2,0.1,0.5,0,0.7
			c-0.1,0.2-2,1.7-2.7,2.2c0.4,0.3,0.7,0.7,1,1.1c0.4,0.7,0.7,0.8,0.7,0.8h0.2v0.3l0.4,0.4l0.3,0.1c0.4,0.6,0.7,1.3,0.9,2
			c0.1,0.4,0.6,3.8,0.7,4.8c0,0,0.7-1.1,0.8-1.2c0.1-0.2,0.2-0.5,0.3-0.7c0-1.5,0-3-0.3-4.5c-0.1-0.5,0.5-0.4,0.5-0.3
			c0.2,1.3,0.4,2.7,0.4,4l0.2,0.4h0.2c0,0.3,0,0.5-0.1,0.8c-0.1,0.3-0.7,1.6-0.9,1.9c0.1,0.3,0.2,0.6,0.3,0.9
			c0.1,0.4,0.5,2.3,0.9,3.9s1.9,5.6,1.9,6.8s0.1,1.2-0.6,1.3c-0.8,0-1.7,0-2.5-0.2c-0.2-0.1,0-0.6,0.2-0.7c0.7,0.1,1.3,0.1,2,0
			c0-0.7-0.2-1.4-0.4-2c0,0-0.2-0.1-1,0s-0.9-0.2-0.9-0.2c-0.5-0.5-0.9-1.1-1-1.9c-0.1-1-0.2-2.1-0.2-3.1c0.2-0.5,0.2-1.2,0-1.7
			c-0.1-0.5-0.1-0.9-0.1-1.4L39,83.7c0,0-0.2-0.6-0.4-0.3c-0.2,0.4-0.3,0.8-0.3,1.3c0,0.2,0.1,5.5,0.1,6.6v2.5
			c0.8,0.4,1.6,0.7,2.4,0.9c0.4,0,0.7,0.1,1,0.3c0.4,0.4,2.2,0.3,2.2,0.3c0.5,0.1,1,0.3,1.4,0.6l4.2-0.1
			C49.7,95.1,49.9,94.7,50.9,94.6z"/>
		<path class="st1" d="M58.6,76c0,0.1,0,0.2,0,0.3C58.6,76.2,58.6,76.1,58.6,76z"/>
		<path class="st1" d="M57.2,75.8l-0.8-1c0,0.1,0,0.3,0,0.4c-0.1,0.5-0.2,0.9-0.2,1.4c0.1,0.3,0.3,0.6,0.5,0.9
			c0.3,0.6,0.6,1.3,0.8,1.9c0.5-1,0.9-2.1,1-3.2c0,0.3-0.1,0.6-0.2,0.9C58.1,76.9,57.5,76.2,57.2,75.8z"/>
		<path class="st1" d="M37.3,68.2L37.3,68.2z"/>
		<path class="st1" d="M34.6,70.8L34.6,70.8z"/>
		<path class="st1" d="M54.5,72.1c-0.2-0.1-1-0.4-1.1-0.7c-0.1-0.2-0.2-0.4-0.3-0.5c-0.4,0.4-1,0.6-1.5,0.7h-0.4
			c1,2.4,4.3,10.9,5.4,14.3c0.7,2.2,1.6,5.7,2.4,8.6h0.5c0.1,0,1.4-0.1,1.5,0.7c0.1,0.3,0.1,0.6,0.2,0.9h0.1
			c1.1-0.1,1.3-0.5,1.7-0.5c-1.1-2.8-5-12.5-5-12.5l0.3-0.4L58,82.5V82c0,0-2.1-4-2.5-4.8s-0.7-1.7-0.9-2.1s-0.5-0.7-0.3-1.1
			s0.5-0.2,0.8,0.2c0.3,0.4,0.5,0.9,0.7,1.3c0,0,0.2-1,0.4-1l0,0c-0.5-0.6-1-1.3-1-1.3C55,72.8,54.7,72.4,54.5,72.1z"/>
		<path class="st1" d="M62.8,95.5h0.1c0.1,0,0.2,0,0.3-0.1c-1-1.9-5-12.3-5-12.3l0.1-0.1l-0.2-0.4L57.8,83
			C57.8,83,61.7,92.7,62.8,95.5z"/>
		<path class="st1" d="M63.2,95.4c0.2-0.2,0.4-0.5,0.5-0.8L59,84.7l-0.1-0.9L58.3,83l-0.1,0.1C58.3,83.1,62.2,93.5,63.2,95.4z"/>
		<path class="st1" d="M53.4,70.4"/>
		<path class="st1" d="M37.7,67.7"/>
		<path class="st1" d="M51.1,71.5h0.4c0.6-0.1,1.1-0.3,1.5-0.7l-0.2-0.2c-0.7,0.2-1.4,0.3-2.1,0.3h0.1L51.1,71.5z"/>
		<path class="st1" d="M38.8,68.1L38.8,68.1z"/>
		<path class="st1" d="M39,68.1L39,68.1L39,68.1z"/>
		<path class="st1" d="M38.6,68L38.6,68z"/>
		<path class="st1" d="M39.4,68.4c0.1,0,0.2,0.1,0.3,0.2c1.9,0.8,3.9,1.5,6,1.8c0-0.1-0.1-0.2-0.1-0.2c-2.1-0.5-4.3-1.3-5.9-1.8h0.1
			L39.4,68.4z"/>
		<path class="st1" d="M37.8,67.7L37.8,67.7l0.3,0.2h0.1L37.8,67.7z"/>
		<path class="st1" d="M39.4,68.3L39.4,68.3L39.4,68.3z"/>
		<path class="st1" d="M39.2,68.2L39.2,68.2L39.2,68.2z"/>
		<path class="st4" d="M39,81.6c0-0.7,0-1.3-0.1-2c-0.1-0.4-0.4-1.9-0.6-2.8c-0.1-0.5-0.2-1.1-0.4-1.6c-0.3-0.4-0.7-0.8-1.1-1.1
			c-0.2-0.3-0.4-0.5-0.6-0.7c-0.6-0.6-1.2-1.2-1.7-1.9c-0.3-0.5-0.5-0.3-0.5-0.3s-0.7,0.8-1.2,1.3s0,0.4,0.2,0.3s0.4,0.1,0.4,0.1
			s3.1,2.7,3.4,3.1c0.5,0.9,0.8,1.8,0.9,2.8c0,1.2-0.1,2.5-0.2,3.7c0,0.2-0.3,0.5-0.5,0.2c-0.2-0.2-0.3-0.3-0.5-0.4l-0.2,0.1
			l1.1,1.2c0,0,0.4-0.4,0.6-0.6s1.2-1.1,1.2-1.1V81.6z"/>
		<path class="st4" d="M57.8,79.7v0.4l0.5,1.2c0.4-0.6,0.7-1.3,0.8-2.1c0,0-0.3-0.5-0.2-0.6s0.4,0.2,0.4,0.2
			c0.2-0.4,0.3-0.9,0.3-1.4c-0.2-0.3-0.4-0.6-0.7-0.9C58.9,76.5,58.5,79.1,57.8,79.7z"/>
		<path d="M52.5,92.4c-1.4-0.4-5.5-1.1-6.1-1.2s-0.4,0.2-0.7,0.4s0.5,1.1,0.5,1.1l0.5,0.2c0.2-0.1,0.3-0.2,0.5-0.3
			c0,0-0.7-0.6-0.6-0.8s0.6-0.1,1,0s4.8,1.1,5.2,1.2l0.4,0.1c0-0.2,0-0.3-0.1-0.5C52.9,92.6,52.7,92.5,52.5,92.4z"/>
		<path class="st1" d="M42.4,91c0,0-1.9-4.7-2.1-5.6c-0.1-0.5-0.2,2.8,0.2,4.4S41.5,91,42.4,91z"/>
		<path class="st2" d="M34.6,70.7"/>
		<path class="st2" d="M37.3,68.2L37.3,68.2L37.3,68.2z"/>
		<path class="st2" d="M35.4,71.5L35.4,71.5c-0.4-0.4-0.8-0.7-0.8-0.7S35,71.1,35.4,71.5z"/>
		<path class="st2" d="M37.4,68.2L37.4,68.2z"/>
		<path class="st2" d="M38.1,69.3c0.1-0.2,0.1-0.5,0-0.7h0.2c-0.4-0.5-0.7-0.5-1-0.4l0,0l0,0h-0.1c-0.9,0.8-1.8,1.6-2.7,2.5l0,0
			c0,0,0.4,0.3,0.8,0.7C36.1,71,38,69.5,38.1,69.3z"/>
		<path class="st2" d="M39,68.5c-0.2-0.2-0.4-0.3-0.7-0.5l0,0C38.6,68.2,38.8,68.3,39,68.5L39,68.5z"/>
		<path class="st2" d="M38.1,67.8L38.1,67.8c0.1,0.1,0.2,0.1,0.3,0.2l0,0L38.1,67.8z"/>
		<path class="st2" d="M38.6,68l0.2,0.1L38.6,68z"/>
		<path class="st2" d="M38.2,67.8L38.2,67.8l0.5,0.2L38.2,67.8z"/>
		<path class="st2" d="M39.3,68.2l0.2,0.1L39.3,68.2z"/>
		<path class="st2" d="M38.8,68.1H39H38.8z"/>
		<path class="st2" d="M39.5,68.3h0.1H39.5z"/>
		<path class="st2" d="M39,68.2h0.2H39z"/>
		<path class="st2" d="M38.4,68c0.2,0.1,0.4,0.3,0.7,0.5h0.4C39.1,68.3,38.7,68.1,38.4,68z"/>
		<path class="st2" d="M39.4,68.4h0.3h-0.1H39.4L39.4,68.4l-0.2-0.1h-0.1H39H39h-0.1l0,0L38.6,68l0,0l-0.5-0.2h-0.1l0.3,0.2
			C38.8,68.1,39.1,68.3,39.4,68.4z"/>
		<path class="st2" d="M56.2,74.4L56.2,74.4c0.2,0,0.3,0.2,0.3,0.4l0,0C56.4,74.6,56.3,74.4,56.2,74.4z"/>
		<path class="st2" d="M58.6,76.3L58.6,76.3z"/>
		<path class="st2" d="M52.8,70.6L52.8,70.6c0.3-0.1,0.5-0.2,0.5-0.2S53.2,70.5,52.8,70.6z"/>
		<path class="st2" d="M53.4,70.4L53.4,70.4z"/>
		<path class="st2" d="M53.3,71.3c0.1,0.3,0.9,0.6,1.1,0.7c0.3,0.3,0.5,0.7,0.7,1c0.1,0.1,0.5,0.7,1,1.3c0.2,0,0.3,0.2,0.3,0.4
			l0.8,1c0.3,0.4,0.9,1.1,1.2,1.4c0.1-0.3,0.1-0.6,0.2-0.9l0,0c0-0.1,0-0.2,0-0.3c-0.4-0.5-0.9-1.1-1.4-1.5
			c-0.5-0.4-1.8-1.9-2.2-2.4c-0.5-0.6-1-1.1-1.6-1.6c-0.1,0.1-0.3,0.2-0.4,0.3C53.1,71,53.3,71.1,53.3,71.3z"/>
		<path class="st2" d="M53.5,70.5L53.5,70.5L53.5,70.5c0,0-0.3,0.1-0.6,0.2l0.2,0.2C53.2,70.7,53.3,70.6,53.5,70.5z"/>
		<path d="M28.2,86.1c2.4-1.3,4.9-2.4,7.4-3.4l-0.3-0.1l0.6-0.5l0.9-0.2l0.1-0.7H36c0,0-0.3-0.1-0.5-0.9S35,79.6,35,79.6
			s-0.7-0.3-1.2-0.4s-0.9,0.1-0.4,0.8c0.3,0.7,0.5,1.5,0.5,2.3c0,0-5.8,3.1-6.6,3.4c-0.6,0.3-1.2,0.6-1.7,1.1c-0.2,0.2-4,2.4-4,2.4
			c-0.5,0.3-1.1,0.6-1.6,0.9l0.6,0.4c1.1-0.6,2.7-1.5,3.6-2.1C25.8,87.4,27.2,86.8,28.2,86.1z"/>
		<path d="M20,85c0.3,0,0.8-0.9,1.4-1.2c0.2-0.1,0.9-0.6,1.7-1.1l0.2-0.2l0.5-0.3l3.1-2.1l0.2,0c0.4-0.3,0.7-0.1,0.7-0.1
			c0.6-0.4,1.3-0.8,1.9-1.2l0.1-0.1v-0.1c0,0,0,0,0-0.1v-0.1c0-0.1-0.1-0.2-0.2-0.3l-0.1-0.1c-0.1-0.1-0.3-0.2-0.4-0.3
			c0-0.8,1.1-1.2,1.1-1.2s1.6-1.4,2-1.7c0.2-0.2,0.4-0.4,0.7-0.5c-0.2,0-0.4-0.1-0.6-0.2l0,0L32.1,74c-3.8,2.8-3.8,3.4-3.8,3.4
			c0,0.8-0.4,1.5-1.1,1.9c-1,0.7-3.1,1.9-6.2,4.1c-1.2,0.9-3.1,2.2-4.8,3.5l0.5,0.4c1.4-0.9,2.7-1.9,3.2-2.1
			C19.9,85.1,19.9,85,20,85z"/>
		<path d="M36.9,81.3c-0.1-0.9-0.3-1.7-0.6-2.5C36.6,80,36.9,81.3,36.9,81.3z"/>
		<path d="M37.2,80.1c-0.1-1.5-0.5-2.9-1.2-4.1c-0.5-0.5-3-2.5-3-2.5l-0.8,0.5l0,0c0.2,0.1,0.4,0.2,0.6,0.2c0.1,0,0.2,0,0.2,0
			c0.1,0,0.3,0.3,0.7,0.6l0.5,0.5l0,0c0.6,0.6,1.2,1.1,1.4,1.2c0.3,0.7,0.6,1.5,0.7,2.3c0.3,0.8,0.5,1.7,0.6,2.5L36.8,82l-0.9,0.2
			l-0.6,0.5l0.3,0.1c0.5-0.2,1-0.4,1.3-0.5C37.1,81.5,37.2,80.8,37.2,80.1z"/>
		<path class="st1" d="M32.8,74.1c-0.3,0.1-0.5,0.3-0.7,0.5c-0.4,0.3-2,1.7-2,1.7S29,76.8,29,77.5c0.1,0.1,0.3,0.2,0.4,0.3
			c-0.1,0-0.1-0.1-0.2-0.2c0.1-0.4,0.3-0.7,0.5-1.1c1.1-0.8,2.3-1.5,3.5-2.2L33,74.2L32.8,74.1z"/>
		<path class="st1" d="M20,85c-0.1,0-0.1,0-0.2,0.1C19.9,85,19.9,85,20,85c0.3,0,0.8-0.9,1.4-1.2c0.2-0.1,0.9-0.6,1.7-1.1
			c-0.8,0.6-1.5,1-1.7,1.1C20.8,84.1,20.2,85,20,85z"/>
		<path class="st1" d="M29.7,78.2v0.1V78.2z"/>
		<path class="st1" d="M29.7,78.4C29.7,78.4,29.7,78.4,29.7,78.4C29.7,78.4,29.7,78.4,29.7,78.4z"/>
		<path class="st1" d="M25.6,86.8c0.5-0.4,1.1-0.8,1.7-1.1c0.8-0.3,6.6-3.4,6.6-3.4c0-0.8-0.2-1.6-0.5-2.4c-0.5-0.6,0-0.9,0.4-0.8
			s1.2,0.4,1.2,0.4s0.3,0,0.5,0.8s0.5,0.9,0.5,0.9h0.8c0,0-0.3-1.3-0.6-2.5c0-0.1,0-0.1-0.1-0.2c-0.7-2-0.9-2.1-0.9-2.1l-1.2-1.2
			c-0.6,0.8-1.5,1.5-2.5,1.9c-0.7,0.3-0.7,1-0.9,1.2s-1.4,1.9-1.6,2.1c-1,0.7-2,1.3-3.1,1.9c-1.3,0.7-2.5,1.5-3.7,2.3
			c-0.8,0.5-3.3,2.6-4.5,3.6c0.7,0.6,1.5,1.2,2.3,1.8c0.5-0.3,1-0.6,1.6-0.9C21.7,89.2,25.4,87,25.6,86.8z"/>
		<path class="st1" d="M27,80l-0.1,0.1L27,80z"/>
		<path class="st1" d="M27,80c0.4-0.3,0.7-0.1,0.7-0.1l0,0C27.7,79.9,27.4,79.7,27,80z"/>
		<path class="st1" d="M34.2,75.2L34.2,75.2l1.2,1.2c0,0,0.2,0.1,0.9,2.1c0,0.1,0,0.1,0.1,0.2c-0.2-0.8-0.4-1.6-0.7-2.3
			C35.4,76.4,34.8,75.8,34.2,75.2z"/>
		<path class="st1" d="M32.8,74.1H33C32.9,74.1,32.8,74.1,32.8,74.1z"/>
		<path class="st1" d="M33.7,74.8c-0.3-0.3-0.6-0.5-0.7-0.6l0.3,0.2l0,0L33.7,74.8z"/>
		<path class="st2" d="M27.7,79.8c0.6-0.4,1.3-0.8,1.9-1.2C28.9,79,28.3,79.5,27.7,79.8z"/>
		<path class="st2" d="M29.7,78.2c0-0.1-0.1-0.3-0.2-0.3l-0.1-0.1l0.1,0.1C29.6,78,29.7,78.1,29.7,78.2z"/>
		<path class="st2" d="M23.7,82.2l-0.5,0.3L23.7,82.2z"/>
		<path class="st2" d="M26.8,80.1l-3.1,2.1L26.8,80.1z"/>
		<path class="st2" d="M16.6,87.2L16.6,87.2c1.4-0.9,2.7-1.9,3.2-2.1C19.4,85.4,18,86.3,16.6,87.2z"/>
		<path class="st2" d="M34.2,75.2l-0.5-0.5L34.2,75.2z"/>
		<path class="st2" d="M26.1,82.3c1.1-0.6,2.1-1.2,3.1-1.9c0.2-0.2,1.5-1.9,1.6-2.1s0.2-0.8,0.9-1.2c1-0.4,1.8-1.1,2.5-1.9l-0.9-0.9
			c-1.2,0.7-2.4,1.4-3.5,2.2c-0.2,0.3-0.4,0.7-0.5,1.1c0.1,0.1,0.1,0.1,0.2,0.2l0.1,0.1c0.1,0.1,0.2,0.2,0.2,0.3v0.1c0,0,0,0,0,0.1
			v0.1l-0.1,0.1c-0.6,0.5-1.2,0.9-1.9,1.2l0,0c0,0-0.3-0.2-0.7,0.1L26.9,80l-3.1,2.1l-0.5,0.3l-0.2,0.2c-0.8,0.6-1.5,1-1.7,1.1
			C20.8,84.1,20.2,85,20,85c-0.1,0-0.1,0-0.2,0.1c-0.5,0.3-1.8,1.2-3.2,2.1c0.4,0.3,0.8,0.7,1.2,1c1.2-1,3.7-3.1,4.5-3.6
			C23.5,83.8,24.8,83,26.1,82.3z"/>
		<path class="st2" d="M33.7,74.8l-0.4-0.4l0,0l0.9,0.9l0,0L33.7,74.8z"/>
		<path d="M62.8,96.4c-0.3,0.2-0.7,0.3-1,0.3c-0.2,0-0.4,0-0.6,0c0,0.1,0,0.2,0.1,0.3h0.9c0.2,0.5,0.3,0.9,0.3,1.4l0.9-0.2
			c0-0.5-0.1-0.9-0.3-1.4C62.9,96.7,62.8,96.5,62.8,96.4z"/>
		<path d="M52.8,96.8c-0.2,0-0.5,0-0.7,0.1c0.3,0,0.7,0,1,0.1c0.2,0,0.4,0.1,0.5,0.1v-0.3L52.8,96.8z"/>
		<path d="M45,97.4c0.5,0.1,1,0.2,1.2-0.1c1.1-0.3,2.2-0.5,3.3-0.5h0.2c0-0.2,0-0.4,0-0.5c-2.2,0.1-4.3,0.2-4.3,0.2
			c-1.2-0.5-2.5-0.8-3.7-1l0,0c0,0.4-0.1,1.2-0.2,1.7c0,0.4-0.1,1.2-0.2,2l0.6,0.1c0.1-0.5,0.2-2.7,0.3-2.9
			C42.1,96.4,44.6,97.3,45,97.4z"/>
		<path d="M48.7,96.2l-3.3,0.1l-2.2-0.6l-1.5-0.3c0,0,0,0.1,0,0.2l0,0c1.3,0.2,2.5,0.5,3.7,1c0,0,2.1-0.2,4.3-0.2v-0.2L48.7,96.2z"
			/>
		<path d="M61,96.2c0,0.2,0.1,0.4,0.1,0.6c0.2,0,0.4,0,0.6,0c0.3-0.1,0.7-0.2,1-0.3c-0.1-0.1-0.1-0.2-0.2-0.3
			C62.5,96.1,61.9,96.1,61,96.2z"/>
		<path class="st2" d="M49.7,96.8h-0.2c-1.1,0-2.2,0.2-3.3,0.5c-0.2,0.2-0.7,0.2-1.2,0.1s-2.9-1-2.9-1c-0.1,0.2-0.2,2.4-0.3,2.9
			c2.7,0.4,5.4,0.7,8.1,0.7c-0.1-1.3-0.2-3-0.2-3C49.7,96.9,49.7,96.9,49.7,96.8z"/>
		<path class="st2" d="M61.2,97.1c0.1,0.5,0.2,1,0.3,1.2c0,0.1,0,0.2,0,0.4l0.9-0.2c0-0.5-0.1-1-0.3-1.5L61.2,97.1z"/>
		<path class="st2" d="M53.1,97c-0.3-0.1-0.7-0.1-1-0.1c-0.2,0.2-0.2,0.4-0.1,0.7c0.1,0.8,0.2,1.6,0.2,2.4c0.6,0,1.2,0,1.7-0.1
			c-0.1-0.9-0.2-1.9-0.3-2.8C53.4,97.1,53.2,97,53.1,97z"/>
		<path d="M60.4,96.2H61l0-0.2h-0.6C60.3,96.1,60.3,96.2,60.4,96.2z"/>
		<path d="M51.2,95.9c0,0.1-0.1,0.2-0.1,0.2c0.7,0,1.5,0,2.4,0.1V96L51.2,95.9z"/>
		<path d="M50.1,95.9c-0.2,0-0.3,0-0.5,0l0,0c0,0.1,0,0.2,0,0.3h0.5V95.9z"/>
		<path d="M59.3,94.4h-0.5c0,0.2,0.1,0.3,0.1,0.5c0.2,0,0.4,0.1,0.6,0.1c0.2,0.1,0.5,0,0.7,1L61,96c-0.1-0.3-0.1-0.6-0.2-0.9
			C60.7,94.3,59.5,94.4,59.3,94.4z"/>
		<path d="M53.4,95.6c-0.7,0-1.4,0-2.1,0.1c-0.1,0-0.1,0.1-0.1,0.1h2.2L53.4,95.6z"/>
		<path d="M50.1,95.9c0-0.3,0-0.4,0-0.5s0.3-0.3,1.3-0.4c0.4,0,1.1-0.1,2-0.1c0-0.1,0-0.2,0-0.4c-1,0-2,0-2.4,0.1
			c-1.1,0.1-1.3,0.5-1.3,1.3l0,0C49.9,95.9,50,95.9,50.1,95.9z"/>
		<path d="M52.8,96.8h0.8c0-0.2,0-0.3,0-0.5c-0.6,0-1.5-0.1-2.4-0.1c0,0.2,0,0.4,0,0.6l1,0.1C52.3,96.8,52.5,96.8,52.8,96.8z"/>
		<path d="M60.5,96.8c0,0.1,0,0.2,0,0.4l0.7-0.1c0-0.1,0-0.2-0.1-0.3H60.5z"/>
		<path d="M49.7,96.3c0,0.2,0,0.3,0,0.5h0.4c0-0.2,0-0.4,0-0.5L49.7,96.3z"/>
		<path d="M51.1,96.2c0,0,0,0.1,0,0.1c0.9,0,1.8,0,2.4,0.1v-0.1C52.6,96.2,51.8,96.2,51.1,96.2z"/>
		<path d="M50.1,96.2h-0.5v0.2h0.5V96.2z"/>
		<path d="M60.4,96.2c0,0.2,0.1,0.3,0.1,0.5h0.7c0-0.2-0.1-0.4-0.1-0.6L60.4,96.2z"/>
		<path d="M52,96.9l-1-0.1c0,0.3,0,0.7,0,1c0,0,0,1.1,0.1,2.1c0.3,0,0.6,0,0.9,0c0-0.8-0.1-1.6-0.2-2.4C51.8,97.4,51.8,97.1,52,96.9
			z"/>
		<path d="M50.1,96.8h-0.4c0,0.1,0,0.1,0,0.2c0,0,0.1,1.7,0.2,3h0.5c-0.1-1.7-0.2-2.1-0.2-2.1C50.2,97.5,50.2,97.2,50.1,96.8z"/>
		<path d="M61.2,97.1l-0.7,0.1c0,0.1,0,0.2,0,0.3l0.2,1.4l0.8-0.2c0-0.2,0-0.3,0-0.4C61.4,98,61.3,97.6,61.2,97.1z"/>
		<path class="st4" d="M59.3,96.1l0.1,0.2c0.4,0,0.7,0,1-0.1c0-0.1,0-0.1,0-0.2H59.3z"/>
		<path class="st4" d="M51.1,96.2c0-0.1,0-0.2,0.1-0.2h-1.1v0.3L51.1,96.2z"/>
		<path class="st4" d="M60.3,96.1c-0.2-1-0.5-0.9-0.7-1C59.4,95,59.2,95,59,94.9c0.1,0.4,0.2,0.8,0.3,1.1H60.3z"/>
		<path class="st4" d="M51.4,95.8c0.7-0.1,1.4-0.1,2.1-0.1c0-0.3-0.1-0.5-0.1-0.8c-0.8,0-1.5,0.1-2,0.1c-1,0.1-1.2,0.2-1.3,0.4
			s0,0.2,0,0.5h1.1C51.2,95.8,51.3,95.8,51.4,95.8z"/>
		<path class="st4" d="M59.4,96.7c0,0.2,0.1,0.3,0.1,0.4l1-0.1c0-0.1,0-0.2,0-0.4L59.4,96.7z"/>
		<path class="st4" d="M51.1,96.3h-1c0,0.2,0,0.3,0,0.5h1C51.1,96.7,51.1,96.5,51.1,96.3z"/>
		<path class="st4" d="M50.1,96.2v0.2h1c0,0,0-0.1,0-0.1L50.1,96.2z"/>
		<path class="st4" d="M59.4,96.7h1c0-0.2,0-0.4-0.1-0.5c-0.3,0-0.7,0-1,0.1C59.4,96.5,59.4,96.6,59.4,96.7z"/>
		<path class="st4" d="M60.5,97.1l-1,0.1c0.2,0.8,0.4,1.5,0.4,1.8l0.7-0.1l-0.2-1.4C60.5,97.3,60.5,97.2,60.5,97.1z"/>
		<path class="st4" d="M51.1,96.9h-1c0,0.3,0,0.7,0.1,1.1c0,0,0.1,0.4,0.2,2.1h0.9c-0.1-1-0.1-2.1-0.1-2.1
			C51.1,97.6,51.1,97.2,51.1,96.9z"/>
		<path d="M50.8,70.9l-5.3-0.7v0.1c0.8,0.2,1.6,0.4,2.3,0.5C48.8,70.9,49.8,70.9,50.8,70.9z"/>
		<path d="M55.4,94.5c0-0.2-0.1-0.4-0.1-0.6l-0.7-0.2c0,0.3,0.1,0.6,0.2,0.8L55.4,94.5z"/>
		<path d="M53.7,93.4l-0.5-0.2c0,0.4,0.1,0.8,0.2,1.3h0.4C53.7,94.2,53.7,93.8,53.7,93.4z"/>
		<path d="M50.5,82.8c0.3,1.4,0.7,2.7,1.2,4c0.3,0.8,0.4,1.6,0.5,2.4c0.1,0.8,0.3,1.5,0.6,2.3c0.1,0.4,0.2,0.9,0.2,1.3
			c0.1,0.1,0.3,0.2,0.5,0.2c0-0.9-0.2-1.9-0.4-2.8c-0.3-1.2-0.5-2.4-0.7-3.6c-0.1-0.6-0.3-1.3-0.6-1.9c-0.3-0.8-0.5-1.5-0.6-2.3
			c-0.1-0.5-0.7-1.9-0.9-2.4s-0.9-2-0.9-2c0-0.5-0.1-0.9-0.3-1.3c-0.5-1-0.9-2-1.2-3l-0.8-1.8l1.3,1.1c0,0,1.5,3.9,2,5.1
			s1.2,3.8,1.2,3.8s1.1,3.7,1.2,4.7s0.9,4.4,0.9,4.4l0.3,0.4c0,0,0.2,0.8,0.4,2l0.7,0.2c-0.9-4.3-2-8.3-2.2-9.1
			c-0.3-1-0.6-2.4-2-6.5c-0.7-2.1-1.6-4.2-2.5-6.2l1.8,0.9l0.3,0.4l0.6,0.7c0.7,1.6,2.6,7,2.6,7c0.3,0.2,0.4,0.5,0.4,0.8
			c0,0,0.7,2,1.7,4.8s1.4,5.5,2.3,8.2l0,0h0.8c-0.7-2.9-1.7-6.4-2.4-8.6c-1.1-3.4-4.4-11.9-5.4-14.3c-1.8-0.2-3.6-0.6-5.3-1.1h-0.1
			c1.7,3.3,3.1,6.8,4.2,10.3C50.1,81.4,50.4,82.1,50.5,82.8z"/>
		<path d="M45.8,70.5c1.8,0.5,3.5,0.9,5.3,1.1l-0.2-0.6h-0.1c-1,0-2,0-3-0.2c-0.7-0.1-1.5-0.3-2.3-0.5c0,0.1,0.1,0.1,0.1,0.2
			L45.8,70.5z"/>
		<path d="M55.2,93.8l-0.1-0.3l-0.7-0.2c0,0.1,0,0.2,0.1,0.4L55.2,93.8z"/>
		<path d="M53.6,93c-0.2-0.1-0.4-0.2-0.5-0.2c0,0.2,0,0.3,0.1,0.5l0.5,0.2C53.6,93.2,53.6,93.1,53.6,93z"/>
		<path d="M58.8,97.2L58.8,97.2c0-0.1,0-0.2-0.1-0.2C58.8,97,58.8,97.1,58.8,97.2z"/>
		<path d="M53.6,96.8v0.3h0.5c0-0.1,0-0.2,0-0.3H53.6z"/>
		<path d="M55.8,96.9h-0.6c0,0.1,0,0.2,0,0.3h0.6l0,0C55.8,97.1,55.8,97,55.8,96.9z"/>
		<path d="M59,97.9c0-0.3-0.1-0.6-0.1-0.7l0,0L59,97.9z"/>
		<path d="M55.2,97.2c0.2,0.9,0.3,1.7,0.5,2.5l0.5-0.1c-0.1-0.9-0.3-1.7-0.4-2.4L55.2,97.2z"/>
		<path d="M53.6,97.1c0.1,0.9,0.2,1.8,0.3,2.8h0.6c-0.1-0.9-0.2-1.9-0.3-2.7L53.6,97.1z"/>
		<path d="M55,96l0.1,0.3h0.6c0-0.1,0-0.2,0-0.3L55,96z"/>
		<path d="M58.5,96.1c0,0.1,0.1,0.2,0.1,0.3H59c0-0.1,0-0.2,0-0.3L58.5,96.1z"/>
		<path d="M53.5,96v0.3H54c0-0.1,0-0.2,0-0.3H53.5z"/>
		<path d="M59,96.1c-0.1-0.4-0.2-0.3-0.2-0.3h-0.3c0,0.1,0,0.2,0.1,0.3L59,96.1z"/>
		<path d="M55,95.6c0,0.1,0,0.3,0.1,0.4h0.6c0-0.1,0-0.3-0.1-0.4L55,95.6z"/>
		<path d="M53.4,95.6V96H54c0-0.1,0-0.2-0.1-0.3L53.4,95.6z"/>
		<path d="M54.8,94.8h0.6l-0.1-0.3h-0.6C54.8,94.6,54.8,94.7,54.8,94.8z"/>
		<path d="M58.2,94.9l0.8,0.1c0-0.2-0.1-0.3-0.1-0.5h-0.8C58.2,94.6,58.2,94.7,58.2,94.9z"/>
		<path d="M53.8,94.5h-0.4c0,0.1,0,0.2,0,0.4h0.4C53.8,94.8,53.8,94.6,53.8,94.5z"/>
		<path d="M53.8,96.4h-0.3c0,0.2,0,0.3,0,0.5h0.5L54,96.4L53.8,96.4z"/>
		<path d="M59.1,96.7h-0.3c0,0.1,0,0.2,0,0.2s0,0.1,0.1,0.2h0.3C59.1,97,59.1,96.9,59.1,96.7L59.1,96.7z"/>
		<path d="M55.1,96.5c0,0.1,0,0.2,0.1,0.3h0.6c0-0.1,0-0.2,0-0.3L55.1,96.5z"/>
		<path d="M54,96.4v-0.2h-0.5v0.1h0.3L54,96.4z"/>
		<path d="M58.6,96.3l0.1,0.4h0.3c0-0.2,0-0.3,0-0.4L58.6,96.3z"/>
		<path d="M55.1,96.5h0.6c0-0.1,0-0.1,0-0.2h-0.6V96.5z"/>
		<path d="M58.8,97.2c0,0.2,0.1,0.4,0.1,0.7l0.2,1.3h0.2c-0.1-0.7-0.2-1.4-0.3-1.9L58.8,97.2z"/>
		<path d="M59,96.3h0.3l-0.1-0.2H59C59,96.1,59,96.2,59,96.3z"/>
		<path d="M53.9,95.6c0-0.3-0.1-0.4-0.1-0.5s0-0.1,0-0.2h-0.4c0,0.2,0,0.5,0.1,0.8L53.9,95.6z"/>
		<path d="M58.5,95.7h0.3c0,0,0.1-0.1,0.2,0.3h0.3c-0.1-0.3-0.2-0.7-0.3-1.1l-0.8-0.1C58.3,95.1,58.4,95.4,58.5,95.7z"/>
		<path d="M55,95.6h0.6c0-0.3-0.1-0.5-0.1-0.8h-0.6L55,95.6z"/>
		<path d="M59.1,96.7L59.1,96.7c0,0.1,0,0.3,0,0.4c0.1,0,0.2,0,0.3,0h0.1c0-0.2-0.1-0.3-0.1-0.4L59.1,96.7z"/>
		<path d="M59,96.3c0,0.1,0,0.2,0,0.4h0.4c0-0.1-0.1-0.3-0.1-0.4L59,96.3z"/>
		<path d="M59.5,97.2c-0.1,0-0.2,0-0.3,0c0.1,0.5,0.2,1.2,0.3,1.9L60,99C59.9,98.7,59.8,98,59.5,97.2L59.5,97.2z"/>
		<path class="st3" d="M54,91.3l-0.3-0.4c0,0-0.8-3.5-0.9-4.4s-1.2-4.7-1.2-4.7S51,79.1,50.5,78s-2-5.1-2-5.1l-1.3-1.1l0.8,1.8
			c0.3,1,0.7,2,1.2,3c0.2,0.4,0.3,0.9,0.3,1.3c0,0,0.8,1.5,0.9,2s0.8,1.9,0.9,2.4c0.1,0.8,0.3,1.6,0.6,2.3c0.3,0.6,0.5,1.2,0.6,1.9
			c0.2,1.2,0.4,2.4,0.7,3.6c0.2,0.9,0.4,1.9,0.4,2.8c0.2,0.1,0.5,0.2,0.9,0.3C54.2,92.1,54,91.3,54,91.3z"/>
		<path class="st3" d="M54.6,93.7l-0.9-0.3c0,0.4,0.1,0.8,0.1,1.1h1C54.7,94.2,54.6,93.9,54.6,93.7z"/>
		<path class="st3" d="M54.6,93.7c0-0.1,0-0.2-0.1-0.4c-0.3-0.1-0.6-0.2-0.9-0.3c0,0.1,0,0.3,0,0.4L54.6,93.7z"/>
		<path class="st3" d="M54.1,96.8c0,0.1,0,0.2,0,0.3c0.3,0,0.7,0,1.1,0c0-0.1,0-0.2,0-0.3H54.1z"/>
		<path class="st3" d="M54.1,97.1c0.1,0.8,0.2,1.8,0.3,2.7l1.2-0.1c-0.1-0.8-0.3-1.7-0.5-2.5C54.9,97.2,54.5,97.1,54.1,97.1z"/>
		<path class="st3" d="M55.1,96.3L55,96h-1c0,0.1,0,0.2,0,0.3h0.7L55.1,96.3z"/>
		<path class="st3" d="M54.7,94.5h-1c0,0.1,0,0.2,0,0.4h1C54.8,94.7,54.8,94.6,54.7,94.5z"/>
		<path class="st3" d="M53.9,95.6c0,0.1,0,0.2,0.1,0.3l1,0c0-0.1,0-0.3-0.1-0.4L53.9,95.6z"/>
		<path class="st3" d="M54,96.4l0.1,0.4h1.1c0-0.1,0-0.2-0.1-0.3L54,96.4z"/>
		<path class="st3" d="M54.7,96.3H54v0.2l1.1,0.1v-0.2L54.7,96.3z"/>
		<path class="st3" d="M54.8,94.8h-1c0,0.1,0,0.2,0,0.2s0.1,0.3,0.1,0.5h1L54.8,94.8z"/>
		<path class="st3" d="M56.9,94.3c-0.1,0-0.8-0.2-1.6-0.4c0,0.2,0.1,0.4,0.1,0.6h2.7l0,0c-0.9-2.6-1.3-5.3-2.3-8.2s-1.7-4.8-1.7-4.8
			c0.1-0.3-0.1-0.6-0.4-0.8c0,0-1.9-5.4-2.6-7L50.5,73l-0.3-0.4l-1.8-0.9c1,2,1.8,4.1,2.5,6.3c1.4,4.1,1.7,5.5,2,6.5
			c0.2,0.8,1.3,4.8,2.2,9.1l0.3,0.1C57.9,94.2,57,94.3,56.9,94.3z"/>
		<path class="st3" d="M56.9,94.3c0.2,0,1.1,0-1.3-0.7l-0.3-0.1l0.1,0.3C56.1,94.1,56.8,94.3,56.9,94.3z"/>
		<path class="st3" d="M58.8,97l-3-0.1c0,0.1,0,0.2,0,0.2l0,0c0.5,0,0.9,0,1.2,0c0.5,0,1.3,0,1.8,0C58.7,97.1,58.7,97,58.8,97
			L58.8,97z"/>
		<path class="st3" d="M58.8,97.2c-0.5,0-1.3-0.1-1.8,0c-0.2,0-0.7,0-1.2,0c0.1,0.8,0.3,1.6,0.4,2.4c1-0.1,2-0.3,2.9-0.4
			c-0.1-0.5-0.1-0.9-0.2-1.3L58.8,97.2z"/>
		<path class="st3" d="M55.7,96c0,0.1,0,0.2,0,0.3c1,0,2,0,2.9,0c0-0.1,0-0.2-0.1-0.3L55.7,96z"/>
		<path class="st3" d="M55.4,94.8h1c0.5,0,1.2,0,1.8,0.1c0-0.1-0.1-0.3-0.1-0.4h-2.7L55.4,94.8z"/>
		<path class="st3" d="M55.6,95.6c0,0.1,0,0.3,0.1,0.4h2.9c0-0.1,0-0.2-0.1-0.3c-0.4,0-1-0.1-1.3-0.1L55.6,95.6z"/>
		<path class="st3" d="M55.8,96.9l3,0.1l0,0c0-0.1,0-0.2,0-0.2c-1,0-2-0.1-3-0.2C55.8,96.7,55.8,96.8,55.8,96.9z"/>
		<path class="st3" d="M55.7,96.3c0,0.1,0,0.1,0,0.2c1,0.1,2,0.1,3,0.2l-0.1-0.4C57.7,96.4,56.7,96.4,55.7,96.3z"/>
		<path class="st3" d="M59.1,99.2L59.1,99.2L59,97.9C59,98.3,59.1,98.7,59.1,99.2z"/>
		<path class="st3" d="M55.4,94.8c0,0.3,0.1,0.5,0.1,0.8h1.6c0.3,0,0.9,0.1,1.3,0.1c-0.1-0.3-0.2-0.6-0.2-0.8
			c-0.6,0-1.3-0.1-1.8-0.1L55.4,94.8z"/>
		<path d="M17.3,31.8c-1.8-0.4-2.6,0.1-3,0.7c-0.4,0.6-1.3,1.1,0.7,4.5c1.5,2.4,3.2,4.6,5.1,6.6h0.3l0.8,0.9c2.3,2.3,5,4.3,8,5.7
			c0-0.3-0.1-0.7-0.1-1.1c-0.3-0.2-0.7-0.4-0.9-0.3c0,0-5.1-3.8-5.9-4.4s-4.8-4.4-5.6-6.2s-1.9-2.3-2.2-3.8
			c-0.2-0.8,0.3-1.6,1.1-1.8c0.1,0,0.2,0,0.3,0c0.4-0.1,0.7,0,1,0.3c0.3,0.3,0.8,0,2.3,0.5s5.2,1.9,6.6,2.6s1.5,1.2,1.5,1.2
			s0.4,0.5,0.7,0.1s-1.1-2-1.5-2.5c-0.8-1.3-1.4-2.7-1.9-4.1c-0.9-2.6-1.6-5.3-2-8c0-0.5-0.1-1.2-0.1-1.9h-1.1
			c0.2,6.2,4,13.9,4,13.9C22.6,33.4,20,32.5,17.3,31.8z"/>
		<path d="M38.9,19.5c0.1-2.7,1.2-9.2,3.6-12s4-0.3,4-0.3C48,9.5,49.2,12,50,14.6c0.6,2,1,4,1.2,6.1h1.6c0.4-1.1,2-5,2.1-5.2
			c0.5-0.5,1-1.1,1.3-1.7c0.8-1.1,3.5-4.2,4.3-4.4c0.7-0.1,1.4,0.2,2,0.6c0.9,1.1,1.6,2.3,2.1,3.6c0.8,1.8,0.5,5.7,0.4,6.9l0,0h1
			c0.1-2.2-0.1-4.4-0.6-6.5c-0.3-1-1.9-5.1-3.5-5.4s-1.9-0.9-5.2,2.6c-2.1,2.4-3.7,5.1-4.8,8.1h-0.2c-0.8-3.9-2-7.6-3.6-11.2
			c-0.2-0.3-1.2-1.6-1.6-2.1S46,5.1,44.1,5.3s-4.5,4-5.6,8.1c-0.5,2.4-0.7,4.8-0.5,7.2h0.9C38.9,20.3,38.9,19.9,38.9,19.5z"/>
		<path d="M38.2,23.6L38.2,23.6z"/>
		<path d="M36.4,23c2.2,3.7,1.9,3.5,1.9,3.5c0.3,0.3,0.6,0.4,1,0.4c0.5-0.1,0.6-0.4,0.2-1.1c-0.5-1.7-0.7-3.4-0.6-5.1H38
			c0.1,1.6,0.2,2.8,0.2,2.9l0,0c0-0.1-0.2-0.6-2.1-2.9h-1.3C35.4,21.4,35.9,22.2,36.4,23z"/>
		<path d="M71.7,19c3.4-1.6,4.1-1.8,4.3-0.9s0.7,1.8,0.9,2.6h1c-0.2-1.1-0.5-2.2-0.9-3.2c-0.2-0.2-0.2-0.5-0.2-0.8L76,16.6
			c-0.7-0.2-0.6,0.2-0.6,0.2c-0.8,0-1.6,0.1-2.3,0.3c-2,0.9-3.8,2.1-5.3,3.6h1.3C69.9,20,70.8,19.5,71.7,19z"/>
		<path d="M22.5,14.2c0.4-2,1.2-3.2,2.3-2c1.2,0.6,2.3,1.3,3.4,2.1c2.4,1.9,4.7,4,6.6,6.4h1.3c-0.5-0.5-1-1.2-1.7-1.9
			c-3.8-4.3-8.7-8-10.3-7.8s-2.7,2.3-2.9,8.7c0,0.4,0,0.7,0,1.1h1C22.1,18.5,22.2,16.4,22.5,14.2z"/>
		<path d="M64.4,25.4c0,0,0.1,0.3,0.8,0s0.3-1,0.3-1h0.3c1-1.4,2.2-2.6,3.4-3.7h-1.3c-0.7,0.6-1.3,1.3-1.8,2l-0.2-0.1
			c0.2-0.6,0.3-1.2,0.3-1.9h-1C65,21.9,64.4,25.4,64.4,25.4z"/>
		<path d="M77,21c0.1,0.9,1.5,12.7-4.6,22.2l0.1,0.8c1-1.6,2.2-3.1,3.6-4.4c2.4-1.9,5.4-3.1,8.4-3.5c0,0,0.7-0.1,0.7,0
			s-0.2,0.4-0.2,0.6c0.1,0.3,0.1,0.7,0,1c-0.3,0.8-0.6,1.6-1,2.3c-2.1,3.2-4.8,6-7.8,8.4c0,0-0.4,0.9,0.3,0.5
			c0.4-0.3,0.8-0.6,1.2-0.9c0,0,4.2-0.1,5.9,0.1c1,0,2,0.4,2.8,1c0.1,0.2,0.2,0.7-1.3,2s-5.8,6-17.9,6.3c0,0.4-0.1,0.8-0.2,1.2l0,0
			c3.7,0,4.4-0.2,9.8-1.6c3.4-1,6.5-2.7,9-5.2c0,0,3.3-3.3,0.2-4.2C83.8,47,81.4,46.8,79,47c3.2-2.6,6.8-7.6,6.7-8
			c0-0.7,0.1-1.4,0.3-2c0.2-0.4,0.2-1,0-1.4c-0.4-0.8-1-0.5-1-0.5c-4,0.1-7.6,2.9-8.4,3.1s-1,1.1-1,1.1l-0.3-0.1
			c1.6-2.4,2.5-7.6,2.7-9.5s0.2-6.5,0.1-7.9c0-0.4-0.1-0.7-0.2-1.1h-1C76.9,20.8,76.9,20.9,77,21z"/>
		<path d="M51.4,21.9c-0.1,0.4-0.3,1.2,0.1,1.2s1-1.5,1.2-2.3c0,0,0-0.1,0-0.1h-1.5c0,0.4,0,0.6,0,0.6
			C51.4,21.4,51.4,21.7,51.4,21.9z"/>
		<path class="st5" d="M28.1,14.2c-1.1-0.8-2.2-1.5-3.4-2.1c-1-1.2-1.8,0-2.3,2c-0.3,2.1-0.4,4.3-0.3,6.4h12.5
			C32.8,18.3,30.6,16.1,28.1,14.2z"/>
		<path class="st5" d="M50,14.6c-0.8-2.6-2-5.1-3.5-7.4c0,0-1.6-2.5-4,0.3s-3.5,9.4-3.6,12c0,0.4,0,0.8,0,1.2h12.3
			C51,18.6,50.6,16.5,50,14.6z"/>
		<path class="st5" d="M29.1,45.9c0.3-0.9,0.8-1.7,1.5-2.4c1-0.2,2,0.1,2.6,0.8c1,1,1.9,2.1,2.6,3.3l0.7,1.4
			c0-6.2,0.3-12.4,0.9-18.5c0.2-1.1,0.4-1.1,0.8-1.1S39,30,39,30s7.1,3.8,18.5,12.6c0,0,12-1.4,14-1.5s0.5,0.9,0.5,0.9h-0.6
			c-0.1,3.1-1,6.2-2.5,8.9c-0.3,0.6-0.5,1.2-0.6,1.9l-0.6,0.7c0.2,0.4,0.1,0.9-0.1,1.3c-0.2,0.8-0.3,1.7-0.3,2.5
			c12.1-0.3,16.4-5,17.9-6.3s1.4-1.8,1.3-2c-0.8-0.6-1.8-1-2.8-1c-1.7-0.2-5.9-0.1-5.9-0.1c-0.4,0.4-0.8,0.7-1.2,0.9
			c-0.7,0.4-0.3-0.5-0.3-0.5c3-2.4,5.6-5.2,7.8-8.4c0.4-0.7,0.7-1.5,1-2.3c0.1-0.3,0.1-0.7,0-1c0-0.1,0.2-0.4,0.2-0.6s-0.7,0-0.7,0
			c-3.1,0.3-6,1.5-8.5,3.4c-1.4,1.3-2.6,2.8-3.6,4.4l-0.1-0.8c6-9.4,4.6-21.2,4.6-22.1c0-0.1,0-0.2,0-0.3h-7.8
			c-1.3,1.1-2.4,2.3-3.4,3.7h-0.3c0,0,0.4,0.8-0.3,1s-0.8,0-0.8,0s0.7-3.5,0.8-4.7H52.8c0,0,0,0.1,0,0.1c-0.3,0.9-0.8,2.4-1.2,2.3
			s-0.2-0.8-0.1-1.2c0.1-0.2,0-0.5-0.1-0.7c0,0,0-0.2,0-0.6H38.9c-0.1,1.7,0.1,3.4,0.6,5.1c0.4,0.8,0.3,1-0.2,1.1
			c-0.4,0.1-0.7-0.1-1-0.4c0,0,0.3,0.1-1.9-3.5c-0.5-0.8-1-1.6-1.6-2.3H22.2c0,0.7,0.1,1.4,0.1,1.9c0.4,2.7,1.1,5.4,2,8
			c0.5,1.4,1.2,2.8,1.9,4.1c0.4,0.5,1.8,2.1,1.5,2.5s-0.7-0.1-0.7-0.1s-0.1-0.5-1.5-1.2s-5.1-2-6.6-2.6s-2-0.2-2.3-0.5
			c-0.3-0.3-0.6-0.4-1-0.3c-0.8,0-1.5,0.7-1.4,1.6c0,0.1,0,0.2,0,0.3c0.3,1.5,1.4,2,2.2,3.8s4.9,5.6,5.6,6.2s5.9,4.4,5.9,4.4
			c0.2-0.1,0.6,0.1,0.9,0.3C28.9,48,29,46.9,29.1,45.9z"/>
		<path class="st5" d="M65.2,20.6c0.1-1.2,0.3-5.1-0.4-6.9c-0.5-1.3-1.2-2.6-2.1-3.6c-0.6-0.5-1.3-0.7-2-0.6
			c-0.8,0.1-3.5,3.2-4.3,4.3c-0.4,0.6-0.8,1.2-1.3,1.7c-0.2,0.2-1.8,4.1-2.1,5.2L65.2,20.6L65.2,20.6z"/>
		<path class="st5" d="M76,18c-0.2-0.8-0.9-0.7-4.3,0.9c-0.9,0.5-1.8,1-2.6,1.7h7.8C76.7,19.8,76.2,18.8,76,18z"/>
		<path d="M29.6,51L29.6,51c0.2,0.1,0.3,0.3,0.4,0.6L30,52h0.1l0.2,0.5H30c0.4,0.5,0.9,1,1.4,1.5c0.4,0.4,0.8,0,1-0.1
			c0.1-0.1,0.2-0.1,0.4-0.2c-0.1-0.2-0.3-0.5-0.5-0.7c-0.1,0.1-0.3,0.1-0.4,0.1c-0.4,0-1.1-0.7-1.1-0.7V52c0,0-0.4-0.2-0.8-1.6
			l-0.3-0.1l-0.5-0.2v0.3h0.1C29.6,50.5,29.6,51,29.6,51z"/>
		<path d="M66.5,58.5c0,0-4.5,5.4-14.4,6.2c-0.6,0.1-1.2,0-1.7-0.2c-0.8-0.3-5-2.7-5.3-2.9l-1.3-0.8c0,0-7.1-5.1-9-8
			c0,0-0.3-0.3,0.1-0.4s0.7-0.5,0.5-0.8L35,51.7c-0.6,0.2-1.1,0.4-1.6,0.7L33,52.6c0.2,0.1,0.3,0.3,0.5,0.4l0.3,0.2h0.1l0.1,0.1
			c0.2,0.1,0.4,0.2,0.6,0.3c1.8,1.6,3.5,3.3,5.1,5.1c1,1.3,10.1,6.1,11,6.4s6.5-0.8,6.5-0.8s0,0.1,0,0.1c7-1.9,9.4-4.9,9.7-5.3
			c0.1-0.2,0.2-0.4,0.2-0.7C66.9,58.6,66.6,58.5,66.5,58.5L66.5,58.5z"/>
		<path d="M50.7,65.1c-0.9-0.3-10.1-5.2-11-6.4c-1.6-1.8-3.3-3.5-5.1-5.1c-0.2-0.1-0.4-0.2-0.6-0.3c2.6,3,5.5,5.7,8.8,7.9
			c2.3,1.5,6.3,4,7.9,4.5s6.4-1.1,6.4-1.1h0.1c0,0,0-0.1,0-0.1S51.7,65.4,50.7,65.1z"/>
		<path d="M33.8,53.2L33.5,53l0.2,0.2L33.8,53.2z"/>
		<path d="M30,50.4c-0.1-0.5-0.2-1.1-0.3-1.7c-0.3-2.9,0.4-4.3,0.8-4.4c1-0.1,2,0.3,2.8,1c1,1.5,2,3,2.9,4.5
			c0.1,0.1,0.3,0.2,0.4,0.3c0.2,0,0.3-0.1,0.4-0.2c-0.2-0.1-0.3-0.3-0.4-0.5c-0.9-1.5-1.9-3-3-4.3c-0.8-0.7-1.7-1.5-2.8-1.3
			s-1.5,2.4-1.5,2.4l0.1,3.1c-0.1-0.1-0.2-0.2-0.4-0.3c0,0.4,0.1,0.8,0.1,1.1l0.5,0.2L30,50.4z"/>
		<path d="M35,51.7l0.3,0.1l0,0C35.3,51.6,35.2,51.6,35,51.7z"/>
		<path d="M66.6,57.3c0,0.6-0.1,1-0.1,1.1c0.2,0,0.5,0.1,0.7,0.1c0.1-0.4,0.2-0.8,0.2-1.2L66.6,57.3z"/>
		<path d="M29.4,49.4l-0.1-3.1c0,0,0.4-2.2,1.5-2.4s2,0.6,2.8,1.3c1.1,1.3,2.1,2.8,3,4.3c0.1,0.2,0.3,0.3,0.4,0.5
			c0.1-0.1,0.1-0.1,0.2-0.2c0,0,0.1-6.5,0.3-9.2c0-3.2,0.3-6.3,0.8-9.5c0,0,0-0.1,1,0.5c1,0.6,10.2,6.4,14,9.2
			c3.3,2.5,2.8,1.9,3.2,2s0.6,0.7,1.1,0.8s13.1-1.5,13.1-1.5c-0.4,4.1-1.8,8-4.1,11.5c-0.2,0.3-0.2,0.7,0,1.1
			c0.2,0.9,0.2,1.8,0.1,2.7h0.8c-0.1-0.9,0-1.7,0.3-2.5c0.2-0.4,0.2-0.9,0.1-1.3l0.6-0.7c0.1-0.7,0.3-1.3,0.6-1.9
			c1.5-2.7,2.4-5.8,2.4-8.9H72c0,0,1.4-1.1-0.5-0.9s-14,1.5-14,1.5C46.1,33.9,39,30,39,30s-0.5-0.6-0.9-0.6s-0.6,0-0.8,1.1
			c-0.6,6.1-0.9,12.3-0.9,18.5l-0.7-1.4c-0.7-1.2-1.6-2.3-2.6-3.3c-0.7-0.7-1.7-1-2.6-0.8c-0.7,0.7-1.2,1.5-1.5,2.4
			C29,46.9,29,48,29.1,49C29.2,49.1,29.3,49.2,29.4,49.4z"/>
		<path class="st6" d="M32.4,52.1c0-0.1,0-0.1,0-0.2c0,0-0.1,0-0.2,0C32.3,52,32.4,52,32.4,52.1z"/>
		<path class="st6" d="M30.8,52v0.4c0,0,0.7,0.7,1.1,0.7c0.2,0,0.3-0.1,0.5-0.2c-0.1-0.1-0.1-0.1-0.2-0.1c-0.6-0.2-0.5-0.5-0.4-0.8
			c0.1-0.3,0.4-0.5,0.7-0.5c0.4,0,0,0.6,0.2,0.7c0.2,0.1,0.3,0.2,0.5,0.3l0.4-0.3c0.5-0.3,1-0.5,1.6-0.6l-5-1.2
			C30.3,51.8,30.8,52,30.8,52z"/>
		<path class="st6" d="M63.4,58.9c-0.6,0-1.1-0.3-1.4-0.7c-0.1-0.2-0.1-0.3-0.2-0.5c-5.3-1-13.4-2.9-20.1-4.5
			c-0.1,0.1-0.3,0.2-0.5,0.2c-1.1,0.4-1.9-0.1-2.8-1l-3.1-0.7c0.2,0.3-0.1,0.6-0.5,0.8S34.7,53,34.7,53c1.9,2.9,9,8,9,8l1.3,0.8
			c0.3,0.2,4.5,2.5,5.3,2.9c0.5,0.2,1.1,0.3,1.7,0.2c9.9-0.8,14.4-6.2,14.4-6.2l0,0c-0.4,0-1-0.1-1.6-0.2
			C64.4,58.6,63.9,58.8,63.4,58.9z M58,58.6c-1.1,0.1-2.2,0.2-3.3,0.1l-1.7,1.6c-0.7,0.5-1.5,0.6-2.3,0.3c-0.6-0.3-3.2-2.5-3.2-2.5
			L47.3,58c-0.2-0.1-0.3-0.4-0.3-0.6c-0.9-0.8-1.7-1.7-2.4-2.6c-0.5,0-0.9,0.1-1.3,0.2c-0.6,0.1-0.6-0.1-0.6-0.1
			c0.7-0.5,1.6-0.8,2.5-0.8c0.5-0.1,0.2,0.2,0.1,0.4s0.3,0.9,1.4,1.2c0.8,0.2,1.5,0.4,2.2,0.8c1.6,0.5,3.2,0.9,4.8,1.1
			c0.6,0,1.2,0.1,1.7,0.3c0.6,0.1,3.2,0,3.2,0.1S58.5,58.5,58,58.6z"/>
		<path class="st6" d="M41.7,53.2c6.7,1.6,14.8,3.4,20.1,4.5c0-0.2,0-0.4,0-0.6c-6.6-0.9-13.2-2.5-19.5-4.8
			C42.3,52.6,42.1,53,41.7,53.2z"/>
		<path class="st6" d="M37.8,51.8c-0.4-0.4-0.6-1.1-0.4-1.6l-0.3-0.2c-0.1,0.1-0.3,0.2-0.4,0.2c-0.2-0.1-0.3-0.1-0.4-0.3
			c-0.9-1.6-1.8-3.1-2.9-4.5c-0.8-0.7-1.8-1.1-2.8-1c-0.4,0.1-1.1,1.5-0.8,4.4c0.1,0.6,0.2,1.1,0.3,1.6l5,1.2c0.2,0,0.3,0,0.3,0l0,0
			l3.1,0.7C38.2,52.2,38,52,37.8,51.8z M34.2,49.8c-0.8-1-1.7-2-2.6-3c0,0-0.2-0.2-0.1,1.8l-0.6,0.2c0,0-0.5-2,0-2.5L30.8,46
			c0,0-0.8,0-0.5-0.5s1-0.1,1.4,0.2c1.1,1,2,2.2,2.7,3.5C34.5,49.2,34.5,49.9,34.2,49.8L34.2,49.8z"/>
		<path class="st6" d="M64.8,58.2c0.7,0.1,1.2,0.2,1.6,0.2c0-0.1,0.1-0.5,0.1-1.1H66C65.7,57.6,65.3,57.9,64.8,58.2z"/>
		<path class="st6" d="M55.3,54.5c0,0,0.3,0,0.4-0.4c0,0,0-0.1,0-0.2l-0.9,0.5C54.9,54.5,55.1,54.5,55.3,54.5z"/>
		<path class="st6" d="M66.5,54.6c-0.2-0.3-0.2-0.7,0-1.1c2.3-3.4,3.7-7.4,4.1-11.5c0,0-12.6,1.5-13.1,1.5s-0.8-0.6-1.1-0.8
			s0.2,0.5-3.2-2c-3.8-2.9-13-8.6-14-9.2s-1-0.5-1-0.5c-0.5,3.1-0.7,6.3-0.8,9.5c-0.1,2.7-0.3,9.2-0.3,9.2c0,0.1-0.1,0.1-0.2,0.2
			l0.3,0.2c0.1-0.3,0.3-0.6,0.6-0.8c0.5-0.5,1.3-0.6,1.9-0.3c0.1,0,0.2,0.1,0.2,0.1c-0.3-0.8-0.6-1.6-0.6-2.4
			c-0.3-2.6,0.5-3.2,0.5-3.2c-0.8-1.3,0.3-1.4,0.3-1.4c1.7-0.3,3.5-0.2,5.2,0.5c1.3,0.5,3.5,1.3,4.1,4s-0.4,3.5-0.4,3.5L48.8,50
			c-1.1,1.5-2.9,2.2-4.7,1.9c-0.3,0.1-0.7,0.1-1-0.1c-0.2-0.1-0.5-0.2-0.7-0.3c0.1,0.3,0.1,0.5,0,0.8c6.3,2.3,12.8,3.9,19.5,4.8
			c0.1-0.4,0.3-0.7,0.6-1c-0.3,0.1-0.7,0.1-1,0.1c-1.8,0-3.4-1.3-3.7-3.1c0,0,0.1-0.4-0.4-0.4c-0.1-0.3-0.1-0.5,0-0.8
			c0.1-0.2,0.1-0.8,0.5-1.2s0.5-1.4,2.4-2.4s5.7-1.2,6.7,0.3c0,0,0.2,0.3-0.2,0.5s-0.7,0.2-0.8,0.9c-0.2,1.6-0.7,3.1-1.6,4.4
			c0,0.1-0.1,0.2-0.2,0.3c0.5-0.4,1.2-0.3,1.7,0.2c0.9,1.1,0.7,1.9,0.3,2.2l-0.3,0.2h0.6C66.6,56.5,66.7,55.6,66.5,54.6z M48.7,42.9
			c-0.5-0.3-2.4-1.7-3.4-2.3s-3.7-2-3.7-2l-0.4-0.1c0-0.4,0.3-0.4,0.6-0.4s1.1,0,1.1,0h0.8l1.4,0.7c0.1,0,0.2,0.1,0.3,0.1
			c0.8,0.4,1.5,0.8,2.2,1.3c0.6,0.4,4,2.7,4,2.7s-0.1,0.1,0.2,0.6c0.5,0.6,1,1.2,1.6,1.7l0.1,0.2c0.2,0.2,0.5,0.4,0.8,0.5
			c0.7,0.4,0.8,0.6,0.7,0.7s-1-0.4-1.7-0.9c-1.4-1.1-1.5-0.8-1.9-0.9s-1.1-0.9-1.3-0.9C49.6,43.5,49.1,43.2,48.7,42.9z M56.3,53.6
			L56.3,53.6c0,0.3-0.1,0.6-0.1,0.7s-0.1,0.5-0.1,0.5s0.2,0.3-0.3,0.4c-1,0.1-2,0-2.9-0.2c-0.9-0.3-1.8-0.8-2.6-1.5
			c-0.5-0.5,0.7-0.6,1.5-0.6c0.3-0.4,0.8-0.6,1.3-0.6c0,0,0.3-3.3,1.4-3.9c0.6-0.5,1.5-0.4,1.9,0.2c0.1,0.1,0.2,0.2,0.2,0.4
			C57.2,50.6,57,52.2,56.3,53.6z M67,46.5c-0.7-0.2-1.3-0.3-2-0.3c-0.8,0-4.6,0-5.6,0.2c-0.9,0.2-1.9,0.4-2.8,0.4
			c-0.5,0-1-0.1-0.8-0.3c0.8-0.2,1.5-0.4,2.3-0.4l0.6-0.1c0.1-0.3,0.4-0.5,0.7-0.6c0.6-0.1,2.3-0.4,2.6-0.4c1.4-0.2,2.8-0.2,4.2-0.1
			c1.5,0.3,1.6,1.3,1.4,1.5C67.4,46.5,67.2,46.5,67,46.5z"/>
		<path d="M53.3,45.5c0.7,0.5,1.6,1,1.7,0.9s0-0.3-0.7-0.7c-0.3-0.1-0.6-0.3-0.8-0.5L53.3,45c-0.6-0.5-1.2-1-1.7-1.6
			c-0.3-0.5-0.2-0.6-0.2-0.6s-3.3-2.3-4-2.7c-0.7-0.5-1.4-0.9-2.2-1.3c-0.1,0-0.2,0-0.3-0.1l-1.4-0.7h-0.8c0,0-0.8,0-1.1,0
			s-0.6,0.1-0.6,0.4l0.4,0.1c0,0,2.8,1.4,3.7,2s2.9,2,3.4,2.3c0.4,0.3,0.9,0.6,1.4,0.8c0.2,0,1,0.8,1.3,0.9S51.9,44.5,53.3,45.5z"/>
		<path d="M67.6,46.3c0.1-0.2,0-1.2-1.4-1.5c-1.4-0.2-2.8-0.2-4.2,0.1c-0.4,0-2.1,0.3-2.6,0.4c-0.3,0.1-0.6,0.3-0.7,0.6L58.1,46
			c-0.8,0-1.6,0.2-2.3,0.4c-0.2,0.3,0.4,0.3,0.8,0.3c1,0,1.9-0.1,2.8-0.4c1-0.2,4.8-0.2,5.6-0.2c0.7,0,1.3,0.1,2,0.3
			C67.3,46.5,67.5,46.5,67.6,46.3z"/>
		<path class="st0" d="M41.3,53.5c0.2-0.1,0.3-0.1,0.5-0.2l-3.3-0.8C39.3,53.3,40.2,53.8,41.3,53.5z"/>
		<path class="st0" d="M37.8,51.8c0.2,0.2,0.4,0.4,0.6,0.6l3.3,0.8c0.3-0.2,0.6-0.6,0.7-1c-2.5-0.9-4.1-1.5-4.1-1.5
			s-0.4-0.2-0.9-0.5C37.2,50.7,37.4,51.4,37.8,51.8z"/>
		<path class="st0" d="M42.4,52.2c0.1-0.3,0.1-0.5,0-0.8c-1-0.5-1.8-1.3-2.3-2.2c-0.1-0.1-0.1-0.1-0.2-0.1c-0.6-0.3-1.4-0.2-1.9,0.3
			c-0.3,0.2-0.5,0.5-0.6,0.8c0.4,0.3,0.9,0.5,0.9,0.5S39.9,51.4,42.4,52.2z"/>
		<path d="M42.3,51.2c0.1,0.1,0.1,0.2,0.1,0.3c0.2,0.1,0.5,0.2,0.7,0.3c0.3,0.1,0.7,0.2,1,0.1c1.8,0.3,3.6-0.4,4.7-1.9l0.4,0.2
			c0,0,0.9-0.9,0.4-3.5s-2.8-3.5-4.1-4c-1.7-0.6-3.5-0.8-5.2-0.5c0,0-1.1,0.1-0.3,1.4c0,0-0.8,0.7-0.5,3.2c0.1,0.8,0.3,1.6,0.6,2.4
			C41,49.7,41.7,50.4,42.3,51.2z M43.9,47.9L43.9,47.9c-0.2,0.1-0.3,0.2-0.5,0.2c-0.5,0-0.9-0.4-0.9-0.9s0.4-0.9,0.9-0.9
			c0.4,0,0.7,0.2,0.8,0.6c0.3-1.2,0-2.4-0.7-3.3c-0.2-0.2-0.2-0.4,0.4-0.3c0.8,0.1,1.5,0.2,2.3,0.5c0.3,0.2,0.6,0.4,0.8,0.6
			c0,0,0.3-0.1,0.4,0.3c1,0.9,1.5,2.2,1.5,3.6c0,0-0.7,0.9-0.5,1.3c-0.3,0.1-0.5,0.4-0.6,0.7c-0.2,0.4-2.4,1-3.5,0.7
			c-0.9-0.1-1.7-0.6-2.3-1.2C41.9,49.8,43.6,48.9,43.9,47.9z"/>
		<path d="M42.4,51.5c0-0.1-0.1-0.2-0.1-0.3c-0.6-0.8-1.4-1.4-2.2-2C40.6,50.2,41.4,51,42.4,51.5z"/>
		<path class="st7" d="M44.2,51c1.1,0.3,3.4-0.3,3.5-0.7c0.1-0.3,0.3-0.5,0.6-0.7c-0.2-0.4,0.5-1.3,0.5-1.3c0-1.4-0.5-2.7-1.5-3.6
			c0-0.4-0.4-0.3-0.4-0.3c-0.2-0.2-0.5-0.4-0.8-0.6c-0.7-0.3-1.5-0.4-2.3-0.5c-0.6-0.1-0.6,0.1-0.4,0.3c0.7,0.9,1,2.2,0.7,3.3
			c0.1,0.4,0,0.8-0.3,1l0,0c-0.2,1-2,1.9-2,1.9C42.5,50.4,43.3,50.9,44.2,51z"/>
		<path class="st7" d="M43.3,46.3c-0.5,0.1-0.8,0.5-0.8,1c0,0.4,0.4,0.7,0.8,0.8c0.2,0,0.4-0.1,0.5-0.2c0.1-0.3,0.2-0.7,0.3-1
			C44,46.5,43.7,46.3,43.3,46.3z"/>
		<path class="st7" d="M44.2,47.2c0-0.1,0-0.2,0-0.3c-0.1,0.3-0.2,0.7-0.3,1C44.1,47.7,44.2,47.5,44.2,47.2z"/>
		<path class="st0" d="M62,58.2c0.3,0.5,0.8,0.8,1.4,0.7c0.5-0.1,1-0.3,1.4-0.7c-0.8-0.1-1.8-0.3-3-0.6C61.9,57.8,61.9,58,62,58.2z"
			/>
		<path class="st0" d="M61.9,57.7c1.1,0.2,2.2,0.4,3,0.6c0.4-0.3,0.9-0.7,1.2-0.9c-1.3,0-2.7-0.1-4.1-0.3
			C61.8,57.3,61.8,57.5,61.9,57.7z"/>
		<path class="st0" d="M66.3,57.1c0.4-0.3,0.6-1.1-0.3-2.2c-0.4-0.5-1.1-0.6-1.7-0.2c-0.1,0.2-0.2,0.3-0.4,0.4c-0.3,0.2,0,0.3,0,0.3
			c-0.5,0.2-0.9,0.4-1.4,0.5c-0.3,0.3-0.5,0.6-0.6,1c1.4,0.2,2.8,0.3,4.1,0.3L66.3,57.1z"/>
		<path d="M62.8,55.7c0.5-0.4,1-0.7,1.5-1c0.1-0.1,0.1-0.2,0.2-0.3c0.9-1.3,1.4-2.8,1.6-4.4c0.1-0.7,0.4-0.6,0.8-0.9
			s0.2-0.5,0.2-0.5c-1-1.5-4.8-1.3-6.7-0.3s-2,2-2.4,2.4s-0.4,0.9-0.5,1.2c-0.1,0.3-0.1,0.5,0,0.8c0.5,0,0.4,0.4,0.4,0.4
			c0.3,1.8,1.9,3.1,3.7,3.1c0.3,0,0.7,0,1-0.1C62.7,55.9,62.7,55.8,62.8,55.7z M59.8,54.8c0,0-0.2-0.2,0.4-0.4
			c0.5-0.3,0.9-0.6,1.2-1.1l0.1-0.2c-0.1,0-0.2,0.1-0.3,0.1c-0.5,0.1-0.9-0.3-0.9-0.8c-0.1-0.5,0.3-0.9,0.8-0.9c0.1,0,0.1,0,0.2,0
			c0.3,0,0.6,0.2,0.8,0.5c0.1-1-0.2-2.1-0.8-2.9c0,0,0.2-0.2,0.4,0.1s0.5-0.4,0.5-0.4c0.4-0.1,0.7-0.2,1.1-0.2c0.3,0,0.5,0,0.8,0
			c0.5,0.1,0.9,0.2,1.4,0.3c0.2,0.1,0.3,0.6,0.1,1.3c-0.3,1.6-0.9,3.1-1.9,4.5c-0.3,0.1-0.7,0.3-0.9,0.5
			C61.6,55.3,60.6,55.2,59.8,54.8z"/>
		<path d="M64,55.1c0.1-0.1,0.3-0.3,0.4-0.4c-0.5,0.3-1,0.6-1.5,1c-0.1,0.1-0.2,0.2-0.3,0.3c0.5-0.1,1-0.3,1.4-0.5
			C64,55.5,63.7,55.3,64,55.1z"/>
		<path class="st7" d="M63.5,54.6c1-1.3,1.6-2.8,1.9-4.5c0.1-0.7,0.1-1.2-0.1-1.3c-0.5-0.1-0.9-0.2-1.4-0.3c-0.3,0-0.5,0-0.8,0
			c-0.4,0-0.8,0.1-1.1,0.2c0,0-0.3,0.7-0.5,0.4S61,49,61,49c0.6,0.8,0.9,1.9,0.8,2.9c0.1,0.1,0.1,0.3,0.1,0.4c0,0.3-0.2,0.6-0.5,0.8
			l-0.1,0.2c-0.3,0.5-0.7,0.9-1.2,1.1c-0.5,0.3-0.4,0.4-0.4,0.4c0.9,0.4,1.9,0.5,2.8,0.3C62.8,54.9,63.2,54.7,63.5,54.6z"/>
		<path class="st7" d="M61.8,51.9c-0.1-0.3-0.4-0.4-0.8-0.5c-0.5-0.1-0.9,0.3-0.9,0.8c-0.1,0.5,0.3,0.9,0.8,0.9c0.1,0,0.1,0,0.2,0
			c0.1,0,0.2,0,0.3-0.1L61.8,51.9L61.8,51.9z"/>
		<path class="st7" d="M61.9,52.3c0-0.1,0-0.3-0.1-0.4l0,0l-0.4,1.2C61.7,53,61.9,52.7,61.9,52.3z"/>
		<path class="st0" d="M54.5,48.5c-1,0.6-1.4,3.9-1.4,3.9c-0.5,0-1,0.2-1.3,0.6h0.5c0.5,0,1.5,0.2,1.6,0.5s-0.1,0.5-0.2,0.5
			c-0.7-0.3-1.4-0.4-2.1-0.4c-0.7,0.2,1.3,0.7,1.3,0.7s1.1,0.2,1.8,0.2l0.9-0.5c0.1-0.5,0.1-1.4,0.1-1.4c0-0.6,0-1.1,0.3-1.3
			s0.3,0,0.3,0.6c0,0.6,0,1.2-0.1,1.7l0,0c0.7-1.4,0.8-3,0.3-4.5c-0.3-0.7-1-1.1-1.8-0.8C54.7,48.3,54.6,48.4,54.5,48.5z"/>
		<path d="M55.7,54.1c-0.1,0.4-0.4,0.4-0.4,0.4c-0.2,0-0.3,0-0.5,0l-0.4,0.2c-0.8,0.2-1.6,0.1-2.4-0.2c-0.8-0.4-1.3-0.6-0.6-1.1
			c0.2-0.1,0.3-0.3,0.5-0.4c-0.8,0-2,0.1-1.5,0.6c0.7,0.7,1.6,1.2,2.6,1.5c0.9,0.2,1.9,0.3,2.9,0.2c0.5-0.1,0.3-0.4,0.3-0.4
			s0.1-0.4,0.1-0.5s0-0.3,0.1-0.7L55.7,54C55.7,54,55.7,54.1,55.7,54.1z"/>
		<path d="M52,54.5c0.8,0.3,1.6,0.4,2.4,0.2l0.4-0.2c-0.8-0.1-1.8-0.2-1.8-0.2s-2.1-0.6-1.3-0.7c0.7,0,1.4,0.1,2.1,0.4
			c0.2,0,0.3-0.2,0.2-0.5s-1.1-0.4-1.6-0.5h-0.5c-0.1,0.1-0.3,0.3-0.5,0.4C50.7,53.8,51.2,54,52,54.5z"/>
		<path d="M56.4,51.9c0-0.6,0-0.8-0.3-0.6s-0.3,0.7-0.3,1.3c0,0,0,0.9-0.1,1.4l0.6-0.3C56.4,53,56.4,52.4,56.4,51.9z"/>
		<path d="M31.7,45.6c-0.4-0.3-1.1-0.7-1.4-0.2s0.5,0.5,0.5,0.5l0.1,0.3c-0.5,0.5,0,2.5,0,2.5l0.6-0.2c-0.1-2.1,0.1-1.8,0.1-1.8
			c0.9,1,1.8,2,2.6,3c0.3,0.1,0.3-0.7,0.3-0.7C33.8,47.8,32.8,46.6,31.7,45.6z"/>
		<path d="M55.4,57.9c-0.6-0.2-1.1-0.3-1.7-0.3c-1.6-0.2-3.3-0.6-4.8-1.1c-0.7-0.4-1.5-0.6-2.2-0.8c-1-0.3-1.4-1-1.4-1.2
			s0.3-0.5-0.1-0.4c-0.9,0-1.8,0.3-2.5,0.8c0,0,0.1,0.2,0.6,0.1c0.4-0.2,0.9-0.2,1.3-0.2c0.8,0.9,1.6,1.8,2.4,2.6
			c0,0.2,0.1,0.5,0.3,0.6l0.3,0.2c0,0,2.6,2.2,3.2,2.5c0.8,0.3,1.6,0.2,2.3-0.3l1.7-1.6c1.1,0,2.2,0,3.3-0.1
			c0.5-0.2,0.6-0.4,0.6-0.6S56,58,55.4,57.9z M53.7,58.5h-0.4c-0.2,0.3-0.6,0.4-1,0.4c-0.5-0.1-1-0.2-1.5-0.3l-0.1-0.3
			c-0.2,0.1-0.4,0.1-0.7,0.1c-0.3-0.1-0.8-0.9-0.8-0.9v-0.3c1.5,0.6,3.1,1,4.7,1.1L53.7,58.5z"/>
		<path class="st7" d="M49.2,57.4c0,0,0.5,0.8,0.8,0.9c0.2,0.1,0.5,0,0.7-0.1l0.1,0.3c0.5,0.1,1,0.2,1.5,0.3c0.4,0.1,0.8-0.1,1-0.4
			h0.4l0.2-0.3c-1.6-0.1-3.2-0.5-4.7-1.1L49.2,57.4z"/>
		<path class="st3" d="M34.7,58.1c-0.2,0-0.1,0.4-0.1-1.2c0.1-1.1-0.2-2.1-0.8-3c-0.1-0.2-0.3-0.4-0.4-0.6L33,53.5
			c0.2,0.2,0.4,0.5,0.5,0.8c0.3,0.7,0.5,1.5,0.5,2.3c0.1,1.9-1.1,3.5-2.8,4.2c-0.6,0.2-0.6-0.1-0.6-0.1s0.1-0.1,0.2-0.2
			c-0.7,0.1-1.4,0.1-2.1-0.1c-0.3,0-0.7,0-1,0.1c0,0-0.1,0-0.5-0.2l-0.3,0.3c-0.4-0.2-0.8-0.5-1.1-0.8c-0.7-0.9-1.2-1.9-1.3-3
			c-0.1-1,0.2-2,0.9-2.7c0.2-0.3,1.5-1.5,1.6-1.2c0,0,0,0.1,0,0.2c0.2-0.1,0.4-0.2,0.5-0.2c0.1,0,0.2-0.1,0.3-0.1
			c0.2-0.3,0.6-0.5,1-0.5c0.4,0,0.8,0,1,0c-0.2-0.3-0.3-0.6-0.4-0.9c0,0,0-0.1,0-0.1c-0.5,0-1.1,0.1-1.1,0.1s-1.8,0.9-2.1,1
			s-0.6,0.4-0.8,0.7c-0.6,0.6-1.1,1.3-1.3,2.1c-0.2,1.1-0.2,2.2,0,3.3l0.3,0.8H24c0.5,1,1.4,1.9,2.4,2.4h0.8
			c0.3,0.1,0.5,0.2,0.8,0.3l0,0c0.1-0.2,0.4,0,1.6,0c0.9,0,1.8-0.3,2.6-0.8c0.5-0.4,1-0.7,1.5-1.2c0,0,0.1-0.1,0.1,0c0,0,0,0,0,0
			c0.3-0.2,0.5-0.3,0.5-0.3l0.4-0.6c0.2-0.3,0.3-0.7,0.3-1.1C34.8,58,34.8,58.1,34.7,58.1z"/>
		<path class="st3" d="M29.9,51.6c-0.1-0.2-0.2-0.4-0.4-0.6h-0.3c0,0,0,0,0,0.1c0.1,0.3,0.2,0.6,0.4,0.9l0.3,0L29.9,51.6z"/>
		<path class="st3" d="M32.8,52.7l-0.3,0.2c0.2,0.2,0.3,0.4,0.5,0.6l0.5-0.2l-0.2-0.2C33.1,53,33,52.8,32.8,52.7z"/>
		<path class="st3" d="M33.3,53.1c-0.1-0.1-0.3-0.3-0.4-0.4l0,0C33,52.8,33.1,53,33.3,53.1z"/>
		<path class="st3" d="M31.9,52.5c0,0.4,0.4,0.2,0.4,0.2c0.1,0.1,0.2,0.2,0.3,0.3l0.3-0.2l-0.1-0.1h0.1c-0.2-0.2-0.5-0.4-0.5-0.4
			c0-0.1,0-0.1,0-0.2c0-0.1-0.1-0.2-0.2-0.2C32,52,31.9,52.2,31.9,52.5z"/>
		<path class="st3" d="M32.7,52.6l0.1,0.1l0,0l0,0L32.7,52.6z"/>
		<path d="M27.8,52.7c0.7-0.2,1.4-0.3,2.2-0.3l-0.2-0.2c-0.7,0-1.5,0.2-2.2,0.4C27.6,52.7,27.6,52.7,27.8,52.7z"/>
		<path d="M29.8,52.2l0.2,0.2h0.3L30.1,52H30l0.1,0.2L29.8,52.2z"/>
		<path d="M29.7,52c-0.2,0-0.6,0-1,0c-0.4,0-0.8,0.2-1,0.5c0.7-0.2,1.4-0.4,2.2-0.4L29.7,52z"/>
		<path d="M30.1,52.1L30,52h-0.3l0.1,0.2L30.1,52.1z"/>
		<path d="M24.5,53.3c1.2-1.5,2.9-2.4,4.8-2.5c0-0.1,0-0.3-0.1-0.4c-0.7,0.1-1.3,0.2-1.9,0.4c-0.6,0.3-1.1,0.6-1.5,1.1
			c-0.4,0.2-0.7,0.4-1,0.7c-0.4,0.4-0.8,0.9-1.1,1.3c-0.4,0-0.5,0.9-0.5,2.3c0.1,1,0.3,2,0.6,3h0.2c-0.1-0.1-0.1-0.2-0.1-0.4
			C23.4,57.1,23.1,54.8,24.5,53.3z"/>
		<path d="M29.3,50.8c0.1,0,0.2,0.1,0.2,0.1l0,0c0,0,0-0.5-0.2-0.5h-0.1C29.2,50.6,29.2,50.7,29.3,50.8L29.3,50.8z"/>
		<path d="M23.9,58.3c-0.2-1.1-0.2-2.2,0-3.3c0.2-0.9,0.7-1.7,1.3-2.3c0.2-0.3,0.5-0.6,0.8-0.7s2.1-1,2.1-1s0.6-0.1,1.1-0.1
			c0,0,0-0.1,0-0.1c-1.9,0.1-3.6,1-4.8,2.5c-1.3,1.5-1.1,3.8-0.6,5.5c0,0.1,0.1,0.2,0.1,0.4h0.2L23.9,58.3z"/>
		<path d="M29.3,50.8L29.3,50.8c0,0,0,0.1,0,0.1h0.3C29.5,50.9,29.4,50.9,29.3,50.8z"/>
		<path d="M25.5,58.3c-0.4-0.7-0.6-1.6-0.4-2.5c0.1-0.6,0.4-1.2,0.7-1.7l0.4-0.5c0.3-0.3,0.8-0.6,0.8-0.8c-1.2,0.7-2,1.8-2.2,3.2
			c-0.1,1.2,0.3,2.3,1.2,3.1c0.4,0.4,0.8,0.7,1.3,1l0,0C26.4,59.8,25.8,59.1,25.5,58.3z"/>
		<path d="M24.7,56.1c0.2-1.3,1.1-2.5,2.2-3.2c0,0,0-0.1,0-0.2c-0.2-0.3-1.4,0.9-1.6,1.2c-0.6,0.8-0.9,1.7-0.9,2.7
			c0.1,1.1,0.6,2.1,1.3,3c0.4,0.3,0.7,0.5,1.1,0.8l0.3-0.3c-0.5-0.3-0.9-0.6-1.3-1C25,58.4,24.6,57.2,24.7,56.1z"/>
		<path d="M33,58.8c0.4-0.9,0.8-3.5,0.1-4.7c-0.1-0.2-0.2-0.4-0.3-0.5l0,0c0.2,0.3,0.4,0.6,0.5,1c0.1,0.9,0.1,1.7,0.1,2.6
			c-0.2,0.8-0.5,1.6-1.1,2.2c-0.5,0.4-1,0.7-1.5,1l0.2-0.1C31.8,60.2,32.5,59.6,33,58.8z"/>
		<path d="M34.9,57.8c0.1-0.3,0.1-0.7,0.1-1l0,0c0-0.1-0.1-0.2-0.1-0.2C34.9,57,34.9,57.4,34.9,57.8z"/>
		<path d="M33.7,53.2L33.7,53.2c0.5,0.6,0.9,1.4,1.1,2.3c0.1,0.3,0.1,0.7,0.1,1c0,0.1,0.1,0.2,0.1,0.2c0-1.1-0.3-2.1-1-3
			C34,53.6,33.8,53.4,33.7,53.2z"/>
		<path d="M33.3,52.9l0.2,0.1c-0.1-0.2-0.3-0.3-0.5-0.4l-0.1,0C33.1,52.7,33.2,52.8,33.3,52.9z"/>
		<path d="M32.4,53L32.4,53c0.1,0.2,0.3,0.4,0.4,0.6l0,0C32.6,53.3,32.5,53.1,32.4,53z"/>
		<path d="M33.6,53.3L33.6,53.3L33.5,53l-0.2-0.1C33.4,53,33.5,53.1,33.6,53.3z"/>
		<path d="M32.4,51.6c-0.3,0-0.6,0.2-0.7,0.5c-0.1,0.3-0.2,0.6,0.4,0.8c0.1,0,0.1,0.1,0.2,0.1h0.1c0-0.1-0.1-0.1-0.2-0.2
			c0,0-0.7-0.2-0.4-0.6c0.1-0.2,0.2-0.2,0.3-0.2s0.1,0,0.2,0c0,0.1,0,0.1,0,0.2v0.1c0,0,0.2,0.2,0.5,0.4l0.1,0
			c-0.1-0.1-0.3-0.2-0.5-0.3C32.4,52.2,32.8,51.7,32.4,51.6z"/>
		<path d="M34.9,56.5c-0.1-0.3-0.2-0.5-0.2-0.5c-0.1-1-0.5-2-1.2-2.7l0,0c0.1,0.2,0.3,0.4,0.4,0.6c0.6,0.9,0.8,1.9,0.8,3
			c0,1.6-0.1,1.2,0.1,1.2s0.1-0.1,0.2-0.3C35,57.4,35,57,34.9,56.5z"/>
		<path d="M33.1,54.1c0.7,1.2,0.4,3.7-0.1,4.7c-0.5,0.8-1.2,1.3-2.1,1.5l-0.2,0.1c-0.1,0.1-0.2,0.2-0.2,0.2s0,0.3,0.6,0.1
			c1.8-0.6,2.9-2.3,2.9-4.2c0-0.8-0.2-1.6-0.5-2.3c-0.1-0.3-0.3-0.6-0.5-0.8l-0.2,0.1C32.9,53.7,33,53.9,33.1,54.1z"/>
		<path d="M34.7,56c0,0,0.1,0.2,0.2,0.5c0-0.3-0.1-0.7-0.1-1c-0.2-0.9-0.6-1.7-1.2-2.3l-0.1,0C34.2,54,34.7,55,34.7,56z"/>
		<path d="M33.5,53.3L33.5,53.3c-0.1-0.1-0.1-0.1-0.2-0.2L33.5,53.3z"/>
		<path d="M32.4,53c0.1,0.1,0.2,0.3,0.4,0.6l0.2-0.1c-0.2-0.2-0.3-0.4-0.5-0.6L32.4,53z"/>
		<path d="M33.3,52.9c-0.1-0.1-0.2-0.2-0.3-0.3l-0.1,0.1L33.3,52.9z"/>
		<path d="M33.3,52.9l-0.4-0.2l0,0c0.1,0.1,0.3,0.3,0.4,0.4c0.1,0.1,0.2,0.1,0.2,0.2l0.1,0C33.5,53.1,33.4,53,33.3,52.9z"/>
		<path d="M32.8,52.7L32.8,52.7l0.1-0.1c-0.3-0.3-0.5-0.4-0.5-0.4v-0.1c0,0.1,0,0.1,0,0.2C32.4,52.3,32.6,52.5,32.8,52.7z"/>
		<path d="M32.3,52.6c0,0-0.4,0.2-0.4-0.2c0-0.2,0.1-0.4,0.3-0.5c-0.1,0-0.2,0-0.3,0.2c-0.4,0.4,0.4,0.6,0.4,0.6
			c0.1,0.1,0.1,0.1,0.2,0.2l0.2-0.1C32.5,52.8,32.4,52.7,32.3,52.6z"/>
		<path d="M32.9,52.7L32.9,52.7L32.9,52.7z"/>
		<path d="M33.1,60.5c-0.7,0.9-1.8,1.4-2.9,1.5c-0.8,0.1-1.6,0-2.3-0.2c0,0.2,0.3,0.4,0.6,0.4c0,0,0.5,0,1.3,0
			c0.8,0,1.5-0.2,2.1-0.6c0.7-0.4,1.3-0.9,1.7-1.5c0.1-0.2,0-0.2,0-0.3C33.5,60.1,33.1,60.3,33.1,60.5z"/>
		<path d="M33.6,59.9c-0.5,0.4-1,0.8-1.5,1.2c-0.8,0.4-1.7,0.7-2.6,0.8c-1.2,0-1.5-0.2-1.6,0l0,0c0.7,0.2,1.5,0.3,2.3,0.2
			c1.1-0.1,2.2-0.6,2.9-1.5c0-0.1,0.3-0.4,0.6-0.6C33.7,59.8,33.7,59.8,33.6,59.9C33.6,59.8,33.6,59.9,33.6,59.9z"/>
	</g>
</g>
</svg>
